  0
SECTION
  2
HEADER
  9
$ACADVER
  1
AC1009
  9
$DWGCODEPAGE
  3
ansi_1252
  9
$INSBASE
 10
0.0
 20
0.0
 30
0.0
  9
$EXTMIN
 10
1.531353449028238
 20
1.372194808947555
 30
0.0
  9
$EXTMAX
 10
81.53136983791711
 20
70.65422258672533
 30
0.0
  9
$LIMMIN
 10
0.0
 20
0.0
  9
$LIMMAX
 10
12.0
 20
9.0
  9
$ORTHOMODE
 70
     0
  9
$REGENMODE
 70
     1
  9
$FILLMODE
 70
     1
  9
$QTEXTMODE
 70
     0
  9
$MIRRTEXT
 70
     1
  9
$DRAGMODE
 70
     2
  9
$LTSCALE
 40
1.0
  9
$OSMODE
 70
    37
  9
$ATTMODE
 70
     1
  9
$TEXTSIZE
 40
0.2
  9
$TRACEWID
 40
0.05
  9
$TEXTSTYLE
  7
STANDARD
  9
$CLAYER
  8
DEFAULT
  9
$CELTYPE
  6
BYLAYER
  9
$CECOLOR
 62
   256
  9
$DIMSCALE
 40
1.0
  9
$DIMASZ
 40
0.18
  9
$DIMEXO
 40
0.0625
  9
$DIMDLI
 40
0.38
  9
$DIMRND
 40
0.0
  9
$DIMDLE
 40
0.0
  9
$DIMEXE
 40
0.18
  9
$DIMTP
 40
0.0
  9
$DIMTM
 40
0.0
  9
$DIMTXT
 40
0.18
  9
$DIMCEN
 40
0.09
  9
$DIMTSZ
 40
0.0
  9
$DIMTOL
 70
     0
  9
$DIMLIM
 70
     0
  9
$DIMTIH
 70
     1
  9
$DIMTOH
 70
     1
  9
$DIMSE1
 70
     0
  9
$DIMSE2
 70
     0
  9
$DIMTAD
 70
     0
  9
$DIMZIN
 70
     0
  9
$DIMBLK
  1

  9
$DIMASO
 70
     1
  9
$DIMSHO
 70
     1
  9
$DIMPOST
  1

  9
$DIMAPOST
  1

  9
$DIMALT
 70
     0
  9
$DIMALTD
 70
     2
  9
$DIMALTF
 40
25.4
  9
$DIMLFAC
 40
1.0
  9
$DIMTOFL
 70
     0
  9
$DIMTVP
 40
0.0
  9
$DIMTIX
 70
     0
  9
$DIMSOXD
 70
     0
  9
$DIMSAH
 70
     0
  9
$DIMBLK1
  1

  9
$DIMBLK2
  1

  9
$DIMSTYLE
  2
STANDARD_ACAD
  9
$DIMCLRD
 70
     0
  9
$DIMCLRE
 70
     0
  9
$DIMCLRT
 70
     0
  9
$DIMTFAC
 40
1.0
  9
$DIMGAP
 40
0.09
  9
$LUNITS
 70
     2
  9
$LUPREC
 70
     3
  9
$SKETCHINC
 40
0.1
  9
$FILLETRAD
 40
0.0
  9
$AUNITS
 70
     0
  9
$AUPREC
 70
     0
  9
$MENU
  1
.
  9
$ELEVATION
 40
0.0
  9
$PELEVATION
 40
0.0
  9
$THICKNESS
 40
0.0
  9
$LIMCHECK
 70
     0
  9
$CHAMFERA
 40
0.0
  9
$CHAMFERB
 40
0.0
  9
$SKPOLY
 70
     0
  9
$TDCREATE
 40
2460762.705158114
  9
$TDUPDATE
 40
2460762.705373924
  9
$TDINDWG
 40
0.0000000116
  9
$TDUSRTIMER
 40
0.0000000116
  9
$USRTIMER
 70
     1
  9
$ANGBASE
 50
0.0
  9
$ANGDIR
 70
     0
  9
$PDMODE
 70
     0
  9
$PDSIZE
 40
0.0
  9
$PLINEWID
 40
0.0
  9
$COORDS
 70
     1
  9
$SPLFRAME
 70
     0
  9
$SPLINETYPE
 70
     6
  9
$SPLINESEGS
 70
     8
  9
$ATTDIA
 70
     0
  9
$ATTREQ
 70
     1
  9
$HANDLING
 70
     1
  9
$HANDSEED
  5
255
  9
$SURFTAB1
 70
     6
  9
$SURFTAB2
 70
     6
  9
$SURFTYPE
 70
     6
  9
$SURFU
 70
     6
  9
$SURFV
 70
     6
  9
$UCSNAME
  2

  9
$UCSORG
 10
0.0
 20
0.0
 30
0.0
  9
$UCSXDIR
 10
1.0
 20
0.0
 30
0.0
  9
$UCSYDIR
 10
0.0
 20
1.0
 30
0.0
  9
$PUCSNAME
  2

  9
$PUCSORG
 10
0.0
 20
0.0
 30
0.0
  9
$PUCSXDIR
 10
1.0
 20
0.0
 30
0.0
  9
$PUCSYDIR
 10
0.0
 20
1.0
 30
0.0
  9
$USERI1
 70
     0
  9
$USERI2
 70
     0
  9
$USERI3
 70
     0
  9
$USERI4
 70
     0
  9
$USERI5
 70
     0
  9
$USERR1
 40
0.0
  9
$USERR2
 40
0.0
  9
$USERR3
 40
0.0
  9
$USERR4
 40
0.0
  9
$USERR5
 40
0.0
  9
$WORLDVIEW
 70
     1
  9
$SHADEDGE
 70
     3
  9
$SHADEDIF
 70
    70
  9
$TILEMODE
 70
     1
  9
$MAXACTVP
 70
    64
  9
$PLIMCHECK
 70
     0
  9
$PEXTMIN
 10
1.000000000000000E+20
 20
1.000000000000000E+20
 30
1.000000000000000E+20
  9
$PEXTMAX
 10
-1.000000000000000E+20
 20
-1.000000000000000E+20
 30
-1.000000000000000E+20
  9
$PLIMMIN
 10
0.0
 20
0.0
  9
$PLIMMAX
 10
12.0
 20
9.0
  9
$UNITMODE
 70
     0
  9
$VISRETAIN
 70
     1
  9
$PLINEGEN
 70
     0
  9
$PSLTSCALE
 70
     1
  0
ENDSEC
  0
SECTION
  2
TABLES
  0
TABLE
  2
VPORT
 70
     1
  0
VPORT
  2
*ACTIVE
 70
     0
 10
0.0
 20
0.0
 11
1.0
 21
1.0
 12
10.42990654205607
 22
4.5
 13
0.0
 23
0.0
 14
0.5
 24
0.5
 15
0.5
 25
0.5
 16
0.0
 26
0.0
 36
1.0
 17
0.0
 27
0.0
 37
0.0
 40
9.0
 41
1.972972972850329
 42
50.0
 43
0.0
 44
0.0
 50
0.0
 51
0.0
 71
     0
 72
   100
 73
     1
 74
     3
 75
     0
 76
     0
 77
     0
 78
     0
  0
ENDTAB
  0
TABLE
  2
LTYPE
 70
     1
  0
LTYPE
  2
CONTINUOUS
 70
     0
  3
Solid line
 72
    65
 73
     0
 40
0.0
  0
ENDTAB
  0
TABLE
  2
LAYER
 70
     2
  0
LAYER
  2
0
 70
     0
 62
     7
  6
CONTINUOUS
  0
LAYER
  2
DEFAULT
 70
     0
 62
     7
  6
CONTINUOUS
  0
ENDTAB
  0
TABLE
  2
STYLE
 70
     1
  0
STYLE
  2
STANDARD
 70
     0
 40
0.0
 41
1.0
 50
0.0
 71
     0
 42
0.2
  3
txt
  4

  0
ENDTAB
  0
TABLE
  2
VIEW
 70
     0
  0
ENDTAB
  0
TABLE
  2
UCS
 70
     0
  0
ENDTAB
  0
TABLE
  2
APPID
 70
     2
  0
APPID
  2
ACAD
 70
     0
  0
APPID
  2
RHINO
 70
     0
  0
ENDTAB
  0
TABLE
  2
DIMSTYLE
 70
     1
  0
DIMSTYLE
  2
STANDARD_ACAD
 70
     0
  3

  4

  5

  6

  7

 40
1.0
 41
0.18
 42
0.0625
 43
0.38
 44
0.18
 45
0.0
 46
0.0
 47
0.0
 48
0.0
140
0.18
141
0.09
142
0.0
143
25.4
144
1.0
145
0.0
146
1.0
147
0.09
 71
     0
 72
     0
 73
     1
 74
     1
 75
     0
 76
     0
 77
     0
 78
     0
170
     0
171
     2
172
     0
173
     0
174
     0
175
     0
176
     0
177
     0
178
     0
  0
ENDTAB
  0
ENDSEC
  0
SECTION
  2
BLOCKS
  0
BLOCK
  8
0
  2
$MODEL_SPACE
 70
     0
 10
0.0
 20
0.0
 30
0.0
  3
$MODEL_SPACE
  1

  0
ENDBLK
  5
21
  8
0
  0
BLOCK
 67
     1
  8
0
  2
$PAPER_SPACE
 70
     0
 10
0.0
 20
0.0
 30
0.0
  3
$PAPER_SPACE
  1

  0
ENDBLK
  5
1D
 67
     1
  8
0
  0
ENDSEC
  0
SECTION
  2
ENTITIES
  0
LINE
  5
60
  8
DEFAULT
 10
1.531353449028238
 20
1.372194808947555
 30
0.0
 11
81.53136983791711
 21
1.372194808947555
 31
0.0
  0
LINE
  5
61
  8
DEFAULT
 10
81.53136983791711
 20
1.372194808947555
 30
0.0
 11
81.53136983791711
 21
70.65422258672533
 31
0.0
  0
LINE
  5
62
  8
DEFAULT
 10
81.53136983791711
 20
70.65422258672533
 30
0.0
 11
1.531353449028238
 21
70.65422258672533
 31
0.0
  0
LINE
  5
63
  8
DEFAULT
 10
1.531353449028238
 20
70.65422258672533
 30
0.0
 11
1.531353449028238
 21
1.372194808947555
 31
0.0
  0
LINE
  5
64
  8
DEFAULT
 10
1.531353449028238
 20
27.35293758672533
 30
0.0
 11
16.53135872680602
 21
1.372194808947555
 31
0.0
  0
LINE
  5
65
  8
DEFAULT
 10
16.53135872680602
 20
1.372194808947555
 30
0.0
 11
66.53136456013934
 21
1.372194808947555
 31
0.0
  0
LINE
  5
66
  8
DEFAULT
 10
66.53136456013934
 20
1.372194808947555
 30
0.0
 11
81.53136983791711
 21
27.35293758672533
 31
0.0
  0
LINE
  5
67
  8
DEFAULT
 10
81.53136983791711
 20
27.35293758672533
 30
0.0
 11
56.53134928236157
 21
70.65422258672533
 31
0.0
  0
LINE
  5
68
  8
DEFAULT
 10
56.53134928236157
 20
70.65422258672533
 30
0.0
 11
26.53137400458379
 21
70.65422258672533
 31
0.0
  0
LINE
  5
69
  8
DEFAULT
 10
26.53137400458379
 20
70.65422258672533
 30
0.0
 11
1.531353449028238
 21
27.35293758672533
 31
0.0
  0
LINE
  5
6A
  8
DEFAULT
 10
12.00105706013935
 20
9.218889808947552
 30
0.0
 11
17.80403983791712
 21
7.704838142280888
 31
0.0
  0
LINE
  5
6B
  8
DEFAULT
 10
25.63722344902823
 20
1.372194808947555
 30
0.0
 11
21.36695428236157
 21
5.699014253392001
 31
0.0
  0
LINE
  5
6C
  8
DEFAULT
 10
35.69749317125046
 20
1.372194808947555
 30
0.0
 11
31.32541233791713
 21
6.072429531169774
 31
0.0
  0
LINE
  5
6D
  8
DEFAULT
 10
45.7653476156949
 20
1.372194808947555
 30
0.0
 11
41.31427983791713
 21
6.18242564228089
 31
0.0
  0
LINE
  5
6E
  8
DEFAULT
 10
55.65229761569491
 20
1.372194808947555
 30
0.0
 11
51.34851456013934
 21
6.099734531169773
 31
0.0
  0
LINE
  5
6F
  8
DEFAULT
 10
65.6522776156949
 20
1.372194808947555
 30
0.0
 11
61.36281733791712
 21
5.718452308947555
 31
0.0
  0
LINE
  5
70
  8
DEFAULT
 10
66.99350344902822
 20
2.172647586725329
 30
0.0
 11
65.39601983791712
 21
7.981557031169775
 31
0.0
  0
LINE
  5
71
  8
DEFAULT
 10
6.978454004583789
 20
17.918319253392
 30
0.0
 11
12.86070594902824
 21
16.38355953116977
 31
0.0
  0
LINE
  5
72
  8
DEFAULT
 10
71.97091567125045
 20
10.79372508672533
 30
0.0
 11
70.35166567125046
 21
16.681656753392
 31
0.0
  0
LINE
  5
73
  8
DEFAULT
 10
2.016140671250461
 20
26.51329119783644
 30
0.0
 11
7.766312615694901
 21
25.01303314228089
 31
0.0
  0
LINE
  5
74
  8
DEFAULT
 10
77.00106817125045
 20
19.50620730894755
 30
0.0
 11
75.45068039347268
 21
25.26198842005866
 31
0.0
  0
LINE
  5
75
  8
DEFAULT
 10
2.001041782361575
 20
28.16647842005866
 30
0.0
 11
7.80405983791713
 21
29.68053008672533
 31
0.0
  0
LINE
  5
76
  8
DEFAULT
 10
77.00106817125045
 20
35.19966786450311
 30
0.0
 11
75.41078122680601
 21
29.41707564228089
 31
0.0
  0
LINE
  5
77
  8
DEFAULT
 10
6.92567844902824
 20
36.69615119783644
 30
0.0
 11
13.08013372680602
 21
38.23295703116978
 31
0.0
  0
LINE
  5
78
  8
DEFAULT
 10
71.91059067125045
 20
44.01657230894755
 30
0.0
 11
70.19143400458378
 21
37.891609253392
 31
0.0
  0
LINE
  5
79
  8
DEFAULT
 10
11.92566844902824
 20
45.35642230894755
 30
0.0
 11
18.16651900458379
 21
46.84517980894755
 31
0.0
  0
LINE
  5
7A
  8
DEFAULT
 10
66.92566428236157
 20
52.65073786450311
 30
0.0
 11
65.09457122680601
 21
46.50164480894755
 31
0.0
  0
LINE
  5
7B
  8
DEFAULT
 10
16.90308067125046
 20
53.97749980894755
 30
0.0
 11
23.00543067125046
 21
55.60401703116978
 31
0.0
  0
LINE
  5
7C
  8
DEFAULT
 10
61.92567428236157
 20
61.31097369783644
 30
0.0
 11
60.22129900458378
 21
55.23864508672533
 31
0.0
  0
LINE
  5
7D
  8
DEFAULT
 10
22.00858650458379
 20
62.82054508672532
 30
0.0
 11
27.78518150458379
 21
64.32771758672533
 31
0.0
  0
LINE
  5
7E
  8
DEFAULT
 10
35.57691372680601
 20
70.65422258672533
 30
0.0
 11
31.38668983791712
 21
66.45295675339199
 31
0.0
  0
LINE
  5
7F
  8
DEFAULT
 10
45.57689372680601
 20
70.65422258672533
 30
0.0
 11
41.38335372680601
 21
66.40512008672532
 31
0.0
  0
LINE
  5
80
  8
DEFAULT
 10
55.57690900458379
 20
70.65422258672533
 30
0.0
 11
51.3866851156949
 21
66.45295675339199
 31
0.0
  0
LINE
  5
81
  8
DEFAULT
 10
57.01613650458379
 20
69.81457619783644
 30
0.0
 11
55.44034872680601
 21
64.08465369783644
 31
0.0
  0
LINE
  5
82
  8
DEFAULT
 10
15.41079539347268
 20
7.96829258672533
 30
0.0
 11
16.10957761569491
 21
5.427340086725334
 31
0.0
  0
LINE
  5
83
  8
DEFAULT
 10
16.10957761569491
 20
5.427340086725334
 30
0.0
 11
16.98975817125046
 21
2.166121197836446
 31
0.0
  0
LINE
  5
84
  8
DEFAULT
 10
16.98975817125046
 20
2.166121197836446
 30
0.0
 11
20.20832622680602
 21
2.98925758672533
 31
0.0
  0
LINE
  5
85
  8
DEFAULT
 10
20.20832622680602
 20
2.98925758672533
 30
0.0
 11
22.86072122680601
 21
3.681301753391995
 31
0.0
  0
LINE
  5
86
  8
DEFAULT
 10
20.36644122680602
 20
3.396504253391996
 30
0.0
 11
21.09330456013935
 21
6.039585920058666
 31
0.0
  0
LINE
  5
87
  8
DEFAULT
 10
21.09330456013935
 20
6.039585920058666
 30
0.0
 11
21.94829678236157
 21
9.310294531169777
 31
0.0
  0
LINE
  5
88
  8
DEFAULT
 10
21.94829678236157
 20
9.310294531169777
 30
0.0
 11
24.85631456013935
 21
8.677940364503108
 31
0.0
  0
LINE
  5
89
  8
DEFAULT
 10
24.85631456013935
 20
8.677940364503108
 30
0.0
 11
28.22865844902824
 21
7.892198420058666
 31
0.0
  0
LINE
  5
8A
  8
DEFAULT
 10
25.03619594902824
 20
8.242330364503111
 30
0.0
 11
26.0419301156949
 21
4.928900364503107
 31
0.0
  0
LINE
  5
8B
  8
DEFAULT
 10
26.0419301156949
 20
4.928900364503107
 30
0.0
 11
26.91438483791713
 21
2.035558142280887
 31
0.0
  0
LINE
  5
8C
  8
DEFAULT
 10
26.91438483791713
 20
2.035558142280887
 30
0.0
 11
29.88696094902824
 21
2.739032308947554
 31
0.0
  0
LINE
  5
8D
  8
DEFAULT
 10
29.88696094902824
 20
2.739032308947554
 30
0.0
 11
33.20487122680601
 21
3.530524531169778
 31
0.0
  0
LINE
  5
8E
  8
DEFAULT
 10
30.06380844902824
 20
3.173830920058666
 30
0.0
 11
31.03729872680601
 21
6.442987308947551
 31
0.0
  0
LINE
  5
8F
  8
DEFAULT
 10
31.03729872680601
 20
6.442987308947551
 30
0.0
 11
31.89176178236157
 21
9.408225642280886
 31
0.0
  0
LINE
  5
90
  8
DEFAULT
 10
31.89176178236157
 20
9.408225642280886
 30
0.0
 11
34.6157001156949
 21
8.847273697836442
 31
0.0
  0
LINE
  5
91
  8
DEFAULT
 10
34.6157001156949
 20
8.847273697836442
 30
0.0
 11
38.47297233791713
 21
8.012530920058662
 31
0.0
  0
LINE
  5
92
  8
DEFAULT
 10
34.80983372680601
 20
8.393742586725331
 30
0.0
 11
36.0155576156949
 21
4.635883142280885
 31
0.0
  0
LINE
  5
93
  8
DEFAULT
 10
36.0155576156949
 20
4.635883142280885
 30
0.0
 11
36.88046289347268
 21
1.976820642280888
 31
0.0
  0
LINE
  5
94
  8
DEFAULT
 10
36.88046289347268
 20
1.976820642280888
 30
0.0
 11
39.79204372680601
 21
2.666501197836443
 31
0.0
  0
LINE
  5
95
  8
DEFAULT
 10
39.79204372680601
 20
2.666501197836443
 30
0.0
 11
43.30571039347268
 21
3.485157308947553
 31
0.0
  0
LINE
  5
96
  8
DEFAULT
 10
39.97407706013934
 20
3.109202031169776
 30
0.0
 11
41.02193289347268
 21
6.561450086725333
 31
0.0
  0
LINE
  5
97
  8
DEFAULT
 10
41.02193289347268
 20
6.561450086725333
 30
0.0
 11
41.88045289347268
 21
9.427804808947553
 31
0.0
  0
LINE
  5
98
  8
DEFAULT
 10
41.88045289347268
 20
9.427804808947553
 30
0.0
 11
44.61571539347268
 21
8.847273697836442
 31
0.0
  0
LINE
  5
99
  8
DEFAULT
 10
44.61571539347268
 20
8.847273697836442
 30
0.0
 11
48.4729876156949
 21
8.012530920058662
 31
0.0
  0
LINE
  5
9A
  8
DEFAULT
 10
44.80984900458379
 20
8.393742586725331
 30
0.0
 11
46.01557289347268
 21
4.635883142280885
 31
0.0
  0
LINE
  5
9B
  8
DEFAULT
 10
46.01557289347268
 20
4.635883142280885
 30
0.0
 11
46.9143801156949
 21
2.035558142280887
 31
0.0
  0
LINE
  5
9C
  8
DEFAULT
 10
46.9143801156949
 20
2.035558142280887
 30
0.0
 11
49.8442701156949
 21
2.748380920058665
 31
0.0
  0
LINE
  5
9D
  8
DEFAULT
 10
49.8442701156949
 20
2.748380920058665
 30
0.0
 11
53.21696678236157
 21
3.496869531169779
 31
0.0
  0
LINE
  5
9E
  8
DEFAULT
 10
50.02859650458379
 20
3.180180920058667
 30
0.0
 11
51.06675094902823
 21
6.475266475614223
 31
0.0
  0
LINE
  5
9F
  8
DEFAULT
 10
51.06675094902823
 20
6.475266475614223
 30
0.0
 11
51.93698317125045
 21
9.32987369783644
 31
0.0
  0
LINE
  5
A0
  8
DEFAULT
 10
51.93698317125045
 20
9.32987369783644
 30
0.0
 11
54.8563251156949
 21
8.677940364503108
 31
0.0
  0
LINE
  5
A1
  8
DEFAULT
 10
54.8563251156949
 20
8.677940364503108
 30
0.0
 11
58.22866900458379
 21
7.892198420058666
 31
0.0
  0
LINE
  5
A2
  8
DEFAULT
 10
55.03620650458379
 20
8.242330364503111
 30
0.0
 11
56.04190539347267
 21
4.928900364503107
 31
0.0
  0
LINE
  5
A3
  8
DEFAULT
 10
56.04190539347267
 20
4.928900364503107
 30
0.0
 11
56.9445226156949
 21
2.087804531169777
 31
0.0
  0
LINE
  5
A4
  8
DEFAULT
 10
56.9445226156949
 20
2.087804531169777
 30
0.0
 11
60.19304150458379
 21
2.97419397561422
 31
0.0
  0
LINE
  5
A5
  8
DEFAULT
 10
60.19304150458379
 20
2.97419397561422
 30
0.0
 11
62.87962067125046
 21
3.675128142280887
 31
0.0
  0
LINE
  5
A6
  8
DEFAULT
 10
60.35165039347268
 20
3.383204531169774
 30
0.0
 11
61.0878976156949
 21
6.060329253391998
 31
0.0
  0
LINE
  5
A7
  8
DEFAULT
 10
61.0878976156949
 20
6.060329253391998
 30
0.0
 11
61.98222456013934
 21
9.251557031169774
 31
0.0
  0
LINE
  5
A8
  8
DEFAULT
 10
61.98222456013934
 20
9.251557031169774
 30
0.0
 11
65.23885733791712
 21
8.385205364503108
 31
0.0
  0
LINE
  5
A9
  8
DEFAULT
 10
65.23885733791712
 20
8.385205364503108
 30
0.0
 11
67.82291928236157
 21
7.711011753392
 31
0.0
  0
LINE
  5
AA
  8
DEFAULT
 10
10.36642594902824
 20
16.66835703116978
 30
0.0
 11
11.09332456013935
 21
14.02531064228089
 31
0.0
  0
LINE
  5
AB
  8
DEFAULT
 10
11.09332456013935
 20
14.02531064228089
 30
0.0
 11
11.9482815045838
 21
10.754566753392
 31
0.0
  0
LINE
  5
AC
  8
DEFAULT
 10
11.9482815045838
 20
10.754566753392
 30
0.0
 11
15.04076678236157
 21
11.49956286450311
 31
0.0
  0
LINE
  5
AD
  8
DEFAULT
 10
15.04076678236157
 20
11.49956286450311
 30
0.0
 11
18.05560567125046
 21
12.26925342005866
 31
0.0
  0
LINE
  5
AE
  8
DEFAULT
 10
16.37927622680602
 20
5.763925364503109
 30
0.0
 11
18.23040706013935
 21
7.639574253391999
 31
0.0
  0
LINE
  5
AF
  8
DEFAULT
 10
18.23040706013935
 20
7.639574253391999
 30
0.0
 11
20.6749101156949
 21
10.03243064228089
 31
0.0
  0
LINE
  5
B0
  8
DEFAULT
 10
20.6749101156949
 20
10.03243064228089
 30
0.0
 11
18.50610289347268
 21
12.33811564228089
 31
0.0
  0
LINE
  5
B1
  8
DEFAULT
 10
18.50610289347268
 20
12.33811564228089
 30
0.0
 11
16.33210983791713
 21
14.56421397561422
 31
0.0
  0
LINE
  5
B2
  8
DEFAULT
 10
15.20636067125046
 20
11.92413092005866
 30
0.0
 11
16.04724178236157
 21
14.91988453116977
 31
0.0
  0
LINE
  5
B3
  8
DEFAULT
 10
16.04724178236157
 20
14.91988453116977
 30
0.0
 11
16.8804676156949
 21
18.08804064228089
 31
0.0
  0
LINE
  5
B4
  8
DEFAULT
 10
16.8804676156949
 20
18.08804064228089
 30
0.0
 11
19.69563428236157
 21
17.48863592005866
 31
0.0
  0
LINE
  5
B5
  8
DEFAULT
 10
19.69563428236157
 20
17.48863592005866
 30
0.0
 11
23.42124983791712
 21
16.62059092005866
 31
0.0
  0
LINE
  5
B6
  8
DEFAULT
 10
19.88091317125046
 20
17.03531647561422
 30
0.0
 11
20.99198678236157
 21
13.37482369783644
 31
0.0
  0
LINE
  5
B7
  8
DEFAULT
 10
20.99198678236157
 20
13.37482369783644
 30
0.0
 11
21.83900622680602
 21
10.56526619783644
 31
0.0
  0
LINE
  5
B8
  8
DEFAULT
 10
21.83900622680602
 20
10.56526619783644
 30
0.0
 11
24.58213567125046
 21
11.16833980894755
 31
0.0
  0
LINE
  5
B9
  8
DEFAULT
 10
24.58213567125046
 20
11.16833980894755
 30
0.0
 11
28.52728483791713
 21
12.04386369783644
 31
0.0
  0
LINE
  5
BA
  8
DEFAULT
 10
26.32923233791713
 20
5.302527308947553
 30
0.0
 11
28.69587733791712
 21
7.830180086725331
 31
0.0
  0
LINE
  5
BB
  8
DEFAULT
 10
28.69587733791712
 20
7.830180086725331
 30
0.0
 11
30.84073094902823
 21
10.03243064228089
 31
0.0
  0
LINE
  5
BC
  8
DEFAULT
 10
30.84073094902823
 20
10.03243064228089
 30
0.0
 11
29.02223206013935
 21
12.10651703116978
 31
0.0
  0
LINE
  5
BD
  8
DEFAULT
 10
29.02223206013935
 20
12.10651703116978
 30
0.0
 11
26.29144983791713
 21
15.08533730894755
 31
0.0
  0
LINE
  5
BE
  8
DEFAULT
 10
24.77535206013935
 20
11.628326753392
 30
0.0
 11
25.98971900458379
 21
15.48267092005866
 31
0.0
  0
LINE
  5
BF
  8
DEFAULT
 10
25.98971900458379
 20
15.48267092005866
 30
0.0
 11
26.8239326156949
 21
18.185971753392
 31
0.0
  0
LINE
  5
C0
  8
DEFAULT
 10
26.8239326156949
 20
18.185971753392
 30
0.0
 11
29.18031178236157
 21
17.77089342005866
 31
0.0
  0
LINE
  5
C1
  8
DEFAULT
 10
29.18031178236157
 20
17.77089342005866
 30
0.0
 11
33.88273372680602
 21
16.90768147561422
 31
0.0
  0
LINE
  5
C2
  8
DEFAULT
 10
29.40153872680602
 20
17.29139786450311
 30
0.0
 11
31.00519594902823
 21
12.78737814228089
 31
0.0
  0
LINE
  5
C3
  8
DEFAULT
 10
31.00519594902823
 20
12.78737814228089
 30
0.0
 11
31.82014789347268
 21
10.532634253392
 31
0.0
  0
LINE
  5
C4
  8
DEFAULT
 10
31.82014789347268
 20
10.532634253392
 30
0.0
 11
34.21526206013935
 21
10.98397814228089
 31
0.0
  0
LINE
  5
C5
  8
DEFAULT
 10
34.21526206013935
 20
10.98397814228089
 30
0.0
 11
38.84307150458379
 21
11.83350230894755
 31
0.0
  0
LINE
  5
C6
  8
DEFAULT
 10
36.31125594902824
 20
5.030782586725334
 30
0.0
 11
38.96283956013934
 21
7.953899253391995
 31
0.0
  0
LINE
  5
C7
  8
DEFAULT
 10
38.96283956013934
 20
7.953899253391995
 30
0.0
 11
40.89348650458379
 21
10.03243064228089
 31
0.0
  0
LINE
  5
C8
  8
DEFAULT
 10
40.89348650458379
 20
10.03243064228089
 30
0.0
 11
39.36535900458379
 21
11.88098619783644
 31
0.0
  0
LINE
  5
C9
  8
DEFAULT
 10
39.36535900458379
 20
11.88098619783644
 30
0.0
 11
36.31573622680601
 21
15.46400897561422
 31
0.0
  0
LINE
  5
CA
  8
DEFAULT
 10
34.43528956013935
 20
11.460051753392
 30
0.0
 11
36.82768733791713
 21
18.17944536450311
 31
0.0
  0
LINE
  5
CB
  8
DEFAULT
 10
36.82768733791713
 20
18.17944536450311
 30
0.0
 11
44.08665456013934
 21
17.08251814228088
 31
0.0
  0
LINE
  5
CC
  8
DEFAULT
 10
39.14815372680602
 20
17.38058008672533
 30
0.0
 11
41.82767733791712
 21
10.54568703116978
 31
0.0
  0
LINE
  5
CD
  8
DEFAULT
 10
41.82767733791712
 20
10.54568703116978
 30
0.0
 11
48.84305150458379
 21
11.83350230894755
 31
0.0
  0
LINE
  5
CE
  8
DEFAULT
 10
46.31127122680601
 20
5.030782586725334
 30
0.0
 11
48.96281956013934
 21
7.953899253391995
 31
0.0
  0
LINE
  5
CF
  8
DEFAULT
 10
48.96281956013934
 20
7.953899253391995
 30
0.0
 11
50.89350178236157
 21
10.03243064228089
 31
0.0
  0
LINE
  5
D0
  8
DEFAULT
 10
50.89350178236157
 20
10.03243064228089
 30
0.0
 11
49.36537428236156
 21
11.88098619783644
 31
0.0
  0
LINE
  5
D1
  8
DEFAULT
 10
49.36537428236156
 20
11.88098619783644
 30
0.0
 11
46.31575150458379
 21
15.46400897561422
 31
0.0
  0
LINE
  5
D2
  8
DEFAULT
 10
44.43530483791712
 20
11.460051753392
 30
0.0
 11
46.01345622680601
 21
15.89259869783644
 31
0.0
  0
LINE
  5
D3
  8
DEFAULT
 10
46.01345622680601
 20
15.89259869783644
 30
0.0
 11
46.82015317125045
 21
18.19249814228088
 31
0.0
  0
LINE
  5
D4
  8
DEFAULT
 10
46.82015317125045
 20
18.19249814228088
 30
0.0
 11
49.18030706013934
 21
17.77089342005866
 31
0.0
  0
LINE
  5
D5
  8
DEFAULT
 10
49.18030706013934
 20
17.77089342005866
 30
0.0
 11
53.88272900458379
 21
16.90768147561422
 31
0.0
  0
LINE
  5
D6
  8
DEFAULT
 10
49.40153400458379
 20
17.29139786450311
 30
0.0
 11
51.00519122680601
 21
12.78737814228089
 31
0.0
  0
LINE
  5
D7
  8
DEFAULT
 10
51.00519122680601
 20
12.78737814228089
 30
0.0
 11
51.83146733791713
 21
10.55221342005866
 31
0.0
  0
LINE
  5
D8
  8
DEFAULT
 10
51.83146733791713
 20
10.55221342005866
 30
0.0
 11
54.56609483791712
 21
11.17257314228089
 31
0.0
  0
LINE
  5
D9
  8
DEFAULT
 10
54.56609483791712
 20
11.17257314228089
 30
0.0
 11
58.53135233791713
 21
12.03070508672533
 31
0.0
  0
LINE
  5
DA
  8
DEFAULT
 10
56.32924289347268
 20
5.302527308947553
 30
0.0
 11
58.6958526156949
 21
7.830180086725331
 31
0.0
  0
LINE
  5
DB
  8
DEFAULT
 10
58.6958526156949
 20
7.830180086725331
 30
0.0
 11
60.8256426156949
 21
10.03243064228089
 31
0.0
  0
LINE
  5
DC
  8
DEFAULT
 10
60.8256426156949
 20
10.03243064228089
 30
0.0
 11
59.02661706013934
 21
12.09050092005866
 31
0.0
  0
LINE
  5
DD
  8
DEFAULT
 10
59.02661706013934
 20
12.09050092005866
 30
0.0
 11
56.30080900458379
 21
15.09549730894755
 31
0.0
  0
LINE
  5
DE
  8
DEFAULT
 10
54.76192178236157
 20
11.63136064228089
 30
0.0
 11
56.00140650458379
 21
15.49445369783644
 31
0.0
  0
LINE
  5
DF
  8
DEFAULT
 10
56.00140650458379
 20
15.49445369783644
 30
0.0
 11
56.85407039347268
 21
18.13372536450311
 31
0.0
  0
LINE
  5
E0
  8
DEFAULT
 10
56.85407039347268
 20
18.13372536450311
 30
0.0
 11
59.67967928236156
 21
17.48539036450311
 31
0.0
  0
LINE
  5
E1
  8
DEFAULT
 10
59.67967928236156
 20
17.48539036450311
 30
0.0
 11
63.42603817125045
 21
16.63325564228089
 31
0.0
  0
LINE
  5
E2
  8
DEFAULT
 10
59.86753344902823
 20
17.033129253392
 30
0.0
 11
61.00277233791712
 21
13.36261758672533
 31
0.0
  0
LINE
  5
E3
  8
DEFAULT
 10
61.00277233791712
 20
13.36261758672533
 30
0.0
 11
61.8879976156949
 21
10.65014453116978
 31
0.0
  0
LINE
  5
E4
  8
DEFAULT
 10
61.8879976156949
 20
10.65014453116978
 30
0.0
 11
65.04077261569489
 21
11.49956286450311
 31
0.0
  0
LINE
  5
E5
  8
DEFAULT
 10
65.04077261569489
 20
11.49956286450311
 30
0.0
 11
68.0556115045838
 21
12.26925342005866
 31
0.0
  0
LINE
  5
E6
  8
DEFAULT
 10
66.37515456013935
 20
5.744487308947555
 30
0.0
 11
68.25108567125045
 21
7.645253975614217
 31
0.0
  0
LINE
  5
E7
  8
DEFAULT
 10
68.25108567125045
 20
7.645253975614217
 30
0.0
 11
70.6824301156949
 21
10.03243064228089
 31
0.0
  0
LINE
  5
E8
  8
DEFAULT
 10
70.6824301156949
 20
10.03243064228089
 30
0.0
 11
68.50610872680602
 21
12.33811564228089
 31
0.0
  0
LINE
  5
E9
  8
DEFAULT
 10
68.50610872680602
 20
12.33811564228089
 30
0.0
 11
66.33211567125045
 21
14.56421397561422
 31
0.0
  0
LINE
  5
EA
  8
DEFAULT
 10
65.2063665045838
 20
11.92413092005866
 30
0.0
 11
66.04721233791713
 21
14.91988453116977
 31
0.0
  0
LINE
  5
EB
  8
DEFAULT
 10
66.04721233791713
 20
14.91988453116977
 30
0.0
 11
66.94453789347267
 21
17.977056753392
 31
0.0
  0
LINE
  5
EC
  8
DEFAULT
 10
66.94453789347267
 20
17.977056753392
 30
0.0
 11
70.19302150458378
 21
17.09070258672533
 31
0.0
  0
LINE
  5
ED
  8
DEFAULT
 10
70.19302150458378
 20
17.09070258672533
 30
0.0
 11
72.87960067125046
 21
16.38973314228089
 31
0.0
  0
LINE
  5
EE
  8
DEFAULT
 10
5.440342893472682
 20
25.26227064228089
 30
0.0
 11
6.120392615694904
 21
22.78936897561422
 31
0.0
  0
LINE
  5
EF
  8
DEFAULT
 10
6.120392615694904
 20
22.78936897561422
 30
0.0
 11
6.970904560139346
 21
19.45399619783644
 31
0.0
  0
LINE
  5
F0
  8
DEFAULT
 10
6.970904560139346
 20
19.45399619783644
 30
0.0
 11
10.05619317125046
 21
20.17486230894755
 31
0.0
  0
LINE
  5
F1
  8
DEFAULT
 10
10.05619317125046
 20
20.17486230894755
 30
0.0
 11
13.0366715045838
 21
20.93576869783644
 31
0.0
  0
LINE
  5
F2
  8
DEFAULT
 10
11.36693900458379
 20
14.36588230894755
 30
0.0
 11
13.29247067125046
 21
16.31688453116978
 31
0.0
  0
LINE
  5
F3
  8
DEFAULT
 10
13.29247067125046
 20
16.31688453116978
 30
0.0
 11
15.68998372680602
 21
18.692701753392
 31
0.0
  0
LINE
  5
F4
  8
DEFAULT
 10
15.68998372680602
 20
18.692701753392
 30
0.0
 11
13.48533428236157
 21
21.00417230894755
 31
0.0
  0
LINE
  5
F5
  8
DEFAULT
 10
13.48533428236157
 20
21.00417230894755
 30
0.0
 11
11.33614150458379
 21
23.20487064228088
 31
0.0
  0
LINE
  5
F6
  8
DEFAULT
 10
10.22129317125046
 20
20.59763119783644
 30
0.0
 11
11.05257872680602
 21
23.55927119783644
 31
0.0
  0
LINE
  5
F7
  8
DEFAULT
 10
11.05257872680602
 20
23.55927119783644
 30
0.0
 11
11.89554122680602
 21
26.72220619783644
 31
0.0
  0
LINE
  5
F8
  8
DEFAULT
 10
11.89554122680602
 20
26.72220619783644
 30
0.0
 11
14.69589122680602
 21
26.13059786450311
 31
0.0
  0
LINE
  5
F9
  8
DEFAULT
 10
14.69589122680602
 20
26.13059786450311
 30
0.0
 11
18.40672539347268
 21
25.28657703116977
 31
0.0
  0
LINE
  5
FA
  8
DEFAULT
 10
14.88321622680601
 20
25.68010064228088
 30
0.0
 11
16.0076601156949
 21
22.04440814228089
 31
0.0
  0
LINE
  5
FB
  8
DEFAULT
 10
16.0076601156949
 20
22.04440814228089
 30
0.0
 11
16.83898094902824
 21
19.22553730894755
 31
0.0
  0
LINE
  5
FC
  8
DEFAULT
 10
16.83898094902824
 20
19.22553730894755
 30
0.0
 11
19.48336789347268
 21
19.75780842005866
 31
0.0
  0
LINE
  5
FD
  8
DEFAULT
 10
19.48336789347268
 20
19.75780842005866
 30
0.0
 11
23.62871844902824
 21
20.65488703116977
 31
0.0
  0
LINE
  5
FE
  8
DEFAULT
 10
21.29191844902824
 20
13.761926753392
 30
0.0
 11
23.90646039347268
 21
16.55437453116978
 31
0.0
  0
LINE
  5
FF
  8
DEFAULT
 10
23.90646039347268
 20
16.55437453116978
 30
0.0
 11
25.93870733791712
 21
18.692701753392
 31
0.0
  0
LINE
  5
100
  8
DEFAULT
 10
25.93870733791712
 20
18.692701753392
 30
0.0
 11
24.13294372680602
 21
20.71665842005866
 31
0.0
  0
LINE
  5
101
  8
DEFAULT
 10
24.13294372680602
 20
20.71665842005866
 30
0.0
 11
21.28338122680601
 21
23.85807397561422
 31
0.0
  0
LINE
  5
102
  8
DEFAULT
 10
19.68201706013935
 20
20.22538008672533
 30
0.0
 11
20.97776983791713
 21
24.263874253392
 31
0.0
  0
LINE
  5
103
  8
DEFAULT
 10
20.97776983791713
 20
24.263874253392
 30
0.0
 11
21.82016789347268
 21
26.85273397561422
 31
0.0
  0
LINE
  5
104
  8
DEFAULT
 10
21.82016789347268
 20
26.85273397561422
 30
0.0
 11
23.95775428236157
 21
26.50634147561422
 31
0.0
  0
LINE
  5
105
  8
DEFAULT
 10
23.95775428236157
 20
26.50634147561422
 30
0.0
 11
29.0467501156949
 21
25.70994564228089
 31
0.0
  0
LINE
  5
106
  8
DEFAULT
 10
24.19654956013935
 20
26.02271842005866
 30
0.0
 11
26.82770733791713
 21
19.20592286450311
 31
0.0
  0
LINE
  5
107
  8
DEFAULT
 10
26.82770733791713
 20
19.20592286450311
 30
0.0
 11
34.2045376156949
 21
20.20181453116977
 31
0.0
  0
LINE
  5
108
  8
DEFAULT
 10
31.30981956013935
 20
13.21871953116977
 30
0.0
 11
34.40861956013935
 21
16.85952730894756
 31
0.0
  0
LINE
  5
109
  8
DEFAULT
 10
34.40861956013935
 20
16.85952730894756
 30
0.0
 11
35.95378622680602
 21
18.692701753392
 31
0.0
  0
LINE
  5
10A
  8
DEFAULT
 10
35.95378622680602
 20
18.692701753392
 30
0.0
 11
34.75405956013935
 21
20.22608564228089
 31
0.0
  0
LINE
  5
10B
  8
DEFAULT
 10
34.75405956013935
 20
20.22608564228089
 30
0.0
 11
31.38785400458379
 21
24.583279253392
 31
0.0
  0
LINE
  5
10C
  8
DEFAULT
 10
29.00170039347268
 20
19.95321203116977
 30
0.0
 11
31.09204983791712
 21
25.04704092005866
 31
0.0
  0
LINE
  5
10D
  8
DEFAULT
 10
31.09204983791712
 20
25.04704092005866
 30
0.0
 11
31.82014789347268
 21
26.85273397561422
 31
0.0
  0
LINE
  5
10E
  8
DEFAULT
 10
31.82014789347268
 20
26.85273397561422
 30
0.0
 11
33.33416428236157
 21
26.717196753392
 31
0.0
  0
LINE
  5
10F
  8
DEFAULT
 10
33.33416428236157
 20
26.717196753392
 30
0.0
 11
39.50975094902824
 21
26.11408786450311
 31
0.0
  0
LINE
  5
110
  8
DEFAULT
 10
33.61504594902824
 20
26.22161453116977
 30
0.0
 11
36.81262372680602
 21
19.17981730894755
 31
0.0
  0
LINE
  5
111
  8
DEFAULT
 10
36.81262372680602
 20
19.17981730894755
 30
0.0
 11
44.43576344902824
 21
20.00538786450311
 31
0.0
  0
LINE
  5
112
  8
DEFAULT
 10
41.35929428236157
 20
12.95470064228089
 30
0.0
 11
44.62781567125046
 21
17.05016842005866
 31
0.0
  0
LINE
  5
113
  8
DEFAULT
 10
44.62781567125046
 20
17.05016842005866
 30
0.0
 11
45.95380150458379
 21
18.692701753392
 31
0.0
  0
LINE
  5
114
  8
DEFAULT
 10
45.95380150458379
 20
18.692701753392
 30
0.0
 11
45.0011251156949
 21
20.01586536450311
 31
0.0
  0
LINE
  5
115
  8
DEFAULT
 10
45.0011251156949
 20
20.01586536450311
 30
0.0
 11
41.44233817125046
 21
24.881729253392
 31
0.0
  0
LINE
  5
116
  8
DEFAULT
 10
38.71600094902823
 20
19.85118869783644
 30
0.0
 11
41.81261372680601
 21
26.86578675339199
 31
0.0
  0
LINE
  5
117
  8
DEFAULT
 10
41.81261372680601
 20
26.86578675339199
 30
0.0
 11
49.50976622680601
 21
26.11408786450311
 31
0.0
  0
LINE
  5
118
  8
DEFAULT
 10
43.61506122680601
 20
26.22161453116977
 30
0.0
 11
46.18053178236157
 21
20.57184314228088
 31
0.0
  0
LINE
  5
119
  8
DEFAULT
 10
46.18053178236157
 20
20.57184314228088
 30
0.0
 11
46.82015317125045
 21
19.19287008672533
 31
0.0
  0
LINE
  5
11A
  8
DEFAULT
 10
46.82015317125045
 20
19.19287008672533
 30
0.0
 11
48.74797789347268
 21
19.465179253392
 31
0.0
  0
LINE
  5
11B
  8
DEFAULT
 10
48.74797789347268
 20
19.465179253392
 30
0.0
 11
54.20453289347268
 21
20.20181453116977
 31
0.0
  0
LINE
  5
11C
  8
DEFAULT
 10
51.30981483791712
 20
13.21871953116977
 30
0.0
 11
54.40861483791712
 21
16.85952730894756
 31
0.0
  0
LINE
  5
11D
  8
DEFAULT
 10
54.40861483791712
 20
16.85952730894756
 30
0.0
 11
55.95378150458379
 21
18.692701753392
 31
0.0
  0
LINE
  5
11E
  8
DEFAULT
 10
55.95378150458379
 20
18.692701753392
 30
0.0
 11
54.75405483791712
 21
20.22608564228089
 31
0.0
  0
LINE
  5
11F
  8
DEFAULT
 10
54.75405483791712
 20
20.22608564228089
 30
0.0
 11
51.38784928236157
 21
24.583279253392
 31
0.0
  0
LINE
  5
120
  8
DEFAULT
 10
49.00173094902824
 20
19.95321203116977
 30
0.0
 11
51.8276926156949
 21
26.83968119783644
 31
0.0
  0
LINE
  5
121
  8
DEFAULT
 10
51.8276926156949
 20
26.83968119783644
 30
0.0
 11
59.04676067125045
 21
25.70994564228089
 31
0.0
  0
LINE
  5
122
  8
DEFAULT
 10
54.1965601156949
 20
26.02271842005866
 30
0.0
 11
56.8276826156949
 21
19.20592286450311
 31
0.0
  0
LINE
  5
123
  8
DEFAULT
 10
56.8276826156949
 20
19.20592286450311
 30
0.0
 11
63.63262483791712
 21
20.64116397561422
 31
0.0
  0
LINE
  5
124
  8
DEFAULT
 10
61.30051678236157
 20
13.751449253392
 30
0.0
 11
63.91163678236157
 21
16.56982619783644
 31
0.0
  0
LINE
  5
125
  8
DEFAULT
 10
63.91163678236157
 20
16.56982619783644
 30
0.0
 11
65.90857067125046
 21
18.692701753392
 31
0.0
  0
LINE
  5
126
  8
DEFAULT
 10
65.90857067125046
 20
18.692701753392
 30
0.0
 11
64.13706178236157
 21
20.70000730894755
 31
0.0
  0
LINE
  5
127
  8
DEFAULT
 10
64.13706178236157
 20
20.70000730894755
 30
0.0
 11
61.2933201156949
 21
23.86833980894755
 31
0.0
  0
LINE
  5
128
  8
DEFAULT
 10
59.66814344902824
 20
20.22883730894755
 30
0.0
 11
60.99014289347268
 21
24.27576286450311
 31
0.0
  0
LINE
  5
129
  8
DEFAULT
 10
60.99014289347268
 20
24.27576286450311
 30
0.0
 11
61.86160983791712
 21
26.78094369783644
 31
0.0
  0
LINE
  5
12A
  8
DEFAULT
 10
61.86160983791712
 20
26.78094369783644
 30
0.0
 11
64.6653465045838
 21
26.12276619783644
 31
0.0
  0
LINE
  5
12B
  8
DEFAULT
 10
64.6653465045838
 20
26.12276619783644
 30
0.0
 11
68.41459817125046
 21
25.31141258672533
 31
0.0
  0
LINE
  5
12C
  8
DEFAULT
 10
64.85778678236156
 20
25.67452675339199
 30
0.0
 11
66.02974983791712
 21
22.02186564228089
 31
0.0
  0
LINE
  5
12D
  8
DEFAULT
 10
66.02974983791712
 20
22.02186564228089
 30
0.0
 11
66.89931178236156
 21
19.32995953116977
 31
0.0
  0
LINE
  5
12E
  8
DEFAULT
 10
66.89931178236156
 20
19.32995953116977
 30
0.0
 11
70.10094650458379
 21
20.18886758672533
 31
0.0
  0
LINE
  5
12F
  8
DEFAULT
 10
70.10094650458379
 20
20.18886758672533
 30
0.0
 11
73.00543650458378
 21
20.96300314228089
 31
0.0
  0
LINE
  5
130
  8
DEFAULT
 10
71.3628326156949
 20
14.346444253392
 30
0.0
 11
73.31316456013934
 21
16.32259953116977
 31
0.0
  0
LINE
  5
131
  8
DEFAULT
 10
73.31316456013934
 20
16.32259953116977
 30
0.0
 11
75.72013206013935
 21
18.692701753392
 31
0.0
  0
LINE
  5
132
  8
DEFAULT
 10
75.72013206013935
 20
18.692701753392
 30
0.0
 11
73.450853726806
 21
21.03595758672533
 31
0.0
  0
LINE
  5
133
  8
DEFAULT
 10
73.450853726806
 20
21.03595758672533
 30
0.0
 11
71.32818983791712
 21
23.16423064228088
 31
0.0
  0
LINE
  5
134
  8
DEFAULT
 10
70.26050789347268
 20
20.61107203116978
 30
0.0
 11
71.04229872680601
 21
23.51351592005866
 31
0.0
  0
LINE
  5
135
  8
DEFAULT
 10
71.04229872680601
 20
23.51351592005866
 30
0.0
 11
71.95207733791713
 21
26.62427508672533
 31
0.0
  0
LINE
  5
136
  8
DEFAULT
 10
71.95207733791713
 20
26.62427508672533
 30
0.0
 11
75.297433726806
 21
25.66080369783644
 31
0.0
  0
LINE
  5
137
  8
DEFAULT
 10
75.297433726806
 20
25.66080369783644
 30
0.0
 11
77.76088094902823
 21
25.00417842005866
 31
0.0
  0
LINE
  5
138
  8
DEFAULT
 10
6.387480671250465
 20
23.12330842005866
 30
0.0
 11
8.189010949028237
 21
24.94868647561422
 31
0.0
  0
LINE
  5
139
  8
DEFAULT
 10
8.189010949028237
 20
24.94868647561422
 30
0.0
 11
10.57689317125046
 21
27.35293758672533
 31
0.0
  0
LINE
  5
13A
  8
DEFAULT
 10
10.57689317125046
 20
27.35293758672533
 30
0.0
 11
8.230391782361572
 21
29.74579397561422
 31
0.0
  0
LINE
  5
13B
  8
DEFAULT
 10
8.230391782361572
 20
29.74579397561422
 30
0.0
 11
6.379260949028236
 21
31.62144286450311
 31
0.0
  0
LINE
  5
13C
  8
DEFAULT
 10
5.410780115694905
 20
29.41707564228089
 30
0.0
 11
6.109562337917126
 21
31.95802814228088
 31
0.0
  0
LINE
  5
13D
  8
DEFAULT
 10
6.109562337917126
 20
31.95802814228088
 30
0.0
 11
6.959615671250461
 21
35.27145814228088
 31
0.0
  0
LINE
  5
13E
  8
DEFAULT
 10
6.959615671250461
 20
35.27145814228088
 30
0.0
 11
9.949125115694901
 21
34.60336758672533
 31
0.0
  0
LINE
  5
13F
  8
DEFAULT
 10
9.949125115694901
 20
34.60336758672533
 30
0.0
 11
13.14254011569491
 21
33.823799253392
 31
0.0
  0
LINE
  5
140
  8
DEFAULT
 10
10.12184511569491
 20
34.17308453116977
 30
0.0
 11
11.04344178236157
 21
31.017734253392
 31
0.0
  0
LINE
  5
141
  8
DEFAULT
 10
11.04344178236157
 20
31.017734253392
 30
0.0
 11
11.88799178236157
 21
27.97065147561422
 31
0.0
  0
LINE
  5
142
  8
DEFAULT
 10
11.88799178236157
 20
27.97065147561422
 30
0.0
 11
14.6312976156949
 21
28.53389647561422
 31
0.0
  0
LINE
  5
143
  8
DEFAULT
 10
14.6312976156949
 20
28.53389647561422
 30
0.0
 11
18.46909650458379
 21
29.38560786450311
 31
0.0
  0
LINE
  5
144
  8
DEFAULT
 10
16.30416983791713
 20
22.431899253392
 30
0.0
 11
18.89052483791713
 21
25.22353564228089
 31
0.0
  0
LINE
  5
145
  8
DEFAULT
 10
18.89052483791713
 20
25.22353564228089
 30
0.0
 11
20.87087817125046
 21
27.35293758672533
 31
0.0
  0
LINE
  5
146
  8
DEFAULT
 10
20.87087817125046
 20
27.35293758672533
 30
0.0
 11
18.95864622680602
 21
29.447061753392
 31
0.0
  0
LINE
  5
147
  8
DEFAULT
 10
18.95864622680602
 20
29.447061753392
 30
0.0
 11
16.30215900458379
 21
32.34484897561422
 31
0.0
  0
LINE
  5
148
  8
DEFAULT
 10
14.82285594902824
 20
28.98862703116977
 30
0.0
 11
16.00416761569491
 21
32.73809036450311
 31
0.0
  0
LINE
  5
149
  8
DEFAULT
 10
16.00416761569491
 20
32.73809036450311
 30
0.0
 11
16.84275567125046
 21
35.473846753392
 31
0.0
  0
LINE
  5
14A
  8
DEFAULT
 10
16.84275567125046
 20
35.473846753392
 30
0.0
 11
19.26609206013935
 21
35.03904814228088
 31
0.0
  0
LINE
  5
14B
  8
DEFAULT
 10
19.26609206013935
 20
35.03904814228088
 30
0.0
 11
23.80150900458379
 21
34.18179814228088
 31
0.0
  0
LINE
  5
14C
  8
DEFAULT
 10
19.48234483791713
 20
34.56477369783644
 30
0.0
 11
21.0076501156949
 21
30.20835619783644
 31
0.0
  0
LINE
  5
14D
  8
DEFAULT
 10
21.0076501156949
 20
30.20835619783644
 30
0.0
 11
21.82016789347268
 21
27.85314119783644
 31
0.0
  0
LINE
  5
14E
  8
DEFAULT
 10
21.82016789347268
 20
27.85314119783644
 30
0.0
 11
23.86874844902824
 21
28.15077980894755
 31
0.0
  0
LINE
  5
14F
  8
DEFAULT
 10
23.86874844902824
 20
28.15077980894755
 30
0.0
 11
29.12693650458379
 21
28.94534119783644
 31
0.0
  0
LINE
  5
150
  8
DEFAULT
 10
26.35078706013935
 20
21.66591286450311
 30
0.0
 11
29.58498317125046
 21
25.67491480894755
 31
0.0
  0
LINE
  5
151
  8
DEFAULT
 10
29.58498317125046
 20
25.67491480894755
 30
0.0
 11
30.95379622680601
 21
27.35293758672533
 31
0.0
  0
LINE
  5
152
  8
DEFAULT
 10
30.95379622680601
 20
27.35293758672533
 30
0.0
 11
29.67169594902824
 21
28.97825536450311
 31
0.0
  0
LINE
  5
153
  8
DEFAULT
 10
29.67169594902824
 20
28.97825536450311
 30
0.0
 11
26.35449122680601
 21
33.13471842005866
 31
0.0
  0
LINE
  5
154
  8
DEFAULT
 10
24.11262372680601
 20
28.63902425339199
 30
0.0
 11
26.81260844902824
 21
35.52605786450311
 31
0.0
  0
LINE
  5
155
  8
DEFAULT
 10
26.81260844902824
 20
35.52605786450311
 30
0.0
 11
34.43574817125046
 21
34.70048730894755
 31
0.0
  0
LINE
  5
156
  8
DEFAULT
 10
28.71602094902823
 20
34.85468647561422
 30
0.0
 11
31.81259844902824
 21
27.84008842005866
 31
0.0
  0
LINE
  5
157
  8
DEFAULT
 10
31.81259844902824
 20
27.84008842005866
 30
0.0
 11
39.6887151156949
 21
28.40054647561422
 31
0.0
  0
LINE
  5
158
  8
DEFAULT
 10
36.46930039347268
 20
21.06287453116978
 30
0.0
 11
40.9688751156949
 21
27.35293758672533
 31
0.0
  0
LINE
  5
159
  8
DEFAULT
 10
40.9688751156949
 20
27.35293758672533
 30
0.0
 11
36.54542983791713
 21
33.89361397561422
 31
0.0
  0
LINE
  5
15A
  8
DEFAULT
 10
33.35995233791712
 20
28.42492342005866
 30
0.0
 11
36.81262372680602
 21
35.52605786450311
 31
0.0
  0
LINE
  5
15B
  8
DEFAULT
 10
36.81262372680602
 20
35.52605786450311
 30
0.0
 11
44.79185733791712
 21
35.08473286450311
 31
0.0
  0
LINE
  5
15C
  8
DEFAULT
 10
38.20521400458379
 20
34.97099730894755
 30
0.0
 11
41.81261372680601
 21
27.84008842005866
 31
0.0
  0
LINE
  5
15D
  8
DEFAULT
 10
41.81261372680601
 20
27.84008842005866
 30
0.0
 11
49.6886951156949
 21
28.40054647561422
 31
0.0
  0
LINE
  5
15E
  8
DEFAULT
 10
46.46928039347268
 20
21.06287453116978
 30
0.0
 11
50.9688551156949
 21
27.35293758672533
 31
0.0
  0
LINE
  5
15F
  8
DEFAULT
 10
50.9688551156949
 20
27.35293758672533
 30
0.0
 11
46.5454451156949
 21
33.89361397561422
 31
0.0
  0
LINE
  5
160
  8
DEFAULT
 10
43.35993233791712
 20
28.42492342005866
 30
0.0
 11
46.81260372680601
 21
35.52605786450311
 31
0.0
  0
LINE
  5
161
  8
DEFAULT
 10
46.81260372680601
 20
35.52605786450311
 30
0.0
 11
54.43574344902824
 21
34.70048730894755
 31
0.0
  0
LINE
  5
162
  8
DEFAULT
 10
48.71601622680601
 20
34.85468647561422
 30
0.0
 11
51.15057094902824
 21
29.33978203116977
 31
0.0
  0
LINE
  5
163
  8
DEFAULT
 10
51.15057094902824
 20
29.33978203116977
 30
0.0
 11
51.81636844902823
 21
27.84661480894755
 31
0.0
  0
LINE
  5
164
  8
DEFAULT
 10
51.81636844902823
 20
27.84661480894755
 30
0.0
 11
53.83468067125045
 21
28.14672286450311
 31
0.0
  0
LINE
  5
165
  8
DEFAULT
 10
53.83468067125045
 20
28.14672286450311
 30
0.0
 11
59.14645567125046
 21
28.92082314228088
 31
0.0
  0
LINE
  5
166
  8
DEFAULT
 10
56.35076233791712
 20
21.66591286450311
 30
0.0
 11
59.58499372680601
 21
25.67491480894755
 31
0.0
  0
LINE
  5
167
  8
DEFAULT
 10
59.58499372680601
 20
25.67491480894755
 30
0.0
 11
60.94625733791712
 21
27.35293758672533
 31
0.0
  0
LINE
  5
168
  8
DEFAULT
 10
60.94625733791712
 20
27.35293758672533
 30
0.0
 11
59.69227344902824
 21
28.95077397561422
 31
0.0
  0
LINE
  5
169
  8
DEFAULT
 10
59.69227344902824
 20
28.95077397561422
 30
0.0
 11
56.36600233791712
 21
33.16385786450311
 31
0.0
  0
LINE
  5
16A
  8
DEFAULT
 10
54.08162511569491
 20
28.63440286450311
 30
0.0
 11
56.06712900458379
 21
33.62158703116977
 31
0.0
  0
LINE
  5
16B
  8
DEFAULT
 10
56.06712900458379
 20
33.62158703116977
 30
0.0
 11
56.82390789347268
 21
35.50647869783644
 31
0.0
  0
LINE
  5
16C
  8
DEFAULT
 10
56.82390789347268
 20
35.50647869783644
 30
0.0
 11
59.2660826156949
 21
35.03904814228088
 31
0.0
  0
LINE
  5
16D
  8
DEFAULT
 10
59.2660826156949
 20
35.03904814228088
 30
0.0
 11
63.80149956013935
 21
34.18179814228088
 31
0.0
  0
LINE
  5
16E
  8
DEFAULT
 10
59.48233539347268
 20
34.56477369783644
 30
0.0
 11
61.00764067125046
 21
30.20835619783644
 31
0.0
  0
LINE
  5
16F
  8
DEFAULT
 10
61.00764067125046
 20
30.20835619783644
 30
0.0
 11
61.85032094902823
 21
27.90535230894755
 31
0.0
  0
LINE
  5
170
  8
DEFAULT
 10
61.85032094902823
 20
27.90535230894755
 30
0.0
 11
64.61571067125045
 21
28.53809453116978
 31
0.0
  0
LINE
  5
171
  8
DEFAULT
 10
64.61571067125045
 20
28.53809453116978
 30
0.0
 11
68.47298289347268
 21
29.37283730894755
 31
0.0
  0
LINE
  5
172
  8
DEFAULT
 10
66.32170872680601
 20
22.41263758672533
 30
0.0
 11
68.89903261569489
 21
25.25394508672533
 31
0.0
  0
LINE
  5
173
  8
DEFAULT
 10
68.89903261569489
 20
25.25394508672533
 30
0.0
 11
70.82565789347268
 21
27.35293758672533
 31
0.0
  0
LINE
  5
174
  8
DEFAULT
 10
70.82565789347268
 20
27.35293758672533
 30
0.0
 11
68.96281483791712
 21
29.43146897561422
 31
0.0
  0
LINE
  5
175
  8
DEFAULT
 10
68.96281483791712
 20
29.43146897561422
 30
0.0
 11
66.31126650458378
 21
32.35462092005866
 31
0.0
  0
LINE
  5
176
  8
DEFAULT
 10
64.80984428236157
 20
28.99162564228088
 30
0.0
 11
66.01556817125045
 21
32.74948508672533
 31
0.0
  0
LINE
  5
177
  8
DEFAULT
 10
66.01556817125045
 20
32.74948508672533
 30
0.0
 11
66.89553706013935
 21
35.38244203116977
 31
0.0
  0
LINE
  5
178
  8
DEFAULT
 10
66.89553706013935
 20
35.38244203116977
 30
0.0
 11
69.94914622680601
 21
34.60336758672533
 31
0.0
  0
LINE
  5
179
  8
DEFAULT
 10
69.94914622680601
 20
34.60336758672533
 30
0.0
 11
73.14252594902823
 21
33.823799253392
 31
0.0
  0
LINE
  5
17A
  8
DEFAULT
 10
70.12186622680602
 20
34.17308453116977
 30
0.0
 11
71.0434276156949
 21
31.017734253392
 31
0.0
  0
LINE
  5
17B
  8
DEFAULT
 10
71.0434276156949
 20
31.017734253392
 30
0.0
 11
71.95959150458378
 21
28.09465286450311
 31
0.0
  0
LINE
  5
17C
  8
DEFAULT
 10
71.95959150458378
 20
28.09465286450311
 30
0.0
 11
75.25414789347268
 21
29.01522647561422
 31
0.0
  0
LINE
  5
17D
  8
DEFAULT
 10
75.25414789347268
 20
29.01522647561422
 30
0.0
 11
77.80406094902824
 21
29.68053008672533
 31
0.0
  0
LINE
  5
17E
  8
DEFAULT
 10
76.38250761569489
 20
23.13237480894755
 30
0.0
 11
80.59199317125045
 21
27.35293758672533
 31
0.0
  0
LINE
  5
17F
  8
DEFAULT
 10
80.59199317125045
 20
27.35293758672533
 30
0.0
 11
76.37926206013935
 21
31.62144286450311
 31
0.0
  0
LINE
  5
180
  8
DEFAULT
 10
11.32972094902824
 20
31.38247119783644
 30
0.0
 11
13.60153928236157
 21
33.75825314228089
 31
0.0
  0
LINE
  5
181
  8
DEFAULT
 10
13.60153928236157
 20
33.75825314228089
 30
0.0
 11
15.75027344902824
 21
36.01320869783644
 31
0.0
  0
LINE
  5
182
  8
DEFAULT
 10
15.75027344902824
 20
36.01320869783644
 30
0.0
 11
13.53310039347268
 21
38.29973786450311
 31
0.0
  0
LINE
  5
183
  8
DEFAULT
 10
13.53310039347268
 20
38.29973786450311
 30
0.0
 11
11.33462456013935
 21
40.57473119783644
 31
0.0
  0
LINE
  5
184
  8
DEFAULT
 10
10.17934789347268
 20
37.89217369783644
 30
0.0
 11
11.05028567125046
 21
40.93361203116977
 31
0.0
  0
LINE
  5
185
  8
DEFAULT
 10
11.05028567125046
 20
40.93361203116977
 30
0.0
 11
11.91437956013935
 21
44.01004592005866
 31
0.0
  0
LINE
  5
186
  8
DEFAULT
 10
11.91437956013935
 20
44.01004592005866
 30
0.0
 11
14.72958150458379
 21
43.40235092005867
 31
0.0
  0
LINE
  5
187
  8
DEFAULT
 10
14.72958150458379
 20
43.40235092005867
 30
0.0
 11
18.3527151156949
 21
42.59829980894755
 31
0.0
  0
LINE
  5
188
  8
DEFAULT
 10
14.91782372680602
 20
42.95823897561421
 30
0.0
 11
16.0330601156949
 21
39.418466753392
 31
0.0
  0
LINE
  5
189
  8
DEFAULT
 10
16.0330601156949
 20
39.418466753392
 30
0.0
 11
16.86536872680601
 21
36.59172897561422
 31
0.0
  0
LINE
  5
18A
  8
DEFAULT
 10
16.86536872680601
 20
36.59172897561422
 30
0.0
 11
19.36698650458379
 21
37.03414758672533
 31
0.0
  0
LINE
  5
18B
  8
DEFAULT
 10
19.36698650458379
 20
37.03414758672533
 30
0.0
 11
23.71758317125046
 21
37.90399175339199
 31
0.0
  0
LINE
  5
18C
  8
DEFAULT
 10
21.31026289347268
 20
30.63278314228089
 30
0.0
 11
25.93870733791712
 21
36.01320869783644
 31
0.0
  0
LINE
  5
18D
  8
DEFAULT
 10
25.93870733791712
 20
36.01320869783644
 30
0.0
 11
21.30077317125046
 21
41.29125814228088
 31
0.0
  0
LINE
  5
18E
  8
DEFAULT
 10
19.5757251156949
 20
37.50461203116977
 30
0.0
 11
20.99773706013935
 21
41.70725369783644
 31
0.0
  0
LINE
  5
18F
  8
DEFAULT
 10
20.99773706013935
 20
41.70725369783644
 30
0.0
 11
21.82016789347268
 21
44.17324092005866
 31
0.0
  0
LINE
  5
190
  8
DEFAULT
 10
21.82016789347268
 20
44.17324092005866
 30
0.0
 11
24.12892206013935
 21
43.77368480894755
 31
0.0
  0
LINE
  5
191
  8
DEFAULT
 10
24.12892206013935
 20
43.77368480894755
 30
0.0
 11
28.92412456013935
 21
42.91950397561422
 31
0.0
  0
LINE
  5
192
  8
DEFAULT
 10
24.35395900458379
 20
43.29249592005866
 30
0.0
 11
26.81260844902824
 21
36.50032425339199
 31
0.0
  0
LINE
  5
193
  8
DEFAULT
 10
26.81260844902824
 20
36.50032425339199
 30
0.0
 11
34.32236539347268
 21
37.433774253392
 31
0.0
  0
LINE
  5
194
  8
DEFAULT
 10
31.44232289347268
 20
29.82414592005866
 30
0.0
 11
35.96884983791713
 21
36.01320869783644
 31
0.0
  0
LINE
  5
195
  8
DEFAULT
 10
35.96884983791713
 20
36.01320869783644
 30
0.0
 11
31.40559872680601
 21
42.05008314228088
 31
0.0
  0
LINE
  5
196
  8
DEFAULT
 10
28.86612789347268
 20
37.215969253392
 30
0.0
 11
31.81259844902824
 21
44.18629369783644
 31
0.0
  0
LINE
  5
197
  8
DEFAULT
 10
31.81259844902824
 20
44.18629369783644
 30
0.0
 11
39.36045539347268
 21
43.28843897561421
 31
0.0
  0
LINE
  5
198
  8
DEFAULT
 10
33.81627039347268
 20
43.48588869783644
 30
0.0
 11
36.81262372680602
 21
36.50032425339199
 31
0.0
  0
LINE
  5
199
  8
DEFAULT
 10
36.81262372680602
 20
36.50032425339199
 30
0.0
 11
44.58237789347268
 21
37.17666980894755
 31
0.0
  0
LINE
  5
19A
  8
DEFAULT
 10
41.59703122680601
 20
29.32362480894755
 30
0.0
 11
45.9688651156949
 21
36.01320869783644
 31
0.0
  0
LINE
  5
19B
  8
DEFAULT
 10
45.9688651156949
 20
36.01320869783644
 30
0.0
 11
41.49825344902823
 21
42.40384869783644
 31
0.0
  0
LINE
  5
19C
  8
DEFAULT
 10
38.51347122680601
 20
37.11934342005866
 30
0.0
 11
41.21275039347268
 21
42.90133592005866
 31
0.0
  0
LINE
  5
19D
  8
DEFAULT
 10
41.21275039347268
 20
42.90133592005866
 30
0.0
 11
41.81638844902824
 21
44.17976730894755
 31
0.0
  0
LINE
  5
19E
  8
DEFAULT
 10
41.81638844902824
 20
44.17976730894755
 30
0.0
 11
43.51578956013935
 21
43.98058897561422
 31
0.0
  0
LINE
  5
19F
  8
DEFAULT
 10
43.51578956013935
 20
43.98058897561422
 30
0.0
 11
49.37779206013935
 21
43.314509253392
 31
0.0
  0
LINE
  5
1A0
  8
DEFAULT
 10
43.78502956013935
 20
43.48786425339199
 30
0.0
 11
46.13918622680601
 21
38.07819342005866
 31
0.0
  0
LINE
  5
1A1
  8
DEFAULT
 10
46.13918622680601
 20
38.07819342005866
 30
0.0
 11
46.81637844902824
 21
36.50685064228088
 31
0.0
  0
LINE
  5
1A2
  8
DEFAULT
 10
46.81637844902824
 20
36.50685064228088
 30
0.0
 11
48.60358594902824
 21
36.72296230894755
 31
0.0
  0
LINE
  5
1A3
  8
DEFAULT
 10
48.60358594902824
 20
36.72296230894755
 30
0.0
 11
54.32236067125046
 21
37.433774253392
 31
0.0
  0
LINE
  5
1A4
  8
DEFAULT
 10
51.44231817125046
 20
29.82414592005866
 30
0.0
 11
55.96888039347268
 21
36.01320869783644
 31
0.0
  0
LINE
  5
1A5
  8
DEFAULT
 10
55.96888039347268
 20
36.01320869783644
 30
0.0
 11
51.40559400458379
 21
42.05008314228088
 31
0.0
  0
LINE
  5
1A6
  8
DEFAULT
 10
48.86612317125046
 20
37.215969253392
 30
0.0
 11
51.81262900458379
 21
44.18629369783644
 31
0.0
  0
LINE
  5
1A7
  8
DEFAULT
 10
51.81262900458379
 20
44.18629369783644
 30
0.0
 11
58.9241351156949
 21
42.91950397561422
 31
0.0
  0
LINE
  5
1A8
  8
DEFAULT
 10
54.35396956013935
 20
43.29249592005866
 30
0.0
 11
56.01181344902823
 21
38.71262897561422
 31
0.0
  0
LINE
  5
1A9
  8
DEFAULT
 10
56.01181344902823
 20
38.71262897561422
 30
0.0
 11
56.82016844902823
 21
36.51337703116977
 31
0.0
  0
LINE
  5
1AA
  8
DEFAULT
 10
56.82016844902823
 20
36.51337703116977
 30
0.0
 11
59.36701233791712
 21
37.03414758672533
 31
0.0
  0
LINE
  5
1AB
  8
DEFAULT
 10
59.36701233791712
 20
37.03414758672533
 30
0.0
 11
63.71757372680601
 21
37.90399175339199
 31
0.0
  0
LINE
  5
1AC
  8
DEFAULT
 10
61.31025344902824
 20
30.63278314228089
 30
0.0
 11
65.93869789347268
 21
36.01320869783644
 31
0.0
  0
LINE
  5
1AD
  8
DEFAULT
 10
65.93869789347268
 20
36.01320869783644
 30
0.0
 11
61.30076372680601
 21
41.29125814228088
 31
0.0
  0
LINE
  5
1AE
  8
DEFAULT
 10
59.57575094902823
 20
37.50461203116977
 30
0.0
 11
60.9977276156949
 21
41.70725369783644
 31
0.0
  0
LINE
  5
1AF
  8
DEFAULT
 10
60.9977276156949
 20
41.70725369783644
 30
0.0
 11
61.86538456013935
 21
44.09492425339199
 31
0.0
  0
LINE
  5
1B0
  8
DEFAULT
 10
61.86538456013935
 20
44.09492425339199
 30
0.0
 11
64.72958733791712
 21
43.40235092005867
 31
0.0
  0
LINE
  5
1B1
  8
DEFAULT
 10
64.72958733791712
 20
43.40235092005867
 30
0.0
 11
68.35272094902822
 21
42.59829980894755
 31
0.0
  0
LINE
  5
1B2
  8
DEFAULT
 10
64.91782956013934
 20
42.95823897561421
 30
0.0
 11
66.03303067125046
 21
39.418466753392
 31
0.0
  0
LINE
  5
1B3
  8
DEFAULT
 10
66.03303067125046
 20
39.418466753392
 30
0.0
 11
66.90682594902823
 21
36.663519253392
 31
0.0
  0
LINE
  5
1B4
  8
DEFAULT
 10
66.90682594902823
 20
36.663519253392
 30
0.0
 11
70.02534622680601
 21
37.46524203116977
 31
0.0
  0
LINE
  5
1B5
  8
DEFAULT
 10
70.02534622680601
 20
37.46524203116977
 30
0.0
 11
73.07458094902823
 21
38.24371675339199
 31
0.0
  0
LINE
  5
1B6
  8
DEFAULT
 10
71.32970678236157
 20
31.38247119783644
 30
0.0
 11
73.6015251156949
 21
33.75825314228089
 31
0.0
  0
LINE
  5
1B7
  8
DEFAULT
 10
73.6015251156949
 20
33.75825314228089
 30
0.0
 11
75.76535817125045
 21
36.01320869783644
 31
0.0
  0
LINE
  5
1B8
  8
DEFAULT
 10
75.76535817125045
 20
36.01320869783644
 30
0.0
 11
73.52687733791713
 21
38.31303758672533
 31
0.0
  0
LINE
  5
1B9
  8
DEFAULT
 10
73.52687733791713
 20
38.31303758672533
 30
0.0
 11
71.32808400458379
 21
40.56450064228088
 31
0.0
  0
LINE
  5
1BA
  8
DEFAULT
 10
16.32357261569491
 20
39.80355897561422
 30
0.0
 11
18.83146983791713
 21
42.53924480894755
 31
0.0
  0
LINE
  5
1BB
  8
DEFAULT
 10
18.83146983791713
 20
42.53924480894755
 30
0.0
 11
20.76536233791713
 21
44.67344453116977
 31
0.0
  0
LINE
  5
1BC
  8
DEFAULT
 10
20.76536233791713
 20
44.67344453116977
 30
0.0
 11
18.62784650458379
 21
46.90853869783644
 31
0.0
  0
LINE
  5
1BD
  8
DEFAULT
 10
18.62784650458379
 20
46.90853869783644
 30
0.0
 11
16.33302706013935
 21
49.33378008672533
 31
0.0
  0
LINE
  5
1BE
  8
DEFAULT
 10
15.09456539347268
 20
46.50164480894755
 30
0.0
 11
16.04748872680602
 21
49.70162147561422
 31
0.0
  0
LINE
  5
1BF
  8
DEFAULT
 10
16.04748872680602
 20
49.70162147561422
 30
0.0
 11
16.9068201156949
 21
52.68336980894755
 31
0.0
  0
LINE
  5
1C0
  8
DEFAULT
 10
16.9068201156949
 20
52.68336980894755
 30
0.0
 11
19.79204844902824
 21
52.03937397561422
 31
0.0
  0
LINE
  5
1C1
  8
DEFAULT
 10
19.79204844902824
 20
52.03937397561422
 30
0.0
 11
23.3057151156949
 21
51.2207178645031
 31
0.0
  0
LINE
  5
1C2
  8
DEFAULT
 10
19.97408178236157
 20
51.59670842005866
 30
0.0
 11
21.02193761569491
 21
48.1444603645031
 31
0.0
  0
LINE
  5
1C3
  8
DEFAULT
 10
21.02193761569491
 20
48.1444603645031
 30
0.0
 11
21.85784456013935
 21
45.23891203116978
 31
0.0
  0
LINE
  5
1C4
  8
DEFAULT
 10
21.85784456013935
 20
45.23891203116978
 30
0.0
 11
24.41707094902824
 21
45.71861925339199
 31
0.0
  0
LINE
  5
1C5
  8
DEFAULT
 10
24.41707094902824
 20
45.71861925339199
 30
0.0
 11
28.67523983791713
 21
46.59329647561422
 31
0.0
  0
LINE
  5
1C6
  8
DEFAULT
 10
26.31600317125046
 20
39.14809786450311
 30
0.0
 11
29.45336178236157
 21
42.87378397561422
 31
0.0
  0
LINE
  5
1C7
  8
DEFAULT
 10
29.45336178236157
 20
42.87378397561422
 30
0.0
 11
30.95379622680601
 21
44.67344453116977
 31
0.0
  0
LINE
  5
1C8
  8
DEFAULT
 10
30.95379622680601
 20
44.67344453116977
 30
0.0
 11
29.18338094902824
 21
46.6499878645031
 31
0.0
  0
LINE
  5
1C9
  8
DEFAULT
 10
29.18338094902824
 20
46.6499878645031
 30
0.0
 11
26.29677678236157
 21
49.90030592005866
 31
0.0
  0
LINE
  5
1CA
  8
DEFAULT
 10
24.6220701156949
 20
46.18700230894755
 30
0.0
 11
26.82770733791713
 21
52.82045925339199
 31
0.0
  0
LINE
  5
1CB
  8
DEFAULT
 10
26.82770733791713
 20
52.82045925339199
 30
0.0
 11
33.71759844902824
 21
51.44289730894755
 31
0.0
  0
LINE
  5
1CC
  8
DEFAULT
 10
29.57574039347268
 20
51.84231230894755
 30
0.0
 11
31.82769733791713
 21
45.18670092005866
 31
0.0
  0
LINE
  5
1CD
  8
DEFAULT
 10
31.82769733791713
 20
45.18670092005866
 30
0.0
 11
39.04676539347268
 21
46.31647175339199
 31
0.0
  0
LINE
  5
1CE
  8
DEFAULT
 10
36.41737150458379
 20
38.58577008672533
 30
0.0
 11
39.92116039347268
 21
43.27214064228088
 31
0.0
  0
LINE
  5
1CF
  8
DEFAULT
 10
39.92116039347268
 20
43.27214064228088
 30
0.0
 11
40.95377622680601
 21
44.67344453116977
 31
0.0
  0
LINE
  5
1D0
  8
DEFAULT
 10
40.95377622680601
 20
44.67344453116977
 30
0.0
 11
39.58499844902823
 21
46.35146730894755
 31
0.0
  0
LINE
  5
1D1
  8
DEFAULT
 10
39.58499844902823
 20
46.35146730894755
 30
0.0
 11
36.35076706013935
 21
50.360469253392
 31
0.0
  0
LINE
  5
1D2
  8
DEFAULT
 10
34.19656483791712
 20
46.00366369783644
 30
0.0
 11
36.05136456013935
 21
50.809096753392
 31
0.0
  0
LINE
  5
1D3
  8
DEFAULT
 10
36.05136456013935
 20
50.809096753392
 30
0.0
 11
36.82013789347268
 21
52.83351203116978
 31
0.0
  0
LINE
  5
1D4
  8
DEFAULT
 10
36.82013789347268
 20
52.83351203116978
 30
0.0
 11
39.18029178236157
 21
52.41194258672533
 31
0.0
  0
LINE
  5
1D5
  8
DEFAULT
 10
39.18029178236157
 20
52.41194258672533
 30
0.0
 11
43.88271372680601
 21
51.5486953645031
 31
0.0
  0
LINE
  5
1D6
  8
DEFAULT
 10
39.40155400458379
 20
51.93241175339199
 30
0.0
 11
41.00517594902824
 21
47.42839203116977
 31
0.0
  0
LINE
  5
1D7
  8
DEFAULT
 10
41.00517594902824
 20
47.42839203116977
 30
0.0
 11
41.81638844902824
 21
45.167121753392
 31
0.0
  0
LINE
  5
1D8
  8
DEFAULT
 10
41.81638844902824
 20
45.167121753392
 30
0.0
 11
43.99158094902823
 21
45.52519119783644
 31
0.0
  0
LINE
  5
1D9
  8
DEFAULT
 10
43.99158094902823
 20
45.52519119783644
 30
0.0
 11
49.02663706013934
 21
46.34031953116977
 31
0.0
  0
LINE
  5
1DA
  8
DEFAULT
 10
46.43128622680601
 20
38.55768897561422
 30
0.0
 11
50.95379150458379
 21
44.67344453116977
 31
0.0
  0
LINE
  5
1DB
  8
DEFAULT
 10
50.95379150458379
 20
44.67344453116977
 30
0.0
 11
46.34019900458379
 21
50.33111814228089
 31
0.0
  0
LINE
  5
1DC
  8
DEFAULT
 10
44.22727178236157
 20
46.00916703116977
 30
0.0
 11
46.03889150458379
 21
50.77724092005866
 31
0.0
  0
LINE
  5
1DD
  8
DEFAULT
 10
46.03889150458379
 20
50.77724092005866
 30
0.0
 11
46.83521678236157
 21
52.80740647561421
 31
0.0
  0
LINE
  5
1DE
  8
DEFAULT
 10
46.83521678236157
 20
52.80740647561421
 30
0.0
 11
49.31806678236157
 21
52.31482286450311
 31
0.0
  0
LINE
  5
1DF
  8
DEFAULT
 10
49.31806678236157
 20
52.31482286450311
 30
0.0
 11
53.74218233791712
 21
51.47859842005866
 31
0.0
  0
LINE
  5
1E0
  8
DEFAULT
 10
49.53252039347268
 20
51.845734253392
 30
0.0
 11
51.02036067125046
 21
47.59624369783644
 31
0.0
  0
LINE
  5
1E1
  8
DEFAULT
 10
51.02036067125046
 20
47.59624369783644
 30
0.0
 11
51.83898150458379
 21
45.20628008672533
 31
0.0
  0
LINE
  5
1E2
  8
DEFAULT
 10
51.83898150458379
 20
45.20628008672533
 30
0.0
 11
54.41708150458379
 21
45.71861925339199
 31
0.0
  0
LINE
  5
1E3
  8
DEFAULT
 10
54.41708150458379
 20
45.71861925339199
 30
0.0
 11
58.67525039347268
 21
46.59329647561422
 31
0.0
  0
LINE
  5
1E4
  8
DEFAULT
 10
56.31601372680601
 20
39.14809786450311
 30
0.0
 11
59.45337233791712
 21
42.87378397561422
 31
0.0
  0
LINE
  5
1E5
  8
DEFAULT
 10
59.45337233791712
 20
42.87378397561422
 30
0.0
 11
60.95380678236157
 21
44.67344453116977
 31
0.0
  0
LINE
  5
1E6
  8
DEFAULT
 10
60.95380678236157
 20
44.67344453116977
 30
0.0
 11
59.18339150458379
 21
46.6499878645031
 31
0.0
  0
LINE
  5
1E7
  8
DEFAULT
 10
59.18339150458379
 20
46.6499878645031
 30
0.0
 11
56.29678733791712
 21
49.90030592005866
 31
0.0
  0
LINE
  5
1E8
  8
DEFAULT
 10
54.62208067125046
 20
46.18700230894755
 30
0.0
 11
55.99364539347268
 21
50.3120328645031
 31
0.0
  0
LINE
  5
1E9
  8
DEFAULT
 10
55.99364539347268
 20
50.3120328645031
 30
0.0
 11
56.85029567125046
 21
52.78130092005866
 31
0.0
  0
LINE
  5
1EA
  8
DEFAULT
 10
56.85029567125046
 20
52.78130092005866
 30
0.0
 11
59.8074201156949
 21
52.04209036450311
 31
0.0
  0
LINE
  5
1EB
  8
DEFAULT
 10
59.8074201156949
 20
52.04209036450311
 30
0.0
 11
63.30083733791712
 21
51.20875869783644
 31
0.0
  0
LINE
  5
1EC
  8
DEFAULT
 10
59.98687817125045
 20
51.59847230894755
 30
0.0
 11
61.01190928236157
 21
48.15638425339199
 31
0.0
  0
LINE
  5
1ED
  8
DEFAULT
 10
61.01190928236157
 20
48.15638425339199
 30
0.0
 11
61.89928650458378
 21
45.31073758672532
 31
0.0
  0
LINE
  5
1EE
  8
DEFAULT
 10
61.89928650458378
 20
45.31073758672532
 30
0.0
 11
64.91878206013934
 21
46.07040925339199
 31
0.0
  0
LINE
  5
1EF
  8
DEFAULT
 10
64.91878206013934
 20
46.07040925339199
 30
0.0
 11
68.16648956013935
 21
46.84517980894755
 31
0.0
  0
LINE
  5
1F0
  8
DEFAULT
 10
66.32354317125045
 20
39.80355897561422
 30
0.0
 11
68.83147567125044
 21
42.53924480894755
 31
0.0
  0
LINE
  5
1F1
  8
DEFAULT
 10
68.83147567125044
 20
42.53924480894755
 30
0.0
 11
70.76533289347267
 21
44.67344453116977
 31
0.0
  0
LINE
  5
1F2
  8
DEFAULT
 10
70.76533289347267
 20
44.67344453116977
 30
0.0
 11
68.62785233791712
 21
46.90853869783644
 31
0.0
  0
LINE
  5
1F3
  8
DEFAULT
 10
68.62785233791712
 20
46.90853869783644
 30
0.0
 11
66.33303289347268
 21
49.33378008672533
 31
0.0
  0
LINE
  5
1F4
  8
DEFAULT
 10
21.31428456013935
 20
48.52344953116977
 30
0.0
 11
23.78009539347268
 21
51.15704147561422
 31
0.0
  0
LINE
  5
1F5
  8
DEFAULT
 10
23.78009539347268
 20
51.15704147561422
 30
0.0
 11
25.80302900458379
 21
53.33371564228088
 31
0.0
  0
LINE
  5
1F6
  8
DEFAULT
 10
25.80302900458379
 20
53.33371564228088
 30
0.0
 11
23.45084789347268
 21
55.67697147561422
 31
0.0
  0
LINE
  5
1F7
  8
DEFAULT
 10
23.45084789347268
 20
55.67697147561422
 30
0.0
 11
21.32818400458379
 21
57.80524453116977
 31
0.0
  0
LINE
  5
1F8
  8
DEFAULT
 10
20.26050206013935
 20
55.25208592005866
 30
0.0
 11
21.04229289347268
 21
58.15452980894754
 31
0.0
  0
LINE
  5
1F9
  8
DEFAULT
 10
21.04229289347268
 20
58.15452980894754
 30
0.0
 11
21.94829678236157
 21
61.27181536450311
 31
0.0
  0
LINE
  5
1FA
  8
DEFAULT
 10
21.94829678236157
 20
61.27181536450311
 30
0.0
 11
24.97170817125046
 21
60.51609480894755
 31
0.0
  0
LINE
  5
1FB
  8
DEFAULT
 10
24.97170817125046
 20
60.51609480894755
 30
0.0
 11
28.07819872680601
 21
59.80951619783643
 31
0.0
  0
LINE
  5
1FC
  8
DEFAULT
 10
25.14975511569491
 20
60.09561897561422
 30
0.0
 11
26.09107206013935
 21
57.05206397561422
 31
0.0
  0
LINE
  5
1FD
  8
DEFAULT
 10
26.09107206013935
 20
57.05206397561422
 30
0.0
 11
26.92944844902824
 21
54.02321980894755
 31
0.0
  0
LINE
  5
1FE
  8
DEFAULT
 10
26.92944844902824
 20
54.02321980894755
 30
0.0
 11
29.74383900458379
 21
54.58290175339199
 31
0.0
  0
LINE
  5
1FF
  8
DEFAULT
 10
29.74383900458379
 20
54.58290175339199
 30
0.0
 11
33.36348011569491
 21
55.42625230894755
 31
0.0
  0
LINE
  5
200
  8
DEFAULT
 10
31.30075317125046
 20
48.05566619783644
 30
0.0
 11
34.22937317125046
 21
51.38846369783644
 31
0.0
  0
LINE
  5
201
  8
DEFAULT
 10
34.22937317125046
 20
51.38846369783644
 30
0.0
 11
35.90101067125046
 21
53.33371564228088
 31
0.0
  0
LINE
  5
202
  8
DEFAULT
 10
35.90101067125046
 20
53.33371564228088
 30
0.0
 11
33.84329317125046
 21
55.49119869783644
 31
0.0
  0
LINE
  5
203
  8
DEFAULT
 10
33.84329317125046
 20
55.49119869783644
 30
0.0
 11
31.30308150458379
 21
58.20423619783644
 31
0.0
  0
LINE
  5
204
  8
DEFAULT
 10
29.9274951156949
 20
55.03089425339199
 30
0.0
 11
31.00695983791712
 21
58.58728230894755
 31
0.0
  0
LINE
  5
205
  8
DEFAULT
 10
31.00695983791712
 20
58.58728230894755
 30
0.0
 11
31.89553650458379
 21
61.36322008672532
 31
0.0
  0
LINE
  5
206
  8
DEFAULT
 10
31.89553650458379
 20
61.36322008672532
 30
0.0
 11
34.77871872680601
 21
60.67780814228088
 31
0.0
  0
LINE
  5
207
  8
DEFAULT
 10
34.77871872680601
 20
60.67780814228088
 30
0.0
 11
38.29453733791713
 21
59.89756953116976
 31
0.0
  0
LINE
  5
208
  8
DEFAULT
 10
34.96530289347268
 20
60.2389878645031
 30
0.0
 11
36.04748400458379
 21
56.80406119783644
 31
0.0
  0
LINE
  5
209
  8
DEFAULT
 10
36.04748400458379
 20
56.80406119783644
 30
0.0
 11
36.88046289347268
 21
53.93834147561422
 31
0.0
  0
LINE
  5
20A
  8
DEFAULT
 10
36.88046289347268
 20
53.93834147561422
 30
0.0
 11
39.63100067125045
 21
54.49590675339199
 31
0.0
  0
LINE
  5
20B
  8
DEFAULT
 10
39.63100067125045
 20
54.49590675339199
 30
0.0
 11
43.48400428236157
 21
55.37227730894755
 31
0.0
  0
LINE
  5
20C
  8
DEFAULT
 10
41.30983483791712
 20
47.85973342005866
 30
0.0
 11
44.40863483791713
 21
51.50054119783644
 31
0.0
  0
LINE
  5
20D
  8
DEFAULT
 10
44.40863483791713
 20
51.50054119783644
 30
0.0
 11
45.94625206013934
 21
53.33371564228088
 31
0.0
  0
LINE
  5
20E
  8
DEFAULT
 10
45.94625206013934
 20
53.33371564228088
 30
0.0
 11
43.97503567125046
 21
55.43697675339199
 31
0.0
  0
LINE
  5
20F
  8
DEFAULT
 10
43.97503567125046
 20
55.43697675339199
 30
0.0
 11
41.28958539347268
 21
58.3355753645031
 31
0.0
  0
LINE
  5
210
  8
DEFAULT
 10
39.82051289347268
 20
54.95349480894755
 30
0.0
 11
40.98806622680601
 21
58.72849925339199
 31
0.0
  0
LINE
  5
211
  8
DEFAULT
 10
40.98806622680601
 20
58.72849925339199
 30
0.0
 11
41.87290344902824
 21
61.40237842005866
 31
0.0
  0
LINE
  5
212
  8
DEFAULT
 10
41.87290344902824
 20
61.40237842005866
 30
0.0
 11
44.79323317125046
 21
60.68144175339199
 31
0.0
  0
LINE
  5
213
  8
DEFAULT
 10
44.79323317125046
 20
60.68144175339199
 30
0.0
 11
48.2907426156949
 21
59.8859278645031
 31
0.0
  0
LINE
  5
214
  8
DEFAULT
 10
44.9773126156949
 20
60.24149258672533
 30
0.0
 11
46.03709233791712
 21
56.81485619783643
 31
0.0
  0
LINE
  5
215
  8
DEFAULT
 10
46.03709233791712
 20
56.81485619783643
 30
0.0
 11
46.88799233791713
 21
53.951394253392
 31
0.0
  0
LINE
  5
216
  8
DEFAULT
 10
46.88799233791713
 20
53.951394253392
 30
0.0
 11
49.74383428236157
 21
54.58290175339199
 31
0.0
  0
LINE
  5
217
  8
DEFAULT
 10
49.74383428236157
 20
54.58290175339199
 30
0.0
 11
53.36351067125045
 21
55.42625230894755
 31
0.0
  0
LINE
  5
218
  8
DEFAULT
 10
51.31941039347268
 20
48.0165078645031
 30
0.0
 11
54.25565039347268
 21
51.42977397561422
 31
0.0
  0
LINE
  5
219
  8
DEFAULT
 10
54.25565039347268
 20
51.42977397561422
 30
0.0
 11
55.87842817125046
 21
53.33371564228088
 31
0.0
  0
LINE
  5
21A
  8
DEFAULT
 10
55.87842817125046
 20
53.33371564228088
 30
0.0
 11
53.84328844902824
 21
55.49119869783644
 31
0.0
  0
LINE
  5
21B
  8
DEFAULT
 10
53.84328844902824
 20
55.49119869783644
 30
0.0
 11
51.30311206013935
 21
58.20423619783644
 31
0.0
  0
LINE
  5
21C
  8
DEFAULT
 10
49.92749039347268
 20
55.03089425339199
 30
0.0
 11
51.0069551156949
 21
58.58728230894755
 31
0.0
  0
LINE
  5
21D
  8
DEFAULT
 10
51.0069551156949
 20
58.58728230894755
 30
0.0
 11
51.89175706013934
 21
61.36974647561421
 31
0.0
  0
LINE
  5
21E
  8
DEFAULT
 10
51.89175706013934
 20
61.36974647561421
 30
0.0
 11
55.04075733791712
 21
60.52685453116977
 31
0.0
  0
LINE
  5
21F
  8
DEFAULT
 10
55.04075733791712
 20
60.52685453116977
 30
0.0
 11
58.05563150458379
 21
59.75716397561422
 31
0.0
  0
LINE
  5
220
  8
DEFAULT
 10
55.20638650458379
 20
60.10228647561422
 30
0.0
 11
56.04723233791712
 21
57.10649758672533
 31
0.0
  0
LINE
  5
221
  8
DEFAULT
 10
56.04723233791712
 20
57.10649758672533
 30
0.0
 11
56.92190956013935
 21
54.010131753392
 31
0.0
  0
LINE
  5
222
  8
DEFAULT
 10
56.92190956013935
 20
54.010131753392
 30
0.0
 11
60.05619900458379
 21
54.81587619783644
 31
0.0
  0
LINE
  5
223
  8
DEFAULT
 10
60.05619900458379
 20
54.81587619783644
 30
0.0
 11
63.03664206013934
 21
55.57678258672533
 31
0.0
  0
LINE
  5
224
  8
DEFAULT
 10
61.30637289347268
 20
48.53364480894755
 30
0.0
 11
63.77475900458379
 21
51.14236592005867
 31
0.0
  0
LINE
  5
225
  8
DEFAULT
 10
63.77475900458379
 20
51.14236592005867
 30
0.0
 11
65.79550539347268
 21
53.33371564228088
 31
0.0
  0
LINE
  5
226
  8
DEFAULT
 10
65.79550539347268
 20
53.33371564228088
 30
0.0
 11
63.4853401156949
 21
55.64518619783644
 31
0.0
  0
LINE
  5
227
  8
DEFAULT
 10
63.4853401156949
 20
55.64518619783644
 30
0.0
 11
61.33614733791713
 21
57.84588453116977
 31
0.0
  0
LINE
  5
228
  8
DEFAULT
 10
26.36616817125046
 20
57.41648342005865
 30
0.0
 11
28.53130650458379
 21
59.75345980894755
 31
0.0
  0
LINE
  5
229
  8
DEFAULT
 10
28.53130650458379
 20
59.75345980894755
 30
0.0
 11
30.59198733791712
 21
61.99395147561422
 31
0.0
  0
LINE
  5
22A
  8
DEFAULT
 10
30.59198733791712
 20
61.99395147561422
 30
0.0
 11
28.20971428236157
 21
64.3925228645031
 31
0.0
  0
LINE
  5
22B
  8
DEFAULT
 10
28.20971428236157
 20
64.3925228645031
 30
0.0
 11
26.38338372680601
 21
66.24301869783643
 31
0.0
  0
LINE
  5
22C
  8
DEFAULT
 10
25.42555678236157
 20
64.07138925339198
 30
0.0
 11
27.00861178236157
 21
69.82762897561422
 31
0.0
  0
LINE
  5
22D
  8
DEFAULT
 10
27.00861178236157
 20
69.82762897561422
 30
0.0
 11
32.74209733791712
 21
68.29943092005867
 31
0.0
  0
LINE
  5
22E
  8
DEFAULT
 10
30.46530483791712
 20
68.55000897561422
 30
0.0
 11
31.11928428236157
 21
66.12215703116978
 31
0.0
  0
LINE
  5
22F
  8
DEFAULT
 10
31.11928428236157
 20
66.12215703116978
 30
0.0
 11
31.97843928236157
 21
62.76833397561421
 31
0.0
  0
LINE
  5
230
  8
DEFAULT
 10
31.97843928236157
 20
62.76833397561421
 30
0.0
 11
35.19160983791713
 21
63.58056953116977
 31
0.0
  0
LINE
  5
231
  8
DEFAULT
 10
35.19160983791713
 20
63.58056953116977
 30
0.0
 11
37.8926176156949
 21
64.30048314228088
 31
0.0
  0
LINE
  5
232
  8
DEFAULT
 10
36.33425706013935
 20
57.18506119783644
 30
0.0
 11
38.76785928236157
 21
59.83971397561422
 31
0.0
  0
LINE
  5
233
  8
DEFAULT
 10
38.76785928236157
 20
59.83971397561422
 30
0.0
 11
40.72013150458379
 21
61.99395147561422
 31
0.0
  0
LINE
  5
234
  8
DEFAULT
 10
40.72013150458379
 20
61.99395147561422
 30
0.0
 11
38.32716928236157
 21
64.37054480894756
 31
0.0
  0
LINE
  5
235
  8
DEFAULT
 10
38.32716928236157
 20
64.37054480894756
 30
0.0
 11
36.35323650458379
 21
66.34969869783643
 31
0.0
  0
LINE
  5
236
  8
DEFAULT
 10
35.34827844902824
 20
63.99194369783643
 30
0.0
 11
36.07528289347268
 21
66.69101119783643
 31
0.0
  0
LINE
  5
237
  8
DEFAULT
 10
36.07528289347268
 20
66.69101119783643
 30
0.0
 11
36.97842928236157
 21
69.87984008672532
 31
0.0
  0
LINE
  5
238
  8
DEFAULT
 10
36.97842928236157
 20
69.87984008672532
 30
0.0
 11
40.26938733791712
 21
68.97683480894754
 31
0.0
  0
LINE
  5
239
  8
DEFAULT
 10
40.26938733791712
 20
68.97683480894754
 30
0.0
 11
42.78518678236157
 21
68.32045647561421
 31
0.0
  0
LINE
  5
23A
  8
DEFAULT
 10
40.42556206013935
 20
68.57678480894755
 30
0.0
 11
41.11499567125045
 21
66.0698753645031
 31
0.0
  0
LINE
  5
23B
  8
DEFAULT
 10
41.11499567125045
 20
66.0698753645031
 30
0.0
 11
41.97845456013935
 21
62.76833397561421
 31
0.0
  0
LINE
  5
23C
  8
DEFAULT
 10
41.97845456013935
 20
62.76833397561421
 30
0.0
 11
45.1916251156949
 21
63.58056953116977
 31
0.0
  0
LINE
  5
23D
  8
DEFAULT
 10
45.1916251156949
 20
63.58056953116977
 30
0.0
 11
47.8925976156949
 21
64.30048314228088
 31
0.0
  0
LINE
  5
23E
  8
DEFAULT
 10
46.32605261569491
 20
57.19419814228088
 30
0.0
 11
48.76374706013934
 21
59.82535592005866
 31
0.0
  0
LINE
  5
23F
  8
DEFAULT
 10
48.76374706013934
 20
59.82535592005866
 30
0.0
 11
50.73521039347268
 21
61.99395147561422
 31
0.0
  0
LINE
  5
240
  8
DEFAULT
 10
50.73521039347268
 20
61.99395147561422
 30
0.0
 11
48.32718456013934
 21
64.37054480894756
 31
0.0
  0
LINE
  5
241
  8
DEFAULT
 10
48.32718456013934
 20
64.37054480894756
 30
0.0
 11
46.35321650458379
 21
66.34969869783643
 31
0.0
  0
LINE
  5
242
  8
DEFAULT
 10
45.34825844902824
 20
63.99194369783643
 30
0.0
 11
46.07529817125046
 21
66.69101119783643
 31
0.0
  0
LINE
  5
243
  8
DEFAULT
 10
46.07529817125046
 20
66.69101119783643
 30
0.0
 11
46.97844456013934
 21
69.87984008672532
 31
0.0
  0
LINE
  5
244
  8
DEFAULT
 10
46.97844456013934
 20
69.87984008672532
 30
0.0
 11
50.31254733791712
 21
68.94698980894755
 31
0.0
  0
LINE
  5
245
  8
DEFAULT
 10
50.31254733791712
 20
68.94698980894755
 30
0.0
 11
52.7420926156949
 21
68.29943092005867
 31
0.0
  0
LINE
  5
246
  8
DEFAULT
 10
50.4653001156949
 20
68.55000897561422
 30
0.0
 11
51.11927956013935
 21
66.12215703116978
 31
0.0
  0
LINE
  5
247
  8
DEFAULT
 10
51.11927956013935
 20
66.12215703116978
 30
0.0
 11
52.01237178236157
 21
62.82707147561422
 31
0.0
  0
LINE
  5
248
  8
DEFAULT
 10
52.01237178236157
 20
62.82707147561422
 30
0.0
 11
55.28466789347268
 21
63.68640286450311
 31
0.0
  0
LINE
  5
249
  8
DEFAULT
 10
55.28466789347268
 20
63.68640286450311
 30
0.0
 11
57.76628317125046
 21
64.33389119783644
 31
0.0
  0
LINE
  5
24A
  8
DEFAULT
 10
56.33210039347268
 20
57.46220342005866
 30
0.0
 11
58.50609344902823
 21
59.688301753392
 31
0.0
  0
LINE
  5
24B
  8
DEFAULT
 10
58.50609344902823
 20
59.688301753392
 30
0.0
 11
60.65983706013934
 21
61.99395147561422
 31
0.0
  0
LINE
  5
24C
  8
DEFAULT
 10
60.65983706013934
 20
61.99395147561422
 30
0.0
 11
58.18901678236156
 21
64.39820258672532
 31
0.0
  0
LINE
  5
24D
  8
DEFAULT
 10
58.18901678236156
 20
64.39820258672532
 30
0.0
 11
56.38745122680601
 21
66.22361592005866
 31
0.0
  0
ENDSEC
  0
EOF
