  0
SECTION
  2
HEADER
  9
$ACADVER
  1
AC1009
  9
$DWGCODEPAGE
  3
ansi_1252
  9
$INSBASE
 10
0.0
 20
0.0
 30
0.0
  9
$EXTMIN
 10
-39.99999055555556
 20
-38.97114944444444
 30
0.0
  9
$EXTMAX
 10
140.0000022222222
 20
38.97114944444444
 30
0.0
  9
$LIMMIN
 10
0.0
 20
0.0
  9
$LIMMAX
 10
12.0
 20
9.0
  9
$ORTHOMODE
 70
     0
  9
$REGENMODE
 70
     1
  9
$FILLMODE
 70
     1
  9
$QTEXTMODE
 70
     0
  9
$MIRRTEXT
 70
     1
  9
$DRAGMODE
 70
     2
  9
$LTSCALE
 40
1.0
  9
$OSMODE
 70
    37
  9
$ATTMODE
 70
     1
  9
$TEXTSIZE
 40
0.2
  9
$TRACEWID
 40
0.05
  9
$TEXTSTYLE
  7
STANDARD
  9
$CLAYER
  8
DEFAULT
  9
$CELTYPE
  6
BYLAYER
  9
$CECOLOR
 62
   256
  9
$DIMSCALE
 40
1.0
  9
$DIMASZ
 40
0.18
  9
$DIMEXO
 40
0.0625
  9
$DIMDLI
 40
0.38
  9
$DIMRND
 40
0.0
  9
$DIMDLE
 40
0.0
  9
$DIMEXE
 40
0.18
  9
$DIMTP
 40
0.0
  9
$DIMTM
 40
0.0
  9
$DIMTXT
 40
0.18
  9
$DIMCEN
 40
0.09
  9
$DIMTSZ
 40
0.0
  9
$DIMTOL
 70
     0
  9
$DIMLIM
 70
     0
  9
$DIMTIH
 70
     1
  9
$DIMTOH
 70
     1
  9
$DIMSE1
 70
     0
  9
$DIMSE2
 70
     0
  9
$DIMTAD
 70
     0
  9
$DIMZIN
 70
     0
  9
$DIMBLK
  1

  9
$DIMASO
 70
     1
  9
$DIMSHO
 70
     1
  9
$DIMPOST
  1

  9
$DIMAPOST
  1

  9
$DIMALT
 70
     0
  9
$DIMALTD
 70
     2
  9
$DIMALTF
 40
25.4
  9
$DIMLFAC
 40
1.0
  9
$DIMTOFL
 70
     0
  9
$DIMTVP
 40
0.0
  9
$DIMTIX
 70
     0
  9
$DIMSOXD
 70
     0
  9
$DIMSAH
 70
     0
  9
$DIMBLK1
  1

  9
$DIMBLK2
  1

  9
$DIMSTYLE
  2
STANDARD_ACAD
  9
$DIMCLRD
 70
     0
  9
$DIMCLRE
 70
     0
  9
$DIMCLRT
 70
     0
  9
$DIMTFAC
 40
1.0
  9
$DIMGAP
 40
0.09
  9
$LUNITS
 70
     2
  9
$LUPREC
 70
     3
  9
$SKETCHINC
 40
0.1
  9
$FILLETRAD
 40
0.0
  9
$AUNITS
 70
     0
  9
$AUPREC
 70
     0
  9
$MENU
  1
.
  9
$ELEVATION
 40
0.0
  9
$PELEVATION
 40
0.0
  9
$THICKNESS
 40
0.0
  9
$LIMCHECK
 70
     0
  9
$CHAMFERA
 40
0.0
  9
$CHAMFERB
 40
0.0
  9
$SKPOLY
 70
     0
  9
$TDCREATE
 40
2460762.71796037
  9
$TDUPDATE
 40
2460762.717975961
  9
$TDINDWG
 40
0.0000000116
  9
$TDUSRTIMER
 40
0.0000000116
  9
$USRTIMER
 70
     1
  9
$ANGBASE
 50
0.0
  9
$ANGDIR
 70
     0
  9
$PDMODE
 70
     0
  9
$PDSIZE
 40
0.0
  9
$PLINEWID
 40
0.0
  9
$COORDS
 70
     1
  9
$SPLFRAME
 70
     0
  9
$SPLINETYPE
 70
     6
  9
$SPLINESEGS
 70
     8
  9
$ATTDIA
 70
     0
  9
$ATTREQ
 70
     1
  9
$HANDLING
 70
     1
  9
$HANDSEED
  5
3A9
  9
$SURFTAB1
 70
     6
  9
$SURFTAB2
 70
     6
  9
$SURFTYPE
 70
     6
  9
$SURFU
 70
     6
  9
$SURFV
 70
     6
  9
$UCSNAME
  2

  9
$UCSORG
 10
0.0
 20
0.0
 30
0.0
  9
$UCSXDIR
 10
1.0
 20
0.0
 30
0.0
  9
$UCSYDIR
 10
0.0
 20
1.0
 30
0.0
  9
$PUCSNAME
  2

  9
$PUCSORG
 10
0.0
 20
0.0
 30
0.0
  9
$PUCSXDIR
 10
1.0
 20
0.0
 30
0.0
  9
$PUCSYDIR
 10
0.0
 20
1.0
 30
0.0
  9
$USERI1
 70
     0
  9
$USERI2
 70
     0
  9
$USERI3
 70
     0
  9
$USERI4
 70
     0
  9
$USERI5
 70
     0
  9
$USERR1
 40
0.0
  9
$USERR2
 40
0.0
  9
$USERR3
 40
0.0
  9
$USERR4
 40
0.0
  9
$USERR5
 40
0.0
  9
$WORLDVIEW
 70
     1
  9
$SHADEDGE
 70
     3
  9
$SHADEDIF
 70
    70
  9
$TILEMODE
 70
     1
  9
$MAXACTVP
 70
    64
  9
$PLIMCHECK
 70
     0
  9
$PEXTMIN
 10
1.000000000000000E+20
 20
1.000000000000000E+20
 30
1.000000000000000E+20
  9
$PEXTMAX
 10
-1.000000000000000E+20
 20
-1.000000000000000E+20
 30
-1.000000000000000E+20
  9
$PLIMMIN
 10
0.0
 20
0.0
  9
$PLIMMAX
 10
12.0
 20
9.0
  9
$UNITMODE
 70
     0
  9
$VISRETAIN
 70
     1
  9
$PLINEGEN
 70
     0
  9
$PSLTSCALE
 70
     1
  0
ENDSEC
  0
SECTION
  2
TABLES
  0
TABLE
  2
VPORT
 70
     1
  0
VPORT
  2
*ACTIVE
 70
     0
 10
0.0
 20
0.0
 11
1.0
 21
1.0
 12
10.42990654205607
 22
4.5
 13
0.0
 23
0.0
 14
0.5
 24
0.5
 15
0.5
 25
0.5
 16
0.0
 26
0.0
 36
1.0
 17
0.0
 27
0.0
 37
0.0
 40
9.0
 41
1.972972972850329
 42
50.0
 43
0.0
 44
0.0
 50
0.0
 51
0.0
 71
     0
 72
   100
 73
     1
 74
     3
 75
     0
 76
     0
 77
     0
 78
     0
  0
ENDTAB
  0
TABLE
  2
LTYPE
 70
     1
  0
LTYPE
  2
CONTINUOUS
 70
     0
  3
Solid line
 72
    65
 73
     0
 40
0.0
  0
ENDTAB
  0
TABLE
  2
LAYER
 70
     2
  0
LAYER
  2
0
 70
     0
 62
     7
  6
CONTINUOUS
  0
LAYER
  2
DEFAULT
 70
     0
 62
     7
  6
CONTINUOUS
  0
ENDTAB
  0
TABLE
  2
STYLE
 70
     1
  0
STYLE
  2
STANDARD
 70
     0
 40
0.0
 41
1.0
 50
0.0
 71
     0
 42
0.2
  3
txt
  4

  0
ENDTAB
  0
TABLE
  2
VIEW
 70
     0
  0
ENDTAB
  0
TABLE
  2
UCS
 70
     0
  0
ENDTAB
  0
TABLE
  2
APPID
 70
     2
  0
APPID
  2
ACAD
 70
     0
  0
APPID
  2
RHINO
 70
     0
  0
ENDTAB
  0
TABLE
  2
DIMSTYLE
 70
     1
  0
DIMSTYLE
  2
STANDARD_ACAD
 70
     0
  3

  4

  5

  6

  7

 40
1.0
 41
0.18
 42
0.0625
 43
0.38
 44
0.18
 45
0.0
 46
0.0
 47
0.0
 48
0.0
140
0.18
141
0.09
142
0.0
143
25.4
144
1.0
145
0.0
146
1.0
147
0.09
 71
     0
 72
     0
 73
     1
 74
     1
 75
     0
 76
     0
 77
     0
 78
     0
170
     0
171
     2
172
     0
173
     0
174
     0
175
     0
176
     0
177
     0
178
     0
  0
ENDTAB
  0
ENDSEC
  0
SECTION
  2
BLOCKS
  0
BLOCK
  8
0
  2
$MODEL_SPACE
 70
     0
 10
0.0
 20
0.0
 30
0.0
  3
$MODEL_SPACE
  1

  0
ENDBLK
  5
21
  8
0
  0
BLOCK
 67
     1
  8
0
  2
$PAPER_SPACE
 70
     0
 10
0.0
 20
0.0
 30
0.0
  3
$PAPER_SPACE
  1

  0
ENDBLK
  5
1D
 67
     1
  8
0
  0
ENDSEC
  0
SECTION
  2
ENTITIES
  0
LINE
  5
60
  8
DEFAULT
 10
135.2812466666666
 20
38.4839986111111
 30
0.0
 11
131.6738469444444
 21
31.35308972222222
 31
0.0
  0
LINE
  5
61
  8
DEFAULT
 10
134.4375080555555
 20
38.97114944444444
 30
0.0
 11
130.0656741666666
 21
32.28156555555555
 31
0.0
  0
LINE
  5
62
  8
DEFAULT
 10
124.4374927777778
 20
38.97114944444444
 30
0.0
 11
120.0656588888889
 21
32.28156555555555
 31
0.0
  0
LINE
  5
63
  8
DEFAULT
 10
114.4375127777778
 20
38.97114944444444
 30
0.0
 11
110.0656788888889
 21
32.28156555555555
 31
0.0
  0
LINE
  5
64
  8
DEFAULT
 10
104.4374975
 20
38.97114944444444
 30
0.0
 11
100.0656636111111
 21
32.28156555555555
 31
0.0
  0
LINE
  5
65
  8
DEFAULT
 10
94.43748222222222
 20
38.97114944444444
 30
0.0
 11
90.06564833333333
 21
32.28156555555555
 31
0.0
  0
LINE
  5
66
  8
DEFAULT
 10
84.43750222222222
 20
38.97114944444444
 30
0.0
 11
80.06566833333332
 21
32.28156555555555
 31
0.0
  0
LINE
  5
67
  8
DEFAULT
 10
74.43748694444443
 20
38.97114944444444
 30
0.0
 11
70.06565305555554
 21
32.28156555555555
 31
0.0
  0
LINE
  5
68
  8
DEFAULT
 10
60.28125555555555
 20
30.79802916666667
 30
0.0
 11
68.26048916666666
 21
31.23935416666666
 31
0.0
  0
LINE
  5
69
  8
DEFAULT
 10
135.2812466666666
 20
22.13775805555555
 30
0.0
 11
131.6738469444444
 21
29.26866694444444
 31
0.0
  0
LINE
  5
6A
  8
DEFAULT
 10
60.28125555555555
 20
29.82376277777777
 30
0.0
 11
68.26048916666666
 21
29.3824025
 31
0.0
  0
LINE
  5
6B
  8
DEFAULT
 10
135.2812466666666
 20
21.16349166666667
 30
0.0
 11
131.6738469444444
 21
14.03258277777778
 31
0.0
  0
LINE
  5
6C
  8
DEFAULT
 10
60.28125555555555
 20
13.47752222222222
 30
0.0
 11
68.26048916666666
 21
13.91884722222222
 31
0.0
  0
LINE
  5
6D
  8
DEFAULT
 10
135.2812466666666
 20
4.817251111111111
 30
0.0
 11
131.6738469444444
 21
11.94816
 31
0.0
  0
LINE
  5
6E
  8
DEFAULT
 10
60.28125555555555
 20
12.50325583333333
 30
0.0
 11
68.26048916666666
 21
12.06189555555556
 31
0.0
  0
LINE
  5
6F
  8
DEFAULT
 10
135.2812466666666
 20
3.842984722222222
 30
0.0
 11
131.6738469444444
 21
-3.287924166666667
 31
0.0
  0
LINE
  5
70
  8
DEFAULT
 10
60.28125555555555
 20
-3.842984722222222
 30
0.0
 11
68.26048916666666
 21
-3.401659722222222
 31
0.0
  0
LINE
  5
71
  8
DEFAULT
 10
135.2812466666666
 20
-12.50325583333333
 30
0.0
 11
131.6738469444444
 21
-5.372346944444444
 31
0.0
  0
LINE
  5
72
  8
DEFAULT
 10
60.28125555555555
 20
-4.817251111111111
 30
0.0
 11
68.26048916666666
 21
-5.258611388888888
 31
0.0
  0
LINE
  5
73
  8
DEFAULT
 10
135.2812466666666
 20
-13.47752222222222
 30
0.0
 11
131.6738469444444
 21
-20.60843111111111
 31
0.0
  0
LINE
  5
74
  8
DEFAULT
 10
60.28125555555555
 20
-21.16349166666667
 30
0.0
 11
68.26048916666666
 21
-20.72216666666667
 31
0.0
  0
LINE
  5
75
  8
DEFAULT
 10
135.2812466666666
 20
-29.82376277777777
 30
0.0
 11
131.6738469444444
 21
-22.69285388888889
 31
0.0
  0
LINE
  5
76
  8
DEFAULT
 10
60.28125555555555
 20
-22.13775805555555
 30
0.0
 11
68.26048916666666
 21
-22.57911833333333
 31
0.0
  0
LINE
  5
77
  8
DEFAULT
 10
130.2812566666666
 20
-38.4839986111111
 30
0.0
 11
126.6738216666667
 21
-31.35308972222222
 31
0.0
  0
LINE
  5
78
  8
DEFAULT
 10
129.4374827777778
 20
-38.97114944444444
 30
0.0
 11
125.0656488888889
 21
-32.28156555555555
 31
0.0
  0
LINE
  5
79
  8
DEFAULT
 10
119.4375027777778
 20
-38.97114944444444
 30
0.0
 11
115.0656688888889
 21
-32.28156555555555
 31
0.0
  0
LINE
  5
7A
  8
DEFAULT
 10
109.4374875
 20
-38.97114944444444
 30
0.0
 11
105.0656536111111
 21
-32.28156555555555
 31
0.0
  0
LINE
  5
7B
  8
DEFAULT
 10
99.43750749999998
 20
-38.97114944444444
 30
0.0
 11
95.06567361111111
 21
-32.28156555555555
 31
0.0
  0
LINE
  5
7C
  8
DEFAULT
 10
89.4374922222222
 20
-38.97114944444444
 30
0.0
 11
85.06565833333333
 21
-32.28156555555555
 31
0.0
  0
LINE
  5
7D
  8
DEFAULT
 10
79.43751222222221
 20
-38.97114944444444
 30
0.0
 11
75.06567833333332
 21
-32.28156555555555
 31
0.0
  0
LINE
  5
7E
  8
DEFAULT
 10
65.0000111111111
 20
38.97114944444444
 30
0.0
 11
135.0000122222222
 21
38.97114944444444
 31
0.0
  0
LINE
  5
7F
  8
DEFAULT
 10
135.0000122222222
 20
38.97114944444444
 30
0.0
 11
140.0000022222222
 21
30.31087833333333
 31
0.0
  0
LINE
  5
80
  8
DEFAULT
 10
140.0000022222222
 20
30.31087833333333
 30
0.0
 11
135.0000122222222
 21
21.6506425
 31
0.0
  0
LINE
  5
81
  8
DEFAULT
 10
135.0000122222222
 20
21.6506425
 30
0.0
 11
140.0000022222222
 21
12.99037138888889
 31
0.0
  0
LINE
  5
82
  8
DEFAULT
 10
140.0000022222222
 20
12.99037138888889
 30
0.0
 11
135.0000122222222
 21
4.330135555555555
 31
0.0
  0
LINE
  5
83
  8
DEFAULT
 10
135.0000122222222
 20
4.330135555555555
 30
0.0
 11
140.0000022222222
 21
-4.330135555555555
 31
0.0
  0
LINE
  5
84
  8
DEFAULT
 10
140.0000022222222
 20
-4.330135555555555
 30
0.0
 11
135.0000122222222
 21
-12.99037138888889
 31
0.0
  0
LINE
  5
85
  8
DEFAULT
 10
135.0000122222222
 20
-12.99037138888889
 30
0.0
 11
140.0000022222222
 21
-21.6506425
 31
0.0
  0
LINE
  5
86
  8
DEFAULT
 10
140.0000022222222
 20
-21.6506425
 30
0.0
 11
129.9999869444444
 21
-38.97114944444444
 31
0.0
  0
LINE
  5
87
  8
DEFAULT
 10
129.9999869444444
 20
-38.97114944444444
 30
0.0
 11
70.0000011111111
 21
-38.97114944444444
 31
0.0
  0
LINE
  5
88
  8
DEFAULT
 10
70.0000011111111
 20
-38.97114944444444
 30
0.0
 11
59.99998583333333
 21
-21.6506425
 31
0.0
  0
LINE
  5
89
  8
DEFAULT
 10
59.99998583333333
 20
-21.6506425
 30
0.0
 11
65.0000111111111
 21
-12.99037138888889
 31
0.0
  0
LINE
  5
8A
  8
DEFAULT
 10
65.0000111111111
 20
-12.99037138888889
 30
0.0
 11
59.99998583333333
 21
-4.330135555555555
 31
0.0
  0
LINE
  5
8B
  8
DEFAULT
 10
59.99998583333333
 20
-4.330135555555555
 30
0.0
 11
65.0000111111111
 21
4.330135555555555
 31
0.0
  0
LINE
  5
8C
  8
DEFAULT
 10
65.0000111111111
 20
4.330135555555555
 30
0.0
 11
59.99998583333333
 21
12.99037138888889
 31
0.0
  0
LINE
  5
8D
  8
DEFAULT
 10
59.99998583333333
 20
12.99037138888889
 30
0.0
 11
65.0000111111111
 21
21.6506425
 31
0.0
  0
LINE
  5
8E
  8
DEFAULT
 10
65.0000111111111
 20
21.6506425
 30
0.0
 11
59.99998583333333
 21
30.31087833333333
 31
0.0
  0
LINE
  5
8F
  8
DEFAULT
 10
59.99998583333333
 20
30.31087833333333
 30
0.0
 11
65.0000111111111
 21
38.97114944444444
 31
0.0
  0
LINE
  5
90
  8
DEFAULT
 10
65.28124555555556
 20
-30.79802916666667
 30
0.0
 11
73.26051444444444
 21
-31.23935416666666
 31
0.0
  0
LINE
  5
91
  8
DEFAULT
 10
-34.70366722222222
 20
-30.82413472222222
 30
0.0
 11
-27.78266111111111
 21
-32.13230527777777
 31
0.0
  0
LINE
  5
92
  8
DEFAULT
 10
-35.00000055555555
 20
38.97114944444444
 30
0.0
 11
35.00000055555555
 21
38.97114944444444
 31
0.0
  0
LINE
  5
93
  8
DEFAULT
 10
35.00000055555555
 20
38.97114944444444
 30
0.0
 11
39.99999055555556
 21
30.31087833333333
 31
0.0
  0
LINE
  5
94
  8
DEFAULT
 10
39.99999055555556
 20
30.31087833333333
 30
0.0
 11
35.00000055555555
 21
21.6506425
 31
0.0
  0
LINE
  5
95
  8
DEFAULT
 10
35.00000055555555
 20
21.6506425
 30
0.0
 11
39.99999055555556
 21
12.99037138888889
 31
0.0
  0
LINE
  5
96
  8
DEFAULT
 10
39.99999055555556
 20
12.99037138888889
 30
0.0
 11
35.00000055555555
 21
4.330135555555555
 31
0.0
  0
LINE
  5
97
  8
DEFAULT
 10
35.00000055555555
 20
4.330135555555555
 30
0.0
 11
39.99999055555556
 21
-4.330135555555555
 31
0.0
  0
LINE
  5
98
  8
DEFAULT
 10
39.99999055555556
 20
-4.330135555555555
 30
0.0
 11
35.00000055555555
 21
-12.99037138888889
 31
0.0
  0
LINE
  5
99
  8
DEFAULT
 10
35.00000055555555
 20
-12.99037138888889
 30
0.0
 11
39.99999055555556
 21
-21.6506425
 31
0.0
  0
LINE
  5
9A
  8
DEFAULT
 10
39.99999055555556
 20
-21.6506425
 30
0.0
 11
30.00001055555555
 21
-38.97114944444444
 31
0.0
  0
LINE
  5
9B
  8
DEFAULT
 10
30.00001055555555
 20
-38.97114944444444
 30
0.0
 11
-30.00001055555555
 21
-38.97114944444444
 31
0.0
  0
LINE
  5
9C
  8
DEFAULT
 10
-30.00001055555555
 20
-38.97114944444444
 30
0.0
 11
-39.99999055555556
 21
-21.6506425
 31
0.0
  0
LINE
  5
9D
  8
DEFAULT
 10
-39.99999055555556
 20
-21.6506425
 30
0.0
 11
-35.00000055555555
 21
-12.99037138888889
 31
0.0
  0
LINE
  5
9E
  8
DEFAULT
 10
-35.00000055555555
 20
-12.99037138888889
 30
0.0
 11
-39.99999055555556
 21
-4.330135555555555
 31
0.0
  0
LINE
  5
9F
  8
DEFAULT
 10
-39.99999055555556
 20
-4.330135555555555
 30
0.0
 11
-35.00000055555555
 21
4.330135555555555
 31
0.0
  0
LINE
  5
A0
  8
DEFAULT
 10
-35.00000055555555
 20
4.330135555555555
 30
0.0
 11
-39.99999055555556
 21
12.99037138888889
 31
0.0
  0
LINE
  5
A1
  8
DEFAULT
 10
-39.99999055555556
 20
12.99037138888889
 30
0.0
 11
-35.00000055555555
 21
21.6506425
 31
0.0
  0
LINE
  5
A2
  8
DEFAULT
 10
-35.00000055555555
 20
21.6506425
 30
0.0
 11
-39.99999055555556
 21
30.31087833333333
 31
0.0
  0
LINE
  5
A3
  8
DEFAULT
 10
-39.99999055555556
 20
30.31087833333333
 30
0.0
 11
-35.00000055555555
 21
38.97114944444444
 31
0.0
  0
LINE
  5
A4
  8
DEFAULT
 10
-20.59266194444444
 20
-38.97114944444444
 30
0.0
 11
-25.18607555555555
 21
-33.63143444444444
 31
0.0
  0
LINE
  5
A5
  8
DEFAULT
 10
-10.59264666666667
 20
-38.97114944444444
 30
0.0
 11
-15.18609555555555
 21
-33.63143444444444
 31
0.0
  0
LINE
  5
A6
  8
DEFAULT
 10
-0.5926666666666666
 20
-38.97114944444444
 30
0.0
 11
-5.186080277777777
 21
-33.63143444444444
 31
0.0
  0
LINE
  5
A7
  8
DEFAULT
 10
9.407348611111109
 20
-38.97114944444444
 30
0.0
 11
4.813899722222222
 21
-33.63143444444444
 31
0.0
  0
LINE
  5
A8
  8
DEFAULT
 10
19.40736388888889
 20
-38.97114944444444
 30
0.0
 11
14.813915
 21
-33.63143444444444
 31
0.0
  0
LINE
  5
A9
  8
DEFAULT
 10
29.40734388888889
 20
-38.97114944444444
 30
0.0
 11
24.813895
 21
-33.63143444444444
 31
0.0
  0
LINE
  5
AA
  8
DEFAULT
 10
30.29630861111111
 20
-38.45789305555555
 30
0.0
 11
27.96871611111111
 21
-31.8100075
 31
0.0
  0
LINE
  5
AB
  8
DEFAULT
 10
-39.7036925
 20
-22.16389888888889
 30
0.0
 11
-32.78265111111111
 21
-23.47206944444444
 31
0.0
  0
LINE
  5
AC
  8
DEFAULT
 10
35.29633388888889
 20
-29.79762194444444
 30
0.0
 11
32.96874138888889
 21
-23.14977166666666
 31
0.0
  0
LINE
  5
AD
  8
DEFAULT
 10
-39.7036925
 20
-21.13738611111111
 30
0.0
 11
-32.78265111111111
 21
-19.82921555555555
 31
0.0
  0
LINE
  5
AE
  8
DEFAULT
 10
35.29633388888889
 20
-13.50362777777778
 30
0.0
 11
32.96874138888889
 21
-20.15151333333333
 31
0.0
  0
LINE
  5
AF
  8
DEFAULT
 10
-39.7036925
 20
-4.843391944444444
 30
0.0
 11
-32.78265111111111
 21
-6.1515625
 31
0.0
  0
LINE
  5
B0
  8
DEFAULT
 10
35.29633388888889
 20
-12.477115
 30
0.0
 11
32.96874138888889
 21
-5.829264722222222
 31
0.0
  0
LINE
  5
B1
  8
DEFAULT
 10
-39.7036925
 20
-3.816879166666666
 30
0.0
 11
-32.78265111111111
 21
-2.508708611111111
 31
0.0
  0
LINE
  5
B2
  8
DEFAULT
 10
35.29633388888889
 20
3.816879166666666
 30
0.0
 11
32.96874138888889
 21
-2.831006388888889
 31
0.0
  0
LINE
  5
B3
  8
DEFAULT
 10
-39.7036925
 20
12.477115
 30
0.0
 11
-32.78265111111111
 21
11.16894444444444
 31
0.0
  0
LINE
  5
B4
  8
DEFAULT
 10
35.29633388888889
 20
4.843391944444444
 30
0.0
 11
32.96874138888889
 21
11.49124222222222
 31
0.0
  0
LINE
  5
B5
  8
DEFAULT
 10
-39.7036925
 20
13.50362777777778
 30
0.0
 11
-32.78265111111111
 21
14.81179833333333
 31
0.0
  0
LINE
  5
B6
  8
DEFAULT
 10
35.29633388888889
 20
21.13738611111111
 30
0.0
 11
32.96874138888889
 21
14.48950055555555
 31
0.0
  0
LINE
  5
B7
  8
DEFAULT
 10
-39.7036925
 20
29.79762194444444
 30
0.0
 11
-32.78265111111111
 21
28.48945138888888
 31
0.0
  0
LINE
  5
B8
  8
DEFAULT
 10
35.29633388888889
 20
22.16389888888889
 30
0.0
 11
32.96874138888889
 21
28.81178444444444
 31
0.0
  0
LINE
  5
B9
  8
DEFAULT
 10
-39.7036925
 20
30.82413472222222
 30
0.0
 11
-32.78265111111111
 21
32.13230527777777
 31
0.0
  0
LINE
  5
BA
  8
DEFAULT
 10
-25.59265194444444
 20
38.97114944444444
 30
0.0
 11
-30.18610083333333
 21
33.63143444444444
 31
0.0
  0
LINE
  5
BB
  8
DEFAULT
 10
-15.59263666666666
 20
38.97114944444444
 30
0.0
 11
-20.18608555555555
 21
33.63143444444444
 31
0.0
  0
LINE
  5
BC
  8
DEFAULT
 10
-5.592656666666666
 20
38.97114944444444
 30
0.0
 11
-10.18610555555555
 21
33.63143444444444
 31
0.0
  0
LINE
  5
BD
  8
DEFAULT
 10
4.40735861111111
 20
38.97114944444444
 30
0.0
 11
-0.1860902777777778
 21
33.63143444444444
 31
0.0
  0
LINE
  5
BE
  8
DEFAULT
 10
14.40733861111111
 20
38.97114944444444
 30
0.0
 11
9.813925
 21
33.63143444444444
 31
0.0
  0
LINE
  5
BF
  8
DEFAULT
 10
24.40735388888888
 20
38.97114944444444
 30
0.0
 11
19.813905
 21
33.63143444444444
 31
0.0
  0
LINE
  5
C0
  8
DEFAULT
 10
34.40733388888889
 20
38.97114944444444
 30
0.0
 11
29.81392027777778
 21
33.63143444444444
 31
0.0
  0
LINE
  5
C1
  8
DEFAULT
 10
35.29633388888889
 20
38.45789305555555
 30
0.0
 11
32.96874138888889
 21
31.8100075
 31
0.0
  0
LINE
  5
C2
  8
DEFAULT
 10
138.2604902777778
 20
31.23935416666666
 30
0.0
 11
130.2812566666666
 21
30.79802916666667
 31
0.0
  0
LINE
  5
C3
  8
DEFAULT
 10
130.2812566666666
 20
30.79802916666667
 30
0.0
 11
126.6738216666667
 21
37.92893805555556
 31
0.0
  0
LINE
  5
C4
  8
DEFAULT
 10
133.2605002777778
 20
38.04267361111111
 30
0.0
 11
125.2812313888889
 21
38.4839986111111
 31
0.0
  0
LINE
  5
C5
  8
DEFAULT
 10
125.2812313888889
 20
38.4839986111111
 30
0.0
 11
121.6738316666667
 21
31.35308972222222
 31
0.0
  0
LINE
  5
C6
  8
DEFAULT
 10
128.2605102777778
 20
31.23935416666666
 30
0.0
 11
120.2812413888889
 21
30.79802916666667
 31
0.0
  0
LINE
  5
C7
  8
DEFAULT
 10
120.2812413888889
 20
30.79802916666667
 30
0.0
 11
116.6738416666666
 21
37.92893805555556
 31
0.0
  0
LINE
  5
C8
  8
DEFAULT
 10
123.260485
 20
38.04267361111111
 30
0.0
 11
115.2812513888889
 21
38.4839986111111
 31
0.0
  0
LINE
  5
C9
  8
DEFAULT
 10
115.2812513888889
 20
38.4839986111111
 30
0.0
 11
111.6738163888889
 21
31.35308972222222
 31
0.0
  0
LINE
  5
CA
  8
DEFAULT
 10
118.260495
 20
31.23935416666666
 30
0.0
 11
110.2812613888889
 21
30.79802916666667
 31
0.0
  0
LINE
  5
CB
  8
DEFAULT
 10
110.2812613888889
 20
30.79802916666667
 30
0.0
 11
106.6738263888889
 21
37.92893805555556
 31
0.0
  0
LINE
  5
CC
  8
DEFAULT
 10
113.260505
 20
38.04267361111111
 30
0.0
 11
105.2812361111111
 21
38.4839986111111
 31
0.0
  0
LINE
  5
CD
  8
DEFAULT
 10
105.2812361111111
 20
38.4839986111111
 30
0.0
 11
101.6738363888889
 21
31.35308972222222
 31
0.0
  0
LINE
  5
CE
  8
DEFAULT
 10
108.260515
 20
31.23935416666666
 30
0.0
 11
100.2812461111111
 21
30.79802916666667
 31
0.0
  0
LINE
  5
CF
  8
DEFAULT
 10
100.2812461111111
 20
30.79802916666667
 30
0.0
 11
96.67384638888888
 21
37.92893805555556
 31
0.0
  0
LINE
  5
D0
  8
DEFAULT
 10
103.2604897222222
 20
38.04267361111111
 30
0.0
 11
95.28125611111109
 21
38.4839986111111
 31
0.0
  0
LINE
  5
D1
  8
DEFAULT
 10
95.28125611111109
 20
38.4839986111111
 30
0.0
 11
91.6738211111111
 21
31.35308972222222
 31
0.0
  0
LINE
  5
D2
  8
DEFAULT
 10
98.26049972222222
 20
31.23935416666666
 30
0.0
 11
90.28123083333332
 21
30.79802916666667
 31
0.0
  0
LINE
  5
D3
  8
DEFAULT
 10
90.28123083333332
 20
30.79802916666667
 30
0.0
 11
86.67383111111111
 21
37.92893805555556
 31
0.0
  0
LINE
  5
D4
  8
DEFAULT
 10
93.26050972222221
 20
38.04267361111111
 30
0.0
 11
85.28124083333333
 21
38.4839986111111
 31
0.0
  0
LINE
  5
D5
  8
DEFAULT
 10
85.28124083333333
 20
38.4839986111111
 30
0.0
 11
81.6738411111111
 21
31.35308972222222
 31
0.0
  0
LINE
  5
D6
  8
DEFAULT
 10
88.26048444444443
 20
31.23935416666666
 30
0.0
 11
80.28125083333333
 21
30.79802916666667
 31
0.0
  0
LINE
  5
D7
  8
DEFAULT
 10
80.28125083333333
 20
30.79802916666667
 30
0.0
 11
76.67381583333332
 21
37.92893805555556
 31
0.0
  0
LINE
  5
D8
  8
DEFAULT
 10
83.26049444444445
 20
38.04267361111111
 30
0.0
 11
75.28126083333333
 21
38.4839986111111
 31
0.0
  0
LINE
  5
D9
  8
DEFAULT
 10
75.28126083333333
 20
38.4839986111111
 30
0.0
 11
71.67382583333332
 21
31.35308972222222
 31
0.0
  0
LINE
  5
DA
  8
DEFAULT
 10
78.26050444444444
 20
31.23935416666666
 30
0.0
 11
70.28123555555554
 21
30.79802916666667
 31
0.0
  0
LINE
  5
DB
  8
DEFAULT
 10
70.28123555555554
 20
30.79802916666667
 30
0.0
 11
66.67383583333333
 21
37.92893805555556
 31
0.0
  0
LINE
  5
DC
  8
DEFAULT
 10
73.26051444444444
 20
38.04267361111111
 30
0.0
 11
65.28124555555556
 21
38.4839986111111
 31
0.0
  0
LINE
  5
DD
  8
DEFAULT
 10
65.28124555555556
 20
38.4839986111111
 30
0.0
 11
61.67384583333332
 21
31.35308972222222
 31
0.0
  0
LINE
  5
DE
  8
DEFAULT
 10
135.0656641666666
 20
37.00046222222222
 30
0.0
 11
139.4374980555556
 21
30.31087833333333
 31
0.0
  0
LINE
  5
DF
  8
DEFAULT
 10
139.4374980555556
 20
30.31087833333333
 30
0.0
 11
135.0656641666666
 21
23.62132972222222
 31
0.0
  0
LINE
  5
E0
  8
DEFAULT
 10
138.2604902777778
 20
29.3824025
 30
0.0
 11
130.2812566666666
 21
29.82376277777777
 31
0.0
  0
LINE
  5
E1
  8
DEFAULT
 10
130.2812566666666
 20
29.82376277777777
 30
0.0
 11
126.6738216666667
 21
22.69285388888889
 31
0.0
  0
LINE
  5
E2
  8
DEFAULT
 10
133.2605002777778
 20
22.57911833333333
 30
0.0
 11
125.2812313888889
 21
22.13775805555555
 31
0.0
  0
LINE
  5
E3
  8
DEFAULT
 10
125.2812313888889
 20
22.13775805555555
 30
0.0
 11
121.6738316666667
 21
29.26866694444444
 31
0.0
  0
LINE
  5
E4
  8
DEFAULT
 10
125.0656488888889
 20
37.00046222222222
 30
0.0
 11
129.4374827777778
 21
30.31087833333333
 31
0.0
  0
LINE
  5
E5
  8
DEFAULT
 10
129.4374827777778
 20
30.31087833333333
 30
0.0
 11
125.0656488888889
 21
23.62132972222222
 31
0.0
  0
LINE
  5
E6
  8
DEFAULT
 10
128.2605102777778
 20
29.3824025
 30
0.0
 11
120.2812413888889
 21
29.82376277777777
 31
0.0
  0
LINE
  5
E7
  8
DEFAULT
 10
120.2812413888889
 20
29.82376277777777
 30
0.0
 11
116.6738416666666
 21
22.69285388888889
 31
0.0
  0
LINE
  5
E8
  8
DEFAULT
 10
123.260485
 20
22.57911833333333
 30
0.0
 11
115.2812513888889
 21
22.13775805555555
 31
0.0
  0
LINE
  5
E9
  8
DEFAULT
 10
115.2812513888889
 20
22.13775805555555
 30
0.0
 11
111.6738163888889
 21
29.26866694444444
 31
0.0
  0
LINE
  5
EA
  8
DEFAULT
 10
115.0656688888889
 20
37.00046222222222
 30
0.0
 11
119.4375027777778
 21
30.31087833333333
 31
0.0
  0
LINE
  5
EB
  8
DEFAULT
 10
119.4375027777778
 20
30.31087833333333
 30
0.0
 11
115.0656688888889
 21
23.62132972222222
 31
0.0
  0
LINE
  5
EC
  8
DEFAULT
 10
118.260495
 20
29.3824025
 30
0.0
 11
110.2812613888889
 21
29.82376277777777
 31
0.0
  0
LINE
  5
ED
  8
DEFAULT
 10
110.2812613888889
 20
29.82376277777777
 30
0.0
 11
106.6738263888889
 21
22.69285388888889
 31
0.0
  0
LINE
  5
EE
  8
DEFAULT
 10
113.260505
 20
22.57911833333333
 30
0.0
 11
105.2812361111111
 21
22.13775805555555
 31
0.0
  0
LINE
  5
EF
  8
DEFAULT
 10
105.2812361111111
 20
22.13775805555555
 30
0.0
 11
101.6738363888889
 21
29.26866694444444
 31
0.0
  0
LINE
  5
F0
  8
DEFAULT
 10
105.0656536111111
 20
37.00046222222222
 30
0.0
 11
109.4374875
 21
30.31087833333333
 31
0.0
  0
LINE
  5
F1
  8
DEFAULT
 10
109.4374875
 20
30.31087833333333
 30
0.0
 11
105.0656536111111
 21
23.62132972222222
 31
0.0
  0
LINE
  5
F2
  8
DEFAULT
 10
108.260515
 20
29.3824025
 30
0.0
 11
100.2812461111111
 21
29.82376277777777
 31
0.0
  0
LINE
  5
F3
  8
DEFAULT
 10
100.2812461111111
 20
29.82376277777777
 30
0.0
 11
96.67384638888888
 21
22.69285388888889
 31
0.0
  0
LINE
  5
F4
  8
DEFAULT
 10
103.2604897222222
 20
22.57911833333333
 30
0.0
 11
95.28125611111109
 21
22.13775805555555
 31
0.0
  0
LINE
  5
F5
  8
DEFAULT
 10
95.28125611111109
 20
22.13775805555555
 30
0.0
 11
91.6738211111111
 21
29.26866694444444
 31
0.0
  0
LINE
  5
F6
  8
DEFAULT
 10
95.06567361111111
 20
37.00046222222222
 30
0.0
 11
99.43750749999998
 21
30.31087833333333
 31
0.0
  0
LINE
  5
F7
  8
DEFAULT
 10
99.43750749999998
 20
30.31087833333333
 30
0.0
 11
95.06567361111111
 21
23.62132972222222
 31
0.0
  0
LINE
  5
F8
  8
DEFAULT
 10
98.26049972222222
 20
29.3824025
 30
0.0
 11
90.28123083333332
 21
29.82376277777777
 31
0.0
  0
LINE
  5
F9
  8
DEFAULT
 10
90.28123083333332
 20
29.82376277777777
 30
0.0
 11
86.67383111111111
 21
22.69285388888889
 31
0.0
  0
LINE
  5
FA
  8
DEFAULT
 10
93.26050972222221
 20
22.57911833333333
 30
0.0
 11
85.28124083333333
 21
22.13775805555555
 31
0.0
  0
LINE
  5
FB
  8
DEFAULT
 10
85.28124083333333
 20
22.13775805555555
 30
0.0
 11
81.6738411111111
 21
29.26866694444444
 31
0.0
  0
LINE
  5
FC
  8
DEFAULT
 10
85.06565833333333
 20
37.00046222222222
 30
0.0
 11
89.4374922222222
 21
30.31087833333333
 31
0.0
  0
LINE
  5
FD
  8
DEFAULT
 10
89.4374922222222
 20
30.31087833333333
 30
0.0
 11
85.06565833333333
 21
23.62132972222222
 31
0.0
  0
LINE
  5
FE
  8
DEFAULT
 10
88.26048444444443
 20
29.3824025
 30
0.0
 11
80.28125083333333
 21
29.82376277777777
 31
0.0
  0
LINE
  5
FF
  8
DEFAULT
 10
80.28125083333333
 20
29.82376277777777
 30
0.0
 11
76.67381583333332
 21
22.69285388888889
 31
0.0
  0
LINE
  5
100
  8
DEFAULT
 10
83.26049444444445
 20
22.57911833333333
 30
0.0
 11
75.28126083333333
 21
22.13775805555555
 31
0.0
  0
LINE
  5
101
  8
DEFAULT
 10
75.28126083333333
 20
22.13775805555555
 30
0.0
 11
71.67382583333332
 21
29.26866694444444
 31
0.0
  0
LINE
  5
102
  8
DEFAULT
 10
75.06567833333332
 20
37.00046222222222
 30
0.0
 11
79.43751222222221
 21
30.31087833333333
 31
0.0
  0
LINE
  5
103
  8
DEFAULT
 10
79.43751222222221
 20
30.31087833333333
 30
0.0
 11
75.06567833333332
 21
23.62132972222222
 31
0.0
  0
LINE
  5
104
  8
DEFAULT
 10
78.26050444444444
 20
29.3824025
 30
0.0
 11
70.28123555555554
 21
29.82376277777777
 31
0.0
  0
LINE
  5
105
  8
DEFAULT
 10
70.28123555555554
 20
29.82376277777777
 30
0.0
 11
66.67383583333333
 21
22.69285388888889
 31
0.0
  0
LINE
  5
106
  8
DEFAULT
 10
73.26051444444444
 20
22.57911833333333
 30
0.0
 11
65.28124555555556
 21
22.13775805555555
 31
0.0
  0
LINE
  5
107
  8
DEFAULT
 10
65.28124555555556
 20
22.13775805555555
 30
0.0
 11
61.67384583333332
 21
29.26866694444444
 31
0.0
  0
LINE
  5
108
  8
DEFAULT
 10
65.06566305555555
 20
37.00046222222222
 30
0.0
 11
69.43749694444445
 21
30.31087833333333
 31
0.0
  0
LINE
  5
109
  8
DEFAULT
 10
69.43749694444445
 20
30.31087833333333
 30
0.0
 11
65.06566305555555
 21
23.62132972222222
 31
0.0
  0
LINE
  5
10A
  8
DEFAULT
 10
138.2604902777778
 20
13.91884722222222
 30
0.0
 11
130.2812566666666
 21
13.47752222222222
 31
0.0
  0
LINE
  5
10B
  8
DEFAULT
 10
130.2812566666666
 20
13.47752222222222
 30
0.0
 11
126.6738216666667
 21
20.60843111111111
 31
0.0
  0
LINE
  5
10C
  8
DEFAULT
 10
130.0656741666666
 20
28.34019111111111
 30
0.0
 11
134.4375080555555
 21
21.6506425
 31
0.0
  0
LINE
  5
10D
  8
DEFAULT
 10
134.4375080555555
 20
21.6506425
 30
0.0
 11
130.0656741666666
 21
14.96105861111111
 31
0.0
  0
LINE
  5
10E
  8
DEFAULT
 10
133.2605002777778
 20
20.72216666666667
 30
0.0
 11
125.2812313888889
 21
21.16349166666667
 31
0.0
  0
LINE
  5
10F
  8
DEFAULT
 10
125.2812313888889
 20
21.16349166666667
 30
0.0
 11
121.6738316666667
 21
14.03258277777778
 31
0.0
  0
LINE
  5
110
  8
DEFAULT
 10
128.2605102777778
 20
13.91884722222222
 30
0.0
 11
120.2812413888889
 21
13.47752222222222
 31
0.0
  0
LINE
  5
111
  8
DEFAULT
 10
120.2812413888889
 20
13.47752222222222
 30
0.0
 11
116.6738416666666
 21
20.60843111111111
 31
0.0
  0
LINE
  5
112
  8
DEFAULT
 10
120.0656588888889
 20
28.34019111111111
 30
0.0
 11
124.4374927777778
 21
21.6506425
 31
0.0
  0
LINE
  5
113
  8
DEFAULT
 10
124.4374927777778
 20
21.6506425
 30
0.0
 11
120.0656588888889
 21
14.96105861111111
 31
0.0
  0
LINE
  5
114
  8
DEFAULT
 10
123.260485
 20
20.72216666666667
 30
0.0
 11
115.2812513888889
 21
21.16349166666667
 31
0.0
  0
LINE
  5
115
  8
DEFAULT
 10
115.2812513888889
 20
21.16349166666667
 30
0.0
 11
111.6738163888889
 21
14.03258277777778
 31
0.0
  0
LINE
  5
116
  8
DEFAULT
 10
118.260495
 20
13.91884722222222
 30
0.0
 11
110.2812613888889
 21
13.47752222222222
 31
0.0
  0
LINE
  5
117
  8
DEFAULT
 10
110.2812613888889
 20
13.47752222222222
 30
0.0
 11
106.6738263888889
 21
20.60843111111111
 31
0.0
  0
LINE
  5
118
  8
DEFAULT
 10
110.0656788888889
 20
28.34019111111111
 30
0.0
 11
114.4375127777778
 21
21.6506425
 31
0.0
  0
LINE
  5
119
  8
DEFAULT
 10
114.4375127777778
 20
21.6506425
 30
0.0
 11
110.0656788888889
 21
14.96105861111111
 31
0.0
  0
LINE
  5
11A
  8
DEFAULT
 10
113.260505
 20
20.72216666666667
 30
0.0
 11
105.2812361111111
 21
21.16349166666667
 31
0.0
  0
LINE
  5
11B
  8
DEFAULT
 10
105.2812361111111
 20
21.16349166666667
 30
0.0
 11
101.6738363888889
 21
14.03258277777778
 31
0.0
  0
LINE
  5
11C
  8
DEFAULT
 10
108.260515
 20
13.91884722222222
 30
0.0
 11
100.2812461111111
 21
13.47752222222222
 31
0.0
  0
LINE
  5
11D
  8
DEFAULT
 10
100.2812461111111
 20
13.47752222222222
 30
0.0
 11
96.67384638888888
 21
20.60843111111111
 31
0.0
  0
LINE
  5
11E
  8
DEFAULT
 10
100.0656636111111
 20
28.34019111111111
 30
0.0
 11
104.4374975
 21
21.6506425
 31
0.0
  0
LINE
  5
11F
  8
DEFAULT
 10
104.4374975
 20
21.6506425
 30
0.0
 11
100.0656636111111
 21
14.96105861111111
 31
0.0
  0
LINE
  5
120
  8
DEFAULT
 10
103.2604897222222
 20
20.72216666666667
 30
0.0
 11
95.28125611111109
 21
21.16349166666667
 31
0.0
  0
LINE
  5
121
  8
DEFAULT
 10
95.28125611111109
 20
21.16349166666667
 30
0.0
 11
91.6738211111111
 21
14.03258277777778
 31
0.0
  0
LINE
  5
122
  8
DEFAULT
 10
98.26049972222222
 20
13.91884722222222
 30
0.0
 11
90.28123083333332
 21
13.47752222222222
 31
0.0
  0
LINE
  5
123
  8
DEFAULT
 10
90.28123083333332
 20
13.47752222222222
 30
0.0
 11
86.67383111111111
 21
20.60843111111111
 31
0.0
  0
LINE
  5
124
  8
DEFAULT
 10
90.06564833333333
 20
28.34019111111111
 30
0.0
 11
94.43748222222222
 21
21.6506425
 31
0.0
  0
LINE
  5
125
  8
DEFAULT
 10
94.43748222222222
 20
21.6506425
 30
0.0
 11
90.06564833333333
 21
14.96105861111111
 31
0.0
  0
LINE
  5
126
  8
DEFAULT
 10
93.26050972222221
 20
20.72216666666667
 30
0.0
 11
85.28124083333333
 21
21.16349166666667
 31
0.0
  0
LINE
  5
127
  8
DEFAULT
 10
85.28124083333333
 20
21.16349166666667
 30
0.0
 11
81.6738411111111
 21
14.03258277777778
 31
0.0
  0
LINE
  5
128
  8
DEFAULT
 10
88.26048444444443
 20
13.91884722222222
 30
0.0
 11
80.28125083333333
 21
13.47752222222222
 31
0.0
  0
LINE
  5
129
  8
DEFAULT
 10
80.28125083333333
 20
13.47752222222222
 30
0.0
 11
76.67381583333332
 21
20.60843111111111
 31
0.0
  0
LINE
  5
12A
  8
DEFAULT
 10
80.06566833333332
 20
28.34019111111111
 30
0.0
 11
84.43750222222222
 21
21.6506425
 31
0.0
  0
LINE
  5
12B
  8
DEFAULT
 10
84.43750222222222
 20
21.6506425
 30
0.0
 11
80.06566833333332
 21
14.96105861111111
 31
0.0
  0
LINE
  5
12C
  8
DEFAULT
 10
83.26049444444445
 20
20.72216666666667
 30
0.0
 11
75.28126083333333
 21
21.16349166666667
 31
0.0
  0
LINE
  5
12D
  8
DEFAULT
 10
75.28126083333333
 20
21.16349166666667
 30
0.0
 11
71.67382583333332
 21
14.03258277777778
 31
0.0
  0
LINE
  5
12E
  8
DEFAULT
 10
78.26050444444444
 20
13.91884722222222
 30
0.0
 11
70.28123555555554
 21
13.47752222222222
 31
0.0
  0
LINE
  5
12F
  8
DEFAULT
 10
70.28123555555554
 20
13.47752222222222
 30
0.0
 11
66.67383583333333
 21
20.60843111111111
 31
0.0
  0
LINE
  5
130
  8
DEFAULT
 10
70.06565305555554
 20
28.34019111111111
 30
0.0
 11
74.43748694444443
 21
21.6506425
 31
0.0
  0
LINE
  5
131
  8
DEFAULT
 10
74.43748694444443
 20
21.6506425
 30
0.0
 11
70.06565305555554
 21
14.96105861111111
 31
0.0
  0
LINE
  5
132
  8
DEFAULT
 10
73.26051444444444
 20
20.72216666666667
 30
0.0
 11
65.28124555555556
 21
21.16349166666667
 31
0.0
  0
LINE
  5
133
  8
DEFAULT
 10
65.28124555555556
 20
21.16349166666667
 30
0.0
 11
61.67384583333332
 21
14.03258277777778
 31
0.0
  0
LINE
  5
134
  8
DEFAULT
 10
135.0656641666666
 20
19.67995527777778
 30
0.0
 11
139.4374980555556
 21
12.99037138888889
 31
0.0
  0
LINE
  5
135
  8
DEFAULT
 10
139.4374980555556
 20
12.99037138888889
 30
0.0
 11
135.0656641666666
 21
6.300822777777777
 31
0.0
  0
LINE
  5
136
  8
DEFAULT
 10
138.2604902777778
 20
12.06189555555556
 30
0.0
 11
130.2812566666666
 21
12.50325583333333
 31
0.0
  0
LINE
  5
137
  8
DEFAULT
 10
130.2812566666666
 20
12.50325583333333
 30
0.0
 11
126.6738216666667
 21
5.372346944444444
 31
0.0
  0
LINE
  5
138
  8
DEFAULT
 10
133.2605002777778
 20
5.258611388888888
 30
0.0
 11
125.2812313888889
 21
4.817251111111111
 31
0.0
  0
LINE
  5
139
  8
DEFAULT
 10
125.2812313888889
 20
4.817251111111111
 30
0.0
 11
121.6738316666667
 21
11.94816
 31
0.0
  0
LINE
  5
13A
  8
DEFAULT
 10
125.0656488888889
 20
19.67995527777778
 30
0.0
 11
129.4374827777778
 21
12.99037138888889
 31
0.0
  0
LINE
  5
13B
  8
DEFAULT
 10
129.4374827777778
 20
12.99037138888889
 30
0.0
 11
125.0656488888889
 21
6.300822777777777
 31
0.0
  0
LINE
  5
13C
  8
DEFAULT
 10
128.2605102777778
 20
12.06189555555556
 30
0.0
 11
120.2812413888889
 21
12.50325583333333
 31
0.0
  0
LINE
  5
13D
  8
DEFAULT
 10
120.2812413888889
 20
12.50325583333333
 30
0.0
 11
116.6738416666666
 21
5.372346944444444
 31
0.0
  0
LINE
  5
13E
  8
DEFAULT
 10
123.260485
 20
5.258611388888888
 30
0.0
 11
115.2812513888889
 21
4.817251111111111
 31
0.0
  0
LINE
  5
13F
  8
DEFAULT
 10
115.2812513888889
 20
4.817251111111111
 30
0.0
 11
111.6738163888889
 21
11.94816
 31
0.0
  0
LINE
  5
140
  8
DEFAULT
 10
115.0656688888889
 20
19.67995527777778
 30
0.0
 11
119.4375027777778
 21
12.99037138888889
 31
0.0
  0
LINE
  5
141
  8
DEFAULT
 10
119.4375027777778
 20
12.99037138888889
 30
0.0
 11
115.0656688888889
 21
6.300822777777777
 31
0.0
  0
LINE
  5
142
  8
DEFAULT
 10
118.260495
 20
12.06189555555556
 30
0.0
 11
110.2812613888889
 21
12.50325583333333
 31
0.0
  0
LINE
  5
143
  8
DEFAULT
 10
110.2812613888889
 20
12.50325583333333
 30
0.0
 11
106.6738263888889
 21
5.372346944444444
 31
0.0
  0
LINE
  5
144
  8
DEFAULT
 10
113.260505
 20
5.258611388888888
 30
0.0
 11
105.2812361111111
 21
4.817251111111111
 31
0.0
  0
LINE
  5
145
  8
DEFAULT
 10
105.2812361111111
 20
4.817251111111111
 30
0.0
 11
101.6738363888889
 21
11.94816
 31
0.0
  0
LINE
  5
146
  8
DEFAULT
 10
105.0656536111111
 20
19.67995527777778
 30
0.0
 11
109.4374875
 21
12.99037138888889
 31
0.0
  0
LINE
  5
147
  8
DEFAULT
 10
109.4374875
 20
12.99037138888889
 30
0.0
 11
105.0656536111111
 21
6.300822777777777
 31
0.0
  0
LINE
  5
148
  8
DEFAULT
 10
108.260515
 20
12.06189555555556
 30
0.0
 11
100.2812461111111
 21
12.50325583333333
 31
0.0
  0
LINE
  5
149
  8
DEFAULT
 10
100.2812461111111
 20
12.50325583333333
 30
0.0
 11
96.67384638888888
 21
5.372346944444444
 31
0.0
  0
LINE
  5
14A
  8
DEFAULT
 10
103.2604897222222
 20
5.258611388888888
 30
0.0
 11
95.28125611111109
 21
4.817251111111111
 31
0.0
  0
LINE
  5
14B
  8
DEFAULT
 10
95.28125611111109
 20
4.817251111111111
 30
0.0
 11
91.6738211111111
 21
11.94816
 31
0.0
  0
LINE
  5
14C
  8
DEFAULT
 10
95.06567361111111
 20
19.67995527777778
 30
0.0
 11
99.43750749999998
 21
12.99037138888889
 31
0.0
  0
LINE
  5
14D
  8
DEFAULT
 10
99.43750749999998
 20
12.99037138888889
 30
0.0
 11
95.06567361111111
 21
6.300822777777777
 31
0.0
  0
LINE
  5
14E
  8
DEFAULT
 10
98.26049972222222
 20
12.06189555555556
 30
0.0
 11
90.28123083333332
 21
12.50325583333333
 31
0.0
  0
LINE
  5
14F
  8
DEFAULT
 10
90.28123083333332
 20
12.50325583333333
 30
0.0
 11
86.67383111111111
 21
5.372346944444444
 31
0.0
  0
LINE
  5
150
  8
DEFAULT
 10
93.26050972222221
 20
5.258611388888888
 30
0.0
 11
85.28124083333333
 21
4.817251111111111
 31
0.0
  0
LINE
  5
151
  8
DEFAULT
 10
85.28124083333333
 20
4.817251111111111
 30
0.0
 11
81.6738411111111
 21
11.94816
 31
0.0
  0
LINE
  5
152
  8
DEFAULT
 10
85.06565833333333
 20
19.67995527777778
 30
0.0
 11
89.4374922222222
 21
12.99037138888889
 31
0.0
  0
LINE
  5
153
  8
DEFAULT
 10
89.4374922222222
 20
12.99037138888889
 30
0.0
 11
85.06565833333333
 21
6.300822777777777
 31
0.0
  0
LINE
  5
154
  8
DEFAULT
 10
88.26048444444443
 20
12.06189555555556
 30
0.0
 11
80.28125083333333
 21
12.50325583333333
 31
0.0
  0
LINE
  5
155
  8
DEFAULT
 10
80.28125083333333
 20
12.50325583333333
 30
0.0
 11
76.67381583333332
 21
5.372346944444444
 31
0.0
  0
LINE
  5
156
  8
DEFAULT
 10
83.26049444444445
 20
5.258611388888888
 30
0.0
 11
75.28126083333333
 21
4.817251111111111
 31
0.0
  0
LINE
  5
157
  8
DEFAULT
 10
75.28126083333333
 20
4.817251111111111
 30
0.0
 11
71.67382583333332
 21
11.94816
 31
0.0
  0
LINE
  5
158
  8
DEFAULT
 10
75.06567833333332
 20
19.67995527777778
 30
0.0
 11
79.43751222222221
 21
12.99037138888889
 31
0.0
  0
LINE
  5
159
  8
DEFAULT
 10
79.43751222222221
 20
12.99037138888889
 30
0.0
 11
75.06567833333332
 21
6.300822777777777
 31
0.0
  0
LINE
  5
15A
  8
DEFAULT
 10
78.26050444444444
 20
12.06189555555556
 30
0.0
 11
70.28123555555554
 21
12.50325583333333
 31
0.0
  0
LINE
  5
15B
  8
DEFAULT
 10
70.28123555555554
 20
12.50325583333333
 30
0.0
 11
66.67383583333333
 21
5.372346944444444
 31
0.0
  0
LINE
  5
15C
  8
DEFAULT
 10
73.26051444444444
 20
5.258611388888888
 30
0.0
 11
65.28124555555556
 21
4.817251111111111
 31
0.0
  0
LINE
  5
15D
  8
DEFAULT
 10
65.28124555555556
 20
4.817251111111111
 30
0.0
 11
61.67384583333332
 21
11.94816
 31
0.0
  0
LINE
  5
15E
  8
DEFAULT
 10
65.06566305555555
 20
19.67995527777778
 30
0.0
 11
69.43749694444445
 21
12.99037138888889
 31
0.0
  0
LINE
  5
15F
  8
DEFAULT
 10
69.43749694444445
 20
12.99037138888889
 30
0.0
 11
65.06566305555555
 21
6.300822777777777
 31
0.0
  0
LINE
  5
160
  8
DEFAULT
 10
138.2604902777778
 20
-3.401659722222222
 30
0.0
 11
130.2812566666666
 21
-3.842984722222222
 31
0.0
  0
LINE
  5
161
  8
DEFAULT
 10
130.2812566666666
 20
-3.842984722222222
 30
0.0
 11
126.6738216666667
 21
3.287924166666667
 31
0.0
  0
LINE
  5
162
  8
DEFAULT
 10
130.0656741666666
 20
11.01968416666666
 30
0.0
 11
134.4375080555555
 21
4.330135555555555
 31
0.0
  0
LINE
  5
163
  8
DEFAULT
 10
134.4375080555555
 20
4.330135555555555
 30
0.0
 11
130.0656741666666
 21
-2.359448333333333
 31
0.0
  0
LINE
  5
164
  8
DEFAULT
 10
133.2605002777778
 20
3.401659722222222
 30
0.0
 11
125.2812313888889
 21
3.842984722222222
 31
0.0
  0
LINE
  5
165
  8
DEFAULT
 10
125.2812313888889
 20
3.842984722222222
 30
0.0
 11
121.6738316666667
 21
-3.287924166666667
 31
0.0
  0
LINE
  5
166
  8
DEFAULT
 10
128.2605102777778
 20
-3.401659722222222
 30
0.0
 11
120.2812413888889
 21
-3.842984722222222
 31
0.0
  0
LINE
  5
167
  8
DEFAULT
 10
120.2812413888889
 20
-3.842984722222222
 30
0.0
 11
116.6738416666666
 21
3.287924166666667
 31
0.0
  0
LINE
  5
168
  8
DEFAULT
 10
120.0656588888889
 20
11.01968416666666
 30
0.0
 11
124.4374927777778
 21
4.330135555555555
 31
0.0
  0
LINE
  5
169
  8
DEFAULT
 10
124.4374927777778
 20
4.330135555555555
 30
0.0
 11
120.0656588888889
 21
-2.359448333333333
 31
0.0
  0
LINE
  5
16A
  8
DEFAULT
 10
123.260485
 20
3.401659722222222
 30
0.0
 11
115.2812513888889
 21
3.842984722222222
 31
0.0
  0
LINE
  5
16B
  8
DEFAULT
 10
115.2812513888889
 20
3.842984722222222
 30
0.0
 11
111.6738163888889
 21
-3.287924166666667
 31
0.0
  0
LINE
  5
16C
  8
DEFAULT
 10
118.260495
 20
-3.401659722222222
 30
0.0
 11
110.2812613888889
 21
-3.842984722222222
 31
0.0
  0
LINE
  5
16D
  8
DEFAULT
 10
110.2812613888889
 20
-3.842984722222222
 30
0.0
 11
106.6738263888889
 21
3.287924166666667
 31
0.0
  0
LINE
  5
16E
  8
DEFAULT
 10
110.0656788888889
 20
11.01968416666666
 30
0.0
 11
114.4375127777778
 21
4.330135555555555
 31
0.0
  0
LINE
  5
16F
  8
DEFAULT
 10
114.4375127777778
 20
4.330135555555555
 30
0.0
 11
110.0656788888889
 21
-2.359448333333333
 31
0.0
  0
LINE
  5
170
  8
DEFAULT
 10
113.260505
 20
3.401659722222222
 30
0.0
 11
105.2812361111111
 21
3.842984722222222
 31
0.0
  0
LINE
  5
171
  8
DEFAULT
 10
105.2812361111111
 20
3.842984722222222
 30
0.0
 11
101.6738363888889
 21
-3.287924166666667
 31
0.0
  0
LINE
  5
172
  8
DEFAULT
 10
108.260515
 20
-3.401659722222222
 30
0.0
 11
100.2812461111111
 21
-3.842984722222222
 31
0.0
  0
LINE
  5
173
  8
DEFAULT
 10
100.2812461111111
 20
-3.842984722222222
 30
0.0
 11
96.67384638888888
 21
3.287924166666667
 31
0.0
  0
LINE
  5
174
  8
DEFAULT
 10
100.0656636111111
 20
11.01968416666666
 30
0.0
 11
104.4374975
 21
4.330135555555555
 31
0.0
  0
LINE
  5
175
  8
DEFAULT
 10
104.4374975
 20
4.330135555555555
 30
0.0
 11
100.0656636111111
 21
-2.359448333333333
 31
0.0
  0
LINE
  5
176
  8
DEFAULT
 10
103.2604897222222
 20
3.401659722222222
 30
0.0
 11
95.28125611111109
 21
3.842984722222222
 31
0.0
  0
LINE
  5
177
  8
DEFAULT
 10
95.28125611111109
 20
3.842984722222222
 30
0.0
 11
91.6738211111111
 21
-3.287924166666667
 31
0.0
  0
LINE
  5
178
  8
DEFAULT
 10
98.26049972222222
 20
-3.401659722222222
 30
0.0
 11
90.28123083333332
 21
-3.842984722222222
 31
0.0
  0
LINE
  5
179
  8
DEFAULT
 10
90.28123083333332
 20
-3.842984722222222
 30
0.0
 11
86.67383111111111
 21
3.287924166666667
 31
0.0
  0
LINE
  5
17A
  8
DEFAULT
 10
90.06564833333333
 20
11.01968416666666
 30
0.0
 11
94.43748222222222
 21
4.330135555555555
 31
0.0
  0
LINE
  5
17B
  8
DEFAULT
 10
94.43748222222222
 20
4.330135555555555
 30
0.0
 11
90.06564833333333
 21
-2.359448333333333
 31
0.0
  0
LINE
  5
17C
  8
DEFAULT
 10
93.26050972222221
 20
3.401659722222222
 30
0.0
 11
85.28124083333333
 21
3.842984722222222
 31
0.0
  0
LINE
  5
17D
  8
DEFAULT
 10
85.28124083333333
 20
3.842984722222222
 30
0.0
 11
81.6738411111111
 21
-3.287924166666667
 31
0.0
  0
LINE
  5
17E
  8
DEFAULT
 10
88.26048444444443
 20
-3.401659722222222
 30
0.0
 11
80.28125083333333
 21
-3.842984722222222
 31
0.0
  0
LINE
  5
17F
  8
DEFAULT
 10
80.28125083333333
 20
-3.842984722222222
 30
0.0
 11
76.67381583333332
 21
3.287924166666667
 31
0.0
  0
LINE
  5
180
  8
DEFAULT
 10
80.06566833333332
 20
11.01968416666666
 30
0.0
 11
84.43750222222222
 21
4.330135555555555
 31
0.0
  0
LINE
  5
181
  8
DEFAULT
 10
84.43750222222222
 20
4.330135555555555
 30
0.0
 11
80.06566833333332
 21
-2.359448333333333
 31
0.0
  0
LINE
  5
182
  8
DEFAULT
 10
83.26049444444445
 20
3.401659722222222
 30
0.0
 11
75.28126083333333
 21
3.842984722222222
 31
0.0
  0
LINE
  5
183
  8
DEFAULT
 10
75.28126083333333
 20
3.842984722222222
 30
0.0
 11
71.67382583333332
 21
-3.287924166666667
 31
0.0
  0
LINE
  5
184
  8
DEFAULT
 10
78.26050444444444
 20
-3.401659722222222
 30
0.0
 11
70.28123555555554
 21
-3.842984722222222
 31
0.0
  0
LINE
  5
185
  8
DEFAULT
 10
70.28123555555554
 20
-3.842984722222222
 30
0.0
 11
66.67383583333333
 21
3.287924166666667
 31
0.0
  0
LINE
  5
186
  8
DEFAULT
 10
70.06565305555554
 20
11.01968416666666
 30
0.0
 11
74.43748694444443
 21
4.330135555555555
 31
0.0
  0
LINE
  5
187
  8
DEFAULT
 10
74.43748694444443
 20
4.330135555555555
 30
0.0
 11
70.06565305555554
 21
-2.359448333333333
 31
0.0
  0
LINE
  5
188
  8
DEFAULT
 10
73.26051444444444
 20
3.401659722222222
 30
0.0
 11
65.28124555555556
 21
3.842984722222222
 31
0.0
  0
LINE
  5
189
  8
DEFAULT
 10
65.28124555555556
 20
3.842984722222222
 30
0.0
 11
61.67384583333332
 21
-3.287924166666667
 31
0.0
  0
LINE
  5
18A
  8
DEFAULT
 10
135.0656641666666
 20
2.359448333333333
 30
0.0
 11
139.4374980555556
 21
-4.330135555555555
 31
0.0
  0
LINE
  5
18B
  8
DEFAULT
 10
139.4374980555556
 20
-4.330135555555555
 30
0.0
 11
135.0656641666666
 21
-11.01968416666666
 31
0.0
  0
LINE
  5
18C
  8
DEFAULT
 10
138.2604902777778
 20
-5.258611388888888
 30
0.0
 11
130.2812566666666
 21
-4.817251111111111
 31
0.0
  0
LINE
  5
18D
  8
DEFAULT
 10
130.2812566666666
 20
-4.817251111111111
 30
0.0
 11
126.6738216666667
 21
-11.94816
 31
0.0
  0
LINE
  5
18E
  8
DEFAULT
 10
133.2605002777778
 20
-12.06189555555556
 30
0.0
 11
125.2812313888889
 21
-12.50325583333333
 31
0.0
  0
LINE
  5
18F
  8
DEFAULT
 10
125.2812313888889
 20
-12.50325583333333
 30
0.0
 11
121.6738316666667
 21
-5.372346944444444
 31
0.0
  0
LINE
  5
190
  8
DEFAULT
 10
125.0656488888889
 20
2.359448333333333
 30
0.0
 11
129.4374827777778
 21
-4.330135555555555
 31
0.0
  0
LINE
  5
191
  8
DEFAULT
 10
129.4374827777778
 20
-4.330135555555555
 30
0.0
 11
125.0656488888889
 21
-11.01968416666666
 31
0.0
  0
LINE
  5
192
  8
DEFAULT
 10
128.2605102777778
 20
-5.258611388888888
 30
0.0
 11
120.2812413888889
 21
-4.817251111111111
 31
0.0
  0
LINE
  5
193
  8
DEFAULT
 10
120.2812413888889
 20
-4.817251111111111
 30
0.0
 11
116.6738416666666
 21
-11.94816
 31
0.0
  0
LINE
  5
194
  8
DEFAULT
 10
123.260485
 20
-12.06189555555556
 30
0.0
 11
115.2812513888889
 21
-12.50325583333333
 31
0.0
  0
LINE
  5
195
  8
DEFAULT
 10
115.2812513888889
 20
-12.50325583333333
 30
0.0
 11
111.6738163888889
 21
-5.372346944444444
 31
0.0
  0
LINE
  5
196
  8
DEFAULT
 10
115.0656688888889
 20
2.359448333333333
 30
0.0
 11
119.4375027777778
 21
-4.330135555555555
 31
0.0
  0
LINE
  5
197
  8
DEFAULT
 10
119.4375027777778
 20
-4.330135555555555
 30
0.0
 11
115.0656688888889
 21
-11.01968416666666
 31
0.0
  0
LINE
  5
198
  8
DEFAULT
 10
118.260495
 20
-5.258611388888888
 30
0.0
 11
110.2812613888889
 21
-4.817251111111111
 31
0.0
  0
LINE
  5
199
  8
DEFAULT
 10
110.2812613888889
 20
-4.817251111111111
 30
0.0
 11
106.6738263888889
 21
-11.94816
 31
0.0
  0
LINE
  5
19A
  8
DEFAULT
 10
113.260505
 20
-12.06189555555556
 30
0.0
 11
105.2812361111111
 21
-12.50325583333333
 31
0.0
  0
LINE
  5
19B
  8
DEFAULT
 10
105.2812361111111
 20
-12.50325583333333
 30
0.0
 11
101.6738363888889
 21
-5.372346944444444
 31
0.0
  0
LINE
  5
19C
  8
DEFAULT
 10
105.0656536111111
 20
2.359448333333333
 30
0.0
 11
109.4374875
 21
-4.330135555555555
 31
0.0
  0
LINE
  5
19D
  8
DEFAULT
 10
109.4374875
 20
-4.330135555555555
 30
0.0
 11
105.0656536111111
 21
-11.01968416666666
 31
0.0
  0
LINE
  5
19E
  8
DEFAULT
 10
108.260515
 20
-5.258611388888888
 30
0.0
 11
100.2812461111111
 21
-4.817251111111111
 31
0.0
  0
LINE
  5
19F
  8
DEFAULT
 10
100.2812461111111
 20
-4.817251111111111
 30
0.0
 11
96.67384638888888
 21
-11.94816
 31
0.0
  0
LINE
  5
1A0
  8
DEFAULT
 10
103.2604897222222
 20
-12.06189555555556
 30
0.0
 11
95.28125611111109
 21
-12.50325583333333
 31
0.0
  0
LINE
  5
1A1
  8
DEFAULT
 10
95.28125611111109
 20
-12.50325583333333
 30
0.0
 11
91.6738211111111
 21
-5.372346944444444
 31
0.0
  0
LINE
  5
1A2
  8
DEFAULT
 10
95.06567361111111
 20
2.359448333333333
 30
0.0
 11
99.43750749999998
 21
-4.330135555555555
 31
0.0
  0
LINE
  5
1A3
  8
DEFAULT
 10
99.43750749999998
 20
-4.330135555555555
 30
0.0
 11
95.06567361111111
 21
-11.01968416666666
 31
0.0
  0
LINE
  5
1A4
  8
DEFAULT
 10
98.26049972222222
 20
-5.258611388888888
 30
0.0
 11
90.28123083333332
 21
-4.817251111111111
 31
0.0
  0
LINE
  5
1A5
  8
DEFAULT
 10
90.28123083333332
 20
-4.817251111111111
 30
0.0
 11
86.67383111111111
 21
-11.94816
 31
0.0
  0
LINE
  5
1A6
  8
DEFAULT
 10
93.26050972222221
 20
-12.06189555555556
 30
0.0
 11
85.28124083333333
 21
-12.50325583333333
 31
0.0
  0
LINE
  5
1A7
  8
DEFAULT
 10
85.28124083333333
 20
-12.50325583333333
 30
0.0
 11
81.6738411111111
 21
-5.372346944444444
 31
0.0
  0
LINE
  5
1A8
  8
DEFAULT
 10
85.06565833333333
 20
2.359448333333333
 30
0.0
 11
89.4374922222222
 21
-4.330135555555555
 31
0.0
  0
LINE
  5
1A9
  8
DEFAULT
 10
89.4374922222222
 20
-4.330135555555555
 30
0.0
 11
85.06565833333333
 21
-11.01968416666666
 31
0.0
  0
LINE
  5
1AA
  8
DEFAULT
 10
88.26048444444443
 20
-5.258611388888888
 30
0.0
 11
80.28125083333333
 21
-4.817251111111111
 31
0.0
  0
LINE
  5
1AB
  8
DEFAULT
 10
80.28125083333333
 20
-4.817251111111111
 30
0.0
 11
76.67381583333332
 21
-11.94816
 31
0.0
  0
LINE
  5
1AC
  8
DEFAULT
 10
83.26049444444445
 20
-12.06189555555556
 30
0.0
 11
75.28126083333333
 21
-12.50325583333333
 31
0.0
  0
LINE
  5
1AD
  8
DEFAULT
 10
75.28126083333333
 20
-12.50325583333333
 30
0.0
 11
71.67382583333332
 21
-5.372346944444444
 31
0.0
  0
LINE
  5
1AE
  8
DEFAULT
 10
75.06567833333332
 20
2.359448333333333
 30
0.0
 11
79.43751222222221
 21
-4.330135555555555
 31
0.0
  0
LINE
  5
1AF
  8
DEFAULT
 10
79.43751222222221
 20
-4.330135555555555
 30
0.0
 11
75.06567833333332
 21
-11.01968416666666
 31
0.0
  0
LINE
  5
1B0
  8
DEFAULT
 10
78.26050444444444
 20
-5.258611388888888
 30
0.0
 11
70.28123555555554
 21
-4.817251111111111
 31
0.0
  0
LINE
  5
1B1
  8
DEFAULT
 10
70.28123555555554
 20
-4.817251111111111
 30
0.0
 11
66.67383583333333
 21
-11.94816
 31
0.0
  0
LINE
  5
1B2
  8
DEFAULT
 10
73.26051444444444
 20
-12.06189555555556
 30
0.0
 11
65.28124555555556
 21
-12.50325583333333
 31
0.0
  0
LINE
  5
1B3
  8
DEFAULT
 10
65.28124555555556
 20
-12.50325583333333
 30
0.0
 11
61.67384583333332
 21
-5.372346944444444
 31
0.0
  0
LINE
  5
1B4
  8
DEFAULT
 10
65.06566305555555
 20
2.359448333333333
 30
0.0
 11
69.43749694444445
 21
-4.330135555555555
 31
0.0
  0
LINE
  5
1B5
  8
DEFAULT
 10
69.43749694444445
 20
-4.330135555555555
 30
0.0
 11
65.06566305555555
 21
-11.01968416666666
 31
0.0
  0
LINE
  5
1B6
  8
DEFAULT
 10
138.2604902777778
 20
-20.72216666666667
 30
0.0
 11
130.2812566666666
 21
-21.16349166666667
 31
0.0
  0
LINE
  5
1B7
  8
DEFAULT
 10
130.2812566666666
 20
-21.16349166666667
 30
0.0
 11
126.6738216666667
 21
-14.03258277777778
 31
0.0
  0
LINE
  5
1B8
  8
DEFAULT
 10
130.0656741666666
 20
-6.300822777777777
 30
0.0
 11
134.4375080555555
 21
-12.99037138888889
 31
0.0
  0
LINE
  5
1B9
  8
DEFAULT
 10
134.4375080555555
 20
-12.99037138888889
 30
0.0
 11
130.0656741666666
 21
-19.67995527777778
 31
0.0
  0
LINE
  5
1BA
  8
DEFAULT
 10
133.2605002777778
 20
-13.91884722222222
 30
0.0
 11
125.2812313888889
 21
-13.47752222222222
 31
0.0
  0
LINE
  5
1BB
  8
DEFAULT
 10
125.2812313888889
 20
-13.47752222222222
 30
0.0
 11
121.6738316666667
 21
-20.60843111111111
 31
0.0
  0
LINE
  5
1BC
  8
DEFAULT
 10
128.2605102777778
 20
-20.72216666666667
 30
0.0
 11
120.2812413888889
 21
-21.16349166666667
 31
0.0
  0
LINE
  5
1BD
  8
DEFAULT
 10
120.2812413888889
 20
-21.16349166666667
 30
0.0
 11
116.6738416666666
 21
-14.03258277777778
 31
0.0
  0
LINE
  5
1BE
  8
DEFAULT
 10
120.0656588888889
 20
-6.300822777777777
 30
0.0
 11
124.4374927777778
 21
-12.99037138888889
 31
0.0
  0
LINE
  5
1BF
  8
DEFAULT
 10
124.4374927777778
 20
-12.99037138888889
 30
0.0
 11
120.0656588888889
 21
-19.67995527777778
 31
0.0
  0
LINE
  5
1C0
  8
DEFAULT
 10
123.260485
 20
-13.91884722222222
 30
0.0
 11
115.2812513888889
 21
-13.47752222222222
 31
0.0
  0
LINE
  5
1C1
  8
DEFAULT
 10
115.2812513888889
 20
-13.47752222222222
 30
0.0
 11
111.6738163888889
 21
-20.60843111111111
 31
0.0
  0
LINE
  5
1C2
  8
DEFAULT
 10
118.260495
 20
-20.72216666666667
 30
0.0
 11
110.2812613888889
 21
-21.16349166666667
 31
0.0
  0
LINE
  5
1C3
  8
DEFAULT
 10
110.2812613888889
 20
-21.16349166666667
 30
0.0
 11
106.6738263888889
 21
-14.03258277777778
 31
0.0
  0
LINE
  5
1C4
  8
DEFAULT
 10
110.0656788888889
 20
-6.300822777777777
 30
0.0
 11
114.4375127777778
 21
-12.99037138888889
 31
0.0
  0
LINE
  5
1C5
  8
DEFAULT
 10
114.4375127777778
 20
-12.99037138888889
 30
0.0
 11
110.0656788888889
 21
-19.67995527777778
 31
0.0
  0
LINE
  5
1C6
  8
DEFAULT
 10
113.260505
 20
-13.91884722222222
 30
0.0
 11
105.2812361111111
 21
-13.47752222222222
 31
0.0
  0
LINE
  5
1C7
  8
DEFAULT
 10
105.2812361111111
 20
-13.47752222222222
 30
0.0
 11
101.6738363888889
 21
-20.60843111111111
 31
0.0
  0
LINE
  5
1C8
  8
DEFAULT
 10
108.260515
 20
-20.72216666666667
 30
0.0
 11
100.2812461111111
 21
-21.16349166666667
 31
0.0
  0
LINE
  5
1C9
  8
DEFAULT
 10
100.2812461111111
 20
-21.16349166666667
 30
0.0
 11
96.67384638888888
 21
-14.03258277777778
 31
0.0
  0
LINE
  5
1CA
  8
DEFAULT
 10
100.0656636111111
 20
-6.300822777777777
 30
0.0
 11
104.4374975
 21
-12.99037138888889
 31
0.0
  0
LINE
  5
1CB
  8
DEFAULT
 10
104.4374975
 20
-12.99037138888889
 30
0.0
 11
100.0656636111111
 21
-19.67995527777778
 31
0.0
  0
LINE
  5
1CC
  8
DEFAULT
 10
103.2604897222222
 20
-13.91884722222222
 30
0.0
 11
95.28125611111109
 21
-13.47752222222222
 31
0.0
  0
LINE
  5
1CD
  8
DEFAULT
 10
95.28125611111109
 20
-13.47752222222222
 30
0.0
 11
91.6738211111111
 21
-20.60843111111111
 31
0.0
  0
LINE
  5
1CE
  8
DEFAULT
 10
98.26049972222222
 20
-20.72216666666667
 30
0.0
 11
90.28123083333332
 21
-21.16349166666667
 31
0.0
  0
LINE
  5
1CF
  8
DEFAULT
 10
90.28123083333332
 20
-21.16349166666667
 30
0.0
 11
86.67383111111111
 21
-14.03258277777778
 31
0.0
  0
LINE
  5
1D0
  8
DEFAULT
 10
90.06564833333333
 20
-6.300822777777777
 30
0.0
 11
94.43748222222222
 21
-12.99037138888889
 31
0.0
  0
LINE
  5
1D1
  8
DEFAULT
 10
94.43748222222222
 20
-12.99037138888889
 30
0.0
 11
90.06564833333333
 21
-19.67995527777778
 31
0.0
  0
LINE
  5
1D2
  8
DEFAULT
 10
93.26050972222221
 20
-13.91884722222222
 30
0.0
 11
85.28124083333333
 21
-13.47752222222222
 31
0.0
  0
LINE
  5
1D3
  8
DEFAULT
 10
85.28124083333333
 20
-13.47752222222222
 30
0.0
 11
81.6738411111111
 21
-20.60843111111111
 31
0.0
  0
LINE
  5
1D4
  8
DEFAULT
 10
88.26048444444443
 20
-20.72216666666667
 30
0.0
 11
80.28125083333333
 21
-21.16349166666667
 31
0.0
  0
LINE
  5
1D5
  8
DEFAULT
 10
80.28125083333333
 20
-21.16349166666667
 30
0.0
 11
76.67381583333332
 21
-14.03258277777778
 31
0.0
  0
LINE
  5
1D6
  8
DEFAULT
 10
80.06566833333332
 20
-6.300822777777777
 30
0.0
 11
84.43750222222222
 21
-12.99037138888889
 31
0.0
  0
LINE
  5
1D7
  8
DEFAULT
 10
84.43750222222222
 20
-12.99037138888889
 30
0.0
 11
80.06566833333332
 21
-19.67995527777778
 31
0.0
  0
LINE
  5
1D8
  8
DEFAULT
 10
83.26049444444445
 20
-13.91884722222222
 30
0.0
 11
75.28126083333333
 21
-13.47752222222222
 31
0.0
  0
LINE
  5
1D9
  8
DEFAULT
 10
75.28126083333333
 20
-13.47752222222222
 30
0.0
 11
71.67382583333332
 21
-20.60843111111111
 31
0.0
  0
LINE
  5
1DA
  8
DEFAULT
 10
78.26050444444444
 20
-20.72216666666667
 30
0.0
 11
70.28123555555554
 21
-21.16349166666667
 31
0.0
  0
LINE
  5
1DB
  8
DEFAULT
 10
70.28123555555554
 20
-21.16349166666667
 30
0.0
 11
66.67383583333333
 21
-14.03258277777778
 31
0.0
  0
LINE
  5
1DC
  8
DEFAULT
 10
70.06565305555554
 20
-6.300822777777777
 30
0.0
 11
74.43748694444443
 21
-12.99037138888889
 31
0.0
  0
LINE
  5
1DD
  8
DEFAULT
 10
74.43748694444443
 20
-12.99037138888889
 30
0.0
 11
70.06565305555554
 21
-19.67995527777778
 31
0.0
  0
LINE
  5
1DE
  8
DEFAULT
 10
73.26051444444444
 20
-13.91884722222222
 30
0.0
 11
65.28124555555556
 21
-13.47752222222222
 31
0.0
  0
LINE
  5
1DF
  8
DEFAULT
 10
65.28124555555556
 20
-13.47752222222222
 30
0.0
 11
61.67384583333332
 21
-20.60843111111111
 31
0.0
  0
LINE
  5
1E0
  8
DEFAULT
 10
135.0656641666666
 20
-14.96105861111111
 30
0.0
 11
139.4374980555556
 21
-21.6506425
 31
0.0
  0
LINE
  5
1E1
  8
DEFAULT
 10
139.4374980555556
 20
-21.6506425
 30
0.0
 11
135.0656641666666
 21
-28.34019111111111
 31
0.0
  0
LINE
  5
1E2
  8
DEFAULT
 10
138.2604902777778
 20
-22.57911833333333
 30
0.0
 11
130.2812566666666
 21
-22.13775805555555
 31
0.0
  0
LINE
  5
1E3
  8
DEFAULT
 10
130.2812566666666
 20
-22.13775805555555
 30
0.0
 11
126.6738216666667
 21
-29.26866694444444
 31
0.0
  0
LINE
  5
1E4
  8
DEFAULT
 10
133.2605002777778
 20
-29.3824025
 30
0.0
 11
125.2812313888889
 21
-29.82376277777777
 31
0.0
  0
LINE
  5
1E5
  8
DEFAULT
 10
125.2812313888889
 20
-29.82376277777777
 30
0.0
 11
121.6738316666667
 21
-22.69285388888889
 31
0.0
  0
LINE
  5
1E6
  8
DEFAULT
 10
125.0656488888889
 20
-14.96105861111111
 30
0.0
 11
129.4374827777778
 21
-21.6506425
 31
0.0
  0
LINE
  5
1E7
  8
DEFAULT
 10
129.4374827777778
 20
-21.6506425
 30
0.0
 11
125.0656488888889
 21
-28.34019111111111
 31
0.0
  0
LINE
  5
1E8
  8
DEFAULT
 10
128.2605102777778
 20
-22.57911833333333
 30
0.0
 11
120.2812413888889
 21
-22.13775805555555
 31
0.0
  0
LINE
  5
1E9
  8
DEFAULT
 10
120.2812413888889
 20
-22.13775805555555
 30
0.0
 11
116.6738416666666
 21
-29.26866694444444
 31
0.0
  0
LINE
  5
1EA
  8
DEFAULT
 10
123.260485
 20
-29.3824025
 30
0.0
 11
115.2812513888889
 21
-29.82376277777777
 31
0.0
  0
LINE
  5
1EB
  8
DEFAULT
 10
115.2812513888889
 20
-29.82376277777777
 30
0.0
 11
111.6738163888889
 21
-22.69285388888889
 31
0.0
  0
LINE
  5
1EC
  8
DEFAULT
 10
115.0656688888889
 20
-14.96105861111111
 30
0.0
 11
119.4375027777778
 21
-21.6506425
 31
0.0
  0
LINE
  5
1ED
  8
DEFAULT
 10
119.4375027777778
 20
-21.6506425
 30
0.0
 11
115.0656688888889
 21
-28.34019111111111
 31
0.0
  0
LINE
  5
1EE
  8
DEFAULT
 10
118.260495
 20
-22.57911833333333
 30
0.0
 11
110.2812613888889
 21
-22.13775805555555
 31
0.0
  0
LINE
  5
1EF
  8
DEFAULT
 10
110.2812613888889
 20
-22.13775805555555
 30
0.0
 11
106.6738263888889
 21
-29.26866694444444
 31
0.0
  0
LINE
  5
1F0
  8
DEFAULT
 10
113.260505
 20
-29.3824025
 30
0.0
 11
105.2812361111111
 21
-29.82376277777777
 31
0.0
  0
LINE
  5
1F1
  8
DEFAULT
 10
105.2812361111111
 20
-29.82376277777777
 30
0.0
 11
101.6738363888889
 21
-22.69285388888889
 31
0.0
  0
LINE
  5
1F2
  8
DEFAULT
 10
105.0656536111111
 20
-14.96105861111111
 30
0.0
 11
109.4374875
 21
-21.6506425
 31
0.0
  0
LINE
  5
1F3
  8
DEFAULT
 10
109.4374875
 20
-21.6506425
 30
0.0
 11
105.0656536111111
 21
-28.34019111111111
 31
0.0
  0
LINE
  5
1F4
  8
DEFAULT
 10
108.260515
 20
-22.57911833333333
 30
0.0
 11
100.2812461111111
 21
-22.13775805555555
 31
0.0
  0
LINE
  5
1F5
  8
DEFAULT
 10
100.2812461111111
 20
-22.13775805555555
 30
0.0
 11
96.67384638888888
 21
-29.26866694444444
 31
0.0
  0
LINE
  5
1F6
  8
DEFAULT
 10
103.2604897222222
 20
-29.3824025
 30
0.0
 11
95.28125611111109
 21
-29.82376277777777
 31
0.0
  0
LINE
  5
1F7
  8
DEFAULT
 10
95.28125611111109
 20
-29.82376277777777
 30
0.0
 11
91.6738211111111
 21
-22.69285388888889
 31
0.0
  0
LINE
  5
1F8
  8
DEFAULT
 10
95.06567361111111
 20
-14.96105861111111
 30
0.0
 11
99.43750749999998
 21
-21.6506425
 31
0.0
  0
LINE
  5
1F9
  8
DEFAULT
 10
99.43750749999998
 20
-21.6506425
 30
0.0
 11
95.06567361111111
 21
-28.34019111111111
 31
0.0
  0
LINE
  5
1FA
  8
DEFAULT
 10
98.26049972222222
 20
-22.57911833333333
 30
0.0
 11
90.28123083333332
 21
-22.13775805555555
 31
0.0
  0
LINE
  5
1FB
  8
DEFAULT
 10
90.28123083333332
 20
-22.13775805555555
 30
0.0
 11
86.67383111111111
 21
-29.26866694444444
 31
0.0
  0
LINE
  5
1FC
  8
DEFAULT
 10
93.26050972222221
 20
-29.3824025
 30
0.0
 11
85.28124083333333
 21
-29.82376277777777
 31
0.0
  0
LINE
  5
1FD
  8
DEFAULT
 10
85.28124083333333
 20
-29.82376277777777
 30
0.0
 11
81.6738411111111
 21
-22.69285388888889
 31
0.0
  0
LINE
  5
1FE
  8
DEFAULT
 10
85.06565833333333
 20
-14.96105861111111
 30
0.0
 11
89.4374922222222
 21
-21.6506425
 31
0.0
  0
LINE
  5
1FF
  8
DEFAULT
 10
89.4374922222222
 20
-21.6506425
 30
0.0
 11
85.06565833333333
 21
-28.34019111111111
 31
0.0
  0
LINE
  5
200
  8
DEFAULT
 10
88.26048444444443
 20
-22.57911833333333
 30
0.0
 11
80.28125083333333
 21
-22.13775805555555
 31
0.0
  0
LINE
  5
201
  8
DEFAULT
 10
80.28125083333333
 20
-22.13775805555555
 30
0.0
 11
76.67381583333332
 21
-29.26866694444444
 31
0.0
  0
LINE
  5
202
  8
DEFAULT
 10
83.26049444444445
 20
-29.3824025
 30
0.0
 11
75.28126083333333
 21
-29.82376277777777
 31
0.0
  0
LINE
  5
203
  8
DEFAULT
 10
75.28126083333333
 20
-29.82376277777777
 30
0.0
 11
71.67382583333332
 21
-22.69285388888889
 31
0.0
  0
LINE
  5
204
  8
DEFAULT
 10
75.06567833333332
 20
-14.96105861111111
 30
0.0
 11
79.43751222222221
 21
-21.6506425
 31
0.0
  0
LINE
  5
205
  8
DEFAULT
 10
79.43751222222221
 20
-21.6506425
 30
0.0
 11
75.06567833333332
 21
-28.34019111111111
 31
0.0
  0
LINE
  5
206
  8
DEFAULT
 10
78.26050444444444
 20
-22.57911833333333
 30
0.0
 11
70.28123555555554
 21
-22.13775805555555
 31
0.0
  0
LINE
  5
207
  8
DEFAULT
 10
70.28123555555554
 20
-22.13775805555555
 30
0.0
 11
66.67383583333333
 21
-29.26866694444444
 31
0.0
  0
LINE
  5
208
  8
DEFAULT
 10
73.26051444444444
 20
-29.3824025
 30
0.0
 11
65.28124555555556
 21
-29.82376277777777
 31
0.0
  0
LINE
  5
209
  8
DEFAULT
 10
65.28124555555556
 20
-29.82376277777777
 30
0.0
 11
61.67384583333332
 21
-22.69285388888889
 31
0.0
  0
LINE
  5
20A
  8
DEFAULT
 10
65.06566305555555
 20
-14.96105861111111
 30
0.0
 11
69.43749694444445
 21
-21.6506425
 31
0.0
  0
LINE
  5
20B
  8
DEFAULT
 10
69.43749694444445
 20
-21.6506425
 30
0.0
 11
65.06566305555555
 21
-28.34019111111111
 31
0.0
  0
LINE
  5
20C
  8
DEFAULT
 10
130.0656741666666
 20
-23.62132972222222
 30
0.0
 11
134.4375080555555
 21
-30.31087833333333
 31
0.0
  0
LINE
  5
20D
  8
DEFAULT
 10
134.4375080555555
 20
-30.31087833333333
 30
0.0
 11
130.0656741666666
 21
-37.00046222222222
 31
0.0
  0
LINE
  5
20E
  8
DEFAULT
 10
133.2605002777778
 20
-31.23935416666666
 30
0.0
 11
125.2812313888889
 21
-30.79802916666667
 31
0.0
  0
LINE
  5
20F
  8
DEFAULT
 10
125.2812313888889
 20
-30.79802916666667
 30
0.0
 11
121.6738316666667
 21
-37.92893805555556
 31
0.0
  0
LINE
  5
210
  8
DEFAULT
 10
128.2605102777778
 20
-38.04267361111111
 30
0.0
 11
120.2812413888889
 21
-38.4839986111111
 31
0.0
  0
LINE
  5
211
  8
DEFAULT
 10
120.2812413888889
 20
-38.4839986111111
 30
0.0
 11
116.6738416666666
 21
-31.35308972222222
 31
0.0
  0
LINE
  5
212
  8
DEFAULT
 10
120.0656588888889
 20
-23.62132972222222
 30
0.0
 11
124.4374927777778
 21
-30.31087833333333
 31
0.0
  0
LINE
  5
213
  8
DEFAULT
 10
124.4374927777778
 20
-30.31087833333333
 30
0.0
 11
120.0656588888889
 21
-37.00046222222222
 31
0.0
  0
LINE
  5
214
  8
DEFAULT
 10
123.260485
 20
-31.23935416666666
 30
0.0
 11
115.2812513888889
 21
-30.79802916666667
 31
0.0
  0
LINE
  5
215
  8
DEFAULT
 10
115.2812513888889
 20
-30.79802916666667
 30
0.0
 11
111.6738163888889
 21
-37.92893805555556
 31
0.0
  0
LINE
  5
216
  8
DEFAULT
 10
118.260495
 20
-38.04267361111111
 30
0.0
 11
110.2812613888889
 21
-38.4839986111111
 31
0.0
  0
LINE
  5
217
  8
DEFAULT
 10
110.2812613888889
 20
-38.4839986111111
 30
0.0
 11
106.6738263888889
 21
-31.35308972222222
 31
0.0
  0
LINE
  5
218
  8
DEFAULT
 10
110.0656788888889
 20
-23.62132972222222
 30
0.0
 11
114.4375127777778
 21
-30.31087833333333
 31
0.0
  0
LINE
  5
219
  8
DEFAULT
 10
114.4375127777778
 20
-30.31087833333333
 30
0.0
 11
110.0656788888889
 21
-37.00046222222222
 31
0.0
  0
LINE
  5
21A
  8
DEFAULT
 10
113.260505
 20
-31.23935416666666
 30
0.0
 11
105.2812361111111
 21
-30.79802916666667
 31
0.0
  0
LINE
  5
21B
  8
DEFAULT
 10
105.2812361111111
 20
-30.79802916666667
 30
0.0
 11
101.6738363888889
 21
-37.92893805555556
 31
0.0
  0
LINE
  5
21C
  8
DEFAULT
 10
108.260515
 20
-38.04267361111111
 30
0.0
 11
100.2812461111111
 21
-38.4839986111111
 31
0.0
  0
LINE
  5
21D
  8
DEFAULT
 10
100.2812461111111
 20
-38.4839986111111
 30
0.0
 11
96.67384638888888
 21
-31.35308972222222
 31
0.0
  0
LINE
  5
21E
  8
DEFAULT
 10
100.0656636111111
 20
-23.62132972222222
 30
0.0
 11
104.4374975
 21
-30.31087833333333
 31
0.0
  0
LINE
  5
21F
  8
DEFAULT
 10
104.4374975
 20
-30.31087833333333
 30
0.0
 11
100.0656636111111
 21
-37.00046222222222
 31
0.0
  0
LINE
  5
220
  8
DEFAULT
 10
103.2604897222222
 20
-31.23935416666666
 30
0.0
 11
95.28125611111109
 21
-30.79802916666667
 31
0.0
  0
LINE
  5
221
  8
DEFAULT
 10
95.28125611111109
 20
-30.79802916666667
 30
0.0
 11
91.6738211111111
 21
-37.92893805555556
 31
0.0
  0
LINE
  5
222
  8
DEFAULT
 10
98.26049972222222
 20
-38.04267361111111
 30
0.0
 11
90.28123083333332
 21
-38.4839986111111
 31
0.0
  0
LINE
  5
223
  8
DEFAULT
 10
90.28123083333332
 20
-38.4839986111111
 30
0.0
 11
86.67383111111111
 21
-31.35308972222222
 31
0.0
  0
LINE
  5
224
  8
DEFAULT
 10
90.06564833333333
 20
-23.62132972222222
 30
0.0
 11
94.43748222222222
 21
-30.31087833333333
 31
0.0
  0
LINE
  5
225
  8
DEFAULT
 10
94.43748222222222
 20
-30.31087833333333
 30
0.0
 11
90.06564833333333
 21
-37.00046222222222
 31
0.0
  0
LINE
  5
226
  8
DEFAULT
 10
93.26050972222221
 20
-31.23935416666666
 30
0.0
 11
85.28124083333333
 21
-30.79802916666667
 31
0.0
  0
LINE
  5
227
  8
DEFAULT
 10
85.28124083333333
 20
-30.79802916666667
 30
0.0
 11
81.6738411111111
 21
-37.92893805555556
 31
0.0
  0
LINE
  5
228
  8
DEFAULT
 10
88.26048444444443
 20
-38.04267361111111
 30
0.0
 11
80.28125083333333
 21
-38.4839986111111
 31
0.0
  0
LINE
  5
229
  8
DEFAULT
 10
80.28125083333333
 20
-38.4839986111111
 30
0.0
 11
76.67381583333332
 21
-31.35308972222222
 31
0.0
  0
LINE
  5
22A
  8
DEFAULT
 10
80.06566833333332
 20
-23.62132972222222
 30
0.0
 11
84.43750222222222
 21
-30.31087833333333
 31
0.0
  0
LINE
  5
22B
  8
DEFAULT
 10
84.43750222222222
 20
-30.31087833333333
 30
0.0
 11
80.06566833333332
 21
-37.00046222222222
 31
0.0
  0
LINE
  5
22C
  8
DEFAULT
 10
83.26049444444445
 20
-31.23935416666666
 30
0.0
 11
75.28126083333333
 21
-30.79802916666667
 31
0.0
  0
LINE
  5
22D
  8
DEFAULT
 10
75.28126083333333
 20
-30.79802916666667
 30
0.0
 11
71.67382583333332
 21
-37.92893805555556
 31
0.0
  0
LINE
  5
22E
  8
DEFAULT
 10
78.26050444444444
 20
-38.04267361111111
 30
0.0
 11
70.28123555555554
 21
-38.4839986111111
 31
0.0
  0
LINE
  5
22F
  8
DEFAULT
 10
70.28123555555554
 20
-38.4839986111111
 30
0.0
 11
66.67383583333333
 21
-31.35308972222222
 31
0.0
  0
LINE
  5
230
  8
DEFAULT
 10
70.06565305555554
 20
-23.62132972222222
 30
0.0
 11
74.43748694444443
 21
-30.31087833333333
 31
0.0
  0
LINE
  5
231
  8
DEFAULT
 10
74.43748694444443
 20
-30.31087833333333
 30
0.0
 11
70.06565305555554
 21
-37.00046222222222
 31
0.0
  0
LINE
  5
232
  8
DEFAULT
 10
-32.03126972222222
 20
-31.8100075
 30
0.0
 11
-29.70367722222222
 21
-38.45789305555555
 31
0.0
  0
LINE
  5
233
  8
DEFAULT
 10
-29.70367722222222
 20
-38.45789305555555
 30
0.0
 11
-22.78263583333333
 21
-37.1497225
 31
0.0
  0
LINE
  5
234
  8
DEFAULT
 10
-27.03127972222222
 20
-37.47202027777777
 30
0.0
 11
-24.70368722222222
 21
-30.82413472222222
 31
0.0
  0
LINE
  5
235
  8
DEFAULT
 10
-24.70368722222222
 20
-30.82413472222222
 30
0.0
 11
-17.78264583333333
 21
-32.13230527777777
 31
0.0
  0
LINE
  5
236
  8
DEFAULT
 10
-22.03128972222222
 20
-31.8100075
 30
0.0
 11
-19.70366194444444
 21
-38.45789305555555
 31
0.0
  0
LINE
  5
237
  8
DEFAULT
 10
-19.70366194444444
 20
-38.45789305555555
 30
0.0
 11
-12.78265583333333
 21
-37.1497225
 31
0.0
  0
LINE
  5
238
  8
DEFAULT
 10
-17.03126444444444
 20
-37.47202027777777
 30
0.0
 11
-14.70367194444444
 21
-30.82413472222222
 31
0.0
  0
LINE
  5
239
  8
DEFAULT
 10
-14.70367194444444
 20
-30.82413472222222
 30
0.0
 11
-7.782630555555555
 21
-32.13230527777777
 31
0.0
  0
LINE
  5
23A
  8
DEFAULT
 10
-12.03127444444444
 20
-31.8100075
 30
0.0
 11
-9.703681944444444
 21
-38.45789305555555
 31
0.0
  0
LINE
  5
23B
  8
DEFAULT
 10
-9.703681944444444
 20
-38.45789305555555
 30
0.0
 11
-2.782640555555556
 21
-37.1497225
 31
0.0
  0
LINE
  5
23C
  8
DEFAULT
 10
-7.031284444444444
 20
-37.47202027777777
 30
0.0
 11
-4.703691944444444
 21
-30.82413472222222
 31
0.0
  0
LINE
  5
23D
  8
DEFAULT
 10
-4.703691944444444
 20
-30.82413472222222
 30
0.0
 11
2.217349444444444
 21
-32.13230527777777
 31
0.0
  0
LINE
  5
23E
  8
DEFAULT
 10
-2.031259166666667
 20
-31.8100075
 30
0.0
 11
0.2963333333333333
 21
-38.45789305555555
 31
0.0
  0
LINE
  5
23F
  8
DEFAULT
 10
0.2963333333333333
 20
-38.45789305555555
 30
0.0
 11
7.217339444444444
 21
-37.1497225
 31
0.0
  0
LINE
  5
240
  8
DEFAULT
 10
2.968730833333333
 20
-37.47202027777777
 30
0.0
 11
5.296323333333333
 21
-30.82413472222222
 31
0.0
  0
LINE
  5
241
  8
DEFAULT
 10
5.296323333333333
 20
-30.82413472222222
 30
0.0
 11
12.21736472222222
 21
-32.13230527777777
 31
0.0
  0
LINE
  5
242
  8
DEFAULT
 10
7.968720833333332
 20
-31.8100075
 30
0.0
 11
10.29631333333333
 21
-38.45789305555555
 31
0.0
  0
LINE
  5
243
  8
DEFAULT
 10
10.29631333333333
 20
-38.45789305555555
 30
0.0
 11
17.21735472222222
 21
-37.1497225
 31
0.0
  0
LINE
  5
244
  8
DEFAULT
 10
12.96871083333333
 20
-37.47202027777777
 30
0.0
 11
15.29633861111111
 21
-30.82413472222222
 31
0.0
  0
LINE
  5
245
  8
DEFAULT
 10
15.29633861111111
 20
-30.82413472222222
 30
0.0
 11
22.21734472222222
 21
-32.13230527777777
 31
0.0
  0
LINE
  5
246
  8
DEFAULT
 10
17.96873611111111
 20
-31.8100075
 30
0.0
 11
20.29632861111111
 21
-38.45789305555555
 31
0.0
  0
LINE
  5
247
  8
DEFAULT
 10
20.29632861111111
 20
-38.45789305555555
 30
0.0
 11
27.21737
 21
-37.1497225
 31
0.0
  0
LINE
  5
248
  8
DEFAULT
 10
22.96872611111111
 20
-37.47202027777777
 30
0.0
 11
25.29631861111111
 21
-30.82413472222222
 31
0.0
  0
LINE
  5
249
  8
DEFAULT
 10
25.29631861111111
 20
-30.82413472222222
 30
0.0
 11
32.21735999999999
 21
-32.13230527777777
 31
0.0
  0
LINE
  5
24A
  8
DEFAULT
 10
-37.03125972222222
 20
-23.14977166666666
 30
0.0
 11
-34.70366722222222
 21
-29.79762194444444
 31
0.0
  0
LINE
  5
24B
  8
DEFAULT
 10
-34.70366722222222
 20
-29.79762194444444
 30
0.0
 11
-27.78266111111111
 21
-28.48945138888888
 31
0.0
  0
LINE
  5
24C
  8
DEFAULT
 10
-30.18610083333333
 20
-35.65059333333333
 30
0.0
 11
-25.59265194444444
 21
-30.31087833333333
 31
0.0
  0
LINE
  5
24D
  8
DEFAULT
 10
-25.59265194444444
 20
-30.31087833333333
 30
0.0
 11
-30.18610083333333
 21
-24.97119861111111
 31
0.0
  0
LINE
  5
24E
  8
DEFAULT
 10
-32.03126972222222
 20
-28.81178444444444
 30
0.0
 11
-29.70367722222222
 21
-22.16389888888889
 31
0.0
  0
LINE
  5
24F
  8
DEFAULT
 10
-29.70367722222222
 20
-22.16389888888889
 30
0.0
 11
-22.78263583333333
 21
-23.47206944444444
 31
0.0
  0
LINE
  5
250
  8
DEFAULT
 10
-27.03127972222222
 20
-23.14977166666666
 30
0.0
 11
-24.70368722222222
 21
-29.79762194444444
 31
0.0
  0
LINE
  5
251
  8
DEFAULT
 10
-24.70368722222222
 20
-29.79762194444444
 30
0.0
 11
-17.78264583333333
 21
-28.48945138888888
 31
0.0
  0
LINE
  5
252
  8
DEFAULT
 10
-20.18608555555555
 20
-35.65059333333333
 30
0.0
 11
-15.59263666666666
 21
-30.31087833333333
 31
0.0
  0
LINE
  5
253
  8
DEFAULT
 10
-15.59263666666666
 20
-30.31087833333333
 30
0.0
 11
-20.18608555555555
 21
-24.97119861111111
 31
0.0
  0
LINE
  5
254
  8
DEFAULT
 10
-22.03128972222222
 20
-28.81178444444444
 30
0.0
 11
-19.70366194444444
 21
-22.16389888888889
 31
0.0
  0
LINE
  5
255
  8
DEFAULT
 10
-19.70366194444444
 20
-22.16389888888889
 30
0.0
 11
-12.78265583333333
 21
-23.47206944444444
 31
0.0
  0
LINE
  5
256
  8
DEFAULT
 10
-17.03126444444444
 20
-23.14977166666666
 30
0.0
 11
-14.70367194444444
 21
-29.79762194444444
 31
0.0
  0
LINE
  5
257
  8
DEFAULT
 10
-14.70367194444444
 20
-29.79762194444444
 30
0.0
 11
-7.782630555555555
 21
-28.48945138888888
 31
0.0
  0
LINE
  5
258
  8
DEFAULT
 10
-10.18610555555555
 20
-35.65059333333333
 30
0.0
 11
-5.592656666666666
 21
-30.31087833333333
 31
0.0
  0
LINE
  5
259
  8
DEFAULT
 10
-5.592656666666666
 20
-30.31087833333333
 30
0.0
 11
-10.18610555555555
 21
-24.97119861111111
 31
0.0
  0
LINE
  5
25A
  8
DEFAULT
 10
-12.03127444444444
 20
-28.81178444444444
 30
0.0
 11
-9.703681944444444
 21
-22.16389888888889
 31
0.0
  0
LINE
  5
25B
  8
DEFAULT
 10
-9.703681944444444
 20
-22.16389888888889
 30
0.0
 11
-2.782640555555556
 21
-23.47206944444444
 31
0.0
  0
LINE
  5
25C
  8
DEFAULT
 10
-7.031284444444444
 20
-23.14977166666666
 30
0.0
 11
-4.703691944444444
 21
-29.79762194444444
 31
0.0
  0
LINE
  5
25D
  8
DEFAULT
 10
-4.703691944444444
 20
-29.79762194444444
 30
0.0
 11
2.217349444444444
 21
-28.48945138888888
 31
0.0
  0
LINE
  5
25E
  8
DEFAULT
 10
-0.1860902777777778
 20
-35.65059333333333
 30
0.0
 11
4.40735861111111
 21
-30.31087833333333
 31
0.0
  0
LINE
  5
25F
  8
DEFAULT
 10
4.40735861111111
 20
-30.31087833333333
 30
0.0
 11
-0.1860902777777778
 21
-24.97119861111111
 31
0.0
  0
LINE
  5
260
  8
DEFAULT
 10
-2.031259166666667
 20
-28.81178444444444
 30
0.0
 11
0.2963333333333333
 21
-22.16389888888889
 31
0.0
  0
LINE
  5
261
  8
DEFAULT
 10
0.2963333333333333
 20
-22.16389888888889
 30
0.0
 11
7.217339444444444
 21
-23.47206944444444
 31
0.0
  0
LINE
  5
262
  8
DEFAULT
 10
2.968730833333333
 20
-23.14977166666666
 30
0.0
 11
5.296323333333333
 21
-29.79762194444444
 31
0.0
  0
LINE
  5
263
  8
DEFAULT
 10
5.296323333333333
 20
-29.79762194444444
 30
0.0
 11
12.21736472222222
 21
-28.48945138888888
 31
0.0
  0
LINE
  5
264
  8
DEFAULT
 10
9.813925
 20
-35.65059333333333
 30
0.0
 11
14.40733861111111
 21
-30.31087833333333
 31
0.0
  0
LINE
  5
265
  8
DEFAULT
 10
14.40733861111111
 20
-30.31087833333333
 30
0.0
 11
9.813925
 21
-24.97119861111111
 31
0.0
  0
LINE
  5
266
  8
DEFAULT
 10
7.968720833333332
 20
-28.81178444444444
 30
0.0
 11
10.29631333333333
 21
-22.16389888888889
 31
0.0
  0
LINE
  5
267
  8
DEFAULT
 10
10.29631333333333
 20
-22.16389888888889
 30
0.0
 11
17.21735472222222
 21
-23.47206944444444
 31
0.0
  0
LINE
  5
268
  8
DEFAULT
 10
12.96871083333333
 20
-23.14977166666666
 30
0.0
 11
15.29633861111111
 21
-29.79762194444444
 31
0.0
  0
LINE
  5
269
  8
DEFAULT
 10
15.29633861111111
 20
-29.79762194444444
 30
0.0
 11
22.21734472222222
 21
-28.48945138888888
 31
0.0
  0
LINE
  5
26A
  8
DEFAULT
 10
19.813905
 20
-35.65059333333333
 30
0.0
 11
24.40735388888888
 21
-30.31087833333333
 31
0.0
  0
LINE
  5
26B
  8
DEFAULT
 10
24.40735388888888
 20
-30.31087833333333
 30
0.0
 11
19.813905
 21
-24.97119861111111
 31
0.0
  0
LINE
  5
26C
  8
DEFAULT
 10
17.96873611111111
 20
-28.81178444444444
 30
0.0
 11
20.29632861111111
 21
-22.16389888888889
 31
0.0
  0
LINE
  5
26D
  8
DEFAULT
 10
20.29632861111111
 20
-22.16389888888889
 30
0.0
 11
27.21737
 21
-23.47206944444444
 31
0.0
  0
LINE
  5
26E
  8
DEFAULT
 10
22.96872611111111
 20
-23.14977166666666
 30
0.0
 11
25.29631861111111
 21
-29.79762194444444
 31
0.0
  0
LINE
  5
26F
  8
DEFAULT
 10
25.29631861111111
 20
-29.79762194444444
 30
0.0
 11
32.21735999999999
 21
-28.48945138888888
 31
0.0
  0
LINE
  5
270
  8
DEFAULT
 10
29.81392027777778
 20
-35.65059333333333
 30
0.0
 11
34.40733388888889
 21
-30.31087833333333
 31
0.0
  0
LINE
  5
271
  8
DEFAULT
 10
34.40733388888889
 20
-30.31087833333333
 30
0.0
 11
29.81392027777778
 21
-24.97119861111111
 31
0.0
  0
LINE
  5
272
  8
DEFAULT
 10
27.96871611111111
 20
-28.81178444444444
 30
0.0
 11
30.29630861111111
 21
-22.16389888888889
 31
0.0
  0
LINE
  5
273
  8
DEFAULT
 10
30.29630861111111
 20
-22.16389888888889
 30
0.0
 11
37.21735
 21
-23.47206944444444
 31
0.0
  0
LINE
  5
274
  8
DEFAULT
 10
-35.18609083333333
 20
-26.99032222222222
 30
0.0
 11
-30.59264194444444
 21
-21.6506425
 31
0.0
  0
LINE
  5
275
  8
DEFAULT
 10
-30.59264194444444
 20
-21.6506425
 30
0.0
 11
-35.18609083333333
 21
-16.3109275
 31
0.0
  0
LINE
  5
276
  8
DEFAULT
 10
-37.03125972222222
 20
-20.15151333333333
 30
0.0
 11
-34.70366722222222
 21
-13.50362777777778
 31
0.0
  0
LINE
  5
277
  8
DEFAULT
 10
-34.70366722222222
 20
-13.50362777777778
 30
0.0
 11
-27.78266111111111
 21
-14.81179833333333
 31
0.0
  0
LINE
  5
278
  8
DEFAULT
 10
-32.03126972222222
 20
-14.48950055555555
 30
0.0
 11
-29.70367722222222
 21
-21.13738611111111
 31
0.0
  0
LINE
  5
279
  8
DEFAULT
 10
-29.70367722222222
 20
-21.13738611111111
 30
0.0
 11
-22.78263583333333
 21
-19.82921555555555
 31
0.0
  0
LINE
  5
27A
  8
DEFAULT
 10
-25.18607555555555
 20
-26.99032222222222
 30
0.0
 11
-20.59266194444444
 21
-21.6506425
 31
0.0
  0
LINE
  5
27B
  8
DEFAULT
 10
-20.59266194444444
 20
-21.6506425
 30
0.0
 11
-25.18607555555555
 21
-16.3109275
 31
0.0
  0
LINE
  5
27C
  8
DEFAULT
 10
-27.03127972222222
 20
-20.15151333333333
 30
0.0
 11
-24.70368722222222
 21
-13.50362777777778
 31
0.0
  0
LINE
  5
27D
  8
DEFAULT
 10
-24.70368722222222
 20
-13.50362777777778
 30
0.0
 11
-17.78264583333333
 21
-14.81179833333333
 31
0.0
  0
LINE
  5
27E
  8
DEFAULT
 10
-22.03128972222222
 20
-14.48950055555555
 30
0.0
 11
-19.70366194444444
 21
-21.13738611111111
 31
0.0
  0
LINE
  5
27F
  8
DEFAULT
 10
-19.70366194444444
 20
-21.13738611111111
 30
0.0
 11
-12.78265583333333
 21
-19.82921555555555
 31
0.0
  0
LINE
  5
280
  8
DEFAULT
 10
-15.18609555555555
 20
-26.99032222222222
 30
0.0
 11
-10.59264666666667
 21
-21.6506425
 31
0.0
  0
LINE
  5
281
  8
DEFAULT
 10
-10.59264666666667
 20
-21.6506425
 30
0.0
 11
-15.18609555555555
 21
-16.3109275
 31
0.0
  0
LINE
  5
282
  8
DEFAULT
 10
-17.03126444444444
 20
-20.15151333333333
 30
0.0
 11
-14.70367194444444
 21
-13.50362777777778
 31
0.0
  0
LINE
  5
283
  8
DEFAULT
 10
-14.70367194444444
 20
-13.50362777777778
 30
0.0
 11
-7.782630555555555
 21
-14.81179833333333
 31
0.0
  0
LINE
  5
284
  8
DEFAULT
 10
-12.03127444444444
 20
-14.48950055555555
 30
0.0
 11
-9.703681944444444
 21
-21.13738611111111
 31
0.0
  0
LINE
  5
285
  8
DEFAULT
 10
-9.703681944444444
 20
-21.13738611111111
 30
0.0
 11
-2.782640555555556
 21
-19.82921555555555
 31
0.0
  0
LINE
  5
286
  8
DEFAULT
 10
-5.186080277777777
 20
-26.99032222222222
 30
0.0
 11
-0.5926666666666666
 21
-21.6506425
 31
0.0
  0
LINE
  5
287
  8
DEFAULT
 10
-0.5926666666666666
 20
-21.6506425
 30
0.0
 11
-5.186080277777777
 21
-16.3109275
 31
0.0
  0
LINE
  5
288
  8
DEFAULT
 10
-7.031284444444444
 20
-20.15151333333333
 30
0.0
 11
-4.703691944444444
 21
-13.50362777777778
 31
0.0
  0
LINE
  5
289
  8
DEFAULT
 10
-4.703691944444444
 20
-13.50362777777778
 30
0.0
 11
2.217349444444444
 21
-14.81179833333333
 31
0.0
  0
LINE
  5
28A
  8
DEFAULT
 10
-2.031259166666667
 20
-14.48950055555555
 30
0.0
 11
0.2963333333333333
 21
-21.13738611111111
 31
0.0
  0
LINE
  5
28B
  8
DEFAULT
 10
0.2963333333333333
 20
-21.13738611111111
 30
0.0
 11
7.217339444444444
 21
-19.82921555555555
 31
0.0
  0
LINE
  5
28C
  8
DEFAULT
 10
4.813899722222222
 20
-26.99032222222222
 30
0.0
 11
9.407348611111109
 21
-21.6506425
 31
0.0
  0
LINE
  5
28D
  8
DEFAULT
 10
9.407348611111109
 20
-21.6506425
 30
0.0
 11
4.813899722222222
 21
-16.3109275
 31
0.0
  0
LINE
  5
28E
  8
DEFAULT
 10
2.968730833333333
 20
-20.15151333333333
 30
0.0
 11
5.296323333333333
 21
-13.50362777777778
 31
0.0
  0
LINE
  5
28F
  8
DEFAULT
 10
5.296323333333333
 20
-13.50362777777778
 30
0.0
 11
12.21736472222222
 21
-14.81179833333333
 31
0.0
  0
LINE
  5
290
  8
DEFAULT
 10
7.968720833333332
 20
-14.48950055555555
 30
0.0
 11
10.29631333333333
 21
-21.13738611111111
 31
0.0
  0
LINE
  5
291
  8
DEFAULT
 10
10.29631333333333
 20
-21.13738611111111
 30
0.0
 11
17.21735472222222
 21
-19.82921555555555
 31
0.0
  0
LINE
  5
292
  8
DEFAULT
 10
14.813915
 20
-26.99032222222222
 30
0.0
 11
19.40736388888889
 21
-21.6506425
 31
0.0
  0
LINE
  5
293
  8
DEFAULT
 10
19.40736388888889
 20
-21.6506425
 30
0.0
 11
14.813915
 21
-16.3109275
 31
0.0
  0
LINE
  5
294
  8
DEFAULT
 10
12.96871083333333
 20
-20.15151333333333
 30
0.0
 11
15.29633861111111
 21
-13.50362777777778
 31
0.0
  0
LINE
  5
295
  8
DEFAULT
 10
15.29633861111111
 20
-13.50362777777778
 30
0.0
 11
22.21734472222222
 21
-14.81179833333333
 31
0.0
  0
LINE
  5
296
  8
DEFAULT
 10
17.96873611111111
 20
-14.48950055555555
 30
0.0
 11
20.29632861111111
 21
-21.13738611111111
 31
0.0
  0
LINE
  5
297
  8
DEFAULT
 10
20.29632861111111
 20
-21.13738611111111
 30
0.0
 11
27.21737
 21
-19.82921555555555
 31
0.0
  0
LINE
  5
298
  8
DEFAULT
 10
24.813895
 20
-26.99032222222222
 30
0.0
 11
29.40734388888889
 21
-21.6506425
 31
0.0
  0
LINE
  5
299
  8
DEFAULT
 10
29.40734388888889
 20
-21.6506425
 30
0.0
 11
24.813895
 21
-16.3109275
 31
0.0
  0
LINE
  5
29A
  8
DEFAULT
 10
22.96872611111111
 20
-20.15151333333333
 30
0.0
 11
25.29631861111111
 21
-13.50362777777778
 31
0.0
  0
LINE
  5
29B
  8
DEFAULT
 10
25.29631861111111
 20
-13.50362777777778
 30
0.0
 11
32.21735999999999
 21
-14.81179833333333
 31
0.0
  0
LINE
  5
29C
  8
DEFAULT
 10
27.96871611111111
 20
-14.48950055555555
 30
0.0
 11
30.29630861111111
 21
-21.13738611111111
 31
0.0
  0
LINE
  5
29D
  8
DEFAULT
 10
30.29630861111111
 20
-21.13738611111111
 30
0.0
 11
37.21735
 21
-19.82921555555555
 31
0.0
  0
LINE
  5
29E
  8
DEFAULT
 10
34.81391027777778
 20
-26.99032222222222
 30
0.0
 11
39.40735916666667
 21
-21.6506425
 31
0.0
  0
LINE
  5
29F
  8
DEFAULT
 10
39.40735916666667
 20
-21.6506425
 30
0.0
 11
34.81391027777778
 21
-16.3109275
 31
0.0
  0
LINE
  5
2A0
  8
DEFAULT
 10
-37.03125972222222
 20
-5.829264722222222
 30
0.0
 11
-34.70366722222222
 21
-12.477115
 31
0.0
  0
LINE
  5
2A1
  8
DEFAULT
 10
-34.70366722222222
 20
-12.477115
 30
0.0
 11
-27.78266111111111
 21
-11.16894444444444
 31
0.0
  0
LINE
  5
2A2
  8
DEFAULT
 10
-30.18610083333333
 20
-18.33008638888889
 30
0.0
 11
-25.59265194444444
 21
-12.99037138888889
 31
0.0
  0
LINE
  5
2A3
  8
DEFAULT
 10
-25.59265194444444
 20
-12.99037138888889
 30
0.0
 11
-30.18610083333333
 21
-7.650691666666666
 31
0.0
  0
LINE
  5
2A4
  8
DEFAULT
 10
-32.03126972222222
 20
-11.49124222222222
 30
0.0
 11
-29.70367722222222
 21
-4.843391944444444
 31
0.0
  0
LINE
  5
2A5
  8
DEFAULT
 10
-29.70367722222222
 20
-4.843391944444444
 30
0.0
 11
-22.78263583333333
 21
-6.1515625
 31
0.0
  0
LINE
  5
2A6
  8
DEFAULT
 10
-27.03127972222222
 20
-5.829264722222222
 30
0.0
 11
-24.70368722222222
 21
-12.477115
 31
0.0
  0
LINE
  5
2A7
  8
DEFAULT
 10
-24.70368722222222
 20
-12.477115
 30
0.0
 11
-17.78264583333333
 21
-11.16894444444444
 31
0.0
  0
LINE
  5
2A8
  8
DEFAULT
 10
-20.18608555555555
 20
-18.33008638888889
 30
0.0
 11
-15.59263666666666
 21
-12.99037138888889
 31
0.0
  0
LINE
  5
2A9
  8
DEFAULT
 10
-15.59263666666666
 20
-12.99037138888889
 30
0.0
 11
-20.18608555555555
 21
-7.650691666666666
 31
0.0
  0
LINE
  5
2AA
  8
DEFAULT
 10
-22.03128972222222
 20
-11.49124222222222
 30
0.0
 11
-19.70366194444444
 21
-4.843391944444444
 31
0.0
  0
LINE
  5
2AB
  8
DEFAULT
 10
-19.70366194444444
 20
-4.843391944444444
 30
0.0
 11
-12.78265583333333
 21
-6.1515625
 31
0.0
  0
LINE
  5
2AC
  8
DEFAULT
 10
-17.03126444444444
 20
-5.829264722222222
 30
0.0
 11
-14.70367194444444
 21
-12.477115
 31
0.0
  0
LINE
  5
2AD
  8
DEFAULT
 10
-14.70367194444444
 20
-12.477115
 30
0.0
 11
-7.782630555555555
 21
-11.16894444444444
 31
0.0
  0
LINE
  5
2AE
  8
DEFAULT
 10
-10.18610555555555
 20
-18.33008638888889
 30
0.0
 11
-5.592656666666666
 21
-12.99037138888889
 31
0.0
  0
LINE
  5
2AF
  8
DEFAULT
 10
-5.592656666666666
 20
-12.99037138888889
 30
0.0
 11
-10.18610555555555
 21
-7.650691666666666
 31
0.0
  0
LINE
  5
2B0
  8
DEFAULT
 10
-12.03127444444444
 20
-11.49124222222222
 30
0.0
 11
-9.703681944444444
 21
-4.843391944444444
 31
0.0
  0
LINE
  5
2B1
  8
DEFAULT
 10
-9.703681944444444
 20
-4.843391944444444
 30
0.0
 11
-2.782640555555556
 21
-6.1515625
 31
0.0
  0
LINE
  5
2B2
  8
DEFAULT
 10
-7.031284444444444
 20
-5.829264722222222
 30
0.0
 11
-4.703691944444444
 21
-12.477115
 31
0.0
  0
LINE
  5
2B3
  8
DEFAULT
 10
-4.703691944444444
 20
-12.477115
 30
0.0
 11
2.217349444444444
 21
-11.16894444444444
 31
0.0
  0
LINE
  5
2B4
  8
DEFAULT
 10
-0.1860902777777778
 20
-18.33008638888889
 30
0.0
 11
4.40735861111111
 21
-12.99037138888889
 31
0.0
  0
LINE
  5
2B5
  8
DEFAULT
 10
4.40735861111111
 20
-12.99037138888889
 30
0.0
 11
-0.1860902777777778
 21
-7.650691666666666
 31
0.0
  0
LINE
  5
2B6
  8
DEFAULT
 10
-2.031259166666667
 20
-11.49124222222222
 30
0.0
 11
0.2963333333333333
 21
-4.843391944444444
 31
0.0
  0
LINE
  5
2B7
  8
DEFAULT
 10
0.2963333333333333
 20
-4.843391944444444
 30
0.0
 11
7.217339444444444
 21
-6.1515625
 31
0.0
  0
LINE
  5
2B8
  8
DEFAULT
 10
2.968730833333333
 20
-5.829264722222222
 30
0.0
 11
5.296323333333333
 21
-12.477115
 31
0.0
  0
LINE
  5
2B9
  8
DEFAULT
 10
5.296323333333333
 20
-12.477115
 30
0.0
 11
12.21736472222222
 21
-11.16894444444444
 31
0.0
  0
LINE
  5
2BA
  8
DEFAULT
 10
9.813925
 20
-18.33008638888889
 30
0.0
 11
14.40733861111111
 21
-12.99037138888889
 31
0.0
  0
LINE
  5
2BB
  8
DEFAULT
 10
14.40733861111111
 20
-12.99037138888889
 30
0.0
 11
9.813925
 21
-7.650691666666666
 31
0.0
  0
LINE
  5
2BC
  8
DEFAULT
 10
7.968720833333332
 20
-11.49124222222222
 30
0.0
 11
10.29631333333333
 21
-4.843391944444444
 31
0.0
  0
LINE
  5
2BD
  8
DEFAULT
 10
10.29631333333333
 20
-4.843391944444444
 30
0.0
 11
17.21735472222222
 21
-6.1515625
 31
0.0
  0
LINE
  5
2BE
  8
DEFAULT
 10
12.96871083333333
 20
-5.829264722222222
 30
0.0
 11
15.29633861111111
 21
-12.477115
 31
0.0
  0
LINE
  5
2BF
  8
DEFAULT
 10
15.29633861111111
 20
-12.477115
 30
0.0
 11
22.21734472222222
 21
-11.16894444444444
 31
0.0
  0
LINE
  5
2C0
  8
DEFAULT
 10
19.813905
 20
-18.33008638888889
 30
0.0
 11
24.40735388888888
 21
-12.99037138888889
 31
0.0
  0
LINE
  5
2C1
  8
DEFAULT
 10
24.40735388888888
 20
-12.99037138888889
 30
0.0
 11
19.813905
 21
-7.650691666666666
 31
0.0
  0
LINE
  5
2C2
  8
DEFAULT
 10
17.96873611111111
 20
-11.49124222222222
 30
0.0
 11
20.29632861111111
 21
-4.843391944444444
 31
0.0
  0
LINE
  5
2C3
  8
DEFAULT
 10
20.29632861111111
 20
-4.843391944444444
 30
0.0
 11
27.21737
 21
-6.1515625
 31
0.0
  0
LINE
  5
2C4
  8
DEFAULT
 10
22.96872611111111
 20
-5.829264722222222
 30
0.0
 11
25.29631861111111
 21
-12.477115
 31
0.0
  0
LINE
  5
2C5
  8
DEFAULT
 10
25.29631861111111
 20
-12.477115
 30
0.0
 11
32.21735999999999
 21
-11.16894444444444
 31
0.0
  0
LINE
  5
2C6
  8
DEFAULT
 10
29.81392027777778
 20
-18.33008638888889
 30
0.0
 11
34.40733388888889
 21
-12.99037138888889
 31
0.0
  0
LINE
  5
2C7
  8
DEFAULT
 10
34.40733388888889
 20
-12.99037138888889
 30
0.0
 11
29.81392027777778
 21
-7.650691666666666
 31
0.0
  0
LINE
  5
2C8
  8
DEFAULT
 10
27.96871611111111
 20
-11.49124222222222
 30
0.0
 11
30.29630861111111
 21
-4.843391944444444
 31
0.0
  0
LINE
  5
2C9
  8
DEFAULT
 10
30.29630861111111
 20
-4.843391944444444
 30
0.0
 11
37.21735
 21
-6.1515625
 31
0.0
  0
LINE
  5
2CA
  8
DEFAULT
 10
-35.18609083333333
 20
-9.669815277777776
 30
0.0
 11
-30.59264194444444
 21
-4.330135555555555
 31
0.0
  0
LINE
  5
2CB
  8
DEFAULT
 10
-30.59264194444444
 20
-4.330135555555555
 30
0.0
 11
-35.18609083333333
 21
1.009579444444444
 31
0.0
  0
LINE
  5
2CC
  8
DEFAULT
 10
-37.03125972222222
 20
-2.831006388888889
 30
0.0
 11
-34.70366722222222
 21
3.816879166666666
 31
0.0
  0
LINE
  5
2CD
  8
DEFAULT
 10
-34.70366722222222
 20
3.816879166666666
 30
0.0
 11
-27.78266111111111
 21
2.508708611111111
 31
0.0
  0
LINE
  5
2CE
  8
DEFAULT
 10
-32.03126972222222
 20
2.831006388888889
 30
0.0
 11
-29.70367722222222
 21
-3.816879166666666
 31
0.0
  0
LINE
  5
2CF
  8
DEFAULT
 10
-29.70367722222222
 20
-3.816879166666666
 30
0.0
 11
-22.78263583333333
 21
-2.508708611111111
 31
0.0
  0
LINE
  5
2D0
  8
DEFAULT
 10
-25.18607555555555
 20
-9.669815277777776
 30
0.0
 11
-20.59266194444444
 21
-4.330135555555555
 31
0.0
  0
LINE
  5
2D1
  8
DEFAULT
 10
-20.59266194444444
 20
-4.330135555555555
 30
0.0
 11
-25.18607555555555
 21
1.009579444444444
 31
0.0
  0
LINE
  5
2D2
  8
DEFAULT
 10
-27.03127972222222
 20
-2.831006388888889
 30
0.0
 11
-24.70368722222222
 21
3.816879166666666
 31
0.0
  0
LINE
  5
2D3
  8
DEFAULT
 10
-24.70368722222222
 20
3.816879166666666
 30
0.0
 11
-17.78264583333333
 21
2.508708611111111
 31
0.0
  0
LINE
  5
2D4
  8
DEFAULT
 10
-22.03128972222222
 20
2.831006388888889
 30
0.0
 11
-19.70366194444444
 21
-3.816879166666666
 31
0.0
  0
LINE
  5
2D5
  8
DEFAULT
 10
-19.70366194444444
 20
-3.816879166666666
 30
0.0
 11
-12.78265583333333
 21
-2.508708611111111
 31
0.0
  0
LINE
  5
2D6
  8
DEFAULT
 10
-15.18609555555555
 20
-9.669815277777776
 30
0.0
 11
-10.59264666666667
 21
-4.330135555555555
 31
0.0
  0
LINE
  5
2D7
  8
DEFAULT
 10
-10.59264666666667
 20
-4.330135555555555
 30
0.0
 11
-15.18609555555555
 21
1.009579444444444
 31
0.0
  0
LINE
  5
2D8
  8
DEFAULT
 10
-17.03126444444444
 20
-2.831006388888889
 30
0.0
 11
-14.70367194444444
 21
3.816879166666666
 31
0.0
  0
LINE
  5
2D9
  8
DEFAULT
 10
-14.70367194444444
 20
3.816879166666666
 30
0.0
 11
-7.782630555555555
 21
2.508708611111111
 31
0.0
  0
LINE
  5
2DA
  8
DEFAULT
 10
-12.03127444444444
 20
2.831006388888889
 30
0.0
 11
-9.703681944444444
 21
-3.816879166666666
 31
0.0
  0
LINE
  5
2DB
  8
DEFAULT
 10
-9.703681944444444
 20
-3.816879166666666
 30
0.0
 11
-2.782640555555556
 21
-2.508708611111111
 31
0.0
  0
LINE
  5
2DC
  8
DEFAULT
 10
-5.186080277777777
 20
-9.669815277777776
 30
0.0
 11
-0.5926666666666666
 21
-4.330135555555555
 31
0.0
  0
LINE
  5
2DD
  8
DEFAULT
 10
-0.5926666666666666
 20
-4.330135555555555
 30
0.0
 11
-5.186080277777777
 21
1.009579444444444
 31
0.0
  0
LINE
  5
2DE
  8
DEFAULT
 10
-7.031284444444444
 20
-2.831006388888889
 30
0.0
 11
-4.703691944444444
 21
3.816879166666666
 31
0.0
  0
LINE
  5
2DF
  8
DEFAULT
 10
-4.703691944444444
 20
3.816879166666666
 30
0.0
 11
2.217349444444444
 21
2.508708611111111
 31
0.0
  0
LINE
  5
2E0
  8
DEFAULT
 10
-2.031259166666667
 20
2.831006388888889
 30
0.0
 11
0.2963333333333333
 21
-3.816879166666666
 31
0.0
  0
LINE
  5
2E1
  8
DEFAULT
 10
0.2963333333333333
 20
-3.816879166666666
 30
0.0
 11
7.217339444444444
 21
-2.508708611111111
 31
0.0
  0
LINE
  5
2E2
  8
DEFAULT
 10
4.813899722222222
 20
-9.669815277777776
 30
0.0
 11
9.407348611111109
 21
-4.330135555555555
 31
0.0
  0
LINE
  5
2E3
  8
DEFAULT
 10
9.407348611111109
 20
-4.330135555555555
 30
0.0
 11
4.813899722222222
 21
1.009579444444444
 31
0.0
  0
LINE
  5
2E4
  8
DEFAULT
 10
2.968730833333333
 20
-2.831006388888889
 30
0.0
 11
5.296323333333333
 21
3.816879166666666
 31
0.0
  0
LINE
  5
2E5
  8
DEFAULT
 10
5.296323333333333
 20
3.816879166666666
 30
0.0
 11
12.21736472222222
 21
2.508708611111111
 31
0.0
  0
LINE
  5
2E6
  8
DEFAULT
 10
7.968720833333332
 20
2.831006388888889
 30
0.0
 11
10.29631333333333
 21
-3.816879166666666
 31
0.0
  0
LINE
  5
2E7
  8
DEFAULT
 10
10.29631333333333
 20
-3.816879166666666
 30
0.0
 11
17.21735472222222
 21
-2.508708611111111
 31
0.0
  0
LINE
  5
2E8
  8
DEFAULT
 10
14.813915
 20
-9.669815277777776
 30
0.0
 11
19.40736388888889
 21
-4.330135555555555
 31
0.0
  0
LINE
  5
2E9
  8
DEFAULT
 10
19.40736388888889
 20
-4.330135555555555
 30
0.0
 11
14.813915
 21
1.009579444444444
 31
0.0
  0
LINE
  5
2EA
  8
DEFAULT
 10
12.96871083333333
 20
-2.831006388888889
 30
0.0
 11
15.29633861111111
 21
3.816879166666666
 31
0.0
  0
LINE
  5
2EB
  8
DEFAULT
 10
15.29633861111111
 20
3.816879166666666
 30
0.0
 11
22.21734472222222
 21
2.508708611111111
 31
0.0
  0
LINE
  5
2EC
  8
DEFAULT
 10
17.96873611111111
 20
2.831006388888889
 30
0.0
 11
20.29632861111111
 21
-3.816879166666666
 31
0.0
  0
LINE
  5
2ED
  8
DEFAULT
 10
20.29632861111111
 20
-3.816879166666666
 30
0.0
 11
27.21737
 21
-2.508708611111111
 31
0.0
  0
LINE
  5
2EE
  8
DEFAULT
 10
24.813895
 20
-9.669815277777776
 30
0.0
 11
29.40734388888889
 21
-4.330135555555555
 31
0.0
  0
LINE
  5
2EF
  8
DEFAULT
 10
29.40734388888889
 20
-4.330135555555555
 30
0.0
 11
24.813895
 21
1.009579444444444
 31
0.0
  0
LINE
  5
2F0
  8
DEFAULT
 10
22.96872611111111
 20
-2.831006388888889
 30
0.0
 11
25.29631861111111
 21
3.816879166666666
 31
0.0
  0
LINE
  5
2F1
  8
DEFAULT
 10
25.29631861111111
 20
3.816879166666666
 30
0.0
 11
32.21735999999999
 21
2.508708611111111
 31
0.0
  0
LINE
  5
2F2
  8
DEFAULT
 10
27.96871611111111
 20
2.831006388888889
 30
0.0
 11
30.29630861111111
 21
-3.816879166666666
 31
0.0
  0
LINE
  5
2F3
  8
DEFAULT
 10
30.29630861111111
 20
-3.816879166666666
 30
0.0
 11
37.21735
 21
-2.508708611111111
 31
0.0
  0
LINE
  5
2F4
  8
DEFAULT
 10
34.81391027777778
 20
-9.669815277777776
 30
0.0
 11
39.40735916666667
 21
-4.330135555555555
 31
0.0
  0
LINE
  5
2F5
  8
DEFAULT
 10
39.40735916666667
 20
-4.330135555555555
 30
0.0
 11
34.81391027777778
 21
1.009579444444444
 31
0.0
  0
LINE
  5
2F6
  8
DEFAULT
 10
-37.03125972222222
 20
11.49124222222222
 30
0.0
 11
-34.70366722222222
 21
4.843391944444444
 31
0.0
  0
LINE
  5
2F7
  8
DEFAULT
 10
-34.70366722222222
 20
4.843391944444444
 30
0.0
 11
-27.78266111111111
 21
6.1515625
 31
0.0
  0
LINE
  5
2F8
  8
DEFAULT
 10
-30.18610083333333
 20
-1.009579444444444
 30
0.0
 11
-25.59265194444444
 21
4.330135555555555
 31
0.0
  0
LINE
  5
2F9
  8
DEFAULT
 10
-25.59265194444444
 20
4.330135555555555
 30
0.0
 11
-30.18610083333333
 21
9.669815277777776
 31
0.0
  0
LINE
  5
2FA
  8
DEFAULT
 10
-32.03126972222222
 20
5.829264722222222
 30
0.0
 11
-29.70367722222222
 21
12.477115
 31
0.0
  0
LINE
  5
2FB
  8
DEFAULT
 10
-29.70367722222222
 20
12.477115
 30
0.0
 11
-22.78263583333333
 21
11.16894444444444
 31
0.0
  0
LINE
  5
2FC
  8
DEFAULT
 10
-27.03127972222222
 20
11.49124222222222
 30
0.0
 11
-24.70368722222222
 21
4.843391944444444
 31
0.0
  0
LINE
  5
2FD
  8
DEFAULT
 10
-24.70368722222222
 20
4.843391944444444
 30
0.0
 11
-17.78264583333333
 21
6.1515625
 31
0.0
  0
LINE
  5
2FE
  8
DEFAULT
 10
-20.18608555555555
 20
-1.009579444444444
 30
0.0
 11
-15.59263666666666
 21
4.330135555555555
 31
0.0
  0
LINE
  5
2FF
  8
DEFAULT
 10
-15.59263666666666
 20
4.330135555555555
 30
0.0
 11
-20.18608555555555
 21
9.669815277777776
 31
0.0
  0
LINE
  5
300
  8
DEFAULT
 10
-22.03128972222222
 20
5.829264722222222
 30
0.0
 11
-19.70366194444444
 21
12.477115
 31
0.0
  0
LINE
  5
301
  8
DEFAULT
 10
-19.70366194444444
 20
12.477115
 30
0.0
 11
-12.78265583333333
 21
11.16894444444444
 31
0.0
  0
LINE
  5
302
  8
DEFAULT
 10
-17.03126444444444
 20
11.49124222222222
 30
0.0
 11
-14.70367194444444
 21
4.843391944444444
 31
0.0
  0
LINE
  5
303
  8
DEFAULT
 10
-14.70367194444444
 20
4.843391944444444
 30
0.0
 11
-7.782630555555555
 21
6.1515625
 31
0.0
  0
LINE
  5
304
  8
DEFAULT
 10
-10.18610555555555
 20
-1.009579444444444
 30
0.0
 11
-5.592656666666666
 21
4.330135555555555
 31
0.0
  0
LINE
  5
305
  8
DEFAULT
 10
-5.592656666666666
 20
4.330135555555555
 30
0.0
 11
-10.18610555555555
 21
9.669815277777776
 31
0.0
  0
LINE
  5
306
  8
DEFAULT
 10
-12.03127444444444
 20
5.829264722222222
 30
0.0
 11
-9.703681944444444
 21
12.477115
 31
0.0
  0
LINE
  5
307
  8
DEFAULT
 10
-9.703681944444444
 20
12.477115
 30
0.0
 11
-2.782640555555556
 21
11.16894444444444
 31
0.0
  0
LINE
  5
308
  8
DEFAULT
 10
-7.031284444444444
 20
11.49124222222222
 30
0.0
 11
-4.703691944444444
 21
4.843391944444444
 31
0.0
  0
LINE
  5
309
  8
DEFAULT
 10
-4.703691944444444
 20
4.843391944444444
 30
0.0
 11
2.217349444444444
 21
6.1515625
 31
0.0
  0
LINE
  5
30A
  8
DEFAULT
 10
-0.1860902777777778
 20
-1.009579444444444
 30
0.0
 11
4.40735861111111
 21
4.330135555555555
 31
0.0
  0
LINE
  5
30B
  8
DEFAULT
 10
4.40735861111111
 20
4.330135555555555
 30
0.0
 11
-0.1860902777777778
 21
9.669815277777776
 31
0.0
  0
LINE
  5
30C
  8
DEFAULT
 10
-2.031259166666667
 20
5.829264722222222
 30
0.0
 11
0.2963333333333333
 21
12.477115
 31
0.0
  0
LINE
  5
30D
  8
DEFAULT
 10
0.2963333333333333
 20
12.477115
 30
0.0
 11
7.217339444444444
 21
11.16894444444444
 31
0.0
  0
LINE
  5
30E
  8
DEFAULT
 10
2.968730833333333
 20
11.49124222222222
 30
0.0
 11
5.296323333333333
 21
4.843391944444444
 31
0.0
  0
LINE
  5
30F
  8
DEFAULT
 10
5.296323333333333
 20
4.843391944444444
 30
0.0
 11
12.21736472222222
 21
6.1515625
 31
0.0
  0
LINE
  5
310
  8
DEFAULT
 10
9.813925
 20
-1.009579444444444
 30
0.0
 11
14.40733861111111
 21
4.330135555555555
 31
0.0
  0
LINE
  5
311
  8
DEFAULT
 10
14.40733861111111
 20
4.330135555555555
 30
0.0
 11
9.813925
 21
9.669815277777776
 31
0.0
  0
LINE
  5
312
  8
DEFAULT
 10
7.968720833333332
 20
5.829264722222222
 30
0.0
 11
10.29631333333333
 21
12.477115
 31
0.0
  0
LINE
  5
313
  8
DEFAULT
 10
10.29631333333333
 20
12.477115
 30
0.0
 11
17.21735472222222
 21
11.16894444444444
 31
0.0
  0
LINE
  5
314
  8
DEFAULT
 10
12.96871083333333
 20
11.49124222222222
 30
0.0
 11
15.29633861111111
 21
4.843391944444444
 31
0.0
  0
LINE
  5
315
  8
DEFAULT
 10
15.29633861111111
 20
4.843391944444444
 30
0.0
 11
22.21734472222222
 21
6.1515625
 31
0.0
  0
LINE
  5
316
  8
DEFAULT
 10
19.813905
 20
-1.009579444444444
 30
0.0
 11
24.40735388888888
 21
4.330135555555555
 31
0.0
  0
LINE
  5
317
  8
DEFAULT
 10
24.40735388888888
 20
4.330135555555555
 30
0.0
 11
19.813905
 21
9.669815277777776
 31
0.0
  0
LINE
  5
318
  8
DEFAULT
 10
17.96873611111111
 20
5.829264722222222
 30
0.0
 11
20.29632861111111
 21
12.477115
 31
0.0
  0
LINE
  5
319
  8
DEFAULT
 10
20.29632861111111
 20
12.477115
 30
0.0
 11
27.21737
 21
11.16894444444444
 31
0.0
  0
LINE
  5
31A
  8
DEFAULT
 10
22.96872611111111
 20
11.49124222222222
 30
0.0
 11
25.29631861111111
 21
4.843391944444444
 31
0.0
  0
LINE
  5
31B
  8
DEFAULT
 10
25.29631861111111
 20
4.843391944444444
 30
0.0
 11
32.21735999999999
 21
6.1515625
 31
0.0
  0
LINE
  5
31C
  8
DEFAULT
 10
29.81392027777778
 20
-1.009579444444444
 30
0.0
 11
34.40733388888889
 21
4.330135555555555
 31
0.0
  0
LINE
  5
31D
  8
DEFAULT
 10
34.40733388888889
 20
4.330135555555555
 30
0.0
 11
29.81392027777778
 21
9.669815277777776
 31
0.0
  0
LINE
  5
31E
  8
DEFAULT
 10
27.96871611111111
 20
5.829264722222222
 30
0.0
 11
30.29630861111111
 21
12.477115
 31
0.0
  0
LINE
  5
31F
  8
DEFAULT
 10
30.29630861111111
 20
12.477115
 30
0.0
 11
37.21735
 21
11.16894444444444
 31
0.0
  0
LINE
  5
320
  8
DEFAULT
 10
-35.18609083333333
 20
7.650691666666666
 30
0.0
 11
-30.59264194444444
 21
12.99037138888889
 31
0.0
  0
LINE
  5
321
  8
DEFAULT
 10
-30.59264194444444
 20
12.99037138888889
 30
0.0
 11
-35.18609083333333
 21
18.33008638888889
 31
0.0
  0
LINE
  5
322
  8
DEFAULT
 10
-37.03125972222222
 20
14.48950055555555
 30
0.0
 11
-34.70366722222222
 21
21.13738611111111
 31
0.0
  0
LINE
  5
323
  8
DEFAULT
 10
-34.70366722222222
 20
21.13738611111111
 30
0.0
 11
-27.78266111111111
 21
19.82921555555555
 31
0.0
  0
LINE
  5
324
  8
DEFAULT
 10
-32.03126972222222
 20
20.15151333333333
 30
0.0
 11
-29.70367722222222
 21
13.50362777777778
 31
0.0
  0
LINE
  5
325
  8
DEFAULT
 10
-29.70367722222222
 20
13.50362777777778
 30
0.0
 11
-22.78263583333333
 21
14.81179833333333
 31
0.0
  0
LINE
  5
326
  8
DEFAULT
 10
-25.18607555555555
 20
7.650691666666666
 30
0.0
 11
-20.59266194444444
 21
12.99037138888889
 31
0.0
  0
LINE
  5
327
  8
DEFAULT
 10
-20.59266194444444
 20
12.99037138888889
 30
0.0
 11
-25.18607555555555
 21
18.33008638888889
 31
0.0
  0
LINE
  5
328
  8
DEFAULT
 10
-27.03127972222222
 20
14.48950055555555
 30
0.0
 11
-24.70368722222222
 21
21.13738611111111
 31
0.0
  0
LINE
  5
329
  8
DEFAULT
 10
-24.70368722222222
 20
21.13738611111111
 30
0.0
 11
-17.78264583333333
 21
19.82921555555555
 31
0.0
  0
LINE
  5
32A
  8
DEFAULT
 10
-22.03128972222222
 20
20.15151333333333
 30
0.0
 11
-19.70366194444444
 21
13.50362777777778
 31
0.0
  0
LINE
  5
32B
  8
DEFAULT
 10
-19.70366194444444
 20
13.50362777777778
 30
0.0
 11
-12.78265583333333
 21
14.81179833333333
 31
0.0
  0
LINE
  5
32C
  8
DEFAULT
 10
-15.18609555555555
 20
7.650691666666666
 30
0.0
 11
-10.59264666666667
 21
12.99037138888889
 31
0.0
  0
LINE
  5
32D
  8
DEFAULT
 10
-10.59264666666667
 20
12.99037138888889
 30
0.0
 11
-15.18609555555555
 21
18.33008638888889
 31
0.0
  0
LINE
  5
32E
  8
DEFAULT
 10
-17.03126444444444
 20
14.48950055555555
 30
0.0
 11
-14.70367194444444
 21
21.13738611111111
 31
0.0
  0
LINE
  5
32F
  8
DEFAULT
 10
-14.70367194444444
 20
21.13738611111111
 30
0.0
 11
-7.782630555555555
 21
19.82921555555555
 31
0.0
  0
LINE
  5
330
  8
DEFAULT
 10
-12.03127444444444
 20
20.15151333333333
 30
0.0
 11
-9.703681944444444
 21
13.50362777777778
 31
0.0
  0
LINE
  5
331
  8
DEFAULT
 10
-9.703681944444444
 20
13.50362777777778
 30
0.0
 11
-2.782640555555556
 21
14.81179833333333
 31
0.0
  0
LINE
  5
332
  8
DEFAULT
 10
-5.186080277777777
 20
7.650691666666666
 30
0.0
 11
-0.5926666666666666
 21
12.99037138888889
 31
0.0
  0
LINE
  5
333
  8
DEFAULT
 10
-0.5926666666666666
 20
12.99037138888889
 30
0.0
 11
-5.186080277777777
 21
18.33008638888889
 31
0.0
  0
LINE
  5
334
  8
DEFAULT
 10
-7.031284444444444
 20
14.48950055555555
 30
0.0
 11
-4.703691944444444
 21
21.13738611111111
 31
0.0
  0
LINE
  5
335
  8
DEFAULT
 10
-4.703691944444444
 20
21.13738611111111
 30
0.0
 11
2.217349444444444
 21
19.82921555555555
 31
0.0
  0
LINE
  5
336
  8
DEFAULT
 10
-2.031259166666667
 20
20.15151333333333
 30
0.0
 11
0.2963333333333333
 21
13.50362777777778
 31
0.0
  0
LINE
  5
337
  8
DEFAULT
 10
0.2963333333333333
 20
13.50362777777778
 30
0.0
 11
7.217339444444444
 21
14.81179833333333
 31
0.0
  0
LINE
  5
338
  8
DEFAULT
 10
4.813899722222222
 20
7.650691666666666
 30
0.0
 11
9.407348611111109
 21
12.99037138888889
 31
0.0
  0
LINE
  5
339
  8
DEFAULT
 10
9.407348611111109
 20
12.99037138888889
 30
0.0
 11
4.813899722222222
 21
18.33008638888889
 31
0.0
  0
LINE
  5
33A
  8
DEFAULT
 10
2.968730833333333
 20
14.48950055555555
 30
0.0
 11
5.296323333333333
 21
21.13738611111111
 31
0.0
  0
LINE
  5
33B
  8
DEFAULT
 10
5.296323333333333
 20
21.13738611111111
 30
0.0
 11
12.21736472222222
 21
19.82921555555555
 31
0.0
  0
LINE
  5
33C
  8
DEFAULT
 10
7.968720833333332
 20
20.15151333333333
 30
0.0
 11
10.29631333333333
 21
13.50362777777778
 31
0.0
  0
LINE
  5
33D
  8
DEFAULT
 10
10.29631333333333
 20
13.50362777777778
 30
0.0
 11
17.21735472222222
 21
14.81179833333333
 31
0.0
  0
LINE
  5
33E
  8
DEFAULT
 10
14.813915
 20
7.650691666666666
 30
0.0
 11
19.40736388888889
 21
12.99037138888889
 31
0.0
  0
LINE
  5
33F
  8
DEFAULT
 10
19.40736388888889
 20
12.99037138888889
 30
0.0
 11
14.813915
 21
18.33008638888889
 31
0.0
  0
LINE
  5
340
  8
DEFAULT
 10
12.96871083333333
 20
14.48950055555555
 30
0.0
 11
15.29633861111111
 21
21.13738611111111
 31
0.0
  0
LINE
  5
341
  8
DEFAULT
 10
15.29633861111111
 20
21.13738611111111
 30
0.0
 11
22.21734472222222
 21
19.82921555555555
 31
0.0
  0
LINE
  5
342
  8
DEFAULT
 10
17.96873611111111
 20
20.15151333333333
 30
0.0
 11
20.29632861111111
 21
13.50362777777778
 31
0.0
  0
LINE
  5
343
  8
DEFAULT
 10
20.29632861111111
 20
13.50362777777778
 30
0.0
 11
27.21737
 21
14.81179833333333
 31
0.0
  0
LINE
  5
344
  8
DEFAULT
 10
24.813895
 20
7.650691666666666
 30
0.0
 11
29.40734388888889
 21
12.99037138888889
 31
0.0
  0
LINE
  5
345
  8
DEFAULT
 10
29.40734388888889
 20
12.99037138888889
 30
0.0
 11
24.813895
 21
18.33008638888889
 31
0.0
  0
LINE
  5
346
  8
DEFAULT
 10
22.96872611111111
 20
14.48950055555555
 30
0.0
 11
25.29631861111111
 21
21.13738611111111
 31
0.0
  0
LINE
  5
347
  8
DEFAULT
 10
25.29631861111111
 20
21.13738611111111
 30
0.0
 11
32.21735999999999
 21
19.82921555555555
 31
0.0
  0
LINE
  5
348
  8
DEFAULT
 10
27.96871611111111
 20
20.15151333333333
 30
0.0
 11
30.29630861111111
 21
13.50362777777778
 31
0.0
  0
LINE
  5
349
  8
DEFAULT
 10
30.29630861111111
 20
13.50362777777778
 30
0.0
 11
37.21735
 21
14.81179833333333
 31
0.0
  0
LINE
  5
34A
  8
DEFAULT
 10
34.81391027777778
 20
7.650691666666666
 30
0.0
 11
39.40735916666667
 21
12.99037138888889
 31
0.0
  0
LINE
  5
34B
  8
DEFAULT
 10
39.40735916666667
 20
12.99037138888889
 30
0.0
 11
34.81391027777778
 21
18.33008638888889
 31
0.0
  0
LINE
  5
34C
  8
DEFAULT
 10
-37.03125972222222
 20
28.81178444444444
 30
0.0
 11
-34.70366722222222
 21
22.16389888888889
 31
0.0
  0
LINE
  5
34D
  8
DEFAULT
 10
-34.70366722222222
 20
22.16389888888889
 30
0.0
 11
-27.78266111111111
 21
23.47206944444444
 31
0.0
  0
LINE
  5
34E
  8
DEFAULT
 10
-30.18610083333333
 20
16.3109275
 30
0.0
 11
-25.59265194444444
 21
21.6506425
 31
0.0
  0
LINE
  5
34F
  8
DEFAULT
 10
-25.59265194444444
 20
21.6506425
 30
0.0
 11
-30.18610083333333
 21
26.99032222222222
 31
0.0
  0
LINE
  5
350
  8
DEFAULT
 10
-32.03126972222222
 20
23.14977166666666
 30
0.0
 11
-29.70367722222222
 21
29.79762194444444
 31
0.0
  0
LINE
  5
351
  8
DEFAULT
 10
-29.70367722222222
 20
29.79762194444444
 30
0.0
 11
-22.78263583333333
 21
28.48945138888888
 31
0.0
  0
LINE
  5
352
  8
DEFAULT
 10
-27.03127972222222
 20
28.81178444444444
 30
0.0
 11
-24.70368722222222
 21
22.16389888888889
 31
0.0
  0
LINE
  5
353
  8
DEFAULT
 10
-24.70368722222222
 20
22.16389888888889
 30
0.0
 11
-17.78264583333333
 21
23.47206944444444
 31
0.0
  0
LINE
  5
354
  8
DEFAULT
 10
-20.18608555555555
 20
16.3109275
 30
0.0
 11
-15.59263666666666
 21
21.6506425
 31
0.0
  0
LINE
  5
355
  8
DEFAULT
 10
-15.59263666666666
 20
21.6506425
 30
0.0
 11
-20.18608555555555
 21
26.99032222222222
 31
0.0
  0
LINE
  5
356
  8
DEFAULT
 10
-22.03128972222222
 20
23.14977166666666
 30
0.0
 11
-19.70366194444444
 21
29.79762194444444
 31
0.0
  0
LINE
  5
357
  8
DEFAULT
 10
-19.70366194444444
 20
29.79762194444444
 30
0.0
 11
-12.78265583333333
 21
28.48945138888888
 31
0.0
  0
LINE
  5
358
  8
DEFAULT
 10
-17.03126444444444
 20
28.81178444444444
 30
0.0
 11
-14.70367194444444
 21
22.16389888888889
 31
0.0
  0
LINE
  5
359
  8
DEFAULT
 10
-14.70367194444444
 20
22.16389888888889
 30
0.0
 11
-7.782630555555555
 21
23.47206944444444
 31
0.0
  0
LINE
  5
35A
  8
DEFAULT
 10
-10.18610555555555
 20
16.3109275
 30
0.0
 11
-5.592656666666666
 21
21.6506425
 31
0.0
  0
LINE
  5
35B
  8
DEFAULT
 10
-5.592656666666666
 20
21.6506425
 30
0.0
 11
-10.18610555555555
 21
26.99032222222222
 31
0.0
  0
LINE
  5
35C
  8
DEFAULT
 10
-12.03127444444444
 20
23.14977166666666
 30
0.0
 11
-9.703681944444444
 21
29.79762194444444
 31
0.0
  0
LINE
  5
35D
  8
DEFAULT
 10
-9.703681944444444
 20
29.79762194444444
 30
0.0
 11
-2.782640555555556
 21
28.48945138888888
 31
0.0
  0
LINE
  5
35E
  8
DEFAULT
 10
-7.031284444444444
 20
28.81178444444444
 30
0.0
 11
-4.703691944444444
 21
22.16389888888889
 31
0.0
  0
LINE
  5
35F
  8
DEFAULT
 10
-4.703691944444444
 20
22.16389888888889
 30
0.0
 11
2.217349444444444
 21
23.47206944444444
 31
0.0
  0
LINE
  5
360
  8
DEFAULT
 10
-0.1860902777777778
 20
16.3109275
 30
0.0
 11
4.40735861111111
 21
21.6506425
 31
0.0
  0
LINE
  5
361
  8
DEFAULT
 10
4.40735861111111
 20
21.6506425
 30
0.0
 11
-0.1860902777777778
 21
26.99032222222222
 31
0.0
  0
LINE
  5
362
  8
DEFAULT
 10
-2.031259166666667
 20
23.14977166666666
 30
0.0
 11
0.2963333333333333
 21
29.79762194444444
 31
0.0
  0
LINE
  5
363
  8
DEFAULT
 10
0.2963333333333333
 20
29.79762194444444
 30
0.0
 11
7.217339444444444
 21
28.48945138888888
 31
0.0
  0
LINE
  5
364
  8
DEFAULT
 10
2.968730833333333
 20
28.81178444444444
 30
0.0
 11
5.296323333333333
 21
22.16389888888889
 31
0.0
  0
LINE
  5
365
  8
DEFAULT
 10
5.296323333333333
 20
22.16389888888889
 30
0.0
 11
12.21736472222222
 21
23.47206944444444
 31
0.0
  0
LINE
  5
366
  8
DEFAULT
 10
9.813925
 20
16.3109275
 30
0.0
 11
14.40733861111111
 21
21.6506425
 31
0.0
  0
LINE
  5
367
  8
DEFAULT
 10
14.40733861111111
 20
21.6506425
 30
0.0
 11
9.813925
 21
26.99032222222222
 31
0.0
  0
LINE
  5
368
  8
DEFAULT
 10
7.968720833333332
 20
23.14977166666666
 30
0.0
 11
10.29631333333333
 21
29.79762194444444
 31
0.0
  0
LINE
  5
369
  8
DEFAULT
 10
10.29631333333333
 20
29.79762194444444
 30
0.0
 11
17.21735472222222
 21
28.48945138888888
 31
0.0
  0
LINE
  5
36A
  8
DEFAULT
 10
12.96871083333333
 20
28.81178444444444
 30
0.0
 11
15.29633861111111
 21
22.16389888888889
 31
0.0
  0
LINE
  5
36B
  8
DEFAULT
 10
15.29633861111111
 20
22.16389888888889
 30
0.0
 11
22.21734472222222
 21
23.47206944444444
 31
0.0
  0
LINE
  5
36C
  8
DEFAULT
 10
19.813905
 20
16.3109275
 30
0.0
 11
24.40735388888888
 21
21.6506425
 31
0.0
  0
LINE
  5
36D
  8
DEFAULT
 10
24.40735388888888
 20
21.6506425
 30
0.0
 11
19.813905
 21
26.99032222222222
 31
0.0
  0
LINE
  5
36E
  8
DEFAULT
 10
17.96873611111111
 20
23.14977166666666
 30
0.0
 11
20.29632861111111
 21
29.79762194444444
 31
0.0
  0
LINE
  5
36F
  8
DEFAULT
 10
20.29632861111111
 20
29.79762194444444
 30
0.0
 11
27.21737
 21
28.48945138888888
 31
0.0
  0
LINE
  5
370
  8
DEFAULT
 10
22.96872611111111
 20
28.81178444444444
 30
0.0
 11
25.29631861111111
 21
22.16389888888889
 31
0.0
  0
LINE
  5
371
  8
DEFAULT
 10
25.29631861111111
 20
22.16389888888889
 30
0.0
 11
32.21735999999999
 21
23.47206944444444
 31
0.0
  0
LINE
  5
372
  8
DEFAULT
 10
29.81392027777778
 20
16.3109275
 30
0.0
 11
34.40733388888889
 21
21.6506425
 31
0.0
  0
LINE
  5
373
  8
DEFAULT
 10
34.40733388888889
 20
21.6506425
 30
0.0
 11
29.81392027777778
 21
26.99032222222222
 31
0.0
  0
LINE
  5
374
  8
DEFAULT
 10
27.96871611111111
 20
23.14977166666666
 30
0.0
 11
30.29630861111111
 21
29.79762194444444
 31
0.0
  0
LINE
  5
375
  8
DEFAULT
 10
30.29630861111111
 20
29.79762194444444
 30
0.0
 11
37.21735
 21
28.48945138888888
 31
0.0
  0
LINE
  5
376
  8
DEFAULT
 10
-35.18609083333333
 20
24.97119861111111
 30
0.0
 11
-30.59264194444444
 21
30.31087833333333
 31
0.0
  0
LINE
  5
377
  8
DEFAULT
 10
-30.59264194444444
 20
30.31087833333333
 30
0.0
 11
-35.18609083333333
 21
35.65059333333333
 31
0.0
  0
LINE
  5
378
  8
DEFAULT
 10
-37.03125972222222
 20
31.8100075
 30
0.0
 11
-34.70366722222222
 21
38.45789305555555
 31
0.0
  0
LINE
  5
379
  8
DEFAULT
 10
-34.70366722222222
 20
38.45789305555555
 30
0.0
 11
-27.78266111111111
 21
37.1497225
 31
0.0
  0
LINE
  5
37A
  8
DEFAULT
 10
-32.03126972222222
 20
37.47202027777777
 30
0.0
 11
-29.70367722222222
 21
30.82413472222222
 31
0.0
  0
LINE
  5
37B
  8
DEFAULT
 10
-29.70367722222222
 20
30.82413472222222
 30
0.0
 11
-22.78263583333333
 21
32.13230527777777
 31
0.0
  0
LINE
  5
37C
  8
DEFAULT
 10
-25.18607555555555
 20
24.97119861111111
 30
0.0
 11
-20.59266194444444
 21
30.31087833333333
 31
0.0
  0
LINE
  5
37D
  8
DEFAULT
 10
-20.59266194444444
 20
30.31087833333333
 30
0.0
 11
-25.18607555555555
 21
35.65059333333333
 31
0.0
  0
LINE
  5
37E
  8
DEFAULT
 10
-27.03127972222222
 20
31.8100075
 30
0.0
 11
-24.70368722222222
 21
38.45789305555555
 31
0.0
  0
LINE
  5
37F
  8
DEFAULT
 10
-24.70368722222222
 20
38.45789305555555
 30
0.0
 11
-17.78264583333333
 21
37.1497225
 31
0.0
  0
LINE
  5
380
  8
DEFAULT
 10
-22.03128972222222
 20
37.47202027777777
 30
0.0
 11
-19.70366194444444
 21
30.82413472222222
 31
0.0
  0
LINE
  5
381
  8
DEFAULT
 10
-19.70366194444444
 20
30.82413472222222
 30
0.0
 11
-12.78265583333333
 21
32.13230527777777
 31
0.0
  0
LINE
  5
382
  8
DEFAULT
 10
-15.18609555555555
 20
24.97119861111111
 30
0.0
 11
-10.59264666666667
 21
30.31087833333333
 31
0.0
  0
LINE
  5
383
  8
DEFAULT
 10
-10.59264666666667
 20
30.31087833333333
 30
0.0
 11
-15.18609555555555
 21
35.65059333333333
 31
0.0
  0
LINE
  5
384
  8
DEFAULT
 10
-17.03126444444444
 20
31.8100075
 30
0.0
 11
-14.70367194444444
 21
38.45789305555555
 31
0.0
  0
LINE
  5
385
  8
DEFAULT
 10
-14.70367194444444
 20
38.45789305555555
 30
0.0
 11
-7.782630555555555
 21
37.1497225
 31
0.0
  0
LINE
  5
386
  8
DEFAULT
 10
-12.03127444444444
 20
37.47202027777777
 30
0.0
 11
-9.703681944444444
 21
30.82413472222222
 31
0.0
  0
LINE
  5
387
  8
DEFAULT
 10
-9.703681944444444
 20
30.82413472222222
 30
0.0
 11
-2.782640555555556
 21
32.13230527777777
 31
0.0
  0
LINE
  5
388
  8
DEFAULT
 10
-5.186080277777777
 20
24.97119861111111
 30
0.0
 11
-0.5926666666666666
 21
30.31087833333333
 31
0.0
  0
LINE
  5
389
  8
DEFAULT
 10
-0.5926666666666666
 20
30.31087833333333
 30
0.0
 11
-5.186080277777777
 21
35.65059333333333
 31
0.0
  0
LINE
  5
38A
  8
DEFAULT
 10
-7.031284444444444
 20
31.8100075
 30
0.0
 11
-4.703691944444444
 21
38.45789305555555
 31
0.0
  0
LINE
  5
38B
  8
DEFAULT
 10
-4.703691944444444
 20
38.45789305555555
 30
0.0
 11
2.217349444444444
 21
37.1497225
 31
0.0
  0
LINE
  5
38C
  8
DEFAULT
 10
-2.031259166666667
 20
37.47202027777777
 30
0.0
 11
0.2963333333333333
 21
30.82413472222222
 31
0.0
  0
LINE
  5
38D
  8
DEFAULT
 10
0.2963333333333333
 20
30.82413472222222
 30
0.0
 11
7.217339444444444
 21
32.13230527777777
 31
0.0
  0
LINE
  5
38E
  8
DEFAULT
 10
4.813899722222222
 20
24.97119861111111
 30
0.0
 11
9.407348611111109
 21
30.31087833333333
 31
0.0
  0
LINE
  5
38F
  8
DEFAULT
 10
9.407348611111109
 20
30.31087833333333
 30
0.0
 11
4.813899722222222
 21
35.65059333333333
 31
0.0
  0
LINE
  5
390
  8
DEFAULT
 10
2.968730833333333
 20
31.8100075
 30
0.0
 11
5.296323333333333
 21
38.45789305555555
 31
0.0
  0
LINE
  5
391
  8
DEFAULT
 10
5.296323333333333
 20
38.45789305555555
 30
0.0
 11
12.21736472222222
 21
37.1497225
 31
0.0
  0
LINE
  5
392
  8
DEFAULT
 10
7.968720833333332
 20
37.47202027777777
 30
0.0
 11
10.29631333333333
 21
30.82413472222222
 31
0.0
  0
LINE
  5
393
  8
DEFAULT
 10
10.29631333333333
 20
30.82413472222222
 30
0.0
 11
17.21735472222222
 21
32.13230527777777
 31
0.0
  0
LINE
  5
394
  8
DEFAULT
 10
14.813915
 20
24.97119861111111
 30
0.0
 11
19.40736388888889
 21
30.31087833333333
 31
0.0
  0
LINE
  5
395
  8
DEFAULT
 10
19.40736388888889
 20
30.31087833333333
 30
0.0
 11
14.813915
 21
35.65059333333333
 31
0.0
  0
LINE
  5
396
  8
DEFAULT
 10
12.96871083333333
 20
31.8100075
 30
0.0
 11
15.29633861111111
 21
38.45789305555555
 31
0.0
  0
LINE
  5
397
  8
DEFAULT
 10
15.29633861111111
 20
38.45789305555555
 30
0.0
 11
22.21734472222222
 21
37.1497225
 31
0.0
  0
LINE
  5
398
  8
DEFAULT
 10
17.96873611111111
 20
37.47202027777777
 30
0.0
 11
20.29632861111111
 21
30.82413472222222
 31
0.0
  0
LINE
  5
399
  8
DEFAULT
 10
20.29632861111111
 20
30.82413472222222
 30
0.0
 11
27.21737
 21
32.13230527777777
 31
0.0
  0
LINE
  5
39A
  8
DEFAULT
 10
24.813895
 20
24.97119861111111
 30
0.0
 11
29.40734388888889
 21
30.31087833333333
 31
0.0
  0
LINE
  5
39B
  8
DEFAULT
 10
29.40734388888889
 20
30.31087833333333
 30
0.0
 11
24.813895
 21
35.65059333333333
 31
0.0
  0
LINE
  5
39C
  8
DEFAULT
 10
22.96872611111111
 20
31.8100075
 30
0.0
 11
25.29631861111111
 21
38.45789305555555
 31
0.0
  0
LINE
  5
39D
  8
DEFAULT
 10
25.29631861111111
 20
38.45789305555555
 30
0.0
 11
32.21735999999999
 21
37.1497225
 31
0.0
  0
LINE
  5
39E
  8
DEFAULT
 10
27.96871611111111
 20
37.47202027777777
 30
0.0
 11
30.29630861111111
 21
30.82413472222222
 31
0.0
  0
LINE
  5
39F
  8
DEFAULT
 10
30.29630861111111
 20
30.82413472222222
 30
0.0
 11
37.21735
 21
32.13230527777777
 31
0.0
  0
LINE
  5
3A0
  8
DEFAULT
 10
34.81391027777778
 20
24.97119861111111
 30
0.0
 11
39.40735916666667
 21
30.31087833333333
 31
0.0
  0
LINE
  5
3A1
  8
DEFAULT
 10
39.40735916666667
 20
30.31087833333333
 30
0.0
 11
34.81391027777778
 21
35.65059333333333
 31
0.0
  0
ENDSEC
  0
EOF
