  0
SECTION
  2
HEADER
  9
$ACADVER
  1
AC1009
  9
$DWGCODEPAGE
  3
ansi_1252
  9
$INSBASE
 10
0.0
 20
0.0
 30
0.0
  9
$EXTMIN
 10
-140.0000022222222
 20
-38.97114944444444
 30
0.0
  9
$EXTMAX
 10
-59.99998583333333
 20
38.97114944444444
 30
0.0
  9
$LIMMIN
 10
0.0
 20
0.0
  9
$LIMMAX
 10
12.0
 20
9.0
  9
$ORTHOMODE
 70
     0
  9
$REGENMODE
 70
     1
  9
$FILLMODE
 70
     1
  9
$QTEXTMODE
 70
     0
  9
$MIRRTEXT
 70
     1
  9
$DRAGMODE
 70
     2
  9
$LTSCALE
 40
1.0
  9
$OSMODE
 70
    37
  9
$ATTMODE
 70
     1
  9
$TEXTSIZE
 40
0.2
  9
$TRACEWID
 40
0.05
  9
$TEXTSTYLE
  7
STANDARD
  9
$CLAYER
  8
DEFAULT
  9
$CELTYPE
  6
BYLAYER
  9
$CECOLOR
 62
   256
  9
$DIMSCALE
 40
1.0
  9
$DIMASZ
 40
0.18
  9
$DIMEXO
 40
0.0625
  9
$DIMDLI
 40
0.38
  9
$DIMRND
 40
0.0
  9
$DIMDLE
 40
0.0
  9
$DIMEXE
 40
0.18
  9
$DIMTP
 40
0.0
  9
$DIMTM
 40
0.0
  9
$DIMTXT
 40
0.18
  9
$DIMCEN
 40
0.09
  9
$DIMTSZ
 40
0.0
  9
$DIMTOL
 70
     0
  9
$DIMLIM
 70
     0
  9
$DIMTIH
 70
     1
  9
$DIMTOH
 70
     1
  9
$DIMSE1
 70
     0
  9
$DIMSE2
 70
     0
  9
$DIMTAD
 70
     0
  9
$DIMZIN
 70
     0
  9
$DIMBLK
  1

  9
$DIMASO
 70
     1
  9
$DIMSHO
 70
     1
  9
$DIMPOST
  1

  9
$DIMAPOST
  1

  9
$DIMALT
 70
     0
  9
$DIMALTD
 70
     2
  9
$DIMALTF
 40
25.4
  9
$DIMLFAC
 40
1.0
  9
$DIMTOFL
 70
     0
  9
$DIMTVP
 40
0.0
  9
$DIMTIX
 70
     0
  9
$DIMSOXD
 70
     0
  9
$DIMSAH
 70
     0
  9
$DIMBLK1
  1

  9
$DIMBLK2
  1

  9
$DIMSTYLE
  2
STANDARD_ACAD
  9
$DIMCLRD
 70
     0
  9
$DIMCLRE
 70
     0
  9
$DIMCLRT
 70
     0
  9
$DIMTFAC
 40
1.0
  9
$DIMGAP
 40
0.09
  9
$LUNITS
 70
     2
  9
$LUPREC
 70
     3
  9
$SKETCHINC
 40
0.1
  9
$FILLETRAD
 40
0.0
  9
$AUNITS
 70
     0
  9
$AUPREC
 70
     0
  9
$MENU
  1
.
  9
$ELEVATION
 40
0.0
  9
$PELEVATION
 40
0.0
  9
$THICKNESS
 40
0.0
  9
$LIMCHECK
 70
     0
  9
$CHAMFERA
 40
0.0
  9
$CHAMFERB
 40
0.0
  9
$SKPOLY
 70
     0
  9
$TDCREATE
 40
2460762.718430799
  9
$TDUPDATE
 40
2460762.718446424
  9
$TDINDWG
 40
0.0000000116
  9
$TDUSRTIMER
 40
0.0000000116
  9
$USRTIMER
 70
     1
  9
$ANGBASE
 50
0.0
  9
$ANGDIR
 70
     0
  9
$PDMODE
 70
     0
  9
$PDSIZE
 40
0.0
  9
$PLINEWID
 40
0.0
  9
$COORDS
 70
     1
  9
$SPLFRAME
 70
     0
  9
$SPLINETYPE
 70
     6
  9
$SPLINESEGS
 70
     8
  9
$ATTDIA
 70
     0
  9
$ATTREQ
 70
     1
  9
$HANDLING
 70
     1
  9
$HANDSEED
  5
208
  9
$SURFTAB1
 70
     6
  9
$SURFTAB2
 70
     6
  9
$SURFTYPE
 70
     6
  9
$SURFU
 70
     6
  9
$SURFV
 70
     6
  9
$UCSNAME
  2

  9
$UCSORG
 10
0.0
 20
0.0
 30
0.0
  9
$UCSXDIR
 10
1.0
 20
0.0
 30
0.0
  9
$UCSYDIR
 10
0.0
 20
1.0
 30
0.0
  9
$PUCSNAME
  2

  9
$PUCSORG
 10
0.0
 20
0.0
 30
0.0
  9
$PUCSXDIR
 10
1.0
 20
0.0
 30
0.0
  9
$PUCSYDIR
 10
0.0
 20
1.0
 30
0.0
  9
$USERI1
 70
     0
  9
$USERI2
 70
     0
  9
$USERI3
 70
     0
  9
$USERI4
 70
     0
  9
$USERI5
 70
     0
  9
$USERR1
 40
0.0
  9
$USERR2
 40
0.0
  9
$USERR3
 40
0.0
  9
$USERR4
 40
0.0
  9
$USERR5
 40
0.0
  9
$WORLDVIEW
 70
     1
  9
$SHADEDGE
 70
     3
  9
$SHADEDIF
 70
    70
  9
$TILEMODE
 70
     1
  9
$MAXACTVP
 70
    64
  9
$PLIMCHECK
 70
     0
  9
$PEXTMIN
 10
1.000000000000000E+20
 20
1.000000000000000E+20
 30
1.000000000000000E+20
  9
$PEXTMAX
 10
-1.000000000000000E+20
 20
-1.000000000000000E+20
 30
-1.000000000000000E+20
  9
$PLIMMIN
 10
0.0
 20
0.0
  9
$PLIMMAX
 10
12.0
 20
9.0
  9
$UNITMODE
 70
     0
  9
$VISRETAIN
 70
     1
  9
$PLINEGEN
 70
     0
  9
$PSLTSCALE
 70
     1
  0
ENDSEC
  0
SECTION
  2
TABLES
  0
TABLE
  2
VPORT
 70
     1
  0
VPORT
  2
*ACTIVE
 70
     0
 10
0.0
 20
0.0
 11
1.0
 21
1.0
 12
10.42990654205607
 22
4.5
 13
0.0
 23
0.0
 14
0.5
 24
0.5
 15
0.5
 25
0.5
 16
0.0
 26
0.0
 36
1.0
 17
0.0
 27
0.0
 37
0.0
 40
9.0
 41
1.972972972850329
 42
50.0
 43
0.0
 44
0.0
 50
0.0
 51
0.0
 71
     0
 72
   100
 73
     1
 74
     3
 75
     0
 76
     0
 77
     0
 78
     0
  0
ENDTAB
  0
TABLE
  2
LTYPE
 70
     1
  0
LTYPE
  2
CONTINUOUS
 70
     0
  3
Solid line
 72
    65
 73
     0
 40
0.0
  0
ENDTAB
  0
TABLE
  2
LAYER
 70
     2
  0
LAYER
  2
0
 70
     0
 62
     7
  6
CONTINUOUS
  0
LAYER
  2
DEFAULT
 70
     0
 62
     7
  6
CONTINUOUS
  0
ENDTAB
  0
TABLE
  2
STYLE
 70
     1
  0
STYLE
  2
STANDARD
 70
     0
 40
0.0
 41
1.0
 50
0.0
 71
     0
 42
0.2
  3
txt
  4

  0
ENDTAB
  0
TABLE
  2
VIEW
 70
     0
  0
ENDTAB
  0
TABLE
  2
UCS
 70
     0
  0
ENDTAB
  0
TABLE
  2
APPID
 70
     2
  0
APPID
  2
ACAD
 70
     0
  0
APPID
  2
RHINO
 70
     0
  0
ENDTAB
  0
TABLE
  2
DIMSTYLE
 70
     1
  0
DIMSTYLE
  2
STANDARD_ACAD
 70
     0
  3

  4

  5

  6

  7

 40
1.0
 41
0.18
 42
0.0625
 43
0.38
 44
0.18
 45
0.0
 46
0.0
 47
0.0
 48
0.0
140
0.18
141
0.09
142
0.0
143
25.4
144
1.0
145
0.0
146
1.0
147
0.09
 71
     0
 72
     0
 73
     1
 74
     1
 75
     0
 76
     0
 77
     0
 78
     0
170
     0
171
     2
172
     0
173
     0
174
     0
175
     0
176
     0
177
     0
178
     0
  0
ENDTAB
  0
ENDSEC
  0
SECTION
  2
BLOCKS
  0
BLOCK
  8
0
  2
$MODEL_SPACE
 70
     0
 10
0.0
 20
0.0
 30
0.0
  3
$MODEL_SPACE
  1

  0
ENDBLK
  5
21
  8
0
  0
BLOCK
 67
     1
  8
0
  2
$PAPER_SPACE
 70
     0
 10
0.0
 20
0.0
 30
0.0
  3
$PAPER_SPACE
  1

  0
ENDBLK
  5
1D
 67
     1
  8
0
  0
ENDSEC
  0
SECTION
  2
ENTITIES
  0
LINE
  5
60
  8
DEFAULT
 10
-64.57554888888889
 20
38.23596055555555
 30
0.0
 11
-66.42851416666666
 21
32.24477083333333
 31
0.0
  0
LINE
  5
61
  8
DEFAULT
 10
-65.84893555555556
 20
38.97114944444444
 30
0.0
 11
-70.110985
 21
34.37082138888888
 31
0.0
  0
LINE
  5
62
  8
DEFAULT
 10
-75.84895083333332
 20
38.97114944444444
 30
0.0
 11
-80.110965
 21
34.37082138888888
 31
0.0
  0
LINE
  5
63
  8
DEFAULT
 10
-85.84893083333333
 20
38.97114944444444
 30
0.0
 11
-90.11098027777777
 21
34.37082138888888
 31
0.0
  0
LINE
  5
64
  8
DEFAULT
 10
-95.84894611111109
 20
38.97114944444444
 30
0.0
 11
-100.1109602777778
 21
34.37082138888888
 31
0.0
  0
LINE
  5
65
  8
DEFAULT
 10
-105.8489261111111
 20
38.97114944444444
 30
0.0
 11
-110.1109755555556
 21
34.37082138888888
 31
0.0
  0
LINE
  5
66
  8
DEFAULT
 10
-115.8489413888889
 20
38.97114944444444
 30
0.0
 11
-120.1109555555555
 21
34.37082138888888
 31
0.0
  0
LINE
  5
67
  8
DEFAULT
 10
-125.8489213888889
 20
38.97114944444444
 30
0.0
 11
-130.1109708333333
 21
34.37082138888888
 31
0.0
  0
LINE
  5
68
  8
DEFAULT
 10
-139.57554
 20
31.0461025
 30
0.0
 11
-133.4605252777778
 21
32.43696416666666
 31
0.0
  0
LINE
  5
69
  8
DEFAULT
 10
-64.57554888888889
 20
22.38583138888889
 30
0.0
 11
-66.42851416666666
 21
28.37702111111111
 31
0.0
  0
LINE
  5
6A
  8
DEFAULT
 10
-139.57554
 20
29.57568944444444
 30
0.0
 11
-133.4605252777778
 21
28.18482777777778
 31
0.0
  0
LINE
  5
6B
  8
DEFAULT
 10
-64.57554888888889
 20
20.91545361111111
 30
0.0
 11
-66.42851416666666
 21
14.92426388888889
 31
0.0
  0
LINE
  5
6C
  8
DEFAULT
 10
-139.57554
 20
13.72556027777778
 30
0.0
 11
-133.4605252777778
 21
15.11645722222222
 31
0.0
  0
LINE
  5
6D
  8
DEFAULT
 10
-64.57554888888889
 20
5.065324444444443
 30
0.0
 11
-66.42851416666666
 21
11.05651416666667
 31
0.0
  0
LINE
  5
6E
  8
DEFAULT
 10
-139.57554
 20
12.2551825
 30
0.0
 11
-133.4605252777778
 21
10.86432083333333
 31
0.0
  0
LINE
  5
6F
  8
DEFAULT
 10
-64.57554888888889
 20
3.594946666666667
 30
0.0
 11
-66.42851416666666
 21
-2.396243055555555
 31
0.0
  0
LINE
  5
70
  8
DEFAULT
 10
-139.57554
 20
-3.594946666666667
 30
0.0
 11
-133.4605252777778
 21
-2.204049722222222
 31
0.0
  0
LINE
  5
71
  8
DEFAULT
 10
-64.57554888888889
 20
-12.2551825
 30
0.0
 11
-66.42851416666666
 21
-6.263992777777777
 31
0.0
  0
LINE
  5
72
  8
DEFAULT
 10
-139.57554
 20
-5.065324444444443
 30
0.0
 11
-133.4605252777778
 21
-6.45618611111111
 31
0.0
  0
LINE
  5
73
  8
DEFAULT
 10
-64.57554888888889
 20
-13.72556027777778
 30
0.0
 11
-66.42851416666666
 21
-19.71675
 31
0.0
  0
LINE
  5
74
  8
DEFAULT
 10
-139.57554
 20
-20.91545361111111
 30
0.0
 11
-133.4605252777778
 21
-19.52455666666667
 31
0.0
  0
LINE
  5
75
  8
DEFAULT
 10
-64.57554888888889
 20
-29.57568944444444
 30
0.0
 11
-66.42851416666666
 21
-23.58449972222222
 31
0.0
  0
LINE
  5
76
  8
DEFAULT
 10
-139.57554
 20
-22.38583138888889
 30
0.0
 11
-133.4605252777778
 21
-23.77669305555555
 31
0.0
  0
LINE
  5
77
  8
DEFAULT
 10
-69.57553888888889
 20
-38.23596055555555
 30
0.0
 11
-71.42850416666666
 21
-32.24477083333333
 31
0.0
  0
LINE
  5
78
  8
DEFAULT
 10
-70.84892555555555
 20
-38.97114944444444
 30
0.0
 11
-75.110975
 21
-34.37082138888888
 31
0.0
  0
LINE
  5
79
  8
DEFAULT
 10
-80.84894083333333
 20
-38.97114944444444
 30
0.0
 11
-85.11095499999999
 21
-34.37082138888888
 31
0.0
  0
LINE
  5
7A
  8
DEFAULT
 10
-90.84892083333332
 20
-38.97114944444444
 30
0.0
 11
-95.11097027777778
 21
-34.37082138888888
 31
0.0
  0
LINE
  5
7B
  8
DEFAULT
 10
-100.8489361111111
 20
-38.97114944444444
 30
0.0
 11
-105.1109855555555
 21
-34.37082138888888
 31
0.0
  0
LINE
  5
7C
  8
DEFAULT
 10
-110.8489513888889
 20
-38.97114944444444
 30
0.0
 11
-115.1109655555556
 21
-34.37082138888888
 31
0.0
  0
LINE
  5
7D
  8
DEFAULT
 10
-120.8489313888889
 20
-38.97114944444444
 30
0.0
 11
-125.1109808333333
 21
-34.37082138888888
 31
0.0
  0
LINE
  5
7E
  8
DEFAULT
 10
-135.0000122222222
 20
38.97114944444444
 30
0.0
 11
-65.0000111111111
 21
38.97114944444444
 31
0.0
  0
LINE
  5
7F
  8
DEFAULT
 10
-65.0000111111111
 20
38.97114944444444
 30
0.0
 11
-59.99998583333333
 21
30.31087833333333
 31
0.0
  0
LINE
  5
80
  8
DEFAULT
 10
-59.99998583333333
 20
30.31087833333333
 30
0.0
 11
-65.0000111111111
 21
21.6506425
 31
0.0
  0
LINE
  5
81
  8
DEFAULT
 10
-65.0000111111111
 20
21.6506425
 30
0.0
 11
-59.99998583333333
 21
12.99037138888889
 31
0.0
  0
LINE
  5
82
  8
DEFAULT
 10
-59.99998583333333
 20
12.99037138888889
 30
0.0
 11
-65.0000111111111
 21
4.330135555555555
 31
0.0
  0
LINE
  5
83
  8
DEFAULT
 10
-65.0000111111111
 20
4.330135555555555
 30
0.0
 11
-59.99998583333333
 21
-4.330135555555555
 31
0.0
  0
LINE
  5
84
  8
DEFAULT
 10
-59.99998583333333
 20
-4.330135555555555
 30
0.0
 11
-65.0000111111111
 21
-12.99037138888889
 31
0.0
  0
LINE
  5
85
  8
DEFAULT
 10
-65.0000111111111
 20
-12.99037138888889
 30
0.0
 11
-59.99998583333333
 21
-21.6506425
 31
0.0
  0
LINE
  5
86
  8
DEFAULT
 10
-59.99998583333333
 20
-21.6506425
 30
0.0
 11
-70.0000011111111
 21
-38.97114944444444
 31
0.0
  0
LINE
  5
87
  8
DEFAULT
 10
-70.0000011111111
 20
-38.97114944444444
 30
0.0
 11
-129.9999869444444
 21
-38.97114944444444
 31
0.0
  0
LINE
  5
88
  8
DEFAULT
 10
-129.9999869444444
 20
-38.97114944444444
 30
0.0
 11
-140.0000022222222
 21
-21.6506425
 31
0.0
  0
LINE
  5
89
  8
DEFAULT
 10
-140.0000022222222
 20
-21.6506425
 30
0.0
 11
-135.0000122222222
 21
-12.99037138888889
 31
0.0
  0
LINE
  5
8A
  8
DEFAULT
 10
-135.0000122222222
 20
-12.99037138888889
 30
0.0
 11
-140.0000022222222
 21
-4.330135555555555
 31
0.0
  0
LINE
  5
8B
  8
DEFAULT
 10
-140.0000022222222
 20
-4.330135555555555
 30
0.0
 11
-135.0000122222222
 21
4.330135555555555
 31
0.0
  0
LINE
  5
8C
  8
DEFAULT
 10
-135.0000122222222
 20
4.330135555555555
 30
0.0
 11
-140.0000022222222
 21
12.99037138888889
 31
0.0
  0
LINE
  5
8D
  8
DEFAULT
 10
-140.0000022222222
 20
12.99037138888889
 30
0.0
 11
-135.0000122222222
 21
21.6506425
 31
0.0
  0
LINE
  5
8E
  8
DEFAULT
 10
-135.0000122222222
 20
21.6506425
 30
0.0
 11
-140.0000022222222
 21
30.31087833333333
 31
0.0
  0
LINE
  5
8F
  8
DEFAULT
 10
-140.0000022222222
 20
30.31087833333333
 30
0.0
 11
-135.0000122222222
 21
38.97114944444444
 31
0.0
  0
LINE
  5
90
  8
DEFAULT
 10
-134.57555
 20
-31.0461025
 30
0.0
 11
-128.4605352777778
 21
-32.43696416666666
 31
0.0
  0
LINE
  5
91
  8
DEFAULT
 10
-63.46052416666667
 20
32.43696416666666
 30
0.0
 11
-69.57553888888889
 21
31.0461025
 31
0.0
  0
LINE
  5
92
  8
DEFAULT
 10
-69.57553888888889
 20
31.0461025
 30
0.0
 11
-71.42850416666666
 21
37.03725694444444
 31
0.0
  0
LINE
  5
93
  8
DEFAULT
 10
-68.46051416666666
 20
36.84506361111111
 30
0.0
 11
-74.57552888888888
 21
38.23596055555555
 31
0.0
  0
LINE
  5
94
  8
DEFAULT
 10
-74.57552888888888
 20
38.23596055555555
 30
0.0
 11
-76.42849416666665
 21
32.24477083333333
 31
0.0
  0
LINE
  5
95
  8
DEFAULT
 10
-73.46053944444444
 20
32.43696416666666
 30
0.0
 11
-79.57551888888888
 21
31.0461025
 31
0.0
  0
LINE
  5
96
  8
DEFAULT
 10
-79.57551888888888
 20
31.0461025
 30
0.0
 11
-81.42851944444443
 21
37.03725694444444
 31
0.0
  0
LINE
  5
97
  8
DEFAULT
 10
-78.46052944444445
 20
36.84506361111111
 30
0.0
 11
-84.57554416666666
 21
38.23596055555555
 31
0.0
  0
LINE
  5
98
  8
DEFAULT
 10
-84.57554416666666
 20
38.23596055555555
 30
0.0
 11
-86.42850944444444
 21
32.24477083333333
 31
0.0
  0
LINE
  5
99
  8
DEFAULT
 10
-83.46051944444443
 20
32.43696416666666
 30
0.0
 11
-89.57553416666666
 21
31.0461025
 31
0.0
  0
LINE
  5
9A
  8
DEFAULT
 10
-89.57553416666666
 20
31.0461025
 30
0.0
 11
-91.42849944444443
 21
37.03725694444444
 31
0.0
  0
LINE
  5
9B
  8
DEFAULT
 10
-88.46054472222221
 20
36.84506361111111
 30
0.0
 11
-94.57552416666665
 21
38.23596055555555
 31
0.0
  0
LINE
  5
9C
  8
DEFAULT
 10
-94.57552416666665
 20
38.23596055555555
 30
0.0
 11
-96.42848944444444
 21
32.24477083333333
 31
0.0
  0
LINE
  5
9D
  8
DEFAULT
 10
-93.46053472222222
 20
32.43696416666666
 30
0.0
 11
-99.57554944444443
 21
31.0461025
 31
0.0
  0
LINE
  5
9E
  8
DEFAULT
 10
-99.57554944444443
 20
31.0461025
 30
0.0
 11
-101.4285147222222
 21
37.03725694444444
 31
0.0
  0
LINE
  5
9F
  8
DEFAULT
 10
-98.46052472222222
 20
36.84506361111111
 30
0.0
 11
-104.5755394444444
 21
38.23596055555555
 31
0.0
  0
LINE
  5
A0
  8
DEFAULT
 10
-104.5755394444444
 20
38.23596055555555
 30
0.0
 11
-106.4285047222222
 21
32.24477083333333
 31
0.0
  0
LINE
  5
A1
  8
DEFAULT
 10
-103.4605147222222
 20
32.43696416666666
 30
0.0
 11
-109.5755294444444
 21
31.0461025
 31
0.0
  0
LINE
  5
A2
  8
DEFAULT
 10
-109.5755294444444
 20
31.0461025
 30
0.0
 11
-111.4284947222222
 21
37.03725694444444
 31
0.0
  0
LINE
  5
A3
  8
DEFAULT
 10
-108.46054
 20
36.84506361111111
 30
0.0
 11
-114.5755194444444
 21
38.23596055555555
 31
0.0
  0
LINE
  5
A4
  8
DEFAULT
 10
-114.5755194444444
 20
38.23596055555555
 30
0.0
 11
-116.42852
 21
32.24477083333333
 31
0.0
  0
LINE
  5
A5
  8
DEFAULT
 10
-113.46053
 20
32.43696416666666
 30
0.0
 11
-119.5755447222222
 21
31.0461025
 31
0.0
  0
LINE
  5
A6
  8
DEFAULT
 10
-119.5755447222222
 20
31.0461025
 30
0.0
 11
-121.42851
 21
37.03725694444444
 31
0.0
  0
LINE
  5
A7
  8
DEFAULT
 10
-118.46052
 20
36.84506361111111
 30
0.0
 11
-124.5755347222222
 21
38.23596055555555
 31
0.0
  0
LINE
  5
A8
  8
DEFAULT
 10
-124.5755347222222
 20
38.23596055555555
 30
0.0
 11
-126.4285
 21
32.24477083333333
 31
0.0
  0
LINE
  5
A9
  8
DEFAULT
 10
-123.4605452777778
 20
32.43696416666666
 30
0.0
 11
-129.5755247222222
 21
31.0461025
 31
0.0
  0
LINE
  5
AA
  8
DEFAULT
 10
-129.5755247222222
 20
31.0461025
 30
0.0
 11
-131.42849
 21
37.03725694444444
 31
0.0
  0
LINE
  5
AB
  8
DEFAULT
 10
-128.4605352777778
 20
36.84506361111111
 30
0.0
 11
-134.57555
 21
38.23596055555555
 31
0.0
  0
LINE
  5
AC
  8
DEFAULT
 10
-134.57555
 20
38.23596055555555
 30
0.0
 11
-136.4285152777778
 21
32.24477083333333
 31
0.0
  0
LINE
  5
AD
  8
DEFAULT
 10
-65.11095972222222
 20
34.91120638888889
 30
0.0
 11
-60.84894555555555
 21
30.31087833333333
 31
0.0
  0
LINE
  5
AE
  8
DEFAULT
 10
-60.84894555555555
 20
30.31087833333333
 30
0.0
 11
-65.11095972222222
 21
25.71058555555555
 31
0.0
  0
LINE
  5
AF
  8
DEFAULT
 10
-63.46052416666667
 20
28.18482777777778
 30
0.0
 11
-69.57553888888889
 21
29.57568944444444
 31
0.0
  0
LINE
  5
B0
  8
DEFAULT
 10
-69.57553888888889
 20
29.57568944444444
 30
0.0
 11
-71.42850416666666
 21
23.58449972222222
 31
0.0
  0
LINE
  5
B1
  8
DEFAULT
 10
-68.46051416666666
 20
23.77669305555555
 30
0.0
 11
-74.57552888888888
 21
22.38583138888889
 31
0.0
  0
LINE
  5
B2
  8
DEFAULT
 10
-74.57552888888888
 20
22.38583138888889
 30
0.0
 11
-76.42849416666665
 21
28.37702111111111
 31
0.0
  0
LINE
  5
B3
  8
DEFAULT
 10
-75.110975
 20
34.91120638888889
 30
0.0
 11
-70.84892555555555
 21
30.31087833333333
 31
0.0
  0
LINE
  5
B4
  8
DEFAULT
 10
-70.84892555555555
 20
30.31087833333333
 30
0.0
 11
-75.110975
 21
25.71058555555555
 31
0.0
  0
LINE
  5
B5
  8
DEFAULT
 10
-73.46053944444444
 20
28.18482777777778
 30
0.0
 11
-79.57551888888888
 21
29.57568944444444
 31
0.0
  0
LINE
  5
B6
  8
DEFAULT
 10
-79.57551888888888
 20
29.57568944444444
 30
0.0
 11
-81.42851944444443
 21
23.58449972222222
 31
0.0
  0
LINE
  5
B7
  8
DEFAULT
 10
-78.46052944444445
 20
23.77669305555555
 30
0.0
 11
-84.57554416666666
 21
22.38583138888889
 31
0.0
  0
LINE
  5
B8
  8
DEFAULT
 10
-84.57554416666666
 20
22.38583138888889
 30
0.0
 11
-86.42850944444444
 21
28.37702111111111
 31
0.0
  0
LINE
  5
B9
  8
DEFAULT
 10
-85.11095499999999
 20
34.91120638888889
 30
0.0
 11
-80.84894083333333
 21
30.31087833333333
 31
0.0
  0
LINE
  5
BA
  8
DEFAULT
 10
-80.84894083333333
 20
30.31087833333333
 30
0.0
 11
-85.11095499999999
 21
25.71058555555555
 31
0.0
  0
LINE
  5
BB
  8
DEFAULT
 10
-83.46051944444443
 20
28.18482777777778
 30
0.0
 11
-89.57553416666666
 21
29.57568944444444
 31
0.0
  0
LINE
  5
BC
  8
DEFAULT
 10
-89.57553416666666
 20
29.57568944444444
 30
0.0
 11
-91.42849944444443
 21
23.58449972222222
 31
0.0
  0
LINE
  5
BD
  8
DEFAULT
 10
-88.46054472222221
 20
23.77669305555555
 30
0.0
 11
-94.57552416666665
 21
22.38583138888889
 31
0.0
  0
LINE
  5
BE
  8
DEFAULT
 10
-94.57552416666665
 20
22.38583138888889
 30
0.0
 11
-96.42848944444444
 21
28.37702111111111
 31
0.0
  0
LINE
  5
BF
  8
DEFAULT
 10
-95.11097027777778
 20
34.91120638888889
 30
0.0
 11
-90.84892083333332
 21
30.31087833333333
 31
0.0
  0
LINE
  5
C0
  8
DEFAULT
 10
-90.84892083333332
 20
30.31087833333333
 30
0.0
 11
-95.11097027777778
 21
25.71058555555555
 31
0.0
  0
LINE
  5
C1
  8
DEFAULT
 10
-93.46053472222222
 20
28.18482777777778
 30
0.0
 11
-99.57554944444443
 21
29.57568944444444
 31
0.0
  0
LINE
  5
C2
  8
DEFAULT
 10
-99.57554944444443
 20
29.57568944444444
 30
0.0
 11
-101.4285147222222
 21
23.58449972222222
 31
0.0
  0
LINE
  5
C3
  8
DEFAULT
 10
-98.46052472222222
 20
23.77669305555555
 30
0.0
 11
-104.5755394444444
 21
22.38583138888889
 31
0.0
  0
LINE
  5
C4
  8
DEFAULT
 10
-104.5755394444444
 20
22.38583138888889
 30
0.0
 11
-106.4285047222222
 21
28.37702111111111
 31
0.0
  0
LINE
  5
C5
  8
DEFAULT
 10
-105.1109855555555
 20
34.91120638888889
 30
0.0
 11
-100.8489361111111
 21
30.31087833333333
 31
0.0
  0
LINE
  5
C6
  8
DEFAULT
 10
-100.8489361111111
 20
30.31087833333333
 30
0.0
 11
-105.1109855555555
 21
25.71058555555555
 31
0.0
  0
LINE
  5
C7
  8
DEFAULT
 10
-103.4605147222222
 20
28.18482777777778
 30
0.0
 11
-109.5755294444444
 21
29.57568944444444
 31
0.0
  0
LINE
  5
C8
  8
DEFAULT
 10
-109.5755294444444
 20
29.57568944444444
 30
0.0
 11
-111.4284947222222
 21
23.58449972222222
 31
0.0
  0
LINE
  5
C9
  8
DEFAULT
 10
-108.46054
 20
23.77669305555555
 30
0.0
 11
-114.5755194444444
 21
22.38583138888889
 31
0.0
  0
LINE
  5
CA
  8
DEFAULT
 10
-114.5755194444444
 20
22.38583138888889
 30
0.0
 11
-116.42852
 21
28.37702111111111
 31
0.0
  0
LINE
  5
CB
  8
DEFAULT
 10
-115.1109655555556
 20
34.91120638888889
 30
0.0
 11
-110.8489513888889
 21
30.31087833333333
 31
0.0
  0
LINE
  5
CC
  8
DEFAULT
 10
-110.8489513888889
 20
30.31087833333333
 30
0.0
 11
-115.1109655555556
 21
25.71058555555555
 31
0.0
  0
LINE
  5
CD
  8
DEFAULT
 10
-113.46053
 20
28.18482777777778
 30
0.0
 11
-119.5755447222222
 21
29.57568944444444
 31
0.0
  0
LINE
  5
CE
  8
DEFAULT
 10
-119.5755447222222
 20
29.57568944444444
 30
0.0
 11
-121.42851
 21
23.58449972222222
 31
0.0
  0
LINE
  5
CF
  8
DEFAULT
 10
-118.46052
 20
23.77669305555555
 30
0.0
 11
-124.5755347222222
 21
22.38583138888889
 31
0.0
  0
LINE
  5
D0
  8
DEFAULT
 10
-124.5755347222222
 20
22.38583138888889
 30
0.0
 11
-126.4285
 21
28.37702111111111
 31
0.0
  0
LINE
  5
D1
  8
DEFAULT
 10
-125.1109808333333
 20
34.91120638888889
 30
0.0
 11
-120.8489313888889
 21
30.31087833333333
 31
0.0
  0
LINE
  5
D2
  8
DEFAULT
 10
-120.8489313888889
 20
30.31087833333333
 30
0.0
 11
-125.1109808333333
 21
25.71058555555555
 31
0.0
  0
LINE
  5
D3
  8
DEFAULT
 10
-123.4605452777778
 20
28.18482777777778
 30
0.0
 11
-129.5755247222222
 21
29.57568944444444
 31
0.0
  0
LINE
  5
D4
  8
DEFAULT
 10
-129.5755247222222
 20
29.57568944444444
 30
0.0
 11
-131.42849
 21
23.58449972222222
 31
0.0
  0
LINE
  5
D5
  8
DEFAULT
 10
-128.4605352777778
 20
23.77669305555555
 30
0.0
 11
-134.57555
 21
22.38583138888889
 31
0.0
  0
LINE
  5
D6
  8
DEFAULT
 10
-134.57555
 20
22.38583138888889
 30
0.0
 11
-136.4285152777778
 21
28.37702111111111
 31
0.0
  0
LINE
  5
D7
  8
DEFAULT
 10
-135.1109608333333
 20
34.91120638888889
 30
0.0
 11
-130.8489466666666
 21
30.31087833333333
 31
0.0
  0
LINE
  5
D8
  8
DEFAULT
 10
-130.8489466666666
 20
30.31087833333333
 30
0.0
 11
-135.1109608333333
 21
25.71058555555555
 31
0.0
  0
LINE
  5
D9
  8
DEFAULT
 10
-63.46052416666667
 20
15.11645722222222
 30
0.0
 11
-69.57553888888889
 21
13.72556027777778
 31
0.0
  0
LINE
  5
DA
  8
DEFAULT
 10
-69.57553888888889
 20
13.72556027777778
 30
0.0
 11
-71.42850416666666
 21
19.71675
 31
0.0
  0
LINE
  5
DB
  8
DEFAULT
 10
-70.110985
 20
26.25093527777777
 30
0.0
 11
-65.84893555555556
 21
21.6506425
 31
0.0
  0
LINE
  5
DC
  8
DEFAULT
 10
-65.84893555555556
 20
21.6506425
 30
0.0
 11
-70.110985
 21
17.05031444444444
 31
0.0
  0
LINE
  5
DD
  8
DEFAULT
 10
-68.46051416666666
 20
19.52455666666667
 30
0.0
 11
-74.57552888888888
 21
20.91545361111111
 31
0.0
  0
LINE
  5
DE
  8
DEFAULT
 10
-74.57552888888888
 20
20.91545361111111
 30
0.0
 11
-76.42849416666665
 21
14.92426388888889
 31
0.0
  0
LINE
  5
DF
  8
DEFAULT
 10
-73.46053944444444
 20
15.11645722222222
 30
0.0
 11
-79.57551888888888
 21
13.72556027777778
 31
0.0
  0
LINE
  5
E0
  8
DEFAULT
 10
-79.57551888888888
 20
13.72556027777778
 30
0.0
 11
-81.42851944444443
 21
19.71675
 31
0.0
  0
LINE
  5
E1
  8
DEFAULT
 10
-80.110965
 20
26.25093527777777
 30
0.0
 11
-75.84895083333332
 21
21.6506425
 31
0.0
  0
LINE
  5
E2
  8
DEFAULT
 10
-75.84895083333332
 20
21.6506425
 30
0.0
 11
-80.110965
 21
17.05031444444444
 31
0.0
  0
LINE
  5
E3
  8
DEFAULT
 10
-78.46052944444445
 20
19.52455666666667
 30
0.0
 11
-84.57554416666666
 21
20.91545361111111
 31
0.0
  0
LINE
  5
E4
  8
DEFAULT
 10
-84.57554416666666
 20
20.91545361111111
 30
0.0
 11
-86.42850944444444
 21
14.92426388888889
 31
0.0
  0
LINE
  5
E5
  8
DEFAULT
 10
-83.46051944444443
 20
15.11645722222222
 30
0.0
 11
-89.57553416666666
 21
13.72556027777778
 31
0.0
  0
LINE
  5
E6
  8
DEFAULT
 10
-89.57553416666666
 20
13.72556027777778
 30
0.0
 11
-91.42849944444443
 21
19.71675
 31
0.0
  0
LINE
  5
E7
  8
DEFAULT
 10
-90.11098027777777
 20
26.25093527777777
 30
0.0
 11
-85.84893083333333
 21
21.6506425
 31
0.0
  0
LINE
  5
E8
  8
DEFAULT
 10
-85.84893083333333
 20
21.6506425
 30
0.0
 11
-90.11098027777777
 21
17.05031444444444
 31
0.0
  0
LINE
  5
E9
  8
DEFAULT
 10
-88.46054472222221
 20
19.52455666666667
 30
0.0
 11
-94.57552416666665
 21
20.91545361111111
 31
0.0
  0
LINE
  5
EA
  8
DEFAULT
 10
-94.57552416666665
 20
20.91545361111111
 30
0.0
 11
-96.42848944444444
 21
14.92426388888889
 31
0.0
  0
LINE
  5
EB
  8
DEFAULT
 10
-93.46053472222222
 20
15.11645722222222
 30
0.0
 11
-99.57554944444443
 21
13.72556027777778
 31
0.0
  0
LINE
  5
EC
  8
DEFAULT
 10
-99.57554944444443
 20
13.72556027777778
 30
0.0
 11
-101.4285147222222
 21
19.71675
 31
0.0
  0
LINE
  5
ED
  8
DEFAULT
 10
-100.1109602777778
 20
26.25093527777777
 30
0.0
 11
-95.84894611111109
 21
21.6506425
 31
0.0
  0
LINE
  5
EE
  8
DEFAULT
 10
-95.84894611111109
 20
21.6506425
 30
0.0
 11
-100.1109602777778
 21
17.05031444444444
 31
0.0
  0
LINE
  5
EF
  8
DEFAULT
 10
-98.46052472222222
 20
19.52455666666667
 30
0.0
 11
-104.5755394444444
 21
20.91545361111111
 31
0.0
  0
LINE
  5
F0
  8
DEFAULT
 10
-104.5755394444444
 20
20.91545361111111
 30
0.0
 11
-106.4285047222222
 21
14.92426388888889
 31
0.0
  0
LINE
  5
F1
  8
DEFAULT
 10
-103.4605147222222
 20
15.11645722222222
 30
0.0
 11
-109.5755294444444
 21
13.72556027777778
 31
0.0
  0
LINE
  5
F2
  8
DEFAULT
 10
-109.5755294444444
 20
13.72556027777778
 30
0.0
 11
-111.4284947222222
 21
19.71675
 31
0.0
  0
LINE
  5
F3
  8
DEFAULT
 10
-110.1109755555556
 20
26.25093527777777
 30
0.0
 11
-105.8489261111111
 21
21.6506425
 31
0.0
  0
LINE
  5
F4
  8
DEFAULT
 10
-105.8489261111111
 20
21.6506425
 30
0.0
 11
-110.1109755555556
 21
17.05031444444444
 31
0.0
  0
LINE
  5
F5
  8
DEFAULT
 10
-108.46054
 20
19.52455666666667
 30
0.0
 11
-114.5755194444444
 21
20.91545361111111
 31
0.0
  0
LINE
  5
F6
  8
DEFAULT
 10
-114.5755194444444
 20
20.91545361111111
 30
0.0
 11
-116.42852
 21
14.92426388888889
 31
0.0
  0
LINE
  5
F7
  8
DEFAULT
 10
-113.46053
 20
15.11645722222222
 30
0.0
 11
-119.5755447222222
 21
13.72556027777778
 31
0.0
  0
LINE
  5
F8
  8
DEFAULT
 10
-119.5755447222222
 20
13.72556027777778
 30
0.0
 11
-121.42851
 21
19.71675
 31
0.0
  0
LINE
  5
F9
  8
DEFAULT
 10
-120.1109555555555
 20
26.25093527777777
 30
0.0
 11
-115.8489413888889
 21
21.6506425
 31
0.0
  0
LINE
  5
FA
  8
DEFAULT
 10
-115.8489413888889
 20
21.6506425
 30
0.0
 11
-120.1109555555555
 21
17.05031444444444
 31
0.0
  0
LINE
  5
FB
  8
DEFAULT
 10
-118.46052
 20
19.52455666666667
 30
0.0
 11
-124.5755347222222
 21
20.91545361111111
 31
0.0
  0
LINE
  5
FC
  8
DEFAULT
 10
-124.5755347222222
 20
20.91545361111111
 30
0.0
 11
-126.4285
 21
14.92426388888889
 31
0.0
  0
LINE
  5
FD
  8
DEFAULT
 10
-123.4605452777778
 20
15.11645722222222
 30
0.0
 11
-129.5755247222222
 21
13.72556027777778
 31
0.0
  0
LINE
  5
FE
  8
DEFAULT
 10
-129.5755247222222
 20
13.72556027777778
 30
0.0
 11
-131.42849
 21
19.71675
 31
0.0
  0
LINE
  5
FF
  8
DEFAULT
 10
-130.1109708333333
 20
26.25093527777777
 30
0.0
 11
-125.8489213888889
 21
21.6506425
 31
0.0
  0
LINE
  5
100
  8
DEFAULT
 10
-125.8489213888889
 20
21.6506425
 30
0.0
 11
-130.1109708333333
 21
17.05031444444444
 31
0.0
  0
LINE
  5
101
  8
DEFAULT
 10
-128.4605352777778
 20
19.52455666666667
 30
0.0
 11
-134.57555
 21
20.91545361111111
 31
0.0
  0
LINE
  5
102
  8
DEFAULT
 10
-134.57555
 20
20.91545361111111
 30
0.0
 11
-136.4285152777778
 21
14.92426388888889
 31
0.0
  0
LINE
  5
103
  8
DEFAULT
 10
-65.11095972222222
 20
17.59069944444444
 30
0.0
 11
-60.84894555555555
 21
12.99037138888889
 31
0.0
  0
LINE
  5
104
  8
DEFAULT
 10
-60.84894555555555
 20
12.99037138888889
 30
0.0
 11
-65.11095972222222
 21
8.390078611111111
 31
0.0
  0
LINE
  5
105
  8
DEFAULT
 10
-63.46052416666667
 20
10.86432083333333
 30
0.0
 11
-69.57553888888889
 21
12.2551825
 31
0.0
  0
LINE
  5
106
  8
DEFAULT
 10
-69.57553888888889
 20
12.2551825
 30
0.0
 11
-71.42850416666666
 21
6.263992777777777
 31
0.0
  0
LINE
  5
107
  8
DEFAULT
 10
-68.46051416666666
 20
6.45618611111111
 30
0.0
 11
-74.57552888888888
 21
5.065324444444443
 31
0.0
  0
LINE
  5
108
  8
DEFAULT
 10
-74.57552888888888
 20
5.065324444444443
 30
0.0
 11
-76.42849416666665
 21
11.05651416666667
 31
0.0
  0
LINE
  5
109
  8
DEFAULT
 10
-75.110975
 20
17.59069944444444
 30
0.0
 11
-70.84892555555555
 21
12.99037138888889
 31
0.0
  0
LINE
  5
10A
  8
DEFAULT
 10
-70.84892555555555
 20
12.99037138888889
 30
0.0
 11
-75.110975
 21
8.390078611111111
 31
0.0
  0
LINE
  5
10B
  8
DEFAULT
 10
-73.46053944444444
 20
10.86432083333333
 30
0.0
 11
-79.57551888888888
 21
12.2551825
 31
0.0
  0
LINE
  5
10C
  8
DEFAULT
 10
-79.57551888888888
 20
12.2551825
 30
0.0
 11
-81.42851944444443
 21
6.263992777777777
 31
0.0
  0
LINE
  5
10D
  8
DEFAULT
 10
-78.46052944444445
 20
6.45618611111111
 30
0.0
 11
-84.57554416666666
 21
5.065324444444443
 31
0.0
  0
LINE
  5
10E
  8
DEFAULT
 10
-84.57554416666666
 20
5.065324444444443
 30
0.0
 11
-86.42850944444444
 21
11.05651416666667
 31
0.0
  0
LINE
  5
10F
  8
DEFAULT
 10
-85.11095499999999
 20
17.59069944444444
 30
0.0
 11
-80.84894083333333
 21
12.99037138888889
 31
0.0
  0
LINE
  5
110
  8
DEFAULT
 10
-80.84894083333333
 20
12.99037138888889
 30
0.0
 11
-85.11095499999999
 21
8.390078611111111
 31
0.0
  0
LINE
  5
111
  8
DEFAULT
 10
-83.46051944444443
 20
10.86432083333333
 30
0.0
 11
-89.57553416666666
 21
12.2551825
 31
0.0
  0
LINE
  5
112
  8
DEFAULT
 10
-89.57553416666666
 20
12.2551825
 30
0.0
 11
-91.42849944444443
 21
6.263992777777777
 31
0.0
  0
LINE
  5
113
  8
DEFAULT
 10
-88.46054472222221
 20
6.45618611111111
 30
0.0
 11
-94.57552416666665
 21
5.065324444444443
 31
0.0
  0
LINE
  5
114
  8
DEFAULT
 10
-94.57552416666665
 20
5.065324444444443
 30
0.0
 11
-96.42848944444444
 21
11.05651416666667
 31
0.0
  0
LINE
  5
115
  8
DEFAULT
 10
-95.11097027777778
 20
17.59069944444444
 30
0.0
 11
-90.84892083333332
 21
12.99037138888889
 31
0.0
  0
LINE
  5
116
  8
DEFAULT
 10
-90.84892083333332
 20
12.99037138888889
 30
0.0
 11
-95.11097027777778
 21
8.390078611111111
 31
0.0
  0
LINE
  5
117
  8
DEFAULT
 10
-93.46053472222222
 20
10.86432083333333
 30
0.0
 11
-99.57554944444443
 21
12.2551825
 31
0.0
  0
LINE
  5
118
  8
DEFAULT
 10
-99.57554944444443
 20
12.2551825
 30
0.0
 11
-101.4285147222222
 21
6.263992777777777
 31
0.0
  0
LINE
  5
119
  8
DEFAULT
 10
-98.46052472222222
 20
6.45618611111111
 30
0.0
 11
-104.5755394444444
 21
5.065324444444443
 31
0.0
  0
LINE
  5
11A
  8
DEFAULT
 10
-104.5755394444444
 20
5.065324444444443
 30
0.0
 11
-106.4285047222222
 21
11.05651416666667
 31
0.0
  0
LINE
  5
11B
  8
DEFAULT
 10
-105.1109855555555
 20
17.59069944444444
 30
0.0
 11
-100.8489361111111
 21
12.99037138888889
 31
0.0
  0
LINE
  5
11C
  8
DEFAULT
 10
-100.8489361111111
 20
12.99037138888889
 30
0.0
 11
-105.1109855555555
 21
8.390078611111111
 31
0.0
  0
LINE
  5
11D
  8
DEFAULT
 10
-103.4605147222222
 20
10.86432083333333
 30
0.0
 11
-109.5755294444444
 21
12.2551825
 31
0.0
  0
LINE
  5
11E
  8
DEFAULT
 10
-109.5755294444444
 20
12.2551825
 30
0.0
 11
-111.4284947222222
 21
6.263992777777777
 31
0.0
  0
LINE
  5
11F
  8
DEFAULT
 10
-108.46054
 20
6.45618611111111
 30
0.0
 11
-114.5755194444444
 21
5.065324444444443
 31
0.0
  0
LINE
  5
120
  8
DEFAULT
 10
-114.5755194444444
 20
5.065324444444443
 30
0.0
 11
-116.42852
 21
11.05651416666667
 31
0.0
  0
LINE
  5
121
  8
DEFAULT
 10
-115.1109655555556
 20
17.59069944444444
 30
0.0
 11
-110.8489513888889
 21
12.99037138888889
 31
0.0
  0
LINE
  5
122
  8
DEFAULT
 10
-110.8489513888889
 20
12.99037138888889
 30
0.0
 11
-115.1109655555556
 21
8.390078611111111
 31
0.0
  0
LINE
  5
123
  8
DEFAULT
 10
-113.46053
 20
10.86432083333333
 30
0.0
 11
-119.5755447222222
 21
12.2551825
 31
0.0
  0
LINE
  5
124
  8
DEFAULT
 10
-119.5755447222222
 20
12.2551825
 30
0.0
 11
-121.42851
 21
6.263992777777777
 31
0.0
  0
LINE
  5
125
  8
DEFAULT
 10
-118.46052
 20
6.45618611111111
 30
0.0
 11
-124.5755347222222
 21
5.065324444444443
 31
0.0
  0
LINE
  5
126
  8
DEFAULT
 10
-124.5755347222222
 20
5.065324444444443
 30
0.0
 11
-126.4285
 21
11.05651416666667
 31
0.0
  0
LINE
  5
127
  8
DEFAULT
 10
-125.1109808333333
 20
17.59069944444444
 30
0.0
 11
-120.8489313888889
 21
12.99037138888889
 31
0.0
  0
LINE
  5
128
  8
DEFAULT
 10
-120.8489313888889
 20
12.99037138888889
 30
0.0
 11
-125.1109808333333
 21
8.390078611111111
 31
0.0
  0
LINE
  5
129
  8
DEFAULT
 10
-123.4605452777778
 20
10.86432083333333
 30
0.0
 11
-129.5755247222222
 21
12.2551825
 31
0.0
  0
LINE
  5
12A
  8
DEFAULT
 10
-129.5755247222222
 20
12.2551825
 30
0.0
 11
-131.42849
 21
6.263992777777777
 31
0.0
  0
LINE
  5
12B
  8
DEFAULT
 10
-128.4605352777778
 20
6.45618611111111
 30
0.0
 11
-134.57555
 21
5.065324444444443
 31
0.0
  0
LINE
  5
12C
  8
DEFAULT
 10
-134.57555
 20
5.065324444444443
 30
0.0
 11
-136.4285152777778
 21
11.05651416666667
 31
0.0
  0
LINE
  5
12D
  8
DEFAULT
 10
-135.1109608333333
 20
17.59069944444444
 30
0.0
 11
-130.8489466666666
 21
12.99037138888889
 31
0.0
  0
LINE
  5
12E
  8
DEFAULT
 10
-130.8489466666666
 20
12.99037138888889
 30
0.0
 11
-135.1109608333333
 21
8.390078611111111
 31
0.0
  0
LINE
  5
12F
  8
DEFAULT
 10
-63.46052416666667
 20
-2.204049722222222
 30
0.0
 11
-69.57553888888889
 21
-3.594946666666667
 31
0.0
  0
LINE
  5
130
  8
DEFAULT
 10
-69.57553888888889
 20
-3.594946666666667
 30
0.0
 11
-71.42850416666666
 21
2.396243055555555
 31
0.0
  0
LINE
  5
131
  8
DEFAULT
 10
-70.110985
 20
8.930428333333332
 30
0.0
 11
-65.84893555555556
 21
4.330135555555555
 31
0.0
  0
LINE
  5
132
  8
DEFAULT
 10
-65.84893555555556
 20
4.330135555555555
 30
0.0
 11
-70.110985
 21
-0.2701925
 31
0.0
  0
LINE
  5
133
  8
DEFAULT
 10
-68.46051416666666
 20
2.204049722222222
 30
0.0
 11
-74.57552888888888
 21
3.594946666666667
 31
0.0
  0
LINE
  5
134
  8
DEFAULT
 10
-74.57552888888888
 20
3.594946666666667
 30
0.0
 11
-76.42849416666665
 21
-2.396243055555555
 31
0.0
  0
LINE
  5
135
  8
DEFAULT
 10
-73.46053944444444
 20
-2.204049722222222
 30
0.0
 11
-79.57551888888888
 21
-3.594946666666667
 31
0.0
  0
LINE
  5
136
  8
DEFAULT
 10
-79.57551888888888
 20
-3.594946666666667
 30
0.0
 11
-81.42851944444443
 21
2.396243055555555
 31
0.0
  0
LINE
  5
137
  8
DEFAULT
 10
-80.110965
 20
8.930428333333332
 30
0.0
 11
-75.84895083333332
 21
4.330135555555555
 31
0.0
  0
LINE
  5
138
  8
DEFAULT
 10
-75.84895083333332
 20
4.330135555555555
 30
0.0
 11
-80.110965
 21
-0.2701925
 31
0.0
  0
LINE
  5
139
  8
DEFAULT
 10
-78.46052944444445
 20
2.204049722222222
 30
0.0
 11
-84.57554416666666
 21
3.594946666666667
 31
0.0
  0
LINE
  5
13A
  8
DEFAULT
 10
-84.57554416666666
 20
3.594946666666667
 30
0.0
 11
-86.42850944444444
 21
-2.396243055555555
 31
0.0
  0
LINE
  5
13B
  8
DEFAULT
 10
-83.46051944444443
 20
-2.204049722222222
 30
0.0
 11
-89.57553416666666
 21
-3.594946666666667
 31
0.0
  0
LINE
  5
13C
  8
DEFAULT
 10
-89.57553416666666
 20
-3.594946666666667
 30
0.0
 11
-91.42849944444443
 21
2.396243055555555
 31
0.0
  0
LINE
  5
13D
  8
DEFAULT
 10
-90.11098027777777
 20
8.930428333333332
 30
0.0
 11
-85.84893083333333
 21
4.330135555555555
 31
0.0
  0
LINE
  5
13E
  8
DEFAULT
 10
-85.84893083333333
 20
4.330135555555555
 30
0.0
 11
-90.11098027777777
 21
-0.2701925
 31
0.0
  0
LINE
  5
13F
  8
DEFAULT
 10
-88.46054472222221
 20
2.204049722222222
 30
0.0
 11
-94.57552416666665
 21
3.594946666666667
 31
0.0
  0
LINE
  5
140
  8
DEFAULT
 10
-94.57552416666665
 20
3.594946666666667
 30
0.0
 11
-96.42848944444444
 21
-2.396243055555555
 31
0.0
  0
LINE
  5
141
  8
DEFAULT
 10
-93.46053472222222
 20
-2.204049722222222
 30
0.0
 11
-99.57554944444443
 21
-3.594946666666667
 31
0.0
  0
LINE
  5
142
  8
DEFAULT
 10
-99.57554944444443
 20
-3.594946666666667
 30
0.0
 11
-101.4285147222222
 21
2.396243055555555
 31
0.0
  0
LINE
  5
143
  8
DEFAULT
 10
-100.1109602777778
 20
8.930428333333332
 30
0.0
 11
-95.84894611111109
 21
4.330135555555555
 31
0.0
  0
LINE
  5
144
  8
DEFAULT
 10
-95.84894611111109
 20
4.330135555555555
 30
0.0
 11
-100.1109602777778
 21
-0.2701925
 31
0.0
  0
LINE
  5
145
  8
DEFAULT
 10
-98.46052472222222
 20
2.204049722222222
 30
0.0
 11
-104.5755394444444
 21
3.594946666666667
 31
0.0
  0
LINE
  5
146
  8
DEFAULT
 10
-104.5755394444444
 20
3.594946666666667
 30
0.0
 11
-106.4285047222222
 21
-2.396243055555555
 31
0.0
  0
LINE
  5
147
  8
DEFAULT
 10
-103.4605147222222
 20
-2.204049722222222
 30
0.0
 11
-109.5755294444444
 21
-3.594946666666667
 31
0.0
  0
LINE
  5
148
  8
DEFAULT
 10
-109.5755294444444
 20
-3.594946666666667
 30
0.0
 11
-111.4284947222222
 21
2.396243055555555
 31
0.0
  0
LINE
  5
149
  8
DEFAULT
 10
-110.1109755555556
 20
8.930428333333332
 30
0.0
 11
-105.8489261111111
 21
4.330135555555555
 31
0.0
  0
LINE
  5
14A
  8
DEFAULT
 10
-105.8489261111111
 20
4.330135555555555
 30
0.0
 11
-110.1109755555556
 21
-0.2701925
 31
0.0
  0
LINE
  5
14B
  8
DEFAULT
 10
-108.46054
 20
2.204049722222222
 30
0.0
 11
-114.5755194444444
 21
3.594946666666667
 31
0.0
  0
LINE
  5
14C
  8
DEFAULT
 10
-114.5755194444444
 20
3.594946666666667
 30
0.0
 11
-116.42852
 21
-2.396243055555555
 31
0.0
  0
LINE
  5
14D
  8
DEFAULT
 10
-113.46053
 20
-2.204049722222222
 30
0.0
 11
-119.5755447222222
 21
-3.594946666666667
 31
0.0
  0
LINE
  5
14E
  8
DEFAULT
 10
-119.5755447222222
 20
-3.594946666666667
 30
0.0
 11
-121.42851
 21
2.396243055555555
 31
0.0
  0
LINE
  5
14F
  8
DEFAULT
 10
-120.1109555555555
 20
8.930428333333332
 30
0.0
 11
-115.8489413888889
 21
4.330135555555555
 31
0.0
  0
LINE
  5
150
  8
DEFAULT
 10
-115.8489413888889
 20
4.330135555555555
 30
0.0
 11
-120.1109555555555
 21
-0.2701925
 31
0.0
  0
LINE
  5
151
  8
DEFAULT
 10
-118.46052
 20
2.204049722222222
 30
0.0
 11
-124.5755347222222
 21
3.594946666666667
 31
0.0
  0
LINE
  5
152
  8
DEFAULT
 10
-124.5755347222222
 20
3.594946666666667
 30
0.0
 11
-126.4285
 21
-2.396243055555555
 31
0.0
  0
LINE
  5
153
  8
DEFAULT
 10
-123.4605452777778
 20
-2.204049722222222
 30
0.0
 11
-129.5755247222222
 21
-3.594946666666667
 31
0.0
  0
LINE
  5
154
  8
DEFAULT
 10
-129.5755247222222
 20
-3.594946666666667
 30
0.0
 11
-131.42849
 21
2.396243055555555
 31
0.0
  0
LINE
  5
155
  8
DEFAULT
 10
-130.1109708333333
 20
8.930428333333332
 30
0.0
 11
-125.8489213888889
 21
4.330135555555555
 31
0.0
  0
LINE
  5
156
  8
DEFAULT
 10
-125.8489213888889
 20
4.330135555555555
 30
0.0
 11
-130.1109708333333
 21
-0.2701925
 31
0.0
  0
LINE
  5
157
  8
DEFAULT
 10
-128.4605352777778
 20
2.204049722222222
 30
0.0
 11
-134.57555
 21
3.594946666666667
 31
0.0
  0
LINE
  5
158
  8
DEFAULT
 10
-134.57555
 20
3.594946666666667
 30
0.0
 11
-136.4285152777778
 21
-2.396243055555555
 31
0.0
  0
LINE
  5
159
  8
DEFAULT
 10
-65.11095972222222
 20
0.2701925
 30
0.0
 11
-60.84894555555555
 21
-4.330135555555555
 31
0.0
  0
LINE
  5
15A
  8
DEFAULT
 10
-60.84894555555555
 20
-4.330135555555555
 30
0.0
 11
-65.11095972222222
 21
-8.930428333333332
 31
0.0
  0
LINE
  5
15B
  8
DEFAULT
 10
-63.46052416666667
 20
-6.45618611111111
 30
0.0
 11
-69.57553888888889
 21
-5.065324444444443
 31
0.0
  0
LINE
  5
15C
  8
DEFAULT
 10
-69.57553888888889
 20
-5.065324444444443
 30
0.0
 11
-71.42850416666666
 21
-11.05651416666667
 31
0.0
  0
LINE
  5
15D
  8
DEFAULT
 10
-68.46051416666666
 20
-10.86432083333333
 30
0.0
 11
-74.57552888888888
 21
-12.2551825
 31
0.0
  0
LINE
  5
15E
  8
DEFAULT
 10
-74.57552888888888
 20
-12.2551825
 30
0.0
 11
-76.42849416666665
 21
-6.263992777777777
 31
0.0
  0
LINE
  5
15F
  8
DEFAULT
 10
-75.110975
 20
0.2701925
 30
0.0
 11
-70.84892555555555
 21
-4.330135555555555
 31
0.0
  0
LINE
  5
160
  8
DEFAULT
 10
-70.84892555555555
 20
-4.330135555555555
 30
0.0
 11
-75.110975
 21
-8.930428333333332
 31
0.0
  0
LINE
  5
161
  8
DEFAULT
 10
-73.46053944444444
 20
-6.45618611111111
 30
0.0
 11
-79.57551888888888
 21
-5.065324444444443
 31
0.0
  0
LINE
  5
162
  8
DEFAULT
 10
-79.57551888888888
 20
-5.065324444444443
 30
0.0
 11
-81.42851944444443
 21
-11.05651416666667
 31
0.0
  0
LINE
  5
163
  8
DEFAULT
 10
-78.46052944444445
 20
-10.86432083333333
 30
0.0
 11
-84.57554416666666
 21
-12.2551825
 31
0.0
  0
LINE
  5
164
  8
DEFAULT
 10
-84.57554416666666
 20
-12.2551825
 30
0.0
 11
-86.42850944444444
 21
-6.263992777777777
 31
0.0
  0
LINE
  5
165
  8
DEFAULT
 10
-85.11095499999999
 20
0.2701925
 30
0.0
 11
-80.84894083333333
 21
-4.330135555555555
 31
0.0
  0
LINE
  5
166
  8
DEFAULT
 10
-80.84894083333333
 20
-4.330135555555555
 30
0.0
 11
-85.11095499999999
 21
-8.930428333333332
 31
0.0
  0
LINE
  5
167
  8
DEFAULT
 10
-83.46051944444443
 20
-6.45618611111111
 30
0.0
 11
-89.57553416666666
 21
-5.065324444444443
 31
0.0
  0
LINE
  5
168
  8
DEFAULT
 10
-89.57553416666666
 20
-5.065324444444443
 30
0.0
 11
-91.42849944444443
 21
-11.05651416666667
 31
0.0
  0
LINE
  5
169
  8
DEFAULT
 10
-88.46054472222221
 20
-10.86432083333333
 30
0.0
 11
-94.57552416666665
 21
-12.2551825
 31
0.0
  0
LINE
  5
16A
  8
DEFAULT
 10
-94.57552416666665
 20
-12.2551825
 30
0.0
 11
-96.42848944444444
 21
-6.263992777777777
 31
0.0
  0
LINE
  5
16B
  8
DEFAULT
 10
-95.11097027777778
 20
0.2701925
 30
0.0
 11
-90.84892083333332
 21
-4.330135555555555
 31
0.0
  0
LINE
  5
16C
  8
DEFAULT
 10
-90.84892083333332
 20
-4.330135555555555
 30
0.0
 11
-95.11097027777778
 21
-8.930428333333332
 31
0.0
  0
LINE
  5
16D
  8
DEFAULT
 10
-93.46053472222222
 20
-6.45618611111111
 30
0.0
 11
-99.57554944444443
 21
-5.065324444444443
 31
0.0
  0
LINE
  5
16E
  8
DEFAULT
 10
-99.57554944444443
 20
-5.065324444444443
 30
0.0
 11
-101.4285147222222
 21
-11.05651416666667
 31
0.0
  0
LINE
  5
16F
  8
DEFAULT
 10
-98.46052472222222
 20
-10.86432083333333
 30
0.0
 11
-104.5755394444444
 21
-12.2551825
 31
0.0
  0
LINE
  5
170
  8
DEFAULT
 10
-104.5755394444444
 20
-12.2551825
 30
0.0
 11
-106.4285047222222
 21
-6.263992777777777
 31
0.0
  0
LINE
  5
171
  8
DEFAULT
 10
-105.1109855555555
 20
0.2701925
 30
0.0
 11
-100.8489361111111
 21
-4.330135555555555
 31
0.0
  0
LINE
  5
172
  8
DEFAULT
 10
-100.8489361111111
 20
-4.330135555555555
 30
0.0
 11
-105.1109855555555
 21
-8.930428333333332
 31
0.0
  0
LINE
  5
173
  8
DEFAULT
 10
-103.4605147222222
 20
-6.45618611111111
 30
0.0
 11
-109.5755294444444
 21
-5.065324444444443
 31
0.0
  0
LINE
  5
174
  8
DEFAULT
 10
-109.5755294444444
 20
-5.065324444444443
 30
0.0
 11
-111.4284947222222
 21
-11.05651416666667
 31
0.0
  0
LINE
  5
175
  8
DEFAULT
 10
-108.46054
 20
-10.86432083333333
 30
0.0
 11
-114.5755194444444
 21
-12.2551825
 31
0.0
  0
LINE
  5
176
  8
DEFAULT
 10
-114.5755194444444
 20
-12.2551825
 30
0.0
 11
-116.42852
 21
-6.263992777777777
 31
0.0
  0
LINE
  5
177
  8
DEFAULT
 10
-115.1109655555556
 20
0.2701925
 30
0.0
 11
-110.8489513888889
 21
-4.330135555555555
 31
0.0
  0
LINE
  5
178
  8
DEFAULT
 10
-110.8489513888889
 20
-4.330135555555555
 30
0.0
 11
-115.1109655555556
 21
-8.930428333333332
 31
0.0
  0
LINE
  5
179
  8
DEFAULT
 10
-113.46053
 20
-6.45618611111111
 30
0.0
 11
-119.5755447222222
 21
-5.065324444444443
 31
0.0
  0
LINE
  5
17A
  8
DEFAULT
 10
-119.5755447222222
 20
-5.065324444444443
 30
0.0
 11
-121.42851
 21
-11.05651416666667
 31
0.0
  0
LINE
  5
17B
  8
DEFAULT
 10
-118.46052
 20
-10.86432083333333
 30
0.0
 11
-124.5755347222222
 21
-12.2551825
 31
0.0
  0
LINE
  5
17C
  8
DEFAULT
 10
-124.5755347222222
 20
-12.2551825
 30
0.0
 11
-126.4285
 21
-6.263992777777777
 31
0.0
  0
LINE
  5
17D
  8
DEFAULT
 10
-125.1109808333333
 20
0.2701925
 30
0.0
 11
-120.8489313888889
 21
-4.330135555555555
 31
0.0
  0
LINE
  5
17E
  8
DEFAULT
 10
-120.8489313888889
 20
-4.330135555555555
 30
0.0
 11
-125.1109808333333
 21
-8.930428333333332
 31
0.0
  0
LINE
  5
17F
  8
DEFAULT
 10
-123.4605452777778
 20
-6.45618611111111
 30
0.0
 11
-129.5755247222222
 21
-5.065324444444443
 31
0.0
  0
LINE
  5
180
  8
DEFAULT
 10
-129.5755247222222
 20
-5.065324444444443
 30
0.0
 11
-131.42849
 21
-11.05651416666667
 31
0.0
  0
LINE
  5
181
  8
DEFAULT
 10
-128.4605352777778
 20
-10.86432083333333
 30
0.0
 11
-134.57555
 21
-12.2551825
 31
0.0
  0
LINE
  5
182
  8
DEFAULT
 10
-134.57555
 20
-12.2551825
 30
0.0
 11
-136.4285152777778
 21
-6.263992777777777
 31
0.0
  0
LINE
  5
183
  8
DEFAULT
 10
-135.1109608333333
 20
0.2701925
 30
0.0
 11
-130.8489466666666
 21
-4.330135555555555
 31
0.0
  0
LINE
  5
184
  8
DEFAULT
 10
-130.8489466666666
 20
-4.330135555555555
 30
0.0
 11
-135.1109608333333
 21
-8.930428333333332
 31
0.0
  0
LINE
  5
185
  8
DEFAULT
 10
-63.46052416666667
 20
-19.52455666666667
 30
0.0
 11
-69.57553888888889
 21
-20.91545361111111
 31
0.0
  0
LINE
  5
186
  8
DEFAULT
 10
-69.57553888888889
 20
-20.91545361111111
 30
0.0
 11
-71.42850416666666
 21
-14.92426388888889
 31
0.0
  0
LINE
  5
187
  8
DEFAULT
 10
-70.110985
 20
-8.390078611111111
 30
0.0
 11
-65.84893555555556
 21
-12.99037138888889
 31
0.0
  0
LINE
  5
188
  8
DEFAULT
 10
-65.84893555555556
 20
-12.99037138888889
 30
0.0
 11
-70.110985
 21
-17.59069944444444
 31
0.0
  0
LINE
  5
189
  8
DEFAULT
 10
-68.46051416666666
 20
-15.11645722222222
 30
0.0
 11
-74.57552888888888
 21
-13.72556027777778
 31
0.0
  0
LINE
  5
18A
  8
DEFAULT
 10
-74.57552888888888
 20
-13.72556027777778
 30
0.0
 11
-76.42849416666665
 21
-19.71675
 31
0.0
  0
LINE
  5
18B
  8
DEFAULT
 10
-73.46053944444444
 20
-19.52455666666667
 30
0.0
 11
-79.57551888888888
 21
-20.91545361111111
 31
0.0
  0
LINE
  5
18C
  8
DEFAULT
 10
-79.57551888888888
 20
-20.91545361111111
 30
0.0
 11
-81.42851944444443
 21
-14.92426388888889
 31
0.0
  0
LINE
  5
18D
  8
DEFAULT
 10
-80.110965
 20
-8.390078611111111
 30
0.0
 11
-75.84895083333332
 21
-12.99037138888889
 31
0.0
  0
LINE
  5
18E
  8
DEFAULT
 10
-75.84895083333332
 20
-12.99037138888889
 30
0.0
 11
-80.110965
 21
-17.59069944444444
 31
0.0
  0
LINE
  5
18F
  8
DEFAULT
 10
-78.46052944444445
 20
-15.11645722222222
 30
0.0
 11
-84.57554416666666
 21
-13.72556027777778
 31
0.0
  0
LINE
  5
190
  8
DEFAULT
 10
-84.57554416666666
 20
-13.72556027777778
 30
0.0
 11
-86.42850944444444
 21
-19.71675
 31
0.0
  0
LINE
  5
191
  8
DEFAULT
 10
-83.46051944444443
 20
-19.52455666666667
 30
0.0
 11
-89.57553416666666
 21
-20.91545361111111
 31
0.0
  0
LINE
  5
192
  8
DEFAULT
 10
-89.57553416666666
 20
-20.91545361111111
 30
0.0
 11
-91.42849944444443
 21
-14.92426388888889
 31
0.0
  0
LINE
  5
193
  8
DEFAULT
 10
-90.11098027777777
 20
-8.390078611111111
 30
0.0
 11
-85.84893083333333
 21
-12.99037138888889
 31
0.0
  0
LINE
  5
194
  8
DEFAULT
 10
-85.84893083333333
 20
-12.99037138888889
 30
0.0
 11
-90.11098027777777
 21
-17.59069944444444
 31
0.0
  0
LINE
  5
195
  8
DEFAULT
 10
-88.46054472222221
 20
-15.11645722222222
 30
0.0
 11
-94.57552416666665
 21
-13.72556027777778
 31
0.0
  0
LINE
  5
196
  8
DEFAULT
 10
-94.57552416666665
 20
-13.72556027777778
 30
0.0
 11
-96.42848944444444
 21
-19.71675
 31
0.0
  0
LINE
  5
197
  8
DEFAULT
 10
-93.46053472222222
 20
-19.52455666666667
 30
0.0
 11
-99.57554944444443
 21
-20.91545361111111
 31
0.0
  0
LINE
  5
198
  8
DEFAULT
 10
-99.57554944444443
 20
-20.91545361111111
 30
0.0
 11
-101.4285147222222
 21
-14.92426388888889
 31
0.0
  0
LINE
  5
199
  8
DEFAULT
 10
-100.1109602777778
 20
-8.390078611111111
 30
0.0
 11
-95.84894611111109
 21
-12.99037138888889
 31
0.0
  0
LINE
  5
19A
  8
DEFAULT
 10
-95.84894611111109
 20
-12.99037138888889
 30
0.0
 11
-100.1109602777778
 21
-17.59069944444444
 31
0.0
  0
LINE
  5
19B
  8
DEFAULT
 10
-98.46052472222222
 20
-15.11645722222222
 30
0.0
 11
-104.5755394444444
 21
-13.72556027777778
 31
0.0
  0
LINE
  5
19C
  8
DEFAULT
 10
-104.5755394444444
 20
-13.72556027777778
 30
0.0
 11
-106.4285047222222
 21
-19.71675
 31
0.0
  0
LINE
  5
19D
  8
DEFAULT
 10
-103.4605147222222
 20
-19.52455666666667
 30
0.0
 11
-109.5755294444444
 21
-20.91545361111111
 31
0.0
  0
LINE
  5
19E
  8
DEFAULT
 10
-109.5755294444444
 20
-20.91545361111111
 30
0.0
 11
-111.4284947222222
 21
-14.92426388888889
 31
0.0
  0
LINE
  5
19F
  8
DEFAULT
 10
-110.1109755555556
 20
-8.390078611111111
 30
0.0
 11
-105.8489261111111
 21
-12.99037138888889
 31
0.0
  0
LINE
  5
1A0
  8
DEFAULT
 10
-105.8489261111111
 20
-12.99037138888889
 30
0.0
 11
-110.1109755555556
 21
-17.59069944444444
 31
0.0
  0
LINE
  5
1A1
  8
DEFAULT
 10
-108.46054
 20
-15.11645722222222
 30
0.0
 11
-114.5755194444444
 21
-13.72556027777778
 31
0.0
  0
LINE
  5
1A2
  8
DEFAULT
 10
-114.5755194444444
 20
-13.72556027777778
 30
0.0
 11
-116.42852
 21
-19.71675
 31
0.0
  0
LINE
  5
1A3
  8
DEFAULT
 10
-113.46053
 20
-19.52455666666667
 30
0.0
 11
-119.5755447222222
 21
-20.91545361111111
 31
0.0
  0
LINE
  5
1A4
  8
DEFAULT
 10
-119.5755447222222
 20
-20.91545361111111
 30
0.0
 11
-121.42851
 21
-14.92426388888889
 31
0.0
  0
LINE
  5
1A5
  8
DEFAULT
 10
-120.1109555555555
 20
-8.390078611111111
 30
0.0
 11
-115.8489413888889
 21
-12.99037138888889
 31
0.0
  0
LINE
  5
1A6
  8
DEFAULT
 10
-115.8489413888889
 20
-12.99037138888889
 30
0.0
 11
-120.1109555555555
 21
-17.59069944444444
 31
0.0
  0
LINE
  5
1A7
  8
DEFAULT
 10
-118.46052
 20
-15.11645722222222
 30
0.0
 11
-124.5755347222222
 21
-13.72556027777778
 31
0.0
  0
LINE
  5
1A8
  8
DEFAULT
 10
-124.5755347222222
 20
-13.72556027777778
 30
0.0
 11
-126.4285
 21
-19.71675
 31
0.0
  0
LINE
  5
1A9
  8
DEFAULT
 10
-123.4605452777778
 20
-19.52455666666667
 30
0.0
 11
-129.5755247222222
 21
-20.91545361111111
 31
0.0
  0
LINE
  5
1AA
  8
DEFAULT
 10
-129.5755247222222
 20
-20.91545361111111
 30
0.0
 11
-131.42849
 21
-14.92426388888889
 31
0.0
  0
LINE
  5
1AB
  8
DEFAULT
 10
-130.1109708333333
 20
-8.390078611111111
 30
0.0
 11
-125.8489213888889
 21
-12.99037138888889
 31
0.0
  0
LINE
  5
1AC
  8
DEFAULT
 10
-125.8489213888889
 20
-12.99037138888889
 30
0.0
 11
-130.1109708333333
 21
-17.59069944444444
 31
0.0
  0
LINE
  5
1AD
  8
DEFAULT
 10
-128.4605352777778
 20
-15.11645722222222
 30
0.0
 11
-134.57555
 21
-13.72556027777778
 31
0.0
  0
LINE
  5
1AE
  8
DEFAULT
 10
-134.57555
 20
-13.72556027777778
 30
0.0
 11
-136.4285152777778
 21
-19.71675
 31
0.0
  0
LINE
  5
1AF
  8
DEFAULT
 10
-65.11095972222222
 20
-17.05031444444444
 30
0.0
 11
-60.84894555555555
 21
-21.6506425
 31
0.0
  0
LINE
  5
1B0
  8
DEFAULT
 10
-60.84894555555555
 20
-21.6506425
 30
0.0
 11
-65.11095972222222
 21
-26.25093527777777
 31
0.0
  0
LINE
  5
1B1
  8
DEFAULT
 10
-63.46052416666667
 20
-23.77669305555555
 30
0.0
 11
-69.57553888888889
 21
-22.38583138888889
 31
0.0
  0
LINE
  5
1B2
  8
DEFAULT
 10
-69.57553888888889
 20
-22.38583138888889
 30
0.0
 11
-71.42850416666666
 21
-28.37702111111111
 31
0.0
  0
LINE
  5
1B3
  8
DEFAULT
 10
-68.46051416666666
 20
-28.18482777777778
 30
0.0
 11
-74.57552888888888
 21
-29.57568944444444
 31
0.0
  0
LINE
  5
1B4
  8
DEFAULT
 10
-74.57552888888888
 20
-29.57568944444444
 30
0.0
 11
-76.42849416666665
 21
-23.58449972222222
 31
0.0
  0
LINE
  5
1B5
  8
DEFAULT
 10
-75.110975
 20
-17.05031444444444
 30
0.0
 11
-70.84892555555555
 21
-21.6506425
 31
0.0
  0
LINE
  5
1B6
  8
DEFAULT
 10
-70.84892555555555
 20
-21.6506425
 30
0.0
 11
-75.110975
 21
-26.25093527777777
 31
0.0
  0
LINE
  5
1B7
  8
DEFAULT
 10
-73.46053944444444
 20
-23.77669305555555
 30
0.0
 11
-79.57551888888888
 21
-22.38583138888889
 31
0.0
  0
LINE
  5
1B8
  8
DEFAULT
 10
-79.57551888888888
 20
-22.38583138888889
 30
0.0
 11
-81.42851944444443
 21
-28.37702111111111
 31
0.0
  0
LINE
  5
1B9
  8
DEFAULT
 10
-78.46052944444445
 20
-28.18482777777778
 30
0.0
 11
-84.57554416666666
 21
-29.57568944444444
 31
0.0
  0
LINE
  5
1BA
  8
DEFAULT
 10
-84.57554416666666
 20
-29.57568944444444
 30
0.0
 11
-86.42850944444444
 21
-23.58449972222222
 31
0.0
  0
LINE
  5
1BB
  8
DEFAULT
 10
-85.11095499999999
 20
-17.05031444444444
 30
0.0
 11
-80.84894083333333
 21
-21.6506425
 31
0.0
  0
LINE
  5
1BC
  8
DEFAULT
 10
-80.84894083333333
 20
-21.6506425
 30
0.0
 11
-85.11095499999999
 21
-26.25093527777777
 31
0.0
  0
LINE
  5
1BD
  8
DEFAULT
 10
-83.46051944444443
 20
-23.77669305555555
 30
0.0
 11
-89.57553416666666
 21
-22.38583138888889
 31
0.0
  0
LINE
  5
1BE
  8
DEFAULT
 10
-89.57553416666666
 20
-22.38583138888889
 30
0.0
 11
-91.42849944444443
 21
-28.37702111111111
 31
0.0
  0
LINE
  5
1BF
  8
DEFAULT
 10
-88.46054472222221
 20
-28.18482777777778
 30
0.0
 11
-94.57552416666665
 21
-29.57568944444444
 31
0.0
  0
LINE
  5
1C0
  8
DEFAULT
 10
-94.57552416666665
 20
-29.57568944444444
 30
0.0
 11
-96.42848944444444
 21
-23.58449972222222
 31
0.0
  0
LINE
  5
1C1
  8
DEFAULT
 10
-95.11097027777778
 20
-17.05031444444444
 30
0.0
 11
-90.84892083333332
 21
-21.6506425
 31
0.0
  0
LINE
  5
1C2
  8
DEFAULT
 10
-90.84892083333332
 20
-21.6506425
 30
0.0
 11
-95.11097027777778
 21
-26.25093527777777
 31
0.0
  0
LINE
  5
1C3
  8
DEFAULT
 10
-93.46053472222222
 20
-23.77669305555555
 30
0.0
 11
-99.57554944444443
 21
-22.38583138888889
 31
0.0
  0
LINE
  5
1C4
  8
DEFAULT
 10
-99.57554944444443
 20
-22.38583138888889
 30
0.0
 11
-101.4285147222222
 21
-28.37702111111111
 31
0.0
  0
LINE
  5
1C5
  8
DEFAULT
 10
-98.46052472222222
 20
-28.18482777777778
 30
0.0
 11
-104.5755394444444
 21
-29.57568944444444
 31
0.0
  0
LINE
  5
1C6
  8
DEFAULT
 10
-104.5755394444444
 20
-29.57568944444444
 30
0.0
 11
-106.4285047222222
 21
-23.58449972222222
 31
0.0
  0
LINE
  5
1C7
  8
DEFAULT
 10
-105.1109855555555
 20
-17.05031444444444
 30
0.0
 11
-100.8489361111111
 21
-21.6506425
 31
0.0
  0
LINE
  5
1C8
  8
DEFAULT
 10
-100.8489361111111
 20
-21.6506425
 30
0.0
 11
-105.1109855555555
 21
-26.25093527777777
 31
0.0
  0
LINE
  5
1C9
  8
DEFAULT
 10
-103.4605147222222
 20
-23.77669305555555
 30
0.0
 11
-109.5755294444444
 21
-22.38583138888889
 31
0.0
  0
LINE
  5
1CA
  8
DEFAULT
 10
-109.5755294444444
 20
-22.38583138888889
 30
0.0
 11
-111.4284947222222
 21
-28.37702111111111
 31
0.0
  0
LINE
  5
1CB
  8
DEFAULT
 10
-108.46054
 20
-28.18482777777778
 30
0.0
 11
-114.5755194444444
 21
-29.57568944444444
 31
0.0
  0
LINE
  5
1CC
  8
DEFAULT
 10
-114.5755194444444
 20
-29.57568944444444
 30
0.0
 11
-116.42852
 21
-23.58449972222222
 31
0.0
  0
LINE
  5
1CD
  8
DEFAULT
 10
-115.1109655555556
 20
-17.05031444444444
 30
0.0
 11
-110.8489513888889
 21
-21.6506425
 31
0.0
  0
LINE
  5
1CE
  8
DEFAULT
 10
-110.8489513888889
 20
-21.6506425
 30
0.0
 11
-115.1109655555556
 21
-26.25093527777777
 31
0.0
  0
LINE
  5
1CF
  8
DEFAULT
 10
-113.46053
 20
-23.77669305555555
 30
0.0
 11
-119.5755447222222
 21
-22.38583138888889
 31
0.0
  0
LINE
  5
1D0
  8
DEFAULT
 10
-119.5755447222222
 20
-22.38583138888889
 30
0.0
 11
-121.42851
 21
-28.37702111111111
 31
0.0
  0
LINE
  5
1D1
  8
DEFAULT
 10
-118.46052
 20
-28.18482777777778
 30
0.0
 11
-124.5755347222222
 21
-29.57568944444444
 31
0.0
  0
LINE
  5
1D2
  8
DEFAULT
 10
-124.5755347222222
 20
-29.57568944444444
 30
0.0
 11
-126.4285
 21
-23.58449972222222
 31
0.0
  0
LINE
  5
1D3
  8
DEFAULT
 10
-125.1109808333333
 20
-17.05031444444444
 30
0.0
 11
-120.8489313888889
 21
-21.6506425
 31
0.0
  0
LINE
  5
1D4
  8
DEFAULT
 10
-120.8489313888889
 20
-21.6506425
 30
0.0
 11
-125.1109808333333
 21
-26.25093527777777
 31
0.0
  0
LINE
  5
1D5
  8
DEFAULT
 10
-123.4605452777778
 20
-23.77669305555555
 30
0.0
 11
-129.5755247222222
 21
-22.38583138888889
 31
0.0
  0
LINE
  5
1D6
  8
DEFAULT
 10
-129.5755247222222
 20
-22.38583138888889
 30
0.0
 11
-131.42849
 21
-28.37702111111111
 31
0.0
  0
LINE
  5
1D7
  8
DEFAULT
 10
-128.4605352777778
 20
-28.18482777777778
 30
0.0
 11
-134.57555
 21
-29.57568944444444
 31
0.0
  0
LINE
  5
1D8
  8
DEFAULT
 10
-134.57555
 20
-29.57568944444444
 30
0.0
 11
-136.4285152777778
 21
-23.58449972222222
 31
0.0
  0
LINE
  5
1D9
  8
DEFAULT
 10
-135.1109608333333
 20
-17.05031444444444
 30
0.0
 11
-130.8489466666666
 21
-21.6506425
 31
0.0
  0
LINE
  5
1DA
  8
DEFAULT
 10
-130.8489466666666
 20
-21.6506425
 30
0.0
 11
-135.1109608333333
 21
-26.25093527777777
 31
0.0
  0
LINE
  5
1DB
  8
DEFAULT
 10
-70.110985
 20
-25.71058555555555
 30
0.0
 11
-65.84893555555556
 21
-30.31087833333333
 31
0.0
  0
LINE
  5
1DC
  8
DEFAULT
 10
-65.84893555555556
 20
-30.31087833333333
 30
0.0
 11
-70.110985
 21
-34.91120638888889
 31
0.0
  0
LINE
  5
1DD
  8
DEFAULT
 10
-68.46051416666666
 20
-32.43696416666666
 30
0.0
 11
-74.57552888888888
 21
-31.0461025
 31
0.0
  0
LINE
  5
1DE
  8
DEFAULT
 10
-74.57552888888888
 20
-31.0461025
 30
0.0
 11
-76.42849416666665
 21
-37.03725694444444
 31
0.0
  0
LINE
  5
1DF
  8
DEFAULT
 10
-73.46053944444444
 20
-36.84506361111111
 30
0.0
 11
-79.57551888888888
 21
-38.23596055555555
 31
0.0
  0
LINE
  5
1E0
  8
DEFAULT
 10
-79.57551888888888
 20
-38.23596055555555
 30
0.0
 11
-81.42851944444443
 21
-32.24477083333333
 31
0.0
  0
LINE
  5
1E1
  8
DEFAULT
 10
-80.110965
 20
-25.71058555555555
 30
0.0
 11
-75.84895083333332
 21
-30.31087833333333
 31
0.0
  0
LINE
  5
1E2
  8
DEFAULT
 10
-75.84895083333332
 20
-30.31087833333333
 30
0.0
 11
-80.110965
 21
-34.91120638888889
 31
0.0
  0
LINE
  5
1E3
  8
DEFAULT
 10
-78.46052944444445
 20
-32.43696416666666
 30
0.0
 11
-84.57554416666666
 21
-31.0461025
 31
0.0
  0
LINE
  5
1E4
  8
DEFAULT
 10
-84.57554416666666
 20
-31.0461025
 30
0.0
 11
-86.42850944444444
 21
-37.03725694444444
 31
0.0
  0
LINE
  5
1E5
  8
DEFAULT
 10
-83.46051944444443
 20
-36.84506361111111
 30
0.0
 11
-89.57553416666666
 21
-38.23596055555555
 31
0.0
  0
LINE
  5
1E6
  8
DEFAULT
 10
-89.57553416666666
 20
-38.23596055555555
 30
0.0
 11
-91.42849944444443
 21
-32.24477083333333
 31
0.0
  0
LINE
  5
1E7
  8
DEFAULT
 10
-90.11098027777777
 20
-25.71058555555555
 30
0.0
 11
-85.84893083333333
 21
-30.31087833333333
 31
0.0
  0
LINE
  5
1E8
  8
DEFAULT
 10
-85.84893083333333
 20
-30.31087833333333
 30
0.0
 11
-90.11098027777777
 21
-34.91120638888889
 31
0.0
  0
LINE
  5
1E9
  8
DEFAULT
 10
-88.46054472222221
 20
-32.43696416666666
 30
0.0
 11
-94.57552416666665
 21
-31.0461025
 31
0.0
  0
LINE
  5
1EA
  8
DEFAULT
 10
-94.57552416666665
 20
-31.0461025
 30
0.0
 11
-96.42848944444444
 21
-37.03725694444444
 31
0.0
  0
LINE
  5
1EB
  8
DEFAULT
 10
-93.46053472222222
 20
-36.84506361111111
 30
0.0
 11
-99.57554944444443
 21
-38.23596055555555
 31
0.0
  0
LINE
  5
1EC
  8
DEFAULT
 10
-99.57554944444443
 20
-38.23596055555555
 30
0.0
 11
-101.4285147222222
 21
-32.24477083333333
 31
0.0
  0
LINE
  5
1ED
  8
DEFAULT
 10
-100.1109602777778
 20
-25.71058555555555
 30
0.0
 11
-95.84894611111109
 21
-30.31087833333333
 31
0.0
  0
LINE
  5
1EE
  8
DEFAULT
 10
-95.84894611111109
 20
-30.31087833333333
 30
0.0
 11
-100.1109602777778
 21
-34.91120638888889
 31
0.0
  0
LINE
  5
1EF
  8
DEFAULT
 10
-98.46052472222222
 20
-32.43696416666666
 30
0.0
 11
-104.5755394444444
 21
-31.0461025
 31
0.0
  0
LINE
  5
1F0
  8
DEFAULT
 10
-104.5755394444444
 20
-31.0461025
 30
0.0
 11
-106.4285047222222
 21
-37.03725694444444
 31
0.0
  0
LINE
  5
1F1
  8
DEFAULT
 10
-103.4605147222222
 20
-36.84506361111111
 30
0.0
 11
-109.5755294444444
 21
-38.23596055555555
 31
0.0
  0
LINE
  5
1F2
  8
DEFAULT
 10
-109.5755294444444
 20
-38.23596055555555
 30
0.0
 11
-111.4284947222222
 21
-32.24477083333333
 31
0.0
  0
LINE
  5
1F3
  8
DEFAULT
 10
-110.1109755555556
 20
-25.71058555555555
 30
0.0
 11
-105.8489261111111
 21
-30.31087833333333
 31
0.0
  0
LINE
  5
1F4
  8
DEFAULT
 10
-105.8489261111111
 20
-30.31087833333333
 30
0.0
 11
-110.1109755555556
 21
-34.91120638888889
 31
0.0
  0
LINE
  5
1F5
  8
DEFAULT
 10
-108.46054
 20
-32.43696416666666
 30
0.0
 11
-114.5755194444444
 21
-31.0461025
 31
0.0
  0
LINE
  5
1F6
  8
DEFAULT
 10
-114.5755194444444
 20
-31.0461025
 30
0.0
 11
-116.42852
 21
-37.03725694444444
 31
0.0
  0
LINE
  5
1F7
  8
DEFAULT
 10
-113.46053
 20
-36.84506361111111
 30
0.0
 11
-119.5755447222222
 21
-38.23596055555555
 31
0.0
  0
LINE
  5
1F8
  8
DEFAULT
 10
-119.5755447222222
 20
-38.23596055555555
 30
0.0
 11
-121.42851
 21
-32.24477083333333
 31
0.0
  0
LINE
  5
1F9
  8
DEFAULT
 10
-120.1109555555555
 20
-25.71058555555555
 30
0.0
 11
-115.8489413888889
 21
-30.31087833333333
 31
0.0
  0
LINE
  5
1FA
  8
DEFAULT
 10
-115.8489413888889
 20
-30.31087833333333
 30
0.0
 11
-120.1109555555555
 21
-34.91120638888889
 31
0.0
  0
LINE
  5
1FB
  8
DEFAULT
 10
-118.46052
 20
-32.43696416666666
 30
0.0
 11
-124.5755347222222
 21
-31.0461025
 31
0.0
  0
LINE
  5
1FC
  8
DEFAULT
 10
-124.5755347222222
 20
-31.0461025
 30
0.0
 11
-126.4285
 21
-37.03725694444444
 31
0.0
  0
LINE
  5
1FD
  8
DEFAULT
 10
-123.4605452777778
 20
-36.84506361111111
 30
0.0
 11
-129.5755247222222
 21
-38.23596055555555
 31
0.0
  0
LINE
  5
1FE
  8
DEFAULT
 10
-129.5755247222222
 20
-38.23596055555555
 30
0.0
 11
-131.42849
 21
-32.24477083333333
 31
0.0
  0
LINE
  5
1FF
  8
DEFAULT
 10
-130.1109708333333
 20
-25.71058555555555
 30
0.0
 11
-125.8489213888889
 21
-30.31087833333333
 31
0.0
  0
LINE
  5
200
  8
DEFAULT
 10
-125.8489213888889
 20
-30.31087833333333
 30
0.0
 11
-130.1109708333333
 21
-34.91120638888889
 31
0.0
  0
ENDSEC
  0
EOF
