<?xml version="1.0" encoding="utf-8" standalone="no"?>
<!DOCTYPE svg PUBLIC "-//W3C//DTD SVG 1.1//EN" "http://www.w3.org/Graphics/SVG/1.1/DTD/svg11.dtd">
<svg version="1.1" width="595.2pt" height="841.7pt" viewBox="0 0 595.2 841.68" xmlns="http://www.w3.org/2000/svg">
  <defs />
  <g id="Default">
    <path d="M285.44003,363.61862 L305.45358,366.1055" stroke="#000000" stroke-width="0.24" stroke-linecap="round" stroke-linejoin="round" fill="none" />
    <path d="M339.8111,363.61835 L320.03177,366.04266" stroke="#000000" stroke-width="0.24" stroke-linecap="round" stroke-linejoin="round" fill="none" />
    <path d="M297.88037,364.59796 L312.4663,358.09842 L327.2607,364.5926" stroke="#000000" stroke-width="0.24" stroke-linecap="round" stroke-linejoin="round" fill="none" />
    <path d="M320.74652,362.4741 L318.6574,366.28387 L315.58444,371.60376 L326.90085,373.06345 L336.52383,374.24432" stroke="#000000" stroke-width="0.24" stroke-linecap="round" stroke-linejoin="round" fill="none" />
    <path d="M254.0855,371.7257 L275.4663,374.3876" stroke="#000000" stroke-width="0.24" stroke-linecap="round" stroke-linejoin="round" fill="none" />
    <path d="M370.9656,371.55484 L350.9425,374.11844" stroke="#000000" stroke-width="0.24" stroke-linecap="round" stroke-linejoin="round" fill="none" />
    <path d="M288.98236,374.56793 L299.76013,373.03802 L309.98865,371.56738 L306.8529,366.35205 L304.51053,362.40717" stroke="#000000" stroke-width="0.24" stroke-linecap="round" stroke-linejoin="round" fill="none" />
    <path d="M328.08112,372.6134 L334.84348,369.43866 L342.86578,365.7714 L351.61905,369.62643 L358.45242,372.56442" stroke="#000000" stroke-width="0.24" stroke-linecap="round" stroke-linejoin="round" fill="none" />
    <path d="M266.52448,372.65427 L274.18988,369.24133 L282.51224,365.67667 L290.27048,369.11276 L298.47202,372.5926" stroke="#000000" stroke-width="0.24" stroke-linecap="round" stroke-linejoin="round" fill="none" />
    <path d="M351.46106,370.3065 L349.55112,374.37265 L346.84915,379.78723 L358.4286,381.29248 L368.2723,382.51028" stroke="#000000" stroke-width="0.24" stroke-linecap="round" stroke-linejoin="round" fill="none" />
    <path d="M222.56444,379.87567 L244.26755,382.9373" stroke="#000000" stroke-width="0.24" stroke-linecap="round" stroke-linejoin="round" fill="none" />
    <path d="M290.0636,369.8373 L287.4871,374.85828 L284.57086,379.86905 L294.28494,381.40704 L307.0798,383.218" stroke="#000000" stroke-width="0.24" stroke-linecap="round" stroke-linejoin="round" fill="none" />
    <path d="M403.08365,379.73682 L382.99323,382.31375" stroke="#000000" stroke-width="0.24" stroke-linecap="round" stroke-linejoin="round" fill="none" />
    <path d="M319.5079,383.15433 L331.7598,381.33908 L341.57034,379.85623 L337.99988,374.4994 L335.13882,370.13428" stroke="#000000" stroke-width="0.24" stroke-linecap="round" stroke-linejoin="round" fill="none" />
    <path d="M257.08334,383.13986 L269.60376,381.38214 L279.8444,379.92548 L276.95175,374.64755 L274.4145,369.9539" stroke="#000000" stroke-width="0.24" stroke-linecap="round" stroke-linejoin="round" fill="none" />
    <path d="M359.59985,380.8283 L366.27487,377.5548 L374.19778,373.77414 L383.41275,377.82663 L390.2664,380.7723" stroke="#000000" stroke-width="0.24" stroke-linecap="round" stroke-linejoin="round" fill="none" />
    <path d="M234.31845,380.86276 L243.39867,377.06042 L251.6594,373.54218 L259.12186,376.80994 L268.27032,380.89383" stroke="#000000" stroke-width="0.24" stroke-linecap="round" stroke-linejoin="round" fill="none" />
    <path d="M295.6614,380.91235 L305.328,376.7058 L312.91086,373.50513 L320.67212,376.82968 L330.3636,380.86017" stroke="#000000" stroke-width="0.24" stroke-linecap="round" stroke-linejoin="round" fill="none" />
    <path d="M406.52832,382.15173 L392.5597,389.24292" stroke="#000000" stroke-width="0.24" stroke-linecap="round" stroke-linejoin="round" fill="none" />
    <path d="M383.28772,378.52078 L381.60605,382.5702 L379.30066,388.16965 L391.4227,389.70294 L400.65466,390.87778" stroke="#000000" stroke-width="0.24" stroke-linecap="round" stroke-linejoin="round" fill="none" />
    <path d="M189.90761,388.31946 L211.60202,391.33118" stroke="#000000" stroke-width="0.24" stroke-linecap="round" stroke-linejoin="round" fill="none" />
    <path d="M320.49973,377.60886 L317.93967,383.4685 L315.5386,388.39627 L325.28918,389.9316 L339.2041,391.95343" stroke="#000000" stroke-width="0.24" stroke-linecap="round" stroke-linejoin="round" fill="none" />
    <path d="M258.8387,377.5908 L255.4657,383.44638 L252.4275,388.43542 L261.25858,389.9223 L276.20383,392.29892" stroke="#000000" stroke-width="0.24" stroke-linecap="round" stroke-linejoin="round" fill="none" />
    <path d="M351.5164,391.68094 L363.82648,389.84674 L373.78763,388.31186 L369.78687,382.77338 L366.6168,378.27203" stroke="#000000" stroke-width="0.24" stroke-linecap="round" stroke-linejoin="round" fill="none" />
    <path d="M224.67805,391.78503 L237.83669,389.85452 L247.96875,388.3385 L245.7911,383.23306 L243.54753,377.8205" stroke="#000000" stroke-width="0.24" stroke-linecap="round" stroke-linejoin="round" fill="none" />
    <path d="M287.20428,392.37946 L302.57126,389.91504 L311.35748,388.45444 L308.69934,383.5273 L305.57074,377.49527" stroke="#000000" stroke-width="0.24" stroke-linecap="round" stroke-linejoin="round" fill="none" />
    <path d="M202.14603,389.33502 L211.02948,385.57602 L219.84135,381.81186 L227.08296,385.0698 L236.48895,389.35385" stroke="#000000" stroke-width="0.24" stroke-linecap="round" stroke-linejoin="round" fill="none" />
    <path d="M326.6939,389.41183 L336.9184,384.82587 L344.2415,381.67224 L352.38245,385.1838 L362.38477,389.3488" stroke="#000000" stroke-width="0.24" stroke-linecap="round" stroke-linejoin="round" fill="none" />
    <path d="M262.79276,389.39978 L282.0559,381.52127 L301.05148,389.39273" stroke="#000000" stroke-width="0.24" stroke-linecap="round" stroke-linejoin="round" fill="none" />
    <path d="M156.72437,396.8992 L177.46365,399.7276" stroke="#000000" stroke-width="0.24" stroke-linecap="round" stroke-linejoin="round" fill="none" />
    <path d="M352.2444,385.9871 L349.938,392.00067 L347.8574,397.09824 L358.32864,398.66272 L371.75668,400.59167" stroke="#000000" stroke-width="0.24" stroke-linecap="round" stroke-linejoin="round" fill="none" />
    <path d="M226.76378,385.88242 L223.00908,392.1122 L219.76912,397.13904 L228.3964,398.67996 L243.71686,401.22397" stroke="#000000" stroke-width="0.24" stroke-linecap="round" stroke-linejoin="round" fill="none" />
    <path d="M288.78232,385.26248 L283.5,397.2054 L308.77493,401.90588" stroke="#000000" stroke-width="0.24" stroke-linecap="round" stroke-linejoin="round" fill="none" />
    <path d="M385.0163,400.09192 L395.87494,398.59076 L406.72983,396.95776 L402.1604,391.1474 L398.99988,386.8801" stroke="#000000" stroke-width="0.24" stroke-linecap="round" stroke-linejoin="round" fill="none" />
    <path d="M191.85352,400.24445 L203.85042,398.59872 L215.14876,397.03894 L213.11278,391.62378 L211.14867,386.34628" stroke="#000000" stroke-width="0.24" stroke-linecap="round" stroke-linejoin="round" fill="none" />
    <path d="M169.68109,398.00168 L177.33138,394.73224 L186.99057,390.47333 L194.54533,394.08124 L202.58679,398.0895" stroke="#000000" stroke-width="0.24" stroke-linecap="round" stroke-linejoin="round" fill="none" />
    <path d="M359.68842,398.1358 L369.1457,393.657 L376.57144,390.23767 L385.6212,394.24725 L394.46945,398.08408" stroke="#000000" stroke-width="0.24" stroke-linecap="round" stroke-linejoin="round" fill="none" />
    <path d="M318.9364,401.53674 L335.50836,398.66608 L343.7141,397.21173 L340.90442,392.28296 L337.21268,385.65866" stroke="#000000" stroke-width="0.24" stroke-linecap="round" stroke-linejoin="round" fill="none" />
    <path d="M254.37323,401.62277 L271.56467,398.65463 L279.75595,397.2188 L277.90607,392.65588 L275.00586,385.33438" stroke="#000000" stroke-width="0.24" stroke-linecap="round" stroke-linejoin="round" fill="none" />
    <path d="M230.00275,398.14072 L242.84753,392.9834 L250.23721,389.9912 L256.6049,392.5928 L269.97873,398.1134" stroke="#000000" stroke-width="0.24" stroke-linecap="round" stroke-linejoin="round" fill="none" />
    <path d="M292.57947,398.05154 L307.31064,392.36325 L313.38647,389.99078 L320.18008,392.67035 L333.87527,398.12402" stroke="#000000" stroke-width="0.24" stroke-linecap="round" stroke-linejoin="round" fill="none" />
    <path d="M153.0571,399.45786 L166.99715,407.01398" stroke="#000000" stroke-width="0.24" stroke-linecap="round" stroke-linejoin="round" fill="none" />
    <path d="M409.95575,399.13336 L394.59973,407.1068" stroke="#000000" stroke-width="0.24" stroke-linecap="round" stroke-linejoin="round" fill="none" />
    <path d="M385.494,395.03796 L383.4855,400.38855 L381.38733,406.03384 L393.3556,407.62775 L404.791,409.16028" stroke="#000000" stroke-width="0.24" stroke-linecap="round" stroke-linejoin="round" fill="none" />
    <path d="M194.1538,394.88638 L190.19577,400.554 L186.15627,406.09702 L195.83817,407.71802 L209.61298,409.89905" stroke="#000000" stroke-width="0.24" stroke-linecap="round" stroke-linejoin="round" fill="none" />
    <path d="M158.52823,408.7571 L168.14003,407.50443 L180.78128,405.87662 L178.89517,400.00775 L177.40855,395.4818" stroke="#000000" stroke-width="0.24" stroke-linecap="round" stroke-linejoin="round" fill="none" />
    <path d="M320.0411,393.5884 L317.16522,401.93512 L315.7083,406.22723 L323.51758,407.6533 L341.72232,411.00424" stroke="#000000" stroke-width="0.24" stroke-linecap="round" stroke-linejoin="round" fill="none" />
    <path d="M256.36838,393.5164 L250.66142,406.23453 L276.62836,411.6775" stroke="#000000" stroke-width="0.24" stroke-linecap="round" stroke-linejoin="round" fill="none" />
    <path d="M352.35764,410.4368 L368.08655,407.68707 L376.7433,406.151 L373.46634,400.92117 L369.49356,394.49744" stroke="#000000" stroke-width="0.24" stroke-linecap="round" stroke-linejoin="round" fill="none" />
    <path d="M221.18126,410.53082 L246.9084,406.20694 L242.95851,393.87775" stroke="#000000" stroke-width="0.24" stroke-linecap="round" stroke-linejoin="round" fill="none" />
    <path d="M197.41551,407.17038 L209.07628,402.33545 L217.38734,398.83884 L223.98282,401.6834 L236.42029,407.15524" stroke="#000000" stroke-width="0.24" stroke-linecap="round" stroke-linejoin="round" fill="none" />
    <path d="M325.16943,407.0998 L339.5918,401.24512 L345.72424,398.81122 L353.074,401.79916 L366.43777,407.1377" stroke="#000000" stroke-width="0.24" stroke-linecap="round" stroke-linejoin="round" fill="none" />
    <path d="M285.68652,411.77042 L306.00882,407.49896 L311.97705,406.22037 L310.58658,402.33646 L307.45554,393.3018" stroke="#000000" stroke-width="0.24" stroke-linecap="round" stroke-linejoin="round" fill="none" />
    <path d="M258.62952,406.98013 L281.56003,398.73105 L304.20612,406.95828" stroke="#000000" stroke-width="0.24" stroke-linecap="round" stroke-linejoin="round" fill="none" />
    <path d="M160.50731,404.49557 L156.95503,409.04465 L151.8674,415.23523 L163.0255,416.97473 L174.01578,418.55847" stroke="#000000" stroke-width="0.24" stroke-linecap="round" stroke-linejoin="round" fill="none" />
    <path d="M352.98376,402.72546 L350.6206,410.8353 L349.1997,415.4832 L358.86725,417.08545 L375.00208,419.70428" stroke="#000000" stroke-width="0.24" stroke-linecap="round" stroke-linejoin="round" fill="none" />
    <path d="M223.67372,402.61905 L219.33186,410.93283 L216.892,415.51965 L224.04382,416.97235 L242.63153,420.6839" stroke="#000000" stroke-width="0.24" stroke-linecap="round" stroke-linejoin="round" fill="none" />
    <path d="M286.63394,401.61087 L282.93506,415.5335 L310.0381,421.839" stroke="#000000" stroke-width="0.24" stroke-linecap="round" stroke-linejoin="round" fill="none" />
    <path d="M387.3808,419.00525 L400.24594,417.05048 L410.80154,415.36884 L406.44504,409.46567 L402.55118,404.0029" stroke="#000000" stroke-width="0.24" stroke-linecap="round" stroke-linejoin="round" fill="none" />
    <path d="M187.61743,419.20496 L201.93701,417.05978 L212.81215,415.4413 L211.27701,410.2543 L209.16588,403.2202" stroke="#000000" stroke-width="0.24" stroke-linecap="round" stroke-linejoin="round" fill="none" />
    <path d="M164.50594,416.43643 L173.7961,412.38922 L183.43623,408.0882 L190.79138,411.6325 L200.54968,416.49686" stroke="#000000" stroke-width="0.24" stroke-linecap="round" stroke-linejoin="round" fill="none" />
    <path d="M360.37967,416.50983 L372.09338,411.08575 L379.12085,407.92044 L387.99533,411.84723 L398.70416,416.4914" stroke="#000000" stroke-width="0.24" stroke-linecap="round" stroke-linejoin="round" fill="none" />
    <path d="M318.86017,421.3147 L345.26105,415.51883 L339.80566,402.212" stroke="#000000" stroke-width="0.24" stroke-linecap="round" stroke-linejoin="round" fill="none" />
    <path d="M251.98369,421.44824 L279.21716,415.53345 L276.1852,401.67953" stroke="#000000" stroke-width="0.24" stroke-linecap="round" stroke-linejoin="round" fill="none" />
    <path d="M148.30742,417.7651 L162.97942,426.01764" stroke="#000000" stroke-width="0.24" stroke-linecap="round" stroke-linejoin="round" fill="none" />
    <path d="M225.85707,416.40118 L248.69885,407.78256 L271.6143,416.2344" stroke="#000000" stroke-width="0.24" stroke-linecap="round" stroke-linejoin="round" fill="none" />
    <path d="M289.72888,416.12833 L309.5574,409.28162 L313.90027,407.79602 L319.13733,409.68292 L337.51135,416.25497" stroke="#000000" stroke-width="0.24" stroke-linecap="round" stroke-linejoin="round" fill="none" />
    <path d="M413.67535,417.5624 L397.28397,426.08258" stroke="#000000" stroke-width="0.24" stroke-linecap="round" stroke-linejoin="round" fill="none" />
    <path d="M387.88385,412.73306 L385.7301,419.34894 L384.05148,424.97446 L395.94876,426.64307 L408.75272,428.52094" stroke="#000000" stroke-width="0.24" stroke-linecap="round" stroke-linejoin="round" fill="none" />
    <path d="M190.38263,412.5362 L185.8177,419.56387 L182.07193,425.09357 L191.6834,426.78128 L207.00201,429.3391" stroke="#000000" stroke-width="0.24" stroke-linecap="round" stroke-linejoin="round" fill="none" />
    <path d="M153.54842,427.98553 L164.18024,426.5545 L177.22348,424.87274 L175.57074,418.87402 L173.87347,413.22943" stroke="#000000" stroke-width="0.24" stroke-linecap="round" stroke-linejoin="round" fill="none" />
    <path d="M319.12698,410.7245 L316.97842,421.8344 L316.31604,425.13693 L322.80023,426.52084 L343.7924,430.96033" stroke="#000000" stroke-width="0.24" stroke-linecap="round" stroke-linejoin="round" fill="none" />
    <path d="M253.4201,410.6172 L249.0877,425.14468 L276.39465,431.97162" stroke="#000000" stroke-width="0.24" stroke-linecap="round" stroke-linejoin="round" fill="none" />
    <path d="M353.82425,429.9893 L371.32837,426.71326 L379.66125,425.12918 L376.8565,420.09772 L372.4324,412.0331" stroke="#000000" stroke-width="0.24" stroke-linecap="round" stroke-linejoin="round" fill="none" />
    <path d="M218.05954,430.30313 L237.24811,426.63644 L245.25824,425.13004 L244.46826,421.15366 L242.3735,411.1916" stroke="#000000" stroke-width="0.24" stroke-linecap="round" stroke-linejoin="round" fill="none" />
    <path d="M193.36949,426.18124 L206.45227,420.64505 L214.74655,417.16217 L220.82045,419.77637 L235.56549,426.04877" stroke="#000000" stroke-width="0.24" stroke-linecap="round" stroke-linejoin="round" fill="none" />
    <path d="M324.61633,425.94077 L347.3094,417.1327 L369.56058,426.11612" stroke="#000000" stroke-width="0.24" stroke-linecap="round" stroke-linejoin="round" fill="none" />
    <path d="M284.68698,432.2813 L312.51083,425.1443 L309.57422,410.34445" stroke="#000000" stroke-width="0.24" stroke-linecap="round" stroke-linejoin="round" fill="none" />
    <path d="M255.38385,425.66733 L281.0301,417.13306 L306.76132,425.56598" stroke="#000000" stroke-width="0.24" stroke-linecap="round" stroke-linejoin="round" fill="none" />
    <path d="M155.85011,423.10403 L151.88297,428.2978 L146.73352,434.81006 L158.33861,436.63556 L169.82396,438.3492" stroke="#000000" stroke-width="0.24" stroke-linecap="round" stroke-linejoin="round" fill="none" />
    <path d="M354.40546,421.04626 L351.9832,430.4368 L350.83484,435.06772 L360.743,436.7349 L377.76334,439.6397" stroke="#000000" stroke-width="0.24" stroke-linecap="round" stroke-linejoin="round" fill="none" />
    <path d="M220.54808,420.81085 L214.19327,435.05334 L240.81981,440.82132" stroke="#000000" stroke-width="0.24" stroke-linecap="round" stroke-linejoin="round" fill="none" />
    <path d="M284.5323,419.3793 L282.43536,435.0833 L310.61084,442.14648" stroke="#000000" stroke-width="0.24" stroke-linecap="round" stroke-linejoin="round" fill="none" />
    <path d="M390.4053,438.9382 L404.05698,436.6628 L414.55304,434.87683 L410.50253,428.86874 L406.28577,422.5096" stroke="#000000" stroke-width="0.24" stroke-linecap="round" stroke-linejoin="round" fill="none" />
    <path d="M183.77927,439.01514 L198.69717,436.7476 L210.14272,435.05328 L208.7696,429.73315 L206.5373,421.617" stroke="#000000" stroke-width="0.24" stroke-linecap="round" stroke-linejoin="round" fill="none" />
    <path d="M159.88007,436.05713 L169.62944,431.6801 L179.60684,427.06573 L187.21526,430.88086 L197.26826,436.13843" stroke="#000000" stroke-width="0.24" stroke-linecap="round" stroke-linejoin="round" fill="none" />
    <path d="M362.3221,436.11942 L374.72485,430.2368 L381.87238,427.0051 L390.81677,431.02914 L402.42914,436.07294" stroke="#000000" stroke-width="0.24" stroke-linecap="round" stroke-linejoin="round" fill="none" />
    <path d="M319.4906,441.41025 L346.94006,435.08292 L342.11575,420.27997" stroke="#000000" stroke-width="0.24" stroke-linecap="round" stroke-linejoin="round" fill="none" />
    <path d="M143.17111,437.56232 L158.07266,446.276" stroke="#000000" stroke-width="0.24" stroke-linecap="round" stroke-linejoin="round" fill="none" />
    <path d="M250.2869,441.61926 L278.59073,435.08337 L276.93378,419.57706" stroke="#000000" stroke-width="0.24" stroke-linecap="round" stroke-linejoin="round" fill="none" />
    <path d="M222.98492,435.94373 L240.8564,429.19604 L247.05208,426.8281 L251.75563,428.55197 L271.12888,435.7783" stroke="#000000" stroke-width="0.24" stroke-linecap="round" stroke-linejoin="round" fill="none" />
    <path d="M288.86923,435.62393 L314.44858,426.798 L339.16306,435.8325" stroke="#000000" stroke-width="0.24" stroke-linecap="round" stroke-linejoin="round" fill="none" />
    <path d="M417.63724,437.19193 L401.1895,446.38184" stroke="#000000" stroke-width="0.24" stroke-linecap="round" stroke-linejoin="round" fill="none" />
    <path d="M390.73645,431.98532 L388.70013,439.32397 L387.1011,445.1693 L399.85556,446.98334 L412.39197,448.7776" stroke="#000000" stroke-width="0.24" stroke-linecap="round" stroke-linejoin="round" fill="none" />
    <path d="M186.77374,431.84955 L181.90501,439.39493 L178.06384,445.3126 L188.48917,447.0945 L203.61017,449.6608" stroke="#000000" stroke-width="0.24" stroke-linecap="round" stroke-linejoin="round" fill="none" />
    <path d="M148.70862,448.31558 L159.29645,446.8426 L172.99959,445.06042 L171.43698,438.68793 L169.70427,432.58173" stroke="#000000" stroke-width="0.24" stroke-linecap="round" stroke-linejoin="round" fill="none" />
    <path d="M319.67023,429.82703 L317.53586,441.9758 L316.966,445.35895 L324.65588,446.93073 L345.05737,451.1357" stroke="#000000" stroke-width="0.24" stroke-linecap="round" stroke-linejoin="round" fill="none" />
    <path d="M251.64964,429.6805 L247.40482,445.36734 L275.3267,451.917" stroke="#000000" stroke-width="0.24" stroke-linecap="round" stroke-linejoin="round" fill="none" />
    <path d="M356.0396,450.2823 L382.45462,445.33484 L375.07208,431.25635" stroke="#000000" stroke-width="0.24" stroke-linecap="round" stroke-linejoin="round" fill="none" />
    <path d="M215.62129,450.4551 L234.21155,447.06168 L243.44247,445.35153 L242.71637,441.34473 L240.84602,430.2871" stroke="#000000" stroke-width="0.24" stroke-linecap="round" stroke-linejoin="round" fill="none" />
    <path d="M190.2016,446.46014 L203.0794,440.7793 L211.91046,436.84048 L218.75108,439.98407 L232.54391,446.42133" stroke="#000000" stroke-width="0.24" stroke-linecap="round" stroke-linejoin="round" fill="none" />
    <path d="M326.4681,446.30273 L342.8846,439.40076 L349.01425,436.83957 L356.78937,440.16455 L371.48114,446.4195" stroke="#000000" stroke-width="0.24" stroke-linecap="round" stroke-linejoin="round" fill="none" />
    <path d="M284.61472,452.13284 L313.0287,445.36688 L310.42773,429.32513" stroke="#000000" stroke-width="0.24" stroke-linecap="round" stroke-linejoin="round" fill="none" />
    <path d="M255.31577,446.14304 L280.4637,436.79407 L305.47845,446.08618" stroke="#000000" stroke-width="0.24" stroke-linecap="round" stroke-linejoin="round" fill="none" />
    <path d="M150.99486,443.30054 L147.00517,448.64676 L141.72493,455.63132 L154.33284,457.5775 L164.81697,459.16467" stroke="#000000" stroke-width="0.24" stroke-linecap="round" stroke-linejoin="round" fill="none" />
    <path d="M356.6964,441.2335 L354.16284,450.74255 L352.92273,455.9319 L364.19446,457.7455 L379.94223,460.38422" stroke="#000000" stroke-width="0.24" stroke-linecap="round" stroke-linejoin="round" fill="none" />
    <path d="M218.41628,441.06683 L213.61508,450.92624 L211.19283,455.99814 L220.3689,457.751 L238.19751,461.2095" stroke="#000000" stroke-width="0.24" stroke-linecap="round" stroke-linejoin="round" fill="none" />
    <path d="M285.30533,439.7758 L282.58804,452.7344 L281.95407,455.99768 L289.30978,457.57938 L310.2676,462.166" stroke="#000000" stroke-width="0.24" stroke-linecap="round" stroke-linejoin="round" fill="none" />
    <path d="M394.149,459.69907 L406.76013,457.68445 L418.6823,455.7926 L414.1809,449.12933 L409.8409,442.73724" stroke="#000000" stroke-width="0.24" stroke-linecap="round" stroke-linejoin="round" fill="none" />
    <path d="M180.34346,459.8884 L194.33487,457.68927 L206.72395,455.8757 L205.40764,450.07114 L203.16803,441.80103" stroke="#000000" stroke-width="0.24" stroke-linecap="round" stroke-linejoin="round" fill="none" />
    <path d="M155.86504,456.98212 L164.7532,452.8246 L175.44112,447.71014 L183.52127,451.96063 L192.91081,457.06387" stroke="#000000" stroke-width="0.24" stroke-linecap="round" stroke-linejoin="round" fill="none" />
    <path d="M365.74097,457.10178 L376.96,451.38904 L384.82526,447.48633 L394.65408,452.161 L405.15692,457.0614" stroke="#000000" stroke-width="0.24" stroke-linecap="round" stroke-linejoin="round" fill="none" />
    <path d="M168.39633,466.67224 L164.82292,453.75192" stroke="#000000" stroke-width="0.24" stroke-linecap="round" stroke-linejoin="round" fill="none" />
    <path d="M320.942,461.73553 L340.4741,457.66772 L348.60092,455.98904 L347.07675,451.66287 L343.08908,440.52252" stroke="#000000" stroke-width="0.24" stroke-linecap="round" stroke-linejoin="round" fill="none" />
    <path d="M249.43617,461.8429 L269.74588,457.64783 L277.86716,455.99765 L277.3155,452.50253 L275.15097,439.92792" stroke="#000000" stroke-width="0.24" stroke-linecap="round" stroke-linejoin="round" fill="none" />
    <path d="M222.20554,457.09296 L245.29056,447.20145 L267.92368,456.99802" stroke="#000000" stroke-width="0.24" stroke-linecap="round" stroke-linejoin="round" fill="none" />
    <path d="M291.21603,456.9358 L315.03732,447.20105 L338.5929,457.016" stroke="#000000" stroke-width="0.24" stroke-linecap="round" stroke-linejoin="round" fill="none" />
    <path d="M421.97226,458.6696 L406.07877,468.01746" stroke="#000000" stroke-width="0.24" stroke-linecap="round" stroke-linejoin="round" fill="none" />
    <path d="M394.54407,453.1448 L392.43866,460.0781 L390.68033,466.713 L404.78088,468.62558 L415.67267,470.2066" stroke="#000000" stroke-width="0.24" stroke-linecap="round" stroke-linejoin="round" fill="none" />
    <path d="M183.08188,452.96136 L178.47632,460.2835 L174.34387,466.81598 L186.15758,468.7902 L199.44737,470.99615" stroke="#000000" stroke-width="0.24" stroke-linecap="round" stroke-linejoin="round" fill="none" />
    <path d="M321.81305,451.2103 L317.74332,467.00955 L345.60886,471.89612" stroke="#000000" stroke-width="0.24" stroke-linecap="round" stroke-linejoin="round" fill="none" />
    <path d="M251.47714,451.12564 L245.71225,467.01 L273.44876,472.42816" stroke="#000000" stroke-width="0.24" stroke-linecap="round" stroke-linejoin="round" fill="none" />
    <path d="M359.0396,471.46396 L374.01413,468.80597 L385.0805,466.88217 L381.8665,460.8112 L377.3347,452.4363" stroke="#000000" stroke-width="0.24" stroke-linecap="round" stroke-linejoin="round" fill="none" />
    <path d="M213.76909,471.57404 L229.80722,468.839 L241.28503,466.9593 L240.11388,461.6948 L237.60034,451.64566" stroke="#000000" stroke-width="0.24" stroke-linecap="round" stroke-linejoin="round" fill="none" />
    <path d="M187.817,468.14026 L198.97208,462.90128 L208.83296,458.19357 L216.8261,462.25266 L228.23398,468.1718" stroke="#000000" stroke-width="0.24" stroke-linecap="round" stroke-linejoin="round" fill="none" />
    <path d="M285.31384,472.5052 L304.17142,468.8619 L313.52917,467.02646 L312.2948,462.72745 L309.02945,450.87402" stroke="#000000" stroke-width="0.24" stroke-linecap="round" stroke-linejoin="round" fill="none" />
    <path d="M202.89821,478.16177 L201.20541,471.3986 L199.07388,463.93332" stroke="#000000" stroke-width="0.24" stroke-linecap="round" stroke-linejoin="round" fill="none" />
    <path d="M330.16296,468.2116 L342.90048,461.86673 L350.85028,458.06107 L359.88977,462.39282 L372.30557,468.14728" stroke="#000000" stroke-width="0.24" stroke-linecap="round" stroke-linejoin="round" fill="none" />
    <path d="M256.93024,468.16153 L272.13785,461.3634 L279.85635,457.8807 L287.31226,461.268 L302.36694,468.17462" stroke="#000000" stroke-width="0.24" stroke-linecap="round" stroke-linejoin="round" fill="none" />
    <path d="M359.76,463.4663 L357.20383,471.90253 L355.29715,478.27478 L369.07837,480.27518 L381.64636,482.1112" stroke="#000000" stroke-width="0.24" stroke-linecap="round" stroke-linejoin="round" fill="none" />
    <path d="M216.44229,463.33774 L211.8089,472.0167 L208.49237,478.31964 L220.38596,480.32394 L234.80743,482.78745" stroke="#000000" stroke-width="0.24" stroke-linecap="round" stroke-linejoin="round" fill="none" />
    <path d="M287.09418,462.42932 L283.29083,473.01117 L281.4655,478.43317 L292.79352,480.37158 L309.25577,483.2881" stroke="#000000" stroke-width="0.24" stroke-linecap="round" stroke-linejoin="round" fill="none" />
    <path d="M398.6523,481.66345 L422.43842,478.03757 L413.56848,464.8243" stroke="#000000" stroke-width="0.24" stroke-linecap="round" stroke-linejoin="round" fill="none" />
    <path d="M370.4853,479.60648 L378.88184,474.68442 L388.0098,469.57413 L399.01395,475.3014 L407.3402,479.47925" stroke="#000000" stroke-width="0.24" stroke-linecap="round" stroke-linejoin="round" fill="none" />
    <path d="M323.1503,483.0384 L338.6347,480.368 L350.32654,478.40634 L347.5996,472.35544 L343.22525,462.9828" stroke="#000000" stroke-width="0.24" stroke-linecap="round" stroke-linejoin="round" fill="none" />
    <path d="M249.17136,483.17523 L265.34705,480.33853 L276.92645,478.38934 L275.4282,472.9312 L272.28653,462.51724" stroke="#000000" stroke-width="0.24" stroke-linecap="round" stroke-linejoin="round" fill="none" />
    <path d="M222.07674,479.6399 L233.82716,473.9287 L243.38406,469.25104 L251.74986,473.50955 L263.70657,479.6467" stroke="#000000" stroke-width="0.24" stroke-linecap="round" stroke-linejoin="round" fill="none" />
    <path d="M394.44464,489.88104 L398.88864,476.2758" stroke="#000000" stroke-width="0.24" stroke-linecap="round" stroke-linejoin="round" fill="none" />
    <path d="M294.4917,479.67096 L307.14624,473.363 L315.6701,469.1313 L324.7218,473.6263 L336.94006,479.67136" stroke="#000000" stroke-width="0.24" stroke-linecap="round" stroke-linejoin="round" fill="none" />
    <path d="M238.72136,490.0913 L236.65396,483.2174 L233.9852,475.01956" stroke="#000000" stroke-width="0.24" stroke-linecap="round" stroke-linejoin="round" fill="none" />
    <path d="M324.50266,474.74182 L321.23758,483.48245 L318.94083,490.15445 L332.65808,492.191 L345.77042,494.2407" stroke="#000000" stroke-width="0.24" stroke-linecap="round" stroke-linejoin="round" fill="none" />
    <path d="M251.42133,474.6344 L247.20035,483.63434 L244.44292,490.09134 L256.79312,492.1442 L270.94446,494.6762" stroke="#000000" stroke-width="0.24" stroke-linecap="round" stroke-linejoin="round" fill="none" />
    <path d="M362.67288,493.88544 L374.07413,492.0919 L387.93042,490.03568 L383.49515,482.48712 L379.3214,475.71094" stroke="#000000" stroke-width="0.24" stroke-linecap="round" stroke-linejoin="round" fill="none" />
    <path d="M286.5712,494.65753 L300.94778,492.2042 L313.6411,490.1636 L311.2234,483.75134 L307.4152,474.49966" stroke="#000000" stroke-width="0.24" stroke-linecap="round" stroke-linejoin="round" fill="none" />
    <path d="M334.158,491.49945 L343.40643,486.2703 L352.84058,481.0661 L363.4984,486.73077 L372.5181,491.4247" stroke="#000000" stroke-width="0.24" stroke-linecap="round" stroke-linejoin="round" fill="none" />
    <path d="M258.4589,491.46024 L269.7072,485.84882 L279.18948,481.0312 L288.48596,485.81824 L299.3296,491.50674" stroke="#000000" stroke-width="0.24" stroke-linecap="round" stroke-linejoin="round" fill="none" />
    <path d="M358.01794,502.24982 L363.31604,487.7684" stroke="#000000" stroke-width="0.24" stroke-linecap="round" stroke-linejoin="round" fill="none" />
    <path d="M275.2337,502.25034 L272.8026,495.1279 L269.90042,486.96136" stroke="#000000" stroke-width="0.24" stroke-linecap="round" stroke-linejoin="round" fill="none" />
    <path d="M288.204,486.9333 L284.6705,495.09833 L281.72064,502.31644 L296.02396,504.47028 L307.8538,506.33286" stroke="#000000" stroke-width="0.24" stroke-linecap="round" stroke-linejoin="round" fill="none" />
    <path d="M325.80475,506.22018 L337.07877,504.42902 L351.44638,502.2876 L347.6442,494.64587 L343.77887,487.3469" stroke="#000000" stroke-width="0.24" stroke-linecap="round" stroke-linejoin="round" fill="none" />
    <path d="M297.53098,503.77747 L306.16934,498.90375 L316.36493,493.2074 L326.97058,499.05762 L335.55005,503.74612" stroke="#000000" stroke-width="0.24" stroke-linecap="round" stroke-linejoin="round" fill="none" />
    <path d="M320.57706,514.9629 L326.73044,500.12186" stroke="#000000" stroke-width="0.24" stroke-linecap="round" stroke-linejoin="round" fill="none" />
    <path d="M313.58493,515.0218 L306.47742,499.98087" stroke="#000000" stroke-width="0.24" stroke-linecap="round" stroke-linejoin="round" fill="none" />
    <path d="M153.5049,397.73166 L138.22546,456.625 L317.02744,516.16815 L426.10217,479.13162 L406.20114,380.53094 L312.4243,356.64163 z" stroke="#000000" stroke-width="0.24" stroke-linecap="round" stroke-linejoin="round" fill="none" />
  </g>
</svg>