<?xml version="1.0" encoding="utf-8" standalone="no"?>
<!DOCTYPE svg PUBLIC "-//W3C//DTD SVG 1.1//EN" "http://www.w3.org/Graphics/SVG/1.1/DTD/svg11.dtd">
<svg version="1.1" width="2384pt" height="3370pt" viewBox="0 0 2383.92 3370.32" xmlns="http://www.w3.org/2000/svg">
  <defs />
  <g id="Default">
    <path d="M1143.1974,1455.6968 L1223.4536,1465.6693" stroke="#000000" stroke-width="0.24" stroke-linecap="round" stroke-linejoin="round" fill="none" />
    <path d="M1361.2306,1455.6956 L1281.9136,1465.4174" stroke="#000000" stroke-width="0.24" stroke-linecap="round" stroke-linejoin="round" fill="none" />
    <path d="M1193.0845,1459.624 L1251.5754,1433.5602 L1310.9023,1459.6024" stroke="#000000" stroke-width="0.24" stroke-linecap="round" stroke-linejoin="round" fill="none" />
    <path d="M1284.7798,1451.1072 L1276.4022,1466.3846 L1264.0795,1487.7179 L1309.4594,1493.5713 L1348.0483,1498.3069" stroke="#000000" stroke-width="0.24" stroke-linecap="round" stroke-linejoin="round" fill="none" />
    <path d="M1017.46265,1488.2068 L1103.2017,1498.8813" stroke="#000000" stroke-width="0.24" stroke-linecap="round" stroke-linejoin="round" fill="none" />
    <path d="M1486.1632,1487.5217 L1405.8685,1497.802" stroke="#000000" stroke-width="0.24" stroke-linecap="round" stroke-linejoin="round" fill="none" />
    <path d="M1157.4023,1499.6045 L1200.6223,1493.4695 L1241.6396,1487.572 L1229.0651,1466.6581 L1219.6718,1450.8387" stroke="#000000" stroke-width="0.24" stroke-linecap="round" stroke-linejoin="round" fill="none" />
    <path d="M1314.1921,1491.7665 L1341.3099,1479.0356 L1373.4801,1464.3296 L1408.5815,1479.7887 L1435.9841,1491.5702" stroke="#000000" stroke-width="0.24" stroke-linecap="round" stroke-linejoin="round" fill="none" />
    <path d="M1067.3442,1491.9305 L1098.0833,1478.2445 L1131.4565,1463.9498 L1162.568,1477.7288 L1195.4569,1491.6832" stroke="#000000" stroke-width="0.24" stroke-linecap="round" stroke-linejoin="round" fill="none" />
    <path d="M1407.948,1482.5157 L1400.2892,1498.8214 L1389.4539,1520.5344 L1435.8885,1526.5707 L1475.3628,1531.4542" stroke="#000000" stroke-width="0.24" stroke-linecap="round" stroke-linejoin="round" fill="none" />
    <path d="M891.0601,1520.8892 L978.0917,1533.1665" stroke="#000000" stroke-width="0.24" stroke-linecap="round" stroke-linejoin="round" fill="none" />
    <path d="M1161.7384,1480.6343 L1151.4062,1500.769 L1139.7118,1520.8624 L1178.6664,1527.0302 L1229.9749,1534.2921" stroke="#000000" stroke-width="0.24" stroke-linecap="round" stroke-linejoin="round" fill="none" />
    <path d="M1614.9597,1520.3322 L1534.3951,1530.666" stroke="#000000" stroke-width="0.24" stroke-linecap="round" stroke-linejoin="round" fill="none" />
    <path d="M1279.8127,1534.0367 L1328.9441,1526.7576 L1368.2854,1520.811 L1353.9675,1499.3296 L1342.4944,1481.8252" stroke="#000000" stroke-width="0.24" stroke-linecap="round" stroke-linejoin="round" fill="none" />
    <path d="M1029.4843,1533.9788 L1079.6924,1526.9302 L1120.7583,1521.0887 L1109.1584,1499.9238 L1098.9839,1481.1018" stroke="#000000" stroke-width="0.24" stroke-linecap="round" stroke-linejoin="round" fill="none" />
    <path d="M1440.5854,1524.7094 L1467.353,1511.5823 L1499.1246,1496.4214 L1536.0775,1512.6722 L1563.5612,1524.4847" stroke="#000000" stroke-width="0.24" stroke-linecap="round" stroke-linejoin="round" fill="none" />
    <path d="M938.1949,1524.8474 L974.6074,1509.5996 L1007.73376,1495.4912 L1037.6588,1508.5951 L1074.3451,1524.972" stroke="#000000" stroke-width="0.24" stroke-linecap="round" stroke-linejoin="round" fill="none" />
    <path d="M1184.186,1525.0463 L1222.95,1508.1776 L1253.3582,1495.3425 L1284.4814,1508.6743 L1323.3451,1524.8369" stroke="#000000" stroke-width="0.24" stroke-linecap="round" stroke-linejoin="round" fill="none" />
    <path d="M1628.7731,1530.0162 L1572.7576,1558.4526" stroke="#000000" stroke-width="0.24" stroke-linecap="round" stroke-linejoin="round" fill="none" />
    <path d="M1535.576,1515.4558 L1528.8324,1531.6945 L1519.5876,1554.1487 L1568.198,1560.2974 L1605.2192,1565.0085" stroke="#000000" stroke-width="0.24" stroke-linecap="round" stroke-linejoin="round" fill="none" />
    <path d="M760.103,1554.7494 L847.09973,1566.8268" stroke="#000000" stroke-width="0.24" stroke-linecap="round" stroke-linejoin="round" fill="none" />
    <path d="M1283.7902,1511.799 L1273.524,1535.2966 L1263.8955,1555.0574 L1302.9963,1561.2144 L1358.7965,1569.322" stroke="#000000" stroke-width="0.24" stroke-linecap="round" stroke-linejoin="round" fill="none" />
    <path d="M1036.5234,1511.7264 L1022.99744,1535.208 L1010.8139,1555.2145 L1046.2274,1561.177 L1106.1593,1570.7075" stroke="#000000" stroke-width="0.24" stroke-linecap="round" stroke-linejoin="round" fill="none" />
    <path d="M1408.17,1568.2292 L1457.5345,1560.874 L1497.4799,1554.7191 L1481.4363,1532.5092 L1468.724,1514.4583" stroke="#000000" stroke-width="0.24" stroke-linecap="round" stroke-linejoin="round" fill="none" />
    <path d="M899.53595,1568.6467 L952.30334,1560.9052 L992.9339,1554.8257 L984.20135,1534.3525 L975.20435,1512.6476" stroke="#000000" stroke-width="0.24" stroke-linecap="round" stroke-linejoin="round" fill="none" />
    <path d="M1150.2722,1571.0305 L1211.8954,1561.1478 L1247.1288,1555.2906 L1236.4694,1535.5326 L1223.9235,1511.3434" stroke="#000000" stroke-width="0.24" stroke-linecap="round" stroke-linejoin="round" fill="none" />
    <path d="M809.18036,1558.822 L844.80383,1543.7479 L880.14026,1528.6533 L909.1799,1541.718 L946.89886,1558.8975" stroke="#000000" stroke-width="0.24" stroke-linecap="round" stroke-linejoin="round" fill="none" />
    <path d="M1308.6294,1559.1301 L1349.6306,1540.7399 L1378.9968,1528.0935 L1411.643,1542.1752 L1451.7532,1558.8772" stroke="#000000" stroke-width="0.24" stroke-linecap="round" stroke-linejoin="round" fill="none" />
    <path d="M1052.3796,1559.0817 L1129.6267,1527.4882 L1205.8009,1559.0533" stroke="#000000" stroke-width="0.24" stroke-linecap="round" stroke-linejoin="round" fill="none" />
    <path d="M627.0351,1589.155 L710.2016,1600.4972" stroke="#000000" stroke-width="0.24" stroke-linecap="round" stroke-linejoin="round" fill="none" />
    <path d="M1411.0892,1545.3965 L1401.8405,1569.5116 L1393.497,1589.9532 L1435.4877,1596.2269 L1489.3354,1603.9622" stroke="#000000" stroke-width="0.24" stroke-linecap="round" stroke-linejoin="round" fill="none" />
    <path d="M907.8999,1544.9767 L892.8432,1569.9589 L879.8506,1590.1168 L914.44684,1596.2961 L975.88336,1606.4978" stroke="#000000" stroke-width="0.24" stroke-linecap="round" stroke-linejoin="round" fill="none" />
    <path d="M1156.6002,1542.4907 L1135.4177,1590.383 L1236.7726,1609.2322" stroke="#000000" stroke-width="0.24" stroke-linecap="round" stroke-linejoin="round" fill="none" />
    <path d="M1542.5079,1601.9581 L1586.052,1595.9384 L1629.5812,1589.3899 L1611.2573,1566.0898 L1598.5834,1548.9774" stroke="#000000" stroke-width="0.24" stroke-linecap="round" stroke-linejoin="round" fill="none" />
    <path d="M767.9064,1602.5698 L816.01514,1595.9702 L861.3226,1589.7155 L853.158,1568.0001 L845.2818,1546.8368" stroke="#000000" stroke-width="0.24" stroke-linecap="round" stroke-linejoin="round" fill="none" />
    <path d="M678.99274,1593.576 L709.67114,1580.4653 L748.4055,1563.3866 L778.7008,1577.8549 L810.9478,1593.9283" stroke="#000000" stroke-width="0.24" stroke-linecap="round" stroke-linejoin="round" fill="none" />
    <path d="M1440.9407,1594.114 L1478.8652,1576.1536 L1508.6432,1562.4417 L1544.9335,1578.5205 L1580.4158,1593.9065" stroke="#000000" stroke-width="0.24" stroke-linecap="round" stroke-linejoin="round" fill="none" />
    <path d="M1277.521,1607.7522 L1343.9762,1596.2404 L1376.882,1590.4083 L1365.6149,1570.6436 L1350.8107,1544.0795" stroke="#000000" stroke-width="0.24" stroke-linecap="round" stroke-linejoin="round" fill="none" />
    <path d="M1018.61646,1608.097 L1087.5558,1596.1945 L1120.4036,1590.4368 L1112.9854,1572.139 L1101.3553,1542.779" stroke="#000000" stroke-width="0.24" stroke-linecap="round" stroke-linejoin="round" fill="none" />
    <path d="M920.8885,1594.1338 L972.39734,1573.4523 L1002.0306,1561.4534 L1027.5657,1571.886 L1081.196,1594.0242" stroke="#000000" stroke-width="0.24" stroke-linecap="round" stroke-linejoin="round" fill="none" />
    <path d="M1171.8271,1593.776 L1230.9006,1570.9656 L1255.2654,1561.4517 L1282.5084,1572.197 L1337.4272,1594.0668" stroke="#000000" stroke-width="0.24" stroke-linecap="round" stroke-linejoin="round" fill="none" />
    <path d="M612.329,1599.4154 L668.23,1629.7163" stroke="#000000" stroke-width="0.24" stroke-linecap="round" stroke-linejoin="round" fill="none" />
    <path d="M1642.5175,1598.1143 L1580.9382,1630.0885" stroke="#000000" stroke-width="0.24" stroke-linecap="round" stroke-linejoin="round" fill="none" />
    <path d="M1544.4235,1581.6914 L1536.3693,1603.1477 L1527.9553,1625.7859 L1575.9492,1632.1775 L1621.8063,1638.3231" stroke="#000000" stroke-width="0.24" stroke-linecap="round" stroke-linejoin="round" fill="none" />
    <path d="M777.1307,1581.0835 L761.2586,1603.8112 L745.0598,1626.0393 L783.8852,1632.5396 L839.1235,1641.2856" stroke="#000000" stroke-width="0.24" stroke-linecap="round" stroke-linejoin="round" fill="none" />
    <path d="M634.26874,1636.7065 L672.8129,1631.683 L723.50555,1625.1554 L715.9421,1601.6206 L709.98065,1583.4712" stroke="#000000" stroke-width="0.24" stroke-linecap="round" stroke-linejoin="round" fill="none" />
    <path d="M1281.951,1575.8784 L1270.4185,1609.3495 L1264.576,1626.5614 L1295.892,1632.28 L1368.8949,1645.7178" stroke="#000000" stroke-width="0.24" stroke-linecap="round" stroke-linejoin="round" fill="none" />
    <path d="M1026.6171,1575.5897 L1003.7318,1626.5907 L1107.8617,1648.4174" stroke="#000000" stroke-width="0.24" stroke-linecap="round" stroke-linejoin="round" fill="none" />
    <path d="M1411.5435,1643.442 L1474.6179,1632.4155 L1509.3323,1626.2557 L1496.1914,1605.2836 L1480.2603,1579.5238" stroke="#000000" stroke-width="0.24" stroke-linecap="round" stroke-linejoin="round" fill="none" />
    <path d="M885.5134,1643.8191 L988.6819,1626.48 L972.84235,1577.0387" stroke="#000000" stroke-width="0.24" stroke-linecap="round" stroke-linejoin="round" fill="none" />
    <path d="M790.2105,1630.3434 L836.9713,1610.955 L870.2995,1596.9331 L896.7479,1608.3403 L946.6235,1630.2828" stroke="#000000" stroke-width="0.24" stroke-linecap="round" stroke-linejoin="round" fill="none" />
    <path d="M1302.5161,1630.0604 L1360.3512,1606.5825 L1384.943,1596.8224 L1414.4161,1608.8044 L1468.0063,1630.2124" stroke="#000000" stroke-width="0.24" stroke-linecap="round" stroke-linejoin="round" fill="none" />
    <path d="M1144.1857,1648.79 L1225.6802,1631.6613 L1249.6134,1626.5338 L1244.0374,1610.9589 L1231.4816,1574.729" stroke="#000000" stroke-width="0.24" stroke-linecap="round" stroke-linejoin="round" fill="none" />
    <path d="M1035.6846,1629.5807 L1127.6382,1596.501 L1218.4512,1629.493" stroke="#000000" stroke-width="0.24" stroke-linecap="round" stroke-linejoin="round" fill="none" />
    <path d="M642.205,1619.6172 L627.9601,1637.8595 L607.5581,1662.6842 L652.30316,1669.6599 L696.3753,1676.0109" stroke="#000000" stroke-width="0.24" stroke-linecap="round" stroke-linejoin="round" fill="none" />
    <path d="M1414.0542,1612.519 L1404.5779,1645.0402 L1398.8799,1663.6786 L1437.6476,1670.1039 L1502.3499,1680.6056" stroke="#000000" stroke-width="0.24" stroke-linecap="round" stroke-linejoin="round" fill="none" />
    <path d="M895.5084,1612.0922 L878.0971,1645.4312 L868.3131,1663.8248 L896.9926,1669.6503 L971.5311,1684.534" stroke="#000000" stroke-width="0.24" stroke-linecap="round" stroke-linejoin="round" fill="none" />
    <path d="M1147.985,1608.0493 L1133.1521,1663.8804 L1241.8379,1689.166" stroke="#000000" stroke-width="0.24" stroke-linecap="round" stroke-linejoin="round" fill="none" />
    <path d="M1551.9896,1677.8025 L1603.5802,1669.9636 L1645.9092,1663.2201 L1628.4391,1639.5479 L1612.8243,1617.6417" stroke="#000000" stroke-width="0.24" stroke-linecap="round" stroke-linejoin="round" fill="none" />
    <path d="M750.91925,1678.6034 L808.3422,1670.001 L851.95245,1663.5107 L845.79645,1642.7103 L837.33057,1614.5029" stroke="#000000" stroke-width="0.24" stroke-linecap="round" stroke-linejoin="round" fill="none" />
    <path d="M658.2399,1667.5012 L695.4943,1651.2716 L734.1522,1634.0239 L763.64716,1648.237 L802.7789,1667.7435" stroke="#000000" stroke-width="0.24" stroke-linecap="round" stroke-linejoin="round" fill="none" />
    <path d="M1443.7126,1667.7957 L1490.6855,1646.0446 L1518.8665,1633.3513 L1554.454,1649.0981 L1597.3975,1667.7217" stroke="#000000" stroke-width="0.24" stroke-linecap="round" stroke-linejoin="round" fill="none" />
    <path d="M1277.2153,1687.0636 L1383.0854,1663.8217 L1361.2089,1610.4598" stroke="#000000" stroke-width="0.24" stroke-linecap="round" stroke-linejoin="round" fill="none" />
    <path d="M1009.0342,1687.599 L1118.2432,1663.8802 L1106.0846,1608.3247" stroke="#000000" stroke-width="0.24" stroke-linecap="round" stroke-linejoin="round" fill="none" />
    <path d="M593.2823,1672.8295 L652.1184,1705.9229" stroke="#000000" stroke-width="0.24" stroke-linecap="round" stroke-linejoin="round" fill="none" />
    <path d="M904.26385,1667.3599 L995.8617,1632.7983 L1087.7548,1666.6912" stroke="#000000" stroke-width="0.24" stroke-linecap="round" stroke-linejoin="round" fill="none" />
    <path d="M1160.396,1666.2657 L1239.9104,1638.8098 L1257.3258,1632.8525 L1278.3268,1640.4191 L1352.0083,1666.7736" stroke="#000000" stroke-width="0.24" stroke-linecap="round" stroke-linejoin="round" fill="none" />
    <path d="M1657.4335,1672.0165 L1591.7024,1706.1833" stroke="#000000" stroke-width="0.24" stroke-linecap="round" stroke-linejoin="round" fill="none" />
    <path d="M1554.0071,1652.6503 L1545.3702,1679.1807 L1538.6388,1701.7396 L1586.3481,1708.4309 L1637.6932,1715.9613" stroke="#000000" stroke-width="0.24" stroke-linecap="round" stroke-linejoin="round" fill="none" />
    <path d="M762.008,1651.8608 L743.70215,1680.0426 L728.6813,1702.2172 L767.2241,1708.9851 L828.6533,1719.2422" stroke="#000000" stroke-width="0.24" stroke-linecap="round" stroke-linejoin="round" fill="none" />
    <path d="M614.2992,1713.8142 L656.9338,1708.0757 L709.2385,1701.3318 L702.6108,1677.2764 L695.8046,1654.641" stroke="#000000" stroke-width="0.24" stroke-linecap="round" stroke-linejoin="round" fill="none" />
    <path d="M1278.2854,1644.5958 L1269.6693,1689.1478 L1267.0131,1702.3911 L1293.0155,1707.9407 L1377.1959,1725.7434" stroke="#000000" stroke-width="0.24" stroke-linecap="round" stroke-linejoin="round" fill="none" />
    <path d="M1014.7943,1644.1655 L997.421,1702.4222 L1106.9246,1729.7988" stroke="#000000" stroke-width="0.24" stroke-linecap="round" stroke-linejoin="round" fill="none" />
    <path d="M1417.4248,1721.8496 L1487.6179,1708.7124 L1521.0337,1702.36 L1509.7864,1682.1833 L1492.0452,1649.8435" stroke="#000000" stroke-width="0.24" stroke-linecap="round" stroke-linejoin="round" fill="none" />
    <path d="M872.99506,1723.108 L949.94305,1708.4044 L982.0645,1702.3634 L978.89655,1686.4177 L970.4964,1646.4689" stroke="#000000" stroke-width="0.24" stroke-linecap="round" stroke-linejoin="round" fill="none" />
    <path d="M773.9856,1706.579 L826.4487,1684.3783 L859.70966,1670.4115 L884.0665,1680.8948 L943.1956,1706.0477" stroke="#000000" stroke-width="0.24" stroke-linecap="round" stroke-linejoin="round" fill="none" />
    <path d="M1300.2981,1705.6146 L1391.2994,1670.2932 L1480.5288,1706.3177" stroke="#000000" stroke-width="0.24" stroke-linecap="round" stroke-linejoin="round" fill="none" />
    <path d="M1140.1776,1731.0408 L1251.7539,1702.4205 L1239.9778,1643.0719" stroke="#000000" stroke-width="0.24" stroke-linecap="round" stroke-linejoin="round" fill="none" />
    <path d="M1022.66907,1704.5181 L1125.5131,1670.2948 L1228.6978,1704.1116" stroke="#000000" stroke-width="0.24" stroke-linecap="round" stroke-linejoin="round" fill="none" />
    <path d="M623.52924,1694.239 L607.6206,1715.0665 L586.97076,1741.1813 L633.5083,1748.5017 L679.5657,1755.3737" stroke="#000000" stroke-width="0.24" stroke-linecap="round" stroke-linejoin="round" fill="none" />
    <path d="M1419.7554,1685.987 L1410.0419,1723.6442 L1405.4369,1742.2145 L1445.1696,1748.9 L1513.4227,1760.5487" stroke="#000000" stroke-width="0.24" stroke-linecap="round" stroke-linejoin="round" fill="none" />
    <path d="M882.97437,1685.0432 L857.49097,1742.157 L964.2659,1765.2871" stroke="#000000" stroke-width="0.24" stroke-linecap="round" stroke-linejoin="round" fill="none" />
    <path d="M1139.5571,1679.3025 L1131.1482,1742.2771 L1244.1346,1770.6011" stroke="#000000" stroke-width="0.24" stroke-linecap="round" stroke-linejoin="round" fill="none" />
    <path d="M1564.1182,1757.7355 L1618.8627,1748.611 L1660.953,1741.449 L1644.7102,1717.356 L1627.8004,1691.8552" stroke="#000000" stroke-width="0.24" stroke-linecap="round" stroke-linejoin="round" fill="none" />
    <path d="M735.52783,1758.0441 L795.3501,1748.951 L841.24786,1742.1567 L835.7415,1720.8224 L826.7897,1688.2759" stroke="#000000" stroke-width="0.24" stroke-linecap="round" stroke-linejoin="round" fill="none" />
    <path d="M639.6897,1746.1821 L678.78564,1728.6299 L718.79596,1710.1257 L749.3064,1725.4248 L789.62006,1746.5082" stroke="#000000" stroke-width="0.24" stroke-linecap="round" stroke-linejoin="round" fill="none" />
    <path d="M1451.5018,1746.4319 L1501.238,1722.842 L1529.9004,1709.8826 L1565.7683,1726.0194 L1612.335,1746.2455" stroke="#000000" stroke-width="0.24" stroke-linecap="round" stroke-linejoin="round" fill="none" />
    <path d="M1279.7435,1767.6487 L1389.8186,1742.2754 L1370.4724,1682.9141" stroke="#000000" stroke-width="0.24" stroke-linecap="round" stroke-linejoin="round" fill="none" />
    <path d="M572.68524,1752.2181 L632.4419,1787.1609" stroke="#000000" stroke-width="0.24" stroke-linecap="round" stroke-linejoin="round" fill="none" />
    <path d="M1002.2298,1768.4868 L1115.731,1742.2773 L1109.0865,1680.0955" stroke="#000000" stroke-width="0.24" stroke-linecap="round" stroke-linejoin="round" fill="none" />
    <path d="M892.7463,1745.7274 L964.4127,1718.6686 L989.258,1709.1729 L1008.1196,1716.0858 L1085.8081,1745.0641" stroke="#000000" stroke-width="0.24" stroke-linecap="round" stroke-linejoin="round" fill="none" />
    <path d="M1156.9489,1744.445 L1259.5244,1709.0522 L1358.632,1745.2814" stroke="#000000" stroke-width="0.24" stroke-linecap="round" stroke-linejoin="round" fill="none" />
    <path d="M1673.3209,1750.7329 L1607.364,1787.5853" stroke="#000000" stroke-width="0.24" stroke-linecap="round" stroke-linejoin="round" fill="none" />
    <path d="M1565.4463,1729.8539 L1557.2804,1759.2826 L1550.8682,1782.7229 L1602.0146,1789.9973 L1652.2869,1797.1924" stroke="#000000" stroke-width="0.24" stroke-linecap="round" stroke-linejoin="round" fill="none" />
    <path d="M747.53595,1729.3093 L728.0119,1759.5671 L712.60846,1783.2975 L754.415,1790.4431 L815.05164,1800.7341" stroke="#000000" stroke-width="0.24" stroke-linecap="round" stroke-linejoin="round" fill="none" />
    <path d="M594.8912,1795.3397 L637.3494,1789.4329 L692.3003,1782.2863 L686.034,1756.7319 L679.08575,1732.2455" stroke="#000000" stroke-width="0.24" stroke-linecap="round" stroke-linejoin="round" fill="none" />
    <path d="M1280.4637,1721.1989 L1271.9048,1769.9165 L1269.6196,1783.4834 L1300.4568,1789.7863 L1382.2687,1806.6488" stroke="#000000" stroke-width="0.24" stroke-linecap="round" stroke-linejoin="round" fill="none" />
    <path d="M1007.6946,1720.6112 L990.67255,1783.517 L1102.642,1809.7816" stroke="#000000" stroke-width="0.24" stroke-linecap="round" stroke-linejoin="round" fill="none" />
    <path d="M1426.3085,1803.2264 L1532.2352,1783.3867 L1502.6305,1726.9305" stroke="#000000" stroke-width="0.24" stroke-linecap="round" stroke-linejoin="round" fill="none" />
    <path d="M863.2174,1803.9194 L937.7662,1790.3114 L974.7831,1783.4536 L971.87134,1767.386 L964.3711,1723.0438" stroke="#000000" stroke-width="0.24" stroke-linecap="round" stroke-linejoin="round" fill="none" />
    <path d="M761.282,1787.8993 L812.9232,1765.1185 L848.3367,1749.3236 L875.7681,1761.9297 L931.0788,1787.7437" stroke="#000000" stroke-width="0.24" stroke-linecap="round" stroke-linejoin="round" fill="none" />
    <path d="M1307.7239,1787.2681 L1373.5558,1759.5905 L1398.1362,1749.3198 L1429.3151,1762.6533 L1488.2306,1787.7361" stroke="#000000" stroke-width="0.24" stroke-linecap="round" stroke-linejoin="round" fill="none" />
    <path d="M1139.8877,1810.6473 L1253.8306,1783.5151 L1243.4004,1719.1862" stroke="#000000" stroke-width="0.24" stroke-linecap="round" stroke-linejoin="round" fill="none" />
    <path d="M1022.3961,1786.6276 L1123.2417,1749.1375 L1223.5532,1786.3995" stroke="#000000" stroke-width="0.24" stroke-linecap="round" stroke-linejoin="round" fill="none" />
    <path d="M604.0592,1775.2289 L588.0602,1796.6677 L566.88586,1824.6766 L617.4448,1832.481 L659.4871,1838.8457" stroke="#000000" stroke-width="0.24" stroke-linecap="round" stroke-linejoin="round" fill="none" />
    <path d="M1428.9424,1766.94 L1418.7823,1805.0721 L1413.8096,1825.8818 L1459.0103,1833.1545 L1522.1603,1843.7361" stroke="#000000" stroke-width="0.24" stroke-linecap="round" stroke-linejoin="round" fill="none" />
    <path d="M874.4256,1766.2716 L855.17236,1805.8088 L845.45886,1826.1475 L882.25574,1833.1768 L953.75024,1847.0458" stroke="#000000" stroke-width="0.24" stroke-linecap="round" stroke-linejoin="round" fill="none" />
    <path d="M1142.6571,1761.0944 L1131.7606,1813.0596 L1129.2183,1826.1458 L1158.7155,1832.4884 L1242.7583,1850.8813" stroke="#000000" stroke-width="0.24" stroke-linecap="round" stroke-linejoin="round" fill="none" />
    <path d="M1579.1307,1840.9885 L1629.7026,1832.9098 L1677.5118,1825.3234 L1659.4608,1798.6029 L1642.0569,1772.97" stroke="#000000" stroke-width="0.24" stroke-linecap="round" stroke-linejoin="round" fill="none" />
    <path d="M721.7499,1841.7479 L777.8569,1832.9291 L827.53827,1825.6566 L822.25977,1802.3796 L813.2787,1769.2158" stroke="#000000" stroke-width="0.24" stroke-linecap="round" stroke-linejoin="round" fill="none" />
    <path d="M623.58905,1830.0934 L659.2315,1813.4213 L702.091,1792.9119 L734.4932,1809.9568 L772.1462,1830.4213" stroke="#000000" stroke-width="0.24" stroke-linecap="round" stroke-linejoin="round" fill="none" />
    <path d="M1465.2119,1830.5731 L1510.2013,1807.6647 L1541.7417,1792.0143 L1581.1562,1810.7604 L1623.2737,1830.4113" stroke="#000000" stroke-width="0.24" stroke-linecap="round" stroke-linejoin="round" fill="none" />
    <path d="M673.84076,1868.9517 L659.51105,1817.14" stroke="#000000" stroke-width="0.24" stroke-linecap="round" stroke-linejoin="round" fill="none" />
    <path d="M1285.5636,1849.155 L1363.8893,1832.8428 L1396.4785,1826.1111 L1390.3665,1808.7627 L1374.3756,1764.0889" stroke="#000000" stroke-width="0.24" stroke-linecap="round" stroke-linejoin="round" fill="none" />
    <path d="M998.81836,1849.5856 L1080.2622,1832.7631 L1112.8293,1826.1456 L1110.6171,1812.1299 L1101.9373,1761.7045" stroke="#000000" stroke-width="0.24" stroke-linecap="round" stroke-linejoin="round" fill="none" />
    <path d="M889.62085,1830.5378 L982.1941,1790.872 L1072.9551,1830.1572" stroke="#000000" stroke-width="0.24" stroke-linecap="round" stroke-linejoin="round" fill="none" />
    <path d="M1166.3597,1829.9077 L1261.8854,1790.8702 L1356.3455,1830.2292" stroke="#000000" stroke-width="0.24" stroke-linecap="round" stroke-linejoin="round" fill="none" />
    <path d="M1690.7048,1836.8602 L1626.9705,1874.3462" stroke="#000000" stroke-width="0.24" stroke-linecap="round" stroke-linejoin="round" fill="none" />
    <path d="M1580.7151,1814.7054 L1572.2722,1842.5085 L1565.2212,1869.1152 L1621.7657,1876.7848 L1665.4429,1883.125" stroke="#000000" stroke-width="0.24" stroke-linecap="round" stroke-linejoin="round" fill="none" />
    <path d="M732.73126,1813.9697 L714.2625,1843.3322 L697.691,1869.5282 L745.06506,1877.4448 L798.3584,1886.2911" stroke="#000000" stroke-width="0.24" stroke-linecap="round" stroke-linejoin="round" fill="none" />
    <path d="M1289.0566,1806.9478 L1272.7367,1870.3044 L1384.4802,1889.9" stroke="#000000" stroke-width="0.24" stroke-linecap="round" stroke-linejoin="round" fill="none" />
    <path d="M1007.00287,1806.6084 L983.885,1870.3062 L1095.1112,1892.0336" stroke="#000000" stroke-width="0.24" stroke-linecap="round" stroke-linejoin="round" fill="none" />
    <path d="M1438.3389,1888.167 L1498.388,1877.5082 L1542.7653,1869.7936 L1529.8768,1845.4484 L1511.7039,1811.8643" stroke="#000000" stroke-width="0.24" stroke-linecap="round" stroke-linejoin="round" fill="none" />
    <path d="M855.7899,1888.6085 L920.1044,1877.6406 L966.1315,1870.1029 L961.43506,1848.9917 L951.3555,1808.6937" stroke="#000000" stroke-width="0.24" stroke-linecap="round" stroke-linejoin="round" fill="none" />
    <path d="M751.71954,1874.8385 L796.4524,1853.8298 L835.99554,1834.9514 L868.0488,1851.2288 L913.79553,1874.9652" stroke="#000000" stroke-width="0.24" stroke-linecap="round" stroke-linejoin="round" fill="none" />
    <path d="M1142.6914,1892.3424 L1218.312,1877.7325 L1255.8376,1870.3722 L1250.8875,1853.1327 L1237.7932,1805.5992" stroke="#000000" stroke-width="0.24" stroke-linecap="round" stroke-linejoin="round" fill="none" />
    <path d="M812.1966,1915.0259 L805.4084,1887.9048 L796.8607,1857.9684" stroke="#000000" stroke-width="0.24" stroke-linecap="round" stroke-linejoin="round" fill="none" />
    <path d="M1322.5408,1875.1246 L1373.6193,1849.6812 L1405.4988,1834.42 L1441.7479,1851.7908 L1491.5366,1874.8667" stroke="#000000" stroke-width="0.24" stroke-linecap="round" stroke-linejoin="round" fill="none" />
    <path d="M1028.8702,1874.9241 L1089.8542,1847.6627 L1120.8062,1833.6968 L1150.7052,1847.2803 L1211.0759,1874.9763" stroke="#000000" stroke-width="0.24" stroke-linecap="round" stroke-linejoin="round" fill="none" />
    <path d="M1441.2277,1856.0957 L1430.977,1889.9257 L1423.3313,1915.479 L1478.5952,1923.5009 L1528.994,1930.8634" stroke="#000000" stroke-width="0.24" stroke-linecap="round" stroke-linejoin="round" fill="none" />
    <path d="M866.50977,1855.58 L847.9293,1890.3835 L834.62976,1915.6589 L882.3243,1923.6963 L940.1557,1933.5753" stroke="#000000" stroke-width="0.24" stroke-linecap="round" stroke-linejoin="round" fill="none" />
    <path d="M1149.8306,1851.9373 L1134.5787,1894.3715 L1127.2592,1916.1141 L1172.6855,1923.8873 L1238.7007,1935.5828" stroke="#000000" stroke-width="0.24" stroke-linecap="round" stroke-linejoin="round" fill="none" />
    <path d="M1597.1895,1929.0679 L1692.5742,1914.528 L1657.0049,1861.5413" stroke="#000000" stroke-width="0.24" stroke-linecap="round" stroke-linejoin="round" fill="none" />
    <path d="M1484.237,1920.8193 L1517.908,1901.0813 L1554.512,1880.5885 L1598.6398,1903.5555 L1632.0289,1920.3091" stroke="#000000" stroke-width="0.24" stroke-linecap="round" stroke-linejoin="round" fill="none" />
    <path d="M1294.4192,1934.5815 L1356.5132,1923.873 L1403.3984,1916.0066 L1392.4633,1891.742 L1374.9216,1854.1567" stroke="#000000" stroke-width="0.24" stroke-linecap="round" stroke-linejoin="round" fill="none" />
    <path d="M997.7564,1935.1302 L1062.6226,1923.7548 L1109.057,1915.9385 L1103.0488,1894.0509 L1090.4506,1852.2898" stroke="#000000" stroke-width="0.24" stroke-linecap="round" stroke-linejoin="round" fill="none" />
    <path d="M889.10443,1920.9534 L936.22473,1898.0509 L974.5489,1879.293 L1008.09656,1896.37 L1056.044,1920.9806" stroke="#000000" stroke-width="0.24" stroke-linecap="round" stroke-linejoin="round" fill="none" />
    <path d="M1580.3163,1962.0214 L1598.1372,1907.4628" stroke="#000000" stroke-width="0.24" stroke-linecap="round" stroke-linejoin="round" fill="none" />
    <path d="M1179.4954,1921.0779 L1230.2415,1895.7822 L1264.4229,1878.8127 L1300.7211,1896.8383 L1349.7175,1921.0795" stroke="#000000" stroke-width="0.24" stroke-linecap="round" stroke-linejoin="round" fill="none" />
    <path d="M955.8509,1962.8644 L947.5605,1935.2994 L936.8585,1902.4253" stroke="#000000" stroke-width="0.24" stroke-linecap="round" stroke-linejoin="round" fill="none" />
    <path d="M1299.8423,1901.3116 L1286.7489,1936.3623 L1277.5388,1963.1177 L1332.5464,1971.2845 L1385.128,1979.5038" stroke="#000000" stroke-width="0.24" stroke-linecap="round" stroke-linejoin="round" fill="none" />
    <path d="M1006.77905,1900.8807 L989.8525,1936.9713 L978.7949,1962.8645 L1028.3204,1971.0966 L1085.0686,1981.2504" stroke="#000000" stroke-width="0.24" stroke-linecap="round" stroke-linejoin="round" fill="none" />
    <path d="M1452.9086,1978.0793 L1498.6287,1970.8871 L1554.1936,1962.6414 L1536.408,1932.371 L1519.6708,1905.1978" stroke="#000000" stroke-width="0.24" stroke-linecap="round" stroke-linejoin="round" fill="none" />
    <path d="M1147.7333,1981.1754 L1205.3849,1971.3373 L1256.2865,1963.1543 L1246.5912,1937.4407 L1231.3198,1900.3405" stroke="#000000" stroke-width="0.24" stroke-linecap="round" stroke-linejoin="round" fill="none" />
    <path d="M1338.561,1968.5114 L1375.6481,1947.5417 L1413.48,1926.6725 L1456.219,1949.3884 L1492.3888,1968.2117" stroke="#000000" stroke-width="0.24" stroke-linecap="round" stroke-linejoin="round" fill="none" />
    <path d="M1035.0005,1968.3539 L1080.1072,1945.8517 L1118.1321,1926.5325 L1155.4117,1945.729 L1198.8959,1968.5405" stroke="#000000" stroke-width="0.24" stroke-linecap="round" stroke-linejoin="round" fill="none" />
    <path d="M1434.2418,2011.6212 L1455.4878,1953.5493" stroke="#000000" stroke-width="0.24" stroke-linecap="round" stroke-linejoin="round" fill="none" />
    <path d="M1102.269,2011.6233 L1092.52,1983.0616 L1080.882,1950.3131" stroke="#000000" stroke-width="0.24" stroke-linecap="round" stroke-linejoin="round" fill="none" />
    <path d="M1154.2811,1950.2006 L1140.1115,1982.943 L1128.2823,2011.8883 L1185.6399,2020.5255 L1233.0787,2027.9946" stroke="#000000" stroke-width="0.24" stroke-linecap="round" stroke-linejoin="round" fill="none" />
    <path d="M1305.0637,2027.543 L1350.2738,2020.3601 L1407.8892,2011.7728 L1392.642,1981.1288 L1377.1418,1951.859" stroke="#000000" stroke-width="0.24" stroke-linecap="round" stroke-linejoin="round" fill="none" />
    <path d="M1191.6832,2017.7473 L1226.324,1998.2032 L1267.2092,1975.3604 L1309.7389,1998.8201 L1344.1434,2017.6216" stroke="#000000" stroke-width="0.24" stroke-linecap="round" stroke-linejoin="round" fill="none" />
    <path d="M1284.1003,2062.6018 L1308.7759,2003.0878" stroke="#000000" stroke-width="0.24" stroke-linecap="round" stroke-linejoin="round" fill="none" />
    <path d="M1256.061,2062.838 L1227.5593,2002.5225" stroke="#000000" stroke-width="0.24" stroke-linecap="round" stroke-linejoin="round" fill="none" />
    <path d="M614.1247,1592.4933 L552.8527,1828.6613 L1269.8658,2067.4353 L1707.2662,1918.915 L1627.461,1523.5168 L1251.4067,1427.7184 z" stroke="#000000" stroke-width="0.24" stroke-linecap="round" stroke-linejoin="round" fill="none" />
  </g>
</svg>