# WaveFront *.obj file (generated by Autodesk ATF)

mtllib Cylinder.mtl

g Body1

v -0.200000 -0.000000 1.000000
v -0.195630 0.041582 1.000000
v -0.182709 0.081347 1.000000
v -0.161803 0.117557 1.000000
v -0.133826 0.148629 1.000000
v -0.100000 0.173205 1.000000
v -0.061803 0.190211 1.000000
v -0.020906 0.198904 1.000000
v 0.020906 0.198904 1.000000
v 0.061803 0.190211 1.000000
v 0.100000 0.173205 1.000000
v 0.133826 0.148629 1.000000
v 0.161803 0.117557 1.000000
v 0.182709 0.081347 1.000000
v 0.195630 0.041582 1.000000
v 0.200000 0.000000 1.000000
v 0.195630 -0.041582 1.000000
v 0.182709 -0.081347 1.000000
v 0.161803 -0.117557 1.000000
v 0.133826 -0.148629 1.000000
v 0.100000 -0.173205 1.000000
v 0.061803 -0.190211 1.000000
v 0.020906 -0.198904 1.000000
v -0.020906 -0.198904 1.000000
v -0.061803 -0.190211 1.000000
v -0.100000 -0.173205 1.000000
v -0.133826 -0.148629 1.000000
v -0.161803 -0.117557 1.000000
v -0.182709 -0.081347 1.000000
v -0.195630 -0.041582 1.000000
v -0.200000 -0.000000 0.000000
v -0.195630 -0.041582 0.000000
v -0.182709 -0.081347 0.000000
v -0.161803 -0.117557 0.000000
v -0.133826 -0.148629 0.000000
v -0.100000 -0.173205 0.000000
v -0.061803 -0.190211 0.000000
v -0.020906 -0.198904 0.000000
v 0.020906 -0.198904 0.000000
v 0.061803 -0.190211 0.000000
v 0.100000 -0.173205 0.000000
v 0.133826 -0.148629 0.000000
v 0.161803 -0.117557 0.000000
v 0.182709 -0.081347 0.000000
v 0.195630 -0.041582 0.000000
v 0.200000 0.000000 0.000000
v 0.195630 0.041582 0.000000
v 0.182709 0.081347 0.000000
v 0.161803 0.117557 0.000000
v 0.133826 0.148629 0.000000
v 0.100000 0.173205 0.000000
v 0.061803 0.190211 0.000000
v 0.020906 0.198904 0.000000
v -0.020906 0.198904 0.000000
v -0.061803 0.190211 0.000000
v -0.100000 0.173205 0.000000
v -0.133826 0.148629 0.000000
v -0.161803 0.117557 0.000000
v -0.182709 0.081347 0.000000
v -0.195630 0.041582 0.000000
v -0.200000 -0.000000 0.500000
v -0.195630 0.041582 0.500000
v -0.182709 0.081347 0.500000
v -0.161803 0.117557 0.500000
v -0.133826 0.148629 0.500000
v -0.100000 0.173205 0.500000
v -0.061803 0.190211 0.500000
v -0.020906 0.198904 0.500000
v 0.020906 0.198904 0.500000
v 0.061803 0.190211 0.500000
v 0.100000 0.173205 0.500000
v 0.133826 0.148629 0.500000
v 0.161803 0.117557 0.500000
v 0.182709 0.081347 0.500000
v 0.195630 0.041582 0.500000
v 0.200000 0.000000 0.500000
v 0.195630 -0.041582 0.500000
v 0.182709 -0.081347 0.500000
v 0.161803 -0.117557 0.500000
v 0.133826 -0.148629 0.500000
v 0.100000 -0.173205 0.500000
v 0.061803 -0.190211 0.500000
v 0.020906 -0.198904 0.500000
v -0.020906 -0.198904 0.500000
v -0.061803 -0.190211 0.500000
v -0.100000 -0.173205 0.500000
v -0.133826 -0.148629 0.500000
v -0.161803 -0.117557 0.500000
v -0.182709 -0.081347 0.500000
v -0.195630 -0.041582 0.500000
vt -1.000000 0.586431 0.000000
vt -0.500000 0.586431 0.000000
vt -1.000000 0.628319 0.000000
vt -0.500000 0.628319 0.000000
vt -1.000000 -0.628319 0.000000
vt -0.500000 -0.628319 0.000000
vt -1.000000 -0.586431 0.000000
vt -0.500000 -0.586431 0.000000
vt -1.000000 -0.544543 0.000000
vt -0.500000 -0.544543 0.000000
vt -1.000000 -0.502655 0.000000
vt -0.500000 -0.502655 0.000000
vt -1.000000 -0.460767 0.000000
vt -0.500000 -0.460767 0.000000
vt -1.000000 -0.418879 0.000000
vt -0.500000 -0.418879 0.000000
vt -1.000000 -0.376991 0.000000
vt -0.500000 -0.376991 0.000000
vt -1.000000 -0.335103 0.000000
vt -0.500000 -0.335103 0.000000
vt -1.000000 -0.293215 0.000000
vt -0.500000 -0.293215 0.000000
vt -1.000000 -0.251327 0.000000
vt -0.500000 -0.251327 0.000000
vt -1.000000 -0.209440 0.000000
vt -0.500000 -0.209440 0.000000
vt -1.000000 -0.167552 0.000000
vt -0.500000 -0.167552 0.000000
vt -1.000000 -0.125664 0.000000
vt -0.500000 -0.125664 0.000000
vt -1.000000 -0.083776 0.000000
vt -0.500000 -0.083776 0.000000
vt -1.000000 -0.041888 0.000000
vt -0.500000 -0.041888 0.000000
vt -1.000000 0.000000 0.000000
vt -0.500000 0.000000 0.000000
vt -1.000000 0.041888 0.000000
vt -0.500000 0.041888 0.000000
vt -1.000000 0.083776 0.000000
vt -0.500000 0.083776 0.000000
vt -1.000000 0.125664 0.000000
vt -0.500000 0.125664 0.000000
vt -1.000000 0.167552 0.000000
vt -0.500000 0.167552 0.000000
vt -1.000000 0.209440 0.000000
vt -0.500000 0.209440 0.000000
vt -1.000000 0.251327 0.000000
vt -0.500000 0.251327 0.000000
vt -1.000000 0.293215 0.000000
vt -0.500000 0.293215 0.000000
vt -1.000000 0.335103 0.000000
vt -0.500000 0.335103 0.000000
vt -1.000000 0.376991 0.000000
vt -0.500000 0.376991 0.000000
vt -1.000000 0.418879 0.000000
vt -0.500000 0.418879 0.000000
vt -1.000000 0.460767 0.000000
vt -0.500000 0.460767 0.000000
vt -1.000000 0.502655 0.000000
vt -0.500000 0.502655 0.000000
vt -1.000000 0.544543 0.000000
vt -0.500000 0.544543 0.000000
vt -0.000000 -0.586431 0.000000
vt -0.000000 -0.628319 0.000000
vt -0.000000 0.628319 0.000000
vt -0.000000 0.586431 0.000000
vt -0.000000 0.544543 0.000000
vt -0.000000 0.502655 0.000000
vt -0.000000 0.460767 0.000000
vt -0.000000 0.418879 0.000000
vt -0.000000 0.376991 0.000000
vt -0.000000 0.335103 0.000000
vt -0.000000 0.293215 0.000000
vt -0.000000 0.251327 0.000000
vt -0.000000 0.209440 0.000000
vt -0.000000 0.167552 0.000000
vt -0.000000 0.125664 0.000000
vt -0.000000 0.083776 0.000000
vt -0.000000 0.041888 0.000000
vt -0.000000 0.000000 0.000000
vt -0.000000 -0.041888 0.000000
vt -0.000000 -0.083776 0.000000
vt -0.000000 -0.125664 0.000000
vt -0.000000 -0.167552 0.000000
vt -0.000000 -0.209440 0.000000
vt -0.000000 -0.251327 0.000000
vt -0.000000 -0.293215 0.000000
vt -0.000000 -0.335103 0.000000
vt -0.000000 -0.376991 0.000000
vt -0.000000 -0.418879 0.000000
vt -0.000000 -0.460767 0.000000
vt -0.000000 -0.502655 0.000000
vt -0.000000 -0.544543 0.000000
vn -0.978148 0.207912 -0.000000
vn -0.978148 0.207912 -0.000000
vn -1.000000 0.000000 -0.000000
vn -1.000000 0.000000 -0.000000
vn -0.978148 -0.207912 0.000000
vn -0.978148 -0.207912 0.000000
vn -0.913545 -0.406737 0.000000
vn -0.913545 -0.406737 0.000000
vn -0.809017 -0.587785 0.000000
vn -0.809017 -0.587785 0.000000
vn -0.669131 -0.743145 0.000000
vn -0.669131 -0.743145 0.000000
vn -0.500000 -0.866025 0.000000
vn -0.500000 -0.866025 0.000000
vn -0.309017 -0.951057 0.000000
vn -0.309017 -0.951057 0.000000
vn -0.104528 -0.994522 0.000000
vn -0.104528 -0.994522 0.000000
vn 0.104528 -0.994522 -0.000000
vn 0.104528 -0.994522 -0.000000
vn 0.309017 -0.951057 -0.000000
vn 0.309017 -0.951057 -0.000000
vn 0.500000 -0.866025 -0.000000
vn 0.500000 -0.866025 -0.000000
vn 0.669131 -0.743145 -0.000000
vn 0.669131 -0.743145 -0.000000
vn 0.809017 -0.587785 -0.000000
vn 0.809017 -0.587785 -0.000000
vn 0.913545 -0.406737 -0.000000
vn 0.913545 -0.406737 -0.000000
vn 0.978148 -0.207912 -0.000000
vn 0.978148 -0.207912 -0.000000
vn 1.000000 -0.000000 -0.000000
vn 1.000000 -0.000000 -0.000000
vn 0.978148 0.207912 -0.000000
vn 0.978148 0.207912 -0.000000
vn 0.913545 0.406737 -0.000000
vn 0.913545 0.406737 -0.000000
vn 0.809017 0.587785 -0.000000
vn 0.809017 0.587785 -0.000000
vn 0.669131 0.743145 -0.000000
vn 0.669131 0.743145 -0.000000
vn 0.500000 0.866025 -0.000000
vn 0.500000 0.866025 -0.000000
vn 0.309017 0.951057 -0.000000
vn 0.309017 0.951057 -0.000000
vn 0.104528 0.994522 -0.000000
vn 0.104528 0.994522 -0.000000
vn -0.104528 0.994522 -0.000000
vn -0.104528 0.994522 -0.000000
vn -0.309017 0.951057 -0.000000
vn -0.309017 0.951057 -0.000000
vn -0.500000 0.866025 -0.000000
vn -0.500000 0.866025 -0.000000
vn -0.669131 0.743145 -0.000000
vn -0.669131 0.743145 -0.000000
vn -0.809017 0.587785 -0.000000
vn -0.809017 0.587785 -0.000000
vn -0.913545 0.406737 -0.000000
vn -0.913545 0.406737 -0.000000
vn -0.978148 -0.207912 0.000000
vn -1.000000 -0.000000 0.000000
vn -0.978148 0.207912 -0.000000
vn -0.913545 0.406737 -0.000000
vn -0.809017 0.587785 -0.000000
vn -0.669131 0.743145 -0.000000
vn -0.500000 0.866025 -0.000000
vn -0.309017 0.951057 -0.000000
vn -0.104528 0.994522 -0.000000
vn 0.104528 0.994522 -0.000000
vn 0.309017 0.951057 -0.000000
vn 0.500000 0.866025 -0.000000
vn 0.669131 0.743145 -0.000000
vn 0.809017 0.587785 -0.000000
vn 0.913545 0.406737 -0.000000
vn 0.978148 0.207912 -0.000000
vn 1.000000 -0.000000 -0.000000
vn 0.978148 -0.207912 -0.000000
vn 0.913545 -0.406737 -0.000000
vn 0.809017 -0.587785 -0.000000
vn 0.669131 -0.743145 -0.000000
vn 0.500000 -0.866025 -0.000000
vn 0.309017 -0.951057 -0.000000
vn 0.104528 -0.994522 -0.000000
vn -0.104528 -0.994522 0.000000
vn -0.309017 -0.951057 0.000000
vn -0.500000 -0.866025 0.000000
vn -0.669131 -0.743145 0.000000
vn -0.809017 -0.587785 0.000000
vn -0.913545 -0.406737 0.000000
usemtl Steel_-_Satin
f 2/1/1 62/2/2 1/3/3
f 1/3/3 62/2/2 61/4/4
f 1/5/3 61/6/4 30/7/5
f 30/7/5 61/6/4 90/8/6
f 30/7/5 90/8/6 29/9/7
f 29/9/7 90/8/6 89/10/8
f 29/9/7 89/10/8 28/11/9
f 28/11/9 89/10/8 88/12/10
f 28/11/9 88/12/10 27/13/11
f 27/13/11 88/12/10 87/14/12
f 27/13/11 87/14/12 26/15/13
f 26/15/13 87/14/12 86/16/14
f 26/15/13 86/16/14 25/17/15
f 25/17/15 86/16/14 85/18/16
f 25/17/15 85/18/16 24/19/17
f 24/19/17 85/18/16 84/20/18
f 24/19/17 84/20/18 23/21/19
f 23/21/19 84/20/18 83/22/20
f 23/21/19 83/22/20 22/23/21
f 22/23/21 83/22/20 82/24/22
f 22/23/21 82/24/22 21/25/23
f 21/25/23 82/24/22 81/26/24
f 21/25/23 81/26/24 20/27/25
f 20/27/25 81/26/24 80/28/26
f 20/27/25 80/28/26 19/29/27
f 19/29/27 80/28/26 79/30/28
f 19/29/27 79/30/28 18/31/29
f 18/31/29 79/30/28 78/32/30
f 18/31/29 78/32/30 17/33/31
f 17/33/31 78/32/30 77/34/32
f 17/33/31 77/34/32 16/35/33
f 16/35/33 77/34/32 76/36/34
f 16/35/33 76/36/34 15/37/35
f 15/37/35 76/36/34 75/38/36
f 15/37/35 75/38/36 14/39/37
f 14/39/37 75/38/36 74/40/38
f 14/39/37 74/40/38 13/41/39
f 13/41/39 74/40/38 73/42/40
f 13/41/39 73/42/40 12/43/41
f 12/43/41 73/42/40 72/44/42
f 12/43/41 72/44/42 11/45/43
f 11/45/43 72/44/42 71/46/44
f 11/45/43 71/46/44 10/47/45
f 10/47/45 71/46/44 70/48/46
f 10/47/45 70/48/46 9/49/47
f 9/49/47 70/48/46 69/50/48
f 9/49/47 69/50/48 8/51/49
f 8/51/49 69/50/48 68/52/50
f 8/51/49 68/52/50 7/53/51
f 7/53/51 68/52/50 67/54/52
f 7/53/51 67/54/52 6/55/53
f 6/55/53 67/54/52 66/56/54
f 6/55/53 66/56/54 5/57/55
f 5/57/55 66/56/54 65/58/56
f 5/57/55 65/58/56 4/59/57
f 4/59/57 65/58/56 64/60/58
f 4/59/57 64/60/58 3/61/59
f 3/61/59 64/60/58 63/62/60
f 3/61/59 63/62/60 2/1/1
f 2/1/1 63/62/60 62/2/2
f 32/63/61 90/8/6 31/64/62
f 31/64/62 90/8/6 61/6/4
f 31/65/62 61/4/4 60/66/63
f 60/66/63 61/4/4 62/2/2
f 60/66/63 62/2/2 59/67/64
f 59/67/64 62/2/2 63/62/60
f 59/67/64 63/62/60 58/68/65
f 58/68/65 63/62/60 64/60/58
f 58/68/65 64/60/58 57/69/66
f 57/69/66 64/60/58 65/58/56
f 57/69/66 65/58/56 56/70/67
f 56/70/67 65/58/56 66/56/54
f 56/70/67 66/56/54 55/71/68
f 55/71/68 66/56/54 67/54/52
f 55/71/68 67/54/52 54/72/69
f 54/72/69 67/54/52 68/52/50
f 54/72/69 68/52/50 53/73/70
f 53/73/70 68/52/50 69/50/48
f 53/73/70 69/50/48 52/74/71
f 52/74/71 69/50/48 70/48/46
f 52/74/71 70/48/46 51/75/72
f 51/75/72 70/48/46 71/46/44
f 51/75/72 71/46/44 50/76/73
f 50/76/73 71/46/44 72/44/42
f 50/76/73 72/44/42 49/77/74
f 49/77/74 72/44/42 73/42/40
f 49/77/74 73/42/40 48/78/75
f 48/78/75 73/42/40 74/40/38
f 48/78/75 74/40/38 47/79/76
f 47/79/76 74/40/38 75/38/36
f 47/79/76 75/38/36 46/80/77
f 46/80/77 75/38/36 76/36/34
f 46/80/77 76/36/34 45/81/78
f 45/81/78 76/36/34 77/34/32
f 45/81/78 77/34/32 44/82/79
f 44/82/79 77/34/32 78/32/30
f 44/82/79 78/32/30 43/83/80
f 43/83/80 78/32/30 79/30/28
f 43/83/80 79/30/28 42/84/81
f 42/84/81 79/30/28 80/28/26
f 42/84/81 80/28/26 41/85/82
f 41/85/82 80/28/26 81/26/24
f 41/85/82 81/26/24 40/86/83
f 40/86/83 81/26/24 82/24/22
f 40/86/83 82/24/22 39/87/84
f 39/87/84 82/24/22 83/22/20
f 39/87/84 83/22/20 38/88/85
f 38/88/85 83/22/20 84/20/18
f 38/88/85 84/20/18 37/89/86
f 37/89/86 84/20/18 85/18/16
f 37/89/86 85/18/16 36/90/87
f 36/90/87 85/18/16 86/16/14
f 36/90/87 86/16/14 35/91/88
f 35/91/88 86/16/14 87/14/12
f 35/91/88 87/14/12 34/92/89
f 34/92/89 87/14/12 88/12/10
f 34/92/89 88/12/10 33/93/90
f 33/93/90 88/12/10 89/10/8
f 33/93/90 89/10/8 32/63/61
f 32/63/61 89/10/8 90/8/6
# 90 vertices
# 93 texture params
# 90 normals
# 120 facets

# 1 groups
